<svg enable-background="new 0 0 90 90" version="1.1" viewBox="0 0 90 90" xml:space="preserve" xmlns="http://www.w3.org/2000/svg"><path d="m74.9 14c-0.5-1.7-2.2-3-4.1-3h-1.6c-2.3 0-4.3 1.9-4.3 4.3s1.9 4.3 4.3 4.3h1.6c1.8 0 3.4-1.1 4-2.7 0.9 0.4 1.6 1.3 1.6 2.3v15.4c-10.1 7.1-23.4 7.1-33.5 0v-15.5c0-1.1 0.7-2 1.6-2.3 0.6 1.6 2.2 2.8 4 2.8h1.6c2.3 0 4.3-1.9 4.3-4.3s-2-4.3-4.3-4.3h-1.6c-1.9 0-3.5 1.3-4.1 3-2.4 0.5-4.2 2.6-4.2 5.1v16.3c0 2.9 1.4 5.6 3.7 7.3l14.9 11c0.2 0.2 0.5 0.3 0.8 0.3s0.6-0.1 0.8-0.3l14.9-11c2.3-1.7 3.7-4.4 3.7-7.3v-16.3c0-2.5-1.8-4.6-4.1-5.1zm-4.1 2.8h-1.6c-0.9 0-1.6-0.7-1.6-1.6s0.7-1.6 1.6-1.6h1.6c0.9 0 1.6 0.7 1.6 1.6s-0.7 1.6-1.6 1.6zm-22.3-3.1h1.6c0.9 0 1.6 0.7 1.6 1.6s-0.7 1.6-1.6 1.6h-1.6c-0.9 0-1.6-0.7-1.6-1.6s0.7-1.6 1.6-1.6zm25.2 26.8l-14.1 10.4-14.1-10.4c-0.9-0.7-1.6-1.6-2.1-2.6 4.9 2.9 10.4 4.4 16.2 4.4s11.3-1.5 16.2-4.4c-0.4 1.1-1.1 2-2.1 2.6z"/><path d="m46.2 53.2c-0.7-5.5-5.3-9.6-10.7-9.6-2.5 0-5 0.9-6.9 2.5-1.9-1.6-4.4-2.5-6.9-2.5-5.9 0-10.8 4.9-10.8 11 0 3.5 2.9 8.1 8.6 13.8 4.1 4.1 8.1 7.2 8.3 7.3 0.2 0.2 0.5 0.3 0.8 0.3s0.6-0.1 0.8-0.3c0.3-0.2 7.8-6 12.7-12.2 0.5-0.6 0.4-1.4-0.2-1.9s-1.4-0.4-1.9 0.2c-3.8 4.8-9.4 9.4-11.5 11.1-4.8-3.8-15-13-15-18.3 0-4.6 3.6-8.4 8.1-8.4 2.3 0 4.3 0.9 5.9 2.6 0.3 0.3 0.6 0.4 1 0.4s0.7-0.2 1-0.4c1.6-1.7 3.6-2.6 5.9-2.6 4.1 0 7.5 3.1 8.1 7.3 0.1 0.7 0.8 1.2 1.5 1.1 0.8 0 1.3-0.6 1.2-1.4z"/><path d="m29.6 57.6c-0.2-0.2-0.6-0.4-0.9-0.4s-0.7 0.1-0.9 0.4c-0.2 0.2-0.4 0.6-0.4 0.9s0.1 0.7 0.4 0.9c0.2 0.2 0.6 0.4 0.9 0.4s0.7-0.1 0.9-0.4c0.2-0.2 0.4-0.6 0.4-0.9s-0.1-0.6-0.4-0.9z"/><path d="m59.6 61.4c-0.7 0-1.3 0.6-1.3 1.3v10.3c0 1.8-1.5 3.3-3.3 3.3s-3.3-1.5-3.3-3.3v-10.4c0-3-2.4-5.4-5.4-5.4h-10.6c-0.6-3.3-3.5-5.8-7-5.8-4 0-7.2 3.2-7.2 7.2s3.2 7.2 7.2 7.2c3.5 0 6.4-2.5 7-5.9h10.5c1.5 0 2.8 1.2 2.8 2.8v10.3c0 3.3 2.7 6 6 6s6-2.7 6-6v-10.2c-0.1-0.8-0.7-1.4-1.4-1.4zm-30.9 1.7c-2.5 0-4.5-2-4.5-4.5s2-4.5 4.5-4.5 4.5 2 4.5 4.5-2 4.5-4.5 4.5z"/><path d="m60.5 56.4c-0.2-0.2-0.5-0.4-0.9-0.4s-0.7 0.1-0.9 0.4c-0.2 0.2-0.4 0.6-0.4 0.9s0.1 0.7 0.4 0.9c0.2 0.2 0.6 0.4 0.9 0.4s0.7-0.1 0.9-0.4c0.2-0.2 0.4-0.6 0.4-0.9s-0.1-0.6-0.4-0.9z"/></svg>