<svg enable-background="new 0 0 90 90" version="1.1" viewBox="0 0 90 90" xml:space="preserve" xmlns="http://www.w3.org/2000/svg"><path d="m6.7 17.1v57.7c0 0.7 0.6 1.3 1.3 1.3h47.2c0.7 0 1.3-0.6 1.3-1.3s-0.6-1.3-1.3-1.3h-45.8v-55.1h66.9v34.1c0 0.7 0.6 1.3 1.3 1.3s1.3-0.6 1.3-1.3v-40.6c0-0.7-0.6-1.3-1.3-1.3h-69.5c-0.7 0-1.3 0.6-1.3 1.3v5.2zm2.7-3.9h66.9v2.6h-66.9v-2.6z"/><path d="m72.3 21.1h-59c-0.7 0-1.3 0.6-1.3 1.3v47.2c0 0.7 0.6 1.3 1.3 1.3h38c0.7 0 1.3-0.6 1.3-1.3s-0.6-1.3-1.3-1.3h-1.3v-9.2h5.2c0.7 0 1.3-0.6 1.3-1.3s-0.6-1.3-1.3-1.3h-5.2v-9.2h9.2v3.9c0 0.7 0.6 1.3 1.3 1.3s1.3-0.6 1.3-1.3v-3.9h9.2v1.3c0 0.7 0.6 1.3 1.3 1.3s1.3-0.6 1.3-1.3v-26.2c0-0.8-0.6-1.3-1.3-1.3zm-1.3 11.8h-9.2v-9.2h9.2v9.2zm-21-9.2h9.2v9.2h-9.2v-9.2zm-11.8 0h9.2v9.2h-9.2v-9.2zm0 11.8h9.2v9.2h-9.2v-9.2zm-14.4 32.8h-9.2v-9.2h9.2v9.2zm0-11.8h-9.2v-9.2h9.2v9.2zm0-11.8h-9.2v-9.2h9.2v9.2zm0-11.8h-9.2v-9.2h9.2v9.2zm11.8 35.4h-9.2v-9.2h9.2v9.2zm0-11.8h-9.2v-9.2h9.2v9.2zm0-11.8h-9.2v-9.2h9.2v9.2zm0-11.8h-9.2v-9.2h9.2v9.2zm11.8 35.4h-9.2v-9.2h9.2v9.2zm0-11.8h-9.2v-9.2h9.2v9.2zm2.6-11.8v-9.2h9.2v9.2h-9.2zm11.8 0v-9.2h9.2v9.2h-9.2z"/><path d="m71 54.2c-7.6 0-13.8 6.2-13.8 13.8s6.2 13.8 13.8 13.8 13.8-6.2 13.8-13.8c-0.1-7.7-6.2-13.8-13.8-13.8zm0 25c-6.2 0-11.3-5-11.3-11.3s5-11.3 11.3-11.3c6.2 0 11.3 5 11.3 11.3s-5.1 11.3-11.3 11.3z"/><path d="m73.6 68.6v-6.6c0-0.7-0.6-1.3-1.3-1.3s-1.3 0.6-1.3 1.3v5.4l-6 5.4c-0.5 0.5-0.6 1.3-0.1 1.9 0.5 0.5 1.3 0.6 1.9 0.1l6.8-6.2"/></svg>