<svg enable-background="new 0 0 90 90" version="1.1" viewBox="0 0 90 90" xml:space="preserve" xmlns="http://www.w3.org/2000/svg"><path d="m70.8 76h-18.3c-1.2 0-2.2-1-2.2-2.2v-23.1h-10.7v23.2c0 1.2-1 2.2-2.2 2.2h-18.2c-1.2-0.1-2.2-1.1-2.2-2.3v-25.3c0-1.2 1-2.2 2.2-2.2s2.2 1 2.2 2.2v23.2h14v-23.2c0-1.2 1-2.2 2.2-2.2h15.1c1.2 0 2.2 1 2.2 2.2v23.2h14v-23.2c0-1.2 1-2.2 2.2-2.2s2.2 1 2.2 2.2v25.3c-0.3 1.2-1.3 2.2-2.5 2.2z"/><path d="m70.8 29.7c-1.2 0-2.2-1-2.2-2.2v-3.8h-3.8c-1.2 0-2.2-1-2.2-2.2s1-2.2 2.2-2.2h5.9c1.2 0 2.2 1 2.2 2.2v5.9c0.1 1.3-0.9 2.3-2.1 2.3z"/><path d="m11.1 46.4c-0.6 0-1.2-0.3-1.6-0.8-0.8-0.9-0.7-2.3 0.2-3l34.1-29.1c0.8-0.7 2-0.7 2.8 0l33.8 29.1c0.9 0.8 1 2.1 0.2 3s-2.1 1-3 0.2l-32.5-27.8-32.6 27.9c-0.4 0.3-0.9 0.5-1.4 0.5z"/></svg>