<svg enable-background="new 0 0 90 90" version="1.1" viewBox="0 0 90 90" xml:space="preserve" xmlns="http://www.w3.org/2000/svg"><style type="text/css">.icon-grupo-servicosonline{stroke-width:2;stroke-linejoin:round;stroke-miterlimit:10;}.icon-grupo-servicosonline2{stroke-width:2;stroke-miterlimit:10;}</style><path class="icon-grupo-servicosonline" d="M79.5,68.5V71c0,1.3-1.1,2.4-2.4,2.4H11.9c-1.3,0-2.4-1.1-2.4-2.4v-2.5L18,51.6h53.1L79.5,68.5z"/><line class="icon-grupo-servicosonline" x1="9.5" x2="79.5" y1="68.5" y2="68.5"/><path class="icon-grupo-servicosonline2" d="M71.1,51.6H18V17.5c0-1.2,1-2.1,2.1-2.1h48.8c1.2,0,2.1,1,2.1,2.1V51.6z"/><rect class="icon-grupo-servicosonline2" x="21.6" y="19" width="45.9" height="29"/><polygon class="icon-grupo-servicosonline2" points="56.6 61.3 57.8 64.9 31.3 64.9 32.5 61.3 19.2 61.3 21.6 55.2 67.5 55.2 69.9 61.3"/></svg>