<?xml version="1.0" encoding="UTF-8"?><svg enable-background="new 0 0 90 90" version="1.1" viewBox="0 0 90 90" xml:space="preserve" xmlns="http://www.w3.org/2000/svg"><path d="m35.5 45.2v1.9c0 0.2 0 0.3-0.1 0.4s-0.1 0.2-0.3 0.4l-3.5 3.5c-0.1 0.1-0.2 0.2-0.4 0.3-0.1 0.1-0.3 0.1-0.4 0.1h-21.8c-0.3 0-0.6-0.1-0.8-0.3s-0.3-0.5-0.3-0.8v-11.2c0-0.3 0.1-0.6 0.3-0.8s0.5-0.3 0.8-0.3h25.3c0.3 0 0.6 0.1 0.8 0.3s0.3 0.5 0.3 0.8v5.7zm-1.1-8.5h-25.4c-0.7 0-1.4 0.3-1.9 0.8s-0.8 1.1-0.8 1.9v11.3c0 0.7 0.3 1.4 0.7 1.8v0.1c0.6 0.4 1.3 0.7 2 0.7h21.8c0.4 0 0.7-0.1 1-0.2s0.6-0.3 0.9-0.6l3.5-3.5c0.2-0.3 0.4-0.5 0.6-0.9 0.1-0.3 0.2-0.7 0.2-1v-7.7c0-0.7-0.3-1.4-0.8-1.9-0.4-0.5-1.1-0.8-1.8-0.8"/><path class="st0" d="m86.9 53.6c0 0.8-0.3 1.6-0.9 2.2s-1.3 0.9-2.2 0.9h-25.8c-0.4 0-0.8-0.1-1.2-0.2s-0.7-0.4-1-0.7l-5.2-5.2c-0.3-0.3-0.5-0.6-0.7-1-0.1-0.4-0.2-0.7-0.2-1.2v-7c0-1.3-0.5-2.4-1.3-3.2s-2-1.3-3.2-1.3h-0.2c-1.3 0-2.4 0.5-3.2 1.3s-1.3 2-1.3 3.2v7c0 0.4-0.1 0.8-0.2 1.2s-0.4 0.7-0.7 1l-5.2 5.2c-0.3 0.3-0.6 0.5-1 0.7-0.3 0.1-0.7 0.2-1.2 0.2h-26.1c-0.8 0-1.6-0.3-2.1-0.9-0.6-0.6-0.9-1.3-0.9-2.2v-17.1c0-0.8 0.3-1.6 0.9-2.2 0.5-0.5 1.3-0.9 2.1-0.9h77.7c0.8 0 1.6 0.3 2.2 0.9 0.5 0.6 0.9 1.3 0.9 2.2v17.1zm0.2-20.4c-0.8-0.8-2-1.3-3.2-1.3h-77.8c-1.3 0-2.4 0.5-3.2 1.3s-1.3 2-1.3 3.2v17.1c0 1.3 0.5 2.4 1.3 3.2 0.7 0.7 1.7 1.2 2.8 1.3h26.6c0.5 0 1-0.1 1.5-0.3s1-0.6 1.5-1l5.2-5.2c0.4-0.4 0.8-0.9 1-1.5 0.2-0.5 0.3-1.1 0.3-1.8v-7c0-0.8 0.3-1.6 0.9-2.1s1.3-0.9 2.2-0.9h0.2c0.8 0 1.6 0.3 2.2 0.9 0.5 0.5 0.8 1.1 0.9 1.9v7.2c0 0.6 0.1 1.2 0.3 1.8 0.2 0.5 0.6 1 1 1.5l5.2 5.2c0.4 0.4 0.9 0.8 1.5 1 0.5 0.2 1 0.3 1.5 0.3h26.6c1.1-0.1 2-0.6 2.8-1.3 0.8-0.8 1.3-2 1.3-3.2v-17c0-1.3-0.5-2.4-1.3-3.3"/><path class="st0" d="m82.1 41.8v1.5 7.3c0 0.3-0.1 0.6-0.3 0.8s-0.5 0.3-0.8 0.3h-21.7c-0.2 0-0.3 0-0.4-0.1-0.1 0-0.2-0.1-0.3-0.2l-3.5-3.5c-0.1-0.1-0.2-0.2-0.3-0.4-0.1-0.1-0.1-0.3-0.1-0.4v-7.7c0-0.3 0.1-0.6 0.3-0.8s0.5-0.3 0.8-0.3h25.2c0.3 0 0.6 0.1 0.8 0.3s0.3 0.5 0.3 0.8v2.4zm0.7-4.3c-0.5-0.5-1.1-0.7-1.8-0.7h-25.4c-0.7 0-1.4 0.3-1.9 0.8-0.4 0.4-0.7 1-0.7 1.8v7.7c0 0.4 0.1 0.7 0.2 1s0.3 0.6 0.6 0.9l3.5 3.5c0.2 0.2 0.5 0.4 0.8 0.5s0.7 0.2 1 0.2h21.9c0.7 0 1.4-0.3 1.9-0.8s0.8-1.1 0.8-1.9v-11.1c-0.1-0.8-0.4-1.4-0.9-1.9"/></svg>