<svg enable-background="new 0 0 90 90" version="1.1" viewBox="0 0 90 90" xml:space="preserve" xmlns="http://www.w3.org/2000/svg"><path d="m55.7 50.5c-2.9-2.9-7.6-2.9-10.5 0s-2.9 7.6 0 10.5c1.5 1.5 3.4 2.2 5.3 2.2s3.8-0.7 5.3-2.2c2.8-2.9 2.8-7.6-0.1-10.5zm-1.9 8.6c-1.9 1.9-4.9 1.9-6.8 0s-1.9-4.9 0-6.8c0.9-0.9 2.2-1.4 3.4-1.4s2.5 0.5 3.4 1.4c1.8 1.9 1.8 5 0 6.8z"/><path d="m69.8 50.8c-0.3-0.7-1.1-0.9-1.8-0.6s-0.9 1.1-0.6 1.8c1.3 2.6 1.9 5.4 1.9 8.3v7.9c0 4.5-3.7 8.2-8.2 8.2h-9.3c-1.2 0-2.3-1-2.3-2.3s1-2.3 2.3-2.3h7.4c3.1 0 5.6-2.5 5.6-5.6v-4.2c0-0.7-0.6-1.3-1.3-1.3s-1.3 0.6-1.3 1.3v4.3c0 1.6-1.3 2.9-2.9 2.9h-5.8l5.5-5.5c4.5-4.5 4.5-11.9 0-16.5-4.5-4.5-11.9-4.5-16.5 0l-11.4 11.4c-0.9 0.9-1.6 1.9-2.1 3-0.3 0.7-0.1 1.5 0.6 1.8s1.5 0.1 1.8-0.6c0.4-0.8 1-1.6 1.7-2.3l5-5c-0.5 3.5-0.2 7.1 0.8 10.5 0.2 0.6 0.7 0.9 1.3 0.9 0.1 0 0.3 0 0.4-0.1 0.7-0.2 1.1-1 0.9-1.7-1.5-4.2-1.5-8.8 0-13.1l2.9-2.9c3.5-3.5 9.2-3.5 12.7 0s3.5 9.2 0 12.7l-11.5 11.4c-0.7 0.8-1.6 1.4-2.5 1.8 0.1-0.3 0.1-0.6 0.1-0.9 0-2.7-2.2-4.9-4.9-4.9h-7.4c-1.6 0-2.9-1.3-2.9-2.9v-5.1c0-0.7-0.6-1.3-1.3-1.3s-1.3 0.6-1.3 1.3v5.1c0 3.1 2.5 5.6 5.6 5.6h7.4c1.2 0 2.3 1 2.3 2.3s-1 2.3-2.3 2.3h-9.3c-4.5 0-8.2-3.7-8.2-8.2v-7.9c0-10.4 8.5-18.9 18.9-18.9h10.7c3.6 0 7.1 1 10.1 2.9 0.2 0.1 0.5 0.2 0.7 0.2 0.4 0 0.9-0.2 1.1-0.6 0.4-0.6 0.2-1.4-0.4-1.8-2.4-1.5-5-2.5-7.8-3 3.9-2.6 6.5-7 6.5-11.9v-0.4c-0.1-8.9-7.1-15.9-15.7-15.9s-15.6 7-15.6 15.6v0.4c0 5 2.6 9.4 6.5 11.9-10.1 1.8-17.8 10.6-17.8 21.3v7.9c0 6 4.9 10.9 10.9 10.9h9.3c0.8 0 1.6-0.2 2.3-0.6 2.4-0.3 4.7-1.3 6.5-2.9 0.6 2 2.5 3.5 4.7 3.5h9.3c6 0 10.9-4.9 10.9-10.9v-7.9c-0.1-3.3-0.8-6.4-2.2-9.4zm-24.8-12.2c-4.1 0-7.4-3.3-7.4-7.4v-3.5c1.1-0.2 2.8-0.4 4.6-0.9 3-0.7 5.1-1.6 6.6-2.7 1.1 1.8 2.6 2.8 3.6 3.3v3.7c0 4.2-3.3 7.5-7.4 7.5zm-12.9-11.6v-0.4c0-7.1 5.8-12.9 12.9-12.9s12.9 5.8 12.9 12.9v0.4c0 3.4-1.5 6.5-3.9 8.7 0.7-1.4 1.1-2.9 1.1-4.5v-4.6c0-0.6-0.4-1.1-1-1.3-0.1 0-2.8-0.8-3.6-3.8-0.1-0.5-0.6-0.9-1.1-0.9-0.5-0.1-1 0.2-1.3 0.6-1.4 2.2-8.1 3.7-12 4.1-0.7 0.1-1.2 0.6-1.2 1.3v4.6c0 1.6 0.4 3.1 1.1 4.5-2.4-2.2-3.9-5.3-3.9-8.7z"/><path d="m47.2 33.6c-0.5-0.5-1.4-0.5-1.9 0-0.2 0.2-0.4 0.2-0.6 0-0.5-0.5-1.4-0.5-1.9 0s-0.5 1.4 0 1.9c0.6 0.6 1.4 0.9 2.2 0.9s1.6-0.3 2.2-0.9c0.5-0.6 0.5-1.4 0-1.9z"/><path d="m50.6 56.3c-0.2 0-0.4-0.2-0.4-0.4 0-0.7-0.6-1.3-1.3-1.3s-1.3 0.6-1.3 1.3c0 1.7 1.3 3 3 3 0.7 0 1.3-0.6 1.3-1.3s-0.6-1.3-1.3-1.3z"/><path d="m42.5 29.3c-0.2-0.2-0.6-0.4-0.9-0.4s-0.7 0.1-0.9 0.4c-0.2 0.2-0.4 0.6-0.4 0.9s0.1 0.7 0.4 0.9c0.2 0.2 0.6 0.4 0.9 0.4 0.4 0 0.7-0.1 0.9-0.4 0.2-0.2 0.4-0.6 0.4-0.9s-0.1-0.6-0.4-0.9z"/><path d="m49.4 29.3c-0.2-0.2-0.6-0.4-0.9-0.4s-0.7 0.1-0.9 0.4c-0.2 0.2-0.4 0.6-0.4 0.9s0.1 0.7 0.4 0.9c0.2 0.2 0.6 0.4 0.9 0.4s0.7-0.1 0.9-0.4c0.2-0.2 0.4-0.6 0.4-0.9s-0.2-0.6-0.4-0.9z"/></svg>