<svg enable-background="new 0 0 90 90" version="1.1" viewBox="0 0 90 90" xml:space="preserve" xmlns="http://www.w3.org/2000/svg"><path d="m45 47.9c-7.5 0-14.6-0.6-20-1.6-6.3-1.2-9.3-2.9-9.3-5.2 0-1.2 0.8-2.2 2.4-3.1 0.7-0.4 1.5-0.1 1.9 0.6s0.1 1.5-0.6 1.9c-0.5 0.3-0.8 0.5-0.8 0.6 1.1 1.5 10.5 4 26.5 4s25.4-2.5 26.5-4c-0.1-0.1-0.4-0.4-1-0.7-0.7-0.4-1-1.2-0.6-1.9s1.2-1 1.9-0.6c1.7 0.9 2.6 1.9 2.6 3.2 0 2.3-3 4-9.3 5.2-5.6 1.1-12.7 1.6-20.2 1.6z"/><path d="m45 78.6c-6.3 0-12.8-2.1-12.8-6.1 0-0.5 0.1-1.1 0.4-1.7-10.4-5.2-17.1-16.5-17.1-29.2 0-0.8 0.6-1.4 1.4-1.4s1.4 0.6 1.4 1.4c0 12 6.9 23 17.1 27.4 0.5 0.2 0.8 0.6 0.8 1.1 0.1 0.5-0.1 1-0.5 1.3-0.2 0.2-0.7 0.6-0.7 1.1 0 1.3 4 3.3 10 3.3s10-2 10-3.3c0-0.4-0.5-0.9-0.8-1.1-0.4-0.3-0.6-0.8-0.5-1.3s0.4-0.9 0.8-1.1c10.2-4.3 17.1-15.3 17.1-27.4 0-0.8 0.6-1.4 1.4-1.4s1.4 0.6 1.4 1.4c0 12.7-6.6 23.9-17.1 29.2 0.3 0.6 0.4 1.2 0.4 1.7 0.1 4-6.4 6.1-12.7 6.1z"/><path d="m50.5 47.8h-0.2c-0.8-0.1-1.3-0.8-1.2-1.5 1.4-12.3 0.2-17.6-1.1-18.4-0.9-0.5-1.4-0.4-1.8-0.2-1.6 0.7-2.9 3.8-3.3 5.6-0.1 0.6-0.6 1-1.2 1.1s-1.1-0.2-1.4-0.8c-0.1-0.1-1.9-3.5-5.7-3-0.9 0.1-1.6 0.5-2.1 1.1-0.9 1.2-0.9 3.3-0.8 3.9 0.1 0.5-0.1 1-0.5 1.3s-0.9 0.4-1.4 0.2c-1.7-0.6-3.5-0.4-4.4 0.4-0.5 0.5-0.7 1.1-0.4 2 0.6 2.1 1.4 2.8 2.6 3.8 0.2 0.2 0.5 0.4 0.7 0.6 0.6 0.5 0.6 1.4 0.1 2s-1.4 0.6-2 0.1c-0.2-0.2-0.4-0.4-0.6-0.5-1.2-1-2.6-2.2-3.5-5.2-0.5-1.8-0.1-3.6 1.2-4.8s3.2-1.7 5.3-1.5c0.1-1.2 0.4-2.8 1.3-4.1 0.9-1.2 2.3-2 4-2.2 3.2-0.4 5.5 0.9 6.9 2.3 0.8-1.8 2.1-4.1 4.1-4.9 0.9-0.4 2.5-0.7 4.3 0.4 1.1 0.5 4.6 2.5 2.5 21-0.1 0.7-0.7 1.3-1.4 1.3z"/><path d="m62.1 46.5c-0.3 0-0.6-0.1-0.9-0.3-0.6-0.5-0.7-1.4-0.2-2 2.2-2.5 7.8-10.2 7.6-14.9-0.1-3-2.5-5-4.6-5.6-0.9-0.3-3.3-0.6-4.7 1.6-1.8 2.9-4.7 8.4-6.8 12.6-0.3 0.7-1.2 1-1.9 0.6-0.7-0.3-1-1.2-0.6-1.9 2.1-4.2 5-9.8 6.9-12.8 1.7-2.6 4.6-3.7 7.8-2.8 3.8 1 6.5 4.4 6.7 8.2 0.3 6.8-7.9 16.4-8.3 16.8-0.2 0.4-0.6 0.5-1 0.5z"/><path d="m66.8 23.7s-0.1 0 0 0c-0.9-0.1-1.5-0.7-1.4-1.5l0.7-10.3c0.1-0.8 0.7-1.4 1.5-1.3s1.4 0.7 1.3 1.5l-0.7 10.3c-0.1 0.7-0.7 1.3-1.4 1.3z"/><path d="m67 24.8c-0.4 0-0.7-0.1-1-0.4-0.5-0.6-0.5-1.4 0-2l4.9-4.7c0.6-0.5 1.4-0.5 2 0 0.5 0.6 0.5 1.4 0 2l-4.9 4.7c-0.3 0.3-0.6 0.4-1 0.4z"/><path d="m61.5 33.3c-0.4 0-0.8-0.2-1-0.5-0.6-0.7-2.6-2.4-4-1.9-0.7 0.3-1.5-0.1-1.8-0.8s0.1-1.5 0.8-1.8c3.5-1.3 7 2.5 7.1 2.6 0.5 0.6 0.5 1.5-0.1 2-0.3 0.3-0.6 0.4-1 0.4z"/><path d="m63.6 42.8c-0.4 0-0.9-0.2-1.2-0.6-1.5-2.1-3.1-2-3.2-2-0.8 0.1-1.5-0.4-1.6-1.2s0.4-1.5 1.2-1.6c0.1 0 3.4-0.5 5.9 3.2 0.4 0.6 0.3 1.5-0.4 1.9-0.2 0.2-0.5 0.3-0.7 0.3z"/><path d="m35.9 47.2c-0.5 0-1-0.3-1.3-0.8l-2.6-5.6c-0.3-0.7 0-1.5 0.7-1.9 0.7-0.3 1.5 0 1.9 0.7l2.6 5.6c0.3 0.7 0 1.5-0.7 1.9-0.2 0-0.4 0.1-0.6 0.1z"/><path d="m43.5 46.8c-0.7 0-1.3-0.5-1.4-1.2l-1.1-8.1c-0.1-0.8 0.4-1.5 1.2-1.6s1.5 0.4 1.6 1.2l1.1 8.1c0.1 0.8-0.4 1.5-1.2 1.6h-0.2z"/><path d="m45.4 73.7c-6.2 0-10.9-2-11.2-2.2-0.7-0.3-1-1.1-0.7-1.8s1.1-1 1.8-0.7c0.1 0.1 10.5 4.4 19.9-0.3 0.7-0.3 1.5-0.1 1.9 0.6 0.3 0.7 0.1 1.5-0.6 1.9-3.8 1.9-7.7 2.5-11.1 2.5z"/></svg>