<?xml version="1.0" encoding="utf-8"?>
<svg version="1.1" xmlns="http://www.w3.org/2000/svg" xmlns:xlink="http://www.w3.org/1999/xlink" x="0px" y="0px" viewBox="0 0 90 90" style="enable-background:new 0 0 90 90;" xml:space="preserve">
<path d="m70.7 75.7c0 0.7-0.3 1.4-0.8 1.9s-1.2 0.8-1.9 0.8h-21.1l1.6-5.9 1.5-3c3-5.2 5-8.8 7.1-16.4 0.2 0.1 0.5 0.1 0.7 0.2 0.4 0.1 0.8 0.2 1.3 0.3l0.6 0.2 1.3 0.4s5.6 2.4 7.3 4c1.5 1.5 2.4 3.2 2.4 5.2v12.3zm-25.7 2.7h-0.4l-1.5-6.1c0.2-1.2 0.3-2.5 0.5-3.8 0.3-2.4 0.6-4.7 1-7.3v-0.6c0-0.2-0.1-0.3-0.2-0.5l-0.4-1 1-1.9 0.1 0.1 0.1-0.1 1 1.9-0.4 1c-0.1 0.2-0.2 0.3-0.2 0.5-0.1 0.2-0.1 0.4 0 0.6 0.3 2.5 0.6 4.9 0.9 7.3 0.2 1.3 0.3 2.5 0.5 3.8l-1.5 6.1h-0.5zm-23 0c-0.7 0-1.4-0.3-1.9-0.8s-0.8-1.2-0.8-1.9v-12.4c0-2 0.9-3.7 2.4-5.2 1.7-1.7 7.3-4 7.3-4l1.3-0.4 0.6-0.2c0.4-0.1 0.8-0.2 1.3-0.3 0.2-0.1 0.5-0.1 0.7-0.2 2.1 7.6 4.1 11.2 7.1 16.5l1.5 3 1.6 5.9h-21.1zm21-17.8c0 0.1 0.1 0.1 0.1 0.2s0.1 0.2 0.1 0.2v0.1c-0.3 2.7-0.6 4.9-0.9 7.2l-0.3 2c-0.3-0.5-0.6-1-0.9-1.6-2.7-4.7-4.5-8-6.4-14.3l7 6.8c0.3 0.3 0.7 0.3 0.9 0l0.1-0.1 0.3-0.5zm-7.1-9.2l8.1 4.6-1.5 2.7-0.6 1-7.6-7.4 1.6-0.9zm0-9.8c-1.3-1.6-2.4-3.5-3.1-5.5-0.5-1.4-0.9-3-1-4.5l0.8-3.4c0.2-0.7 0.3-1.3 0.3-1.9 0.1-0.6 0.1-1.2 0.1-1.7 0-0.7 0-1.4 0.1-2 0.1-0.5 0.3-1.1 0.6-1.5 0.5-0.7 1.2-0.9 2.1-0.9s2.1 0.3 3.3 0.6c1.8 0.5 3.7 1 5.8 1s4.1-0.5 5.8-1c1.2-0.3 2.4-0.6 3.3-0.6 0.8 0 1.5 0.2 2.1 0.9 0.4 0.5 0.5 1 0.6 1.5 0.1 0.6 0.1 1.3 0.1 2 0 0.6 0 1.2 0.1 1.7 0.1 0.6 0.2 1.3 0.3 1.9l0.8 3.4c-0.1 1.5-0.5 3-1 4.5-0.7 2-1.8 3.9-3.1 5.5-1.3 1.7-2.8 3-4.4 4-1.3 0.9-2.9 1.4-4.5 1.4s-3.2-0.5-4.7-1.4c-1.6-0.9-3.1-2.3-4.4-4m9.1-30c12.5 0 13.4 5.4 13.4 12.7 0-0.7 0-1.3-0.2-1.9-0.1-0.8-0.4-1.5-0.9-2.1-0.8-1-1.9-1.4-3.1-1.4-1.1 0-2.3 0.3-3.7 0.7-1.7 0.4-3.5 0.9-5.5 0.9s-3.8-0.5-5.5-0.9c-1.3-0.3-2.5-0.7-3.7-0.7s-2.3 0.3-3.1 1.4c-0.5 0.6-0.8 1.3-0.9 2.1-0.1 0.6-0.1 1.3-0.2 1.9 0-7.3 0.9-12.7 13.4-12.7m-8.1 36.7c0.1-1.1 0.2-2.1 0.2-3v-0.3c0.8 0.7 1.6 1.3 2.5 1.8 1.7 1 3.5 1.6 5.3 1.6s3.6-0.6 5.3-1.6c0.9-0.5 1.7-1.1 2.5-1.8v0.3c0.1 0.9 0.1 1.9 0.2 2.9v0.1 0.1c0 0.1 0 0.2 0.1 0.3 0 0.4 0.1 0.8 0.1 1.2 0 0.2 0.1 0.3 0.1 0.5l-8.1 4.6h-0.1-0.1l-8.3-4.7c0-0.2 0.1-0.3 0.1-0.5 0.1-0.3 0.1-0.7 0.1-1.2 0-0.1 0.1-0.2 0.1-0.3 0.1 0 0.1 0 0 0m10.1 12.3l0.3 0.6c0 0.1 0.1 0.1 0.1 0.1 0.3 0.3 0.7 0.3 0.9 0l7-6.8c-1.9 6.2-3.8 9.6-6.4 14.3-0.3 0.5-0.6 1-0.9 1.6l-0.3-2c-0.3-2.3-0.6-4.6-0.9-7.2v-0.1c0-0.1 0-0.1 0.1-0.2 0-0.2 0-0.2 0.1-0.3zm7.1-9.2l1.5 1-7.6 7.3-0.6-1-1.4-2.7 8.1-4.6zm15.2 5.8c-2.1-2.1-5.1-3.4-7.8-4.4 0 0-2.3-0.7-2.6-0.8-0.4-0.1-1.5-0.4-1.9-0.4l-2.3-1.4c0-0.2-0.1-0.4-0.1-0.6s0-0.3-0.1-0.5l-0.1-1.4c-0.1-0.8-0.1-1.8-0.2-2.6 0-0.5-0.1-1-0.1-1.4 0.4-0.4 0.7-0.8 1.1-1.3 1.4-1.7 2.5-3.8 3.3-5.9 0.6-1.6 1-3.2 1.1-4.9 0.1-1.6 0.1-3.7 0.1-5.3 0.1-9.1 0.3-16-14.7-16s-14.8 7-14.7 16.1c0 1.6 0 3.7 0.1 5.3s0.5 3.3 1.1 4.9c0.8 2.2 1.9 4.2 3.3 5.9 0.3 0.4 0.7 0.9 1.1 1.3 0 0.4-0.1 0.9-0.1 1.4-0.1 0.8-0.1 1.8-0.2 2.6l-0.1 1.4c0 0.2 0 0.3-0.1 0.5 0 0.2-0.1 0.4-0.1 0.6l-2.3 1.4c-0.4 0.1-1.5 0.4-1.9 0.4-0.4 0.1-2.6 0.8-2.6 0.8-2.8 0.9-5.7 2.3-7.8 4.4-1.7 1.6-2.7 3.6-2.7 6v12.4c0 1.1 0.5 2.1 1.2 2.8s1.7 1.2 2.8 1.2h46c1.1 0 2.1-0.5 2.8-1.2s1.2-1.7 1.2-2.8v-12.4c0-2.4-1-4.4-2.7-6.1"/></svg>