<svg enable-background="new 0 0 90 90" version="1.1" viewBox="0 0 90 90" xml:space="preserve" xmlns="http://www.w3.org/2000/svg"><path d="m55.9 43.9c4.3-5.1 7.1-12.4 7.1-18-0.1-9.9-8.1-17.9-18-17.9s-17.9 8-17.9 17.9c0 5.6 2.7 13 7.1 18-26.3 8.8-23.6 33.1-22.4 38.1h66.4c3.9-17-6.4-33.4-22.3-38.1zm-10.9-33.5c6.3 0 11.7 3.7 14.1 9.1-6 4.1-12-0.5-12-0.5-4.2-2.5-9.5-2.2-13.5 0.6l-3.6 2.5c1.7-6.7 7.8-11.7 15-11.7zm-15.5 15.5v-0.6l5.4-3.8c3.2-2.3 7.5-2.4 10.9-0.5 0 0 6.7 5.1 14 0.8 0.3 1.3 0.6 2.7 0.6 4.1 0 8.5-6.9 21.5-15.5 21.5s-15.4-13-15.4-21.5zm46.7 53.7h-62.4c-1.8-11.2 2.8-22 11.2-28.4 0.5 3.4 1.5 6.6 3 9.6-3.7 2.3-5.4 7-3.9 11.2l2 5.6 4.5-1.6-0.8-2.3-2.3 0.8-1.2-3.4c-1.3-3.7 0.7-7.8 4.4-9.1s7.8 0.7 9.1 4.4l1.2 3.4-2.3 0.8 0.8 2.3 4.5-1.6-2-5.6c-1.7-4.9-7-7.5-11.9-5.9-1.5-3.2-2.5-6.6-2.9-10.2 2.7-1.7 5.6-3 8.8-3.8 2.6 2.4 5.6 3.9 8.9 3.9s6.3-1.5 8.9-3.9c3.8 0.9 7.2 2.5 10.2 4.6-0.7 3.2-1.9 6.2-3.5 9-0.4-0.1-0.8-0.2-1.3-0.2-2.6 0-4.8 2.1-4.8 4.8s2.1 4.8 4.8 4.8c2.6 0 4.8-2.1 4.8-4.8 0-1.3-0.5-2.5-1.4-3.4 1.6-2.7 2.7-5.6 3.5-8.6 7.8 6.7 11.8 17 10.1 27.6zm-14.5-15.5c0 1.3-1.1 2.4-2.4 2.4s-2.4-1.1-2.4-2.4 1.1-2.4 2.4-2.4c1.4 0 2.4 1.1 2.4 2.4z"/></svg>