<svg enable-background="new 0 0 90 90" version="1.1" viewBox="0 0 90 90" xml:space="preserve" xmlns="http://www.w3.org/2000/svg"><path d="m73.3 32.2l-12.1 4.1 2.4-8.3 12-4.1-2.3 8.3zm-11.3 5.9l12-4.1 6.9 5.1-12.1 4.1-6.8-5.1zm-8 2c-1.1 2.3-9.8 6.1-14 7.5-1.6 0.5-4.5 0.1-5-1.4-0.2-0.5 0-1.2 0.2-1.6 0.5-1.1 1.8-2.2 2.9-2.6 1.7-0.6 9.3-2.9 13.6-2.9 1.7 0 2.2 0.3 2.3 0.5s0.1 0.4 0 0.5m-27.2 10.3v-0.3l5.6-1.9c0.2 0.7 0.3 1.4 0.3 2.2 0 5-4 9-9 9s-9-4-9-9 4-9 9-9c3.5 0 6.6 2 8 5l-5.7 1.9c-0.6-0.6-1.4-1.1-2.3-1.1-1.7 0-3.1 1.4-3.1 3.1s1.4 3.1 3.1 3.1c1.7 0.2 3.1-1.2 3.1-3m10.2-10c-1.5 0.7-2.8 1.9-3.5 3.4-0.2 0.4-0.3 0.8-0.4 1.2-1.9-3.3-5.4-5.5-9.5-5.5-6 0-11 4.9-11 10.9s4.9 10.9 11 10.9c6 0 11-4.9 11-10.9 0-0.7-0.1-1.3-0.2-1.9 1.1 0.9 2.7 1.3 4.1 1.3 0.6 0 1.3-0.1 1.8-0.2v0.9c0 9.2-7.5 16.7-16.7 16.7s-16.6-7.6-16.6-16.8 7.5-16.7 16.7-16.7c5.3 0 10.2 2.5 13.3 6.7m38.3-7.8l3.2-11.6-16.5 5.5-3 10.6-3.6 1.2c-1-1-2.9-1-3.6-1-3.8 0-9.9 1.6-12.9 2.5-3.5-5-9.2-8-15.3-8-10.2 0-18.6 8.3-18.6 18.6s8.4 18.7 18.7 18.7 18.7-8.4 18.7-18.7c0-0.5 0-1-0.1-1.6 3.5-1.4 12-4.9 13.5-7.9 0.1-0.3 0.2-0.5 0.2-0.8l3.8-1.3 8.6 6.5 16.6-5.5-9.7-7.2z"/></svg>
