<svg enable-background="new 0 0 561 561" version="1.1" viewBox="0 0 561 561" xml:space="preserve" xmlns="http://www.w3.org/2000/svg"><path d="m280.5 89.25c-127.5 0-237.15 79.05-280.5 191.25 43.35 112.2 153 191.25 280.5 191.25s237.15-79.05 280.5-191.25c-43.35-112.2-153-191.25-280.5-191.25zm0 318.75c-71.4 0-127.5-56.1-127.5-127.5s56.1-127.5 127.5-127.5 127.5 56.1 127.5 127.5-56.1 127.5-127.5 127.5zm0-204c-43.35 0-76.5 33.15-76.5 76.5s33.15 76.5 76.5 76.5 76.5-33.15 76.5-76.5-33.15-76.5-76.5-76.5z"/></svg>