<?xml version="1.0" encoding="iso-8859-1"?>
<!-- Generator: Adobe Illustrator 22.1.0, SVG Export Plug-In . SVG Version: 6.00 Build 0)  -->
<svg version="1.1" id="Layer_1" xmlns="http://www.w3.org/2000/svg" xmlns:xlink="http://www.w3.org/1999/xlink" x="0px" y="0px"
	 viewBox="-49 141 512 512" style="enable-background:new -49 141 512 512;" xml:space="preserve">
<g>
	<path style="fill:#FFFFFF;" d="M366.312,497l14.344-14.344l-11.312-11.312L355,485.688l-15.096-15.096
		C352.032,448.76,359,423.688,359,397c0-2.28-0.24-4.496-0.344-6.752C396.248,381.408,423,348.128,423,309h-16
		c0,30.896-20.624,57.32-49.904,65.192C346.032,301.184,283.04,245,207,245c-2.28,0-4.496,0.24-6.752,0.344
		C191.408,207.752,158.128,181,119,181v16c30.896,0,57.32,20.624,65.192,49.904C111.184,257.968,55,320.96,55,397
		c0,2.28,0.24,4.496,0.344,6.752C17.752,412.592-9,445.872-9,485H7c0-30.896,20.624-57.32,49.904-65.192
		C67.968,492.816,130.96,549,207,549c26.688,0,51.76-6.968,73.584-19.096L295.68,545l-14.344,14.344l11.312,11.312l14.344-14.344
		L383.4,632.72c7.92,7.92,18.456,12.28,29.656,12.28C436.184,645,455,626.184,455,603.064c0-11.2-4.36-21.736-12.28-29.656
		L366.312,497z M341.384,377.16l-15.768,2.624C317.232,321.76,267.312,277,207,277c-0.408,0-0.808,0.056-1.216,0.064l-2.64-15.864
		c1.296-0.04,2.552-0.2,3.856-0.2C275.24,261,331.728,311.56,341.384,377.16z M207,293c57.344,0,104,46.656,104,104
		s-46.656,104-104,104s-104-46.656-104-104S149.656,293,207,293z M187.16,262.616l2.624,15.768C131.76,286.768,87,336.688,87,397
		c0,0.408,0.056,0.808,0.064,1.216l-15.864,2.64C71.16,399.56,71,398.304,71,397C71,328.76,121.56,272.272,187.16,262.616z
		 M72.616,416.84l15.768-2.624C96.768,472.24,146.688,517,207,517c66.168,0,120-53.832,120-120c0-0.408-0.056-0.808-0.064-1.216
		l15.864-2.64c0.04,1.296,0.2,2.552,0.2,3.856c0,74.992-61.008,136-136,136C138.76,533,82.272,482.44,72.616,416.84z
		 M294.44,521.128c14.224-10.048,26.64-22.464,36.688-36.688l12.56,12.56L307,533.688L294.44,521.128z M413.064,629
		c-6.928,0-13.448-2.696-18.344-7.592L318.312,545L355,508.312l76.408,76.408c4.896,4.896,7.592,11.416,7.592,18.344
		C439,617.368,427.368,629,413.064,629z"/>
	<path style="fill:#FFFFFF;" d="M383,293c39.704,0,72-32.296,72-72s-32.296-72-72-72s-72,32.296-72,72S343.296,293,383,293z
		 M359,271.52V261c0-13.232,10.768-24,24-24s24,10.768,24,24v10.52c-7.288,3.472-15.408,5.48-24,5.48S366.288,274.992,359,271.52z
		 M367,205c0-8.824,7.176-16,16-16s16,7.176,16,16s-7.176,16-16,16S367,213.824,367,205z M383,165c30.872,0,56,25.128,56,56
		c0,15.256-6.152,29.088-16.08,39.2c-0.272-13.448-7.144-25.312-17.568-32.36C411.288,222.032,415,213.952,415,205
		c0-17.648-14.352-32-32-32s-32,14.352-32,32c0,8.952,3.712,17.032,9.648,22.84c-10.432,7.056-17.304,18.912-17.568,32.36
		C333.152,250.088,327,236.256,327,221C327,190.128,352.128,165,383,165z"/>
	<path style="fill:#FFFFFF;" d="M31,293c39.704,0,72-32.296,72-72s-32.296-72-72-72s-72,32.296-72,72S-8.704,293,31,293z M7,271.52
		V261c0-13.232,10.768-24,24-24s24,10.768,24,24v10.52c-7.288,3.472-15.408,5.48-24,5.48S14.288,274.992,7,271.52z M15,205
		c0-8.824,7.176-16,16-16s16,7.176,16,16s-7.176,16-16,16S15,213.824,15,205z M31,165c30.872,0,56,25.128,56,56
		c0,15.256-6.152,29.088-16.08,39.2c-0.272-13.448-7.144-25.312-17.568-32.36C59.288,222.032,63,213.952,63,205
		c0-17.648-14.352-32-32-32s-32,14.352-32,32c0,8.952,3.712,17.032,9.648,22.84C-1.776,234.896-8.648,246.752-8.92,260.2
		C-18.848,250.088-25,236.256-25,221C-25,190.128,0.128,165,31,165z"/>
	<path style="fill:#FFFFFF;" d="M31,501c-39.704,0-72,32.296-72,72s32.296,72,72,72s72-32.296,72-72S70.704,501,31,501z M7,623.52
		V613c0-13.232,10.768-24,24-24s24,10.768,24,24v10.52c-7.288,3.472-15.408,5.48-24,5.48S14.288,626.992,7,623.52z M15,557
		c0-8.824,7.176-16,16-16s16,7.176,16,16s-7.176,16-16,16S15,565.824,15,557z M70.92,612.2c-0.272-13.448-7.144-25.312-17.568-32.36
		C59.288,574.032,63,565.952,63,557c0-17.648-14.352-32-32-32s-32,14.352-32,32c0,8.952,3.712,17.032,9.648,22.84
		C-1.776,586.896-8.648,598.752-8.92,612.2C-18.848,602.088-25,588.256-25,573c0-30.872,25.128-56,56-56s56,25.128,56,56
		C87,588.256,80.848,602.088,70.92,612.2z"/>
	<path style="fill:#FFFFFF;" d="M119,381v40v8v8h176v-8v-8v-72h-48v72h-16V317h-48v104h-16v-40H119z M135,397h16v24h-16V397z
		 M263,365h16v56h-16V365z M199,333h16v88h-16V333z"/>
</g>
</svg>
