<svg width="512px" height="512px" enable-background="new 0 0 511.999 511.999" version="1.1" viewBox="0 0 511.999 511.999" xml:space="preserve" xmlns="http://www.w3.org/2000/svg">
<path d="m289.91 74.743c5.081-6.945 8.091-15.498 8.091-24.743v-8c0-23.159-18.841-42-42-42s-42 18.841-42 42v8c0 9.245 3.01 17.798 8.091 24.743-31.161 8.718-54.091 37.351-54.091 71.257v76c0 16.542 13.458 30 30 30h8.063v132c0 5.522 4.477 10 10 10h80c5.523 0 10-4.478 10-10v-132h7.937c16.542 0 30-13.458 30-30v-76c0-33.906-22.93-62.539-54.091-71.257zm-55.909-32.743c0-12.131 9.869-22 22-22s22 9.869 22 22v8c0 12.131-9.869 22-22 22s-22-9.869-22-22v-8zm52.064 332h-19.944v-107.5c0-0.486-0.046-0.959-0.113-1.426v-29.074c0-5.523-4.477-10-10-10s-10 4.477-10 10v138h-19.943v-164.5h60v164.5zm37.936-152c0 5.514-4.486 10-10 10h-7.937v-44.5c0-5.523-4.477-10-10-10s-10 4.477-10 10v2h-60v-39.5c0-5.523-4.477-10-10-10s-10 4.477-10 10v82h-8.063c-5.514 0-10-4.486-10-10v-76c0-29.776 24.224-54 54-54h28c29.776 0 54 24.224 54 54v76z" fill="#00913d"/>
<path d="m507.31 419.52l-53.167-33.294c-3.083-1.931-6.97-2.033-10.151-0.273-3.182 1.762-5.156 5.112-5.156 8.749v3.294h-83c-5.523 0-10 4.478-10 10s4.477 10 10 10h93c4.026 0 7.496-2.379 9.082-5.808l25.243 15.808-25.244 15.808c-1.585-3.429-5.056-5.808-9.082-5.808h-93c-5.523 0-10 4.478-10 10s4.477 10 10 10h83v3.294c0 3.637 1.975 6.987 5.156 8.749 1.509 0.835 3.178 1.251 4.843 1.251 1.846 0 3.688-0.51 5.308-1.524l53.167-33.294c2.919-1.828 4.692-5.031 4.692-8.476s-1.772-6.647-4.691-8.476z" fill="#00913d"/>
<path d="m298.04 443.99c-1.762-3.181-5.112-5.156-8.749-5.156h-3.294v-12.5c0-5.522-4.477-10-10-10s-10 4.478-10 10v22.5c0 4.025 2.379 7.496 5.808 9.082l-15.808 25.243-15.808-25.243c3.429-1.586 5.808-5.057 5.808-9.082v-22.5c0-5.522-4.477-10-10-10s-10 4.478-10 10v12.5h-3.294c-3.637 0-6.987 1.975-8.749 5.156s-1.657 7.068 0.273 10.151l33.294 53.167c1.829 2.919 5.031 4.692 8.476 4.692s6.647-1.773 8.476-4.692l33.294-53.167c1.93-3.083 2.035-6.97 0.273-10.151z" fill="#00913d"/>
<path d="m163.24 440.93c-1.87-1.861-4.44-2.93-7.07-2.93s-5.21 1.069-7.07 2.93c-1.87 1.86-2.93 4.44-2.93 7.07s1.06 5.21 2.93 7.069c1.86 1.86 4.44 2.931 7.07 2.931s5.2-1.07 7.07-2.931c1.86-1.859 2.93-4.439 2.93-7.069s-1.07-5.21-2.93-7.07z" fill="#00913d"/>
<path d="m156.17 398h-83v-3.294c0-3.637-1.975-6.987-5.156-8.749-3.182-1.76-7.069-1.656-10.151 0.273l-53.168 33.294c-2.919 1.829-4.692 5.032-4.692 8.476s1.773 6.647 4.692 8.476l53.167 33.294c1.621 1.015 3.462 1.524 5.308 1.524 1.666 0 3.334-0.416 4.843-1.251 3.182-1.762 5.156-5.112 5.156-8.749v-3.294h40.5c5.523 0 10-4.478 10-10s-4.476-10-9.999-10h-50.5c-4.026 0-7.496 2.379-9.082 5.808l-25.244-15.808 25.244-15.808c1.585 3.429 5.056 5.808 9.082 5.808h93c5.523 0 10-4.478 10-10s-4.477-10-10-10z" fill="#00913d"/>
<path d="m303.13 142.93c-1.86-1.86-4.43-2.93-7.07-2.93-2.63 0-5.21 1.07-7.07 2.93s-2.93 4.44-2.93 7.07 1.07 5.21 2.93 7.07c1.87 1.86 4.44 2.93 7.07 2.93 2.64 0 5.21-1.07 7.07-2.93 1.87-1.86 2.93-4.44 2.93-7.07s-1.06-5.21-2.93-7.07z" fill="#00913d"/>
</svg>
