<?xml version="1.0" encoding="iso-8859-1"?>
<!-- Generator: Adobe Illustrator 22.1.0, SVG Export Plug-In . SVG Version: 6.00 Build 0)  -->
<svg version="1.1" id="Camada_1" xmlns="http://www.w3.org/2000/svg" xmlns:xlink="http://www.w3.org/1999/xlink" x="0px" y="0px"
	 viewBox="0 0 496 496" style="enable-background:new 0 0 496 496;" xml:space="preserve">
<g>
	<g>
		<defs>
			<rect id="SVGID_1_" width="496" height="496"/>
		</defs>
		<clipPath id="SVGID_2_">
			<use xlink:href="#SVGID_1_"  style="overflow:visible;"/>
		</clipPath>
		<path fill="#198338"  style="clip-path:url(#SVGID_2_);" d="M488,0H152c-4.414,0-8,3.574-8,8v24h-24c-4.414,0-8,3.574-8,8v33.473
			C102.711,76.785,96,85.586,96,96v29.48c-18.887,9.008-32,28.239-32,50.52c0,9.633,2.449,18.703,6.754,26.633L0.383,421.551
			c-0.781,2.433-0.352,5.097,1.152,7.16C3.039,430.785,5.449,432,8,432h16v32h16v-32h16c3.727,0,6.961-2.566,7.801-6.199L82.672,344
			H112v144c0,4.426,3.586,8,8,8h336c4.418,0,8-3.574,8-8v-24h24c4.418,0,8-3.574,8-8V8C496,3.574,492.418,0,488,0L488,0z M112,96
			c0-4.414,3.594-8,8-8c4.406,0,8,3.586,8,8v24.641c-2.625-0.375-5.281-0.641-8-0.641c-2.719,0-5.375,0.266-8,0.641V96z M120,136
			c22.055,0,40,17.945,40,40c0,22.055-17.945,40-40,40c-22.055,0-40-17.945-40-40C80,153.945,97.945,136,120,136L120,136z
			 M190.359,416l-43.992-190.625c3.953-2.117,7.586-4.734,10.906-7.703L221.023,416H190.359z M120,232
			c3.84,0,7.594-0.391,11.215-1.137L146.25,296H93.754l15.031-65.137C112.406,231.609,116.16,232,120,232L120,232z M49.641,416
			H18.977l63.75-198.328c3.312,2.969,6.953,5.586,10.906,7.703L49.641,416z M90.055,312h59.89l3.696,16H86.367L90.055,312z M448,480
			H128V344h29.328l18.871,81.801c0.84,3.633,4.074,6.199,7.801,6.199h16v32h16v-32h16c2.551,0,4.961-1.215,6.465-3.289
			c1.504-2.063,1.933-4.727,1.152-7.16L169.25,202.633c4.301-7.93,6.75-17,6.75-26.633c0-22.281-13.113-41.504-32-50.52V96
			c0-10.414-6.711-19.215-16-22.527V48h256v56c0,4.426,3.586,8,8,8h56V480z M436.688,96H400V59.312L436.688,96z M480,448h-16V104
			c0-2.215-0.895-4.215-2.352-5.664l-63.984-63.984C396.215,32.895,394.215,32,392,32H160V16h320V448z M480,448"/>
	</g>
	<path fill="#198338"  d="M120,200c13.23,0,24-10.77,24-24c0-13.23-10.77-24-24-24c-13.23,0-24,10.77-24,24C96,189.23,106.77,200,120,200L120,200z
		 M120,168c4.406,0,8,3.586,8,8c0,4.418-3.594,8-8,8c-4.406,0-8-3.582-8-8C112,171.586,115.594,168,120,168L120,168z M120,168"/>
	<path fill="#198338" d="M328,142.121C317.031,133.305,303.129,128,288,128c-35.289,0-64,28.711-64,64c0,26.887,16.688,49.91,40.23,59.375
		c-0.101,1.527-0.23,3.066-0.23,4.625c0,35.289,28.711,64,64,64s64-28.711,64-64c0-1.559-0.129-3.098-0.23-4.625
		C415.312,241.91,432,218.887,432,192c0-35.289-28.711-64-64-64C352.871,128,338.969,133.305,328,142.121L328,142.121z
		 M335.977,192.551C333.352,192.223,330.703,192,328,192c-2.703,0-5.352,0.223-7.977,0.551c0-0.184-0.023-0.367-0.023-0.551
		c0-9.785,2.953-18.879,8-26.48c5.047,7.601,8,16.695,8,26.48C336,192.184,335.977,192.367,335.977,192.551L335.977,192.551z
		 M348.512,212.664c11.367,5.398,20.265,15.129,24.586,27.055C371.426,239.895,369.719,240,368,240
		c-10.832,0-20.793-3.648-28.832-9.719C343.145,224.977,346.32,219.055,348.512,212.664L348.512,212.664z M328,218.48
		c-2.098-3.152-3.793-6.585-5.098-10.199c1.672-0.176,3.379-0.281,5.098-0.281s3.426,0.105,5.098,0.281
		C331.793,211.895,330.098,215.32,328,218.48L328,218.48z M316.832,230.281c-8.039,6.071-18,9.719-28.832,9.719
		c-1.719,0-3.426-0.105-5.098-0.281c4.321-11.926,13.219-21.649,24.586-27.055C309.68,219.055,312.855,224.977,316.832,230.281
		L316.832,230.281z M240,192c0-26.473,21.527-48,48-48c10.832,0,20.793,3.648,28.832,9.719C308.816,164.406,304,177.641,304,192
		c0,1.559,0.129,3.098,0.23,4.625c-17.207,6.91-30.703,21.078-36.742,38.703C251.273,227.625,240,211.129,240,192L240,192z M376,256
		c0,26.473-21.527,48-48,48c-26.473,0-48-21.527-48-48c0-0.184,0.023-0.367,0.023-0.551c2.625,0.328,5.274,0.551,7.977,0.551
		c15.129,0,29.031-5.305,40-14.121C338.969,250.695,352.871,256,368,256c2.703,0,5.352-0.223,7.977-0.551
		C375.977,255.633,376,255.816,376,256L376,256z M416,192c0,19.129-11.273,35.625-27.488,43.336
		c-6.039-17.625-19.535-31.793-36.742-38.703c0.101-1.535,0.23-3.074,0.23-4.633c0-14.359-4.816-27.594-12.832-38.281
		c8.039-6.071,18-9.719,28.832-9.719C394.473,144,416,165.527,416,192L416,192z M416,192"/>
	<rect fill="#198338" x="256" y="336" width="176" height="16"/>
	<rect fill="#198338" x="256" y="368" width="176" height="16"/>
	<rect fill="#198338" x="256" y="400" width="176" height="16"/>
	<rect fill="#198338" x="256" y="432" width="176" height="16"/>
</g>
</svg>
