<?xml version="1.0" encoding="iso-8859-1"?>
<!-- Generator: Adobe Illustrator 22.1.0, SVG Export Plug-In . SVG Version: 6.00 Build 0)  -->
<svg version="1.1" id="Layer_1" xmlns="http://www.w3.org/2000/svg" xmlns:xlink="http://www.w3.org/1999/xlink" x="0px" y="0px"
	 viewBox="-49 141 512 512" style="enable-background:new -49 141 512 512;" xml:space="preserve">
<path style="fill:#00913d;" d="M256.553,551.719h-38.799c-5.522,0-9.999,4.476-9.999,9.999c0,5.523,4.477,9.999,9.999,9.999h38.799
	c5.988,0,10.86,4.871,10.86,10.859s-4.871,10.859-10.86,10.859H152.109c-15.7,0-30.464-6.922-40.504-18.992l-24.977-30.022
	c-13.402-16.11-32.907-25.545-53.777-26.142v-59.067h36.816c18.156,0,35.347,6.944,48.408,19.552l53.908,52.035
	c3.811,3.679,3.989,9.839,0.396,13.731c-3.662,3.966-9.878,4.225-13.857,0.578l-42.323-38.796
	c-4.069-3.731-10.395-3.457-14.126,0.614c-3.732,4.071-3.457,10.396,0.614,14.127l42.323,38.796
	c5.708,5.232,12.931,7.816,20.136,7.816c8.044,0,16.065-3.221,21.928-9.572c10.906-11.815,10.367-30.513-1.202-41.681
	l-53.908-52.035c-16.809-16.226-38.933-25.162-62.297-25.162H30.909c-3.762-8.904-12.585-15.169-22.843-15.169h-47.067
	c-5.522,0-9.999,4.476-9.999,9.999v73.117c0,5.522,4.477,9.999,9.999,9.999s9.999-4.476,9.999-9.999v-63.119H8.067
	c2.64,0,4.787,2.148,4.787,4.787v80.143c0,2.639-2.147,4.787-4.787,4.787H-2.318c-5.522,0-9.999,4.476-9.999,9.999
	c0,5.522,4.477,9.999,9.999,9.999H8.066c10.396,0,19.311-6.436,22.986-15.531c15.588,0.089,30.227,6.992,40.203,18.984
	l24.977,30.022c13.852,16.651,34.218,26.2,55.877,26.2h104.444c17.014,0,30.857-13.842,30.857-30.857
	C287.41,565.561,273.567,551.719,256.553,551.719z"/>
<path style="fill:#00913d;" d="M453.001,272.934c-5.522,0-9.999,4.476-9.999,9.999v67.025h-37.069c-2.64,0-4.787-2.148-4.787-4.787
	v-80.143c0-2.639,2.147-4.787,4.787-4.787h9.651c5.522,0,9.999-4.476,9.999-9.999c0-5.522-4.477-9.999-9.999-9.999h-9.651
	c-10.396,0-19.311,6.436-22.986,15.531c-15.588-0.089-30.227-6.992-40.203-18.984l-24.977-30.021
	c-13.851-16.651-34.218-26.201-55.878-26.201H157.447c-17.014,0-30.857,13.842-30.857,30.856s13.843,30.856,30.857,30.856h42.708
	c5.522,0,9.999-4.476,9.999-9.999c0-5.523-4.477-9.999-9.999-9.999h-42.708c-5.988,0-10.86-4.871-10.86-10.859
	c0-5.987,4.871-10.859,10.86-10.859H261.89c15.701,0,30.465,6.922,40.505,18.992l24.977,30.021
	c13.401,16.11,32.907,25.545,53.777,26.143v59.067h-36.816c-18.156,0-35.347-6.944-48.408-19.552L242.017,263.2
	c-3.811-3.679-3.989-9.838-0.396-13.731c3.662-3.967,9.878-4.225,13.857-0.578l42.324,38.796c4.071,3.731,10.394,3.457,14.127-0.614
	c3.731-4.071,3.456-10.396-0.615-14.127l-42.324-38.795c-12.08-11.073-30.948-10.284-42.064,1.756
	c-10.906,11.816-10.367,30.514,1.202,41.681l53.908,52.035c16.809,16.226,38.933,25.162,62.297,25.162h38.758
	c3.762,8.904,12.585,15.169,22.843,15.169h47.068c5.522,0,9.999-4.476,9.999-9.999v-77.024
	C463,277.41,458.523,272.934,453.001,272.934z"/>
<path style="fill:#00913d;" d="M260.626,515.639c-5.064,2.205-7.38,8.097-5.175,13.159c1.638,3.763,5.314,6.009,9.172,6.009
	c1.333,0,2.687-0.268,3.987-0.834c0.042-0.018,0.174-0.077,0.215-0.095c5.033-2.273,7.286-8.202,5.013-13.235
	C271.564,515.611,265.654,513.366,260.626,515.639z"/>
<path style="fill:#00913d;" d="M284.696,501.699c-4.455,3.262-5.423,9.519-2.161,13.974c1.959,2.675,4.995,4.093,8.075,4.093
	c2.05,0,4.119-0.628,5.899-1.931c0.016-0.011,0.11-0.081,0.125-0.092c4.429-3.28,5.327-9.496,2.059-13.934
	C295.424,499.369,289.141,498.445,284.696,501.699z"/>
<path style="fill:#00913d;" d="M234.068,524.149c-5.384,1.069-8.904,6.284-7.872,11.684c0.916,4.79,5.107,8.123,9.81,8.123
	c0.622,0,1.255-0.059,1.888-0.18c0.065-0.013,0.229-0.046,0.295-0.06c5.4-1.145,8.838-6.447,7.695-11.848
	C244.745,526.483,239.458,523.035,234.068,524.149z"/>
<path style="fill:#00913d;" d="M319.581,482.061c-4.1-3.698-10.421-3.373-14.121,0.728c-0.049,0.055-0.164,0.185-0.212,0.24
	c-3.608,4.181-3.142,10.495,1.039,14.102c1.889,1.63,4.213,2.428,6.526,2.428c2.777,0,5.538-1.15,7.512-3.394
	C324.007,492.064,323.676,485.754,319.581,482.061z M313.997,490.492l-1.112-1.006l1.204,1.086L313.997,490.492z"/>
<path style="fill:#00913d;" d="M345.031,427.873c-5.284-1.603-10.874,1.412-12.477,6.697c-1.624,5.278,1.338,10.873,6.616,12.497
	c0.979,0.302,1.969,0.445,2.943,0.445c4.274,0,8.231-2.762,9.553-7.061l0.042-0.137C353.31,435.029,350.315,429.475,345.031,427.873
	z"/>
<path style="fill:#00913d;" d="M357.765,375.886c-1.129-5.404-6.425-8.861-11.827-7.734c-5.383,1.122-8.844,6.386-7.76,11.768
	c0.917,4.771,5.098,8.11,9.806,8.11c0.585,0,1.179-0.051,1.774-0.158c5.436-0.973,9.053-6.169,8.08-11.605
	C357.816,376.14,357.792,376.013,357.765,375.886z"/>
<path style="fill:#00913d;" d="M348.668,397.962c-5.483-0.484-10.353,3.581-10.838,9.081c-0.009,0.097-0.023,0.294-0.029,0.391
	c-0.324,5.513,3.881,10.245,9.394,10.569c0.2,0.012,0.398,0.018,0.596,0.018c5.206,0,9.581-4.026,9.964-9.269
	C358.211,403.272,354.153,398.446,348.668,397.962z"/>
<path style="fill:#00913d;" d="M335.243,456.325c-4.8-2.721-10.906-1.035-13.628,3.77l-0.139,0.25
	c-2.633,4.854-0.856,10.967,3.997,13.6c1.527,0.828,3.17,1.221,4.789,1.221c3.529,0,6.938-1.872,8.743-5.2l-8.692-4.942l8.699,4.93
	C341.735,465.149,340.048,459.048,335.243,456.325z"/>
<path style="fill:#00913d;" d="M144.932,280.377c1.514,0,3.05-0.342,4.491-1.062c4.94-2.469,6.941-8.475,4.472-13.415
	s-8.478-6.943-13.414-4.472l-0.089,0.044c-4.94,2.47-6.897,8.453-4.427,13.392C137.714,278.363,141.258,280.377,144.932,280.377z"/>
<path style="fill:#00913d;" d="M172.963,269.954c0.824,0,1.662-0.103,2.498-0.318c5.366-1.301,8.662-6.706,7.361-12.073
	c-1.301-5.365-6.699-8.663-12.074-7.361c-0.046,0.011-0.188,0.047-0.234,0.059c-5.348,1.378-8.587,6.835-7.21,12.182
	C164.467,266.955,168.514,269.954,172.963,269.954z"/>
<path style="fill:#00913d;" d="M119.606,296.641c2.182,0,4.381-0.712,6.222-2.177l0.132-0.106c4.29-3.465,4.954-9.742,1.496-14.039
	s-9.754-4.972-14.056-1.522l6.199,7.845l-6.229-7.822c-4.32,3.44-5.033,9.73-1.594,14.05
	C113.752,295.35,116.665,296.641,119.606,296.641z"/>
<path style="fill:#00913d;" d="M69.13,370.911c0.792,0.192,1.584,0.284,2.364,0.284c4.486,0,8.562-3.044,9.698-7.581
	c1.371-5.288-1.762-10.711-7.049-12.153c-5.328-1.452-10.824,1.687-12.277,7.015c-0.025,0.091-0.073,0.28-0.096,0.372
	C60.47,364.213,63.766,369.608,69.13,370.911z"/>
<path style="fill:#00913d;" d="M66.892,400.908c0.102,0.003,0.202,0.005,0.303,0.005c5.36,0,9.789-4.253,9.987-9.637
	c0.25-5.459-3.938-10.118-9.409-10.436c-5.527-0.307-10.241,3.892-10.561,9.404c-0.008,0.129-0.013,0.257-0.017,0.385
	C57.033,396.146,61.374,400.743,66.892,400.908z"/>
<path style="fill:#00913d;" d="M77.624,342.041c1.418,0.699,2.921,1.029,4.404,1.029c3.672,0,7.207-2.032,8.959-5.532
	c2.49-4.873,0.598-10.853-4.26-13.402c-4.891-2.566-10.934-0.681-13.499,4.209l-0.163,0.322
	C70.628,333.62,72.672,339.602,77.624,342.041z"/>
<path style="fill:#00913d;" d="M92.129,315.674c1.836,1.457,4.026,2.163,6.202,2.163c2.933,0,5.841-1.284,7.816-3.746
	c3.464-4.247,2.864-10.503-1.362-14.012c-4.249-3.527-10.553-2.942-14.08,1.306c-0.048,0.059-0.158,0.195-0.206,0.254
	C87.071,305.966,87.804,312.244,92.129,315.674z"/>
<path style="fill:#00913d;" d="M67.468,410.949c-5.436,0.974-9.053,6.169-8.08,11.605l0.018,0.098
	c0.866,4.833,5.063,8.19,9.804,8.19c0.591,0,1.19-0.052,1.792-0.16c5.436-0.973,9.045-6.218,8.071-11.654
	C78.1,413.592,72.901,409.975,67.468,410.949z"/>
<path style="fill:#00913d;" d="M144.281,425.23c0.064,0.054,0.13,0.107,0.196,0.16l56.981,45.112
	c1.818,1.44,4.012,2.159,6.206,2.159c2.204,0,4.408-0.726,6.23-2.178l59.395-47.31c0.291-0.231,0.568-0.479,0.831-0.741
	c8.799-8.775,13.644-20.45,13.644-32.875c0-25.603-20.829-46.432-46.432-46.432c-13.015,0-25.074,5.367-33.667,14.424
	c-8.594-9.057-20.652-14.424-33.667-14.424c-25.603,0-46.432,20.829-46.432,46.432C127.566,403.372,133.659,416.374,144.281,425.23z
	 M173.998,363.123c10.731,0,20.32,6.409,24.43,16.327c1.549,3.735,5.194,6.171,9.237,6.171s7.688-2.435,9.237-6.171
	c4.11-9.918,13.699-16.327,24.43-16.327c14.576,0,26.435,11.859,26.435,26.435c0,6.902-2.627,13.398-7.407,18.35l-52.713,41.988
	l-50.65-40.099c-5.996-5.044-9.433-12.413-9.433-20.238C147.563,374.982,159.422,363.123,173.998,363.123z"/>
<circle style="fill:#00913d;" cx="-39.001" cy="543.76" r="9.964"/>
<circle style="fill:#00913d;" cx="453" cy="250.24" r="9.964"/>
</svg>
