<?xml version="1.0" encoding="utf-8"?>
<!-- Generator: Adobe Illustrator 22.1.0, SVG Export Plug-In . SVG Version: 6.00 Build 0)  -->
<svg version="1.1" id="Capa_1" xmlns="http://www.w3.org/2000/svg" xmlns:xlink="http://www.w3.org/1999/xlink" x="0px" y="0px"
	 viewBox="0 0 512 512" style="enable-background:new 0 0 512 512;" xml:space="preserve">
<style type="text/css">
	.st0{fill:url(#SVGID_1_);}
</style>
<linearGradient id="SVGID_1_" gradientUnits="userSpaceOnUse" x1="99.2439" y1="71.9221" x2="412.7536" y2="385.4318">
	<stop  offset="0" style="stop-color:#1D8E3E"/>
	<stop  offset="1" style="stop-color:#07521D"/>
</linearGradient>
<path class="st0" d="M354.7,180.8H332c-1.4-4.4-3.2-8.7-5.3-12.8l16.1-16.1c2-2,3.1-4.7,3.1-7.5c0-2.8-1.1-5.5-3.1-7.5l-18.9-18.9
	c-4.1-4.1-10.9-4.1-15,0l-16.1,16.1c-4.1-2.1-8.4-3.9-12.8-5.3v-22.7c0-5.9-4.8-10.6-10.6-10.6h-26.7c-5.9,0-10.6,4.8-10.6,10.6
	v22.7c-4.4,1.4-8.7,3.2-12.8,5.3l-16.1-16.1c-4.1-4.1-10.9-4.1-15,0L169.3,137c-2,2-3.1,4.7-3.1,7.5c0,2.8,1.1,5.5,3.1,7.5
	l16.1,16.1c-2.1,4.1-3.9,8.4-5.3,12.8h-22.7c-5.9,0-10.6,4.8-10.6,10.6v26.7c0,5.9,4.8,10.6,10.6,10.6H180c1.4,4.4,3.2,8.7,5.3,12.8
	l-16.1,16.1c-4.1,4.1-4.1,10.9,0,15l18.9,18.9c4.1,4.1,10.9,4.1,15,0l16.1-16.1c4.1,2.1,8.4,3.9,12.8,5.3v22.7
	c0,5.9,4.8,10.6,10.6,10.6h26.7c5.9,0,10.6-4.8,10.6-10.6v-22.7c4.4-1.4,8.7-3.2,12.8-5.3l16.1,16.1c4.1,4.1,10.9,4.1,15,0
	l18.9-18.9c2-2,3.1-4.7,3.1-7.5c0-2.8-1.1-5.5-3.1-7.5l-16.1-16.1c2.1-4.1,3.9-8.4,5.3-12.8h22.7c5.9,0,10.6-4.8,10.6-10.6v-26.7
	C365.3,185.6,360.5,180.8,354.7,180.8z M350.3,213.8h-24.1c-3.5,0-6.5,2.4-7.3,5.8c-1.6,6.8-4.3,13.3-8,19.3c-1.8,3-1.4,6.8,1.1,9.3
	l17,17l-12.7,12.7l-17-17c-2.5-2.5-6.3-2.9-9.3-1.1c-6,3.7-12.4,6.4-19.3,8c-3.4,0.8-5.8,3.8-5.8,7.3v24.1h-18v-24.1
	c0-3.5-2.4-6.5-5.8-7.3c-6.8-1.6-13.3-4.3-19.3-8c-3-1.8-6.8-1.4-9.3,1.1l-17,17L183,265.1l17-17c2.5-2.5,2.9-6.3,1.1-9.3
	c-3.7-5.9-6.4-12.4-8-19.3c-0.8-3.4-3.8-5.8-7.3-5.8h-24.1v-18h24.1c3.5,0,6.5-2.4,7.3-5.8c1.6-6.8,4.3-13.3,8-19.3
	c1.8-3,1.4-6.8-1.1-9.3l-17-17l12.7-12.7l17,17c2.5,2.5,6.3,2.9,9.3,1.1c5.9-3.7,12.4-6.4,19.3-8c3.4-0.8,5.8-3.8,5.8-7.3v-24.1h18
	v24.1c0,3.5,2.4,6.5,5.8,7.3c6.8,1.6,13.3,4.3,19.3,8c3,1.8,6.8,1.4,9.3-1.1l17-17l12.7,12.7l-17,17c-2.5,2.5-2.9,6.3-1.1,9.3
	c3.7,5.9,6.4,12.4,8,19.3c0.8,3.4,3.8,5.8,7.3,5.8h24.1V213.8z M256,164.6c-22.2,0-40.2,18-40.2,40.2s18,40.2,40.2,40.2
	s40.2-18,40.2-40.2S278.2,164.6,256,164.6z M256,230c-13.9,0-25.2-11.3-25.2-25.2s11.3-25.2,25.2-25.2c13.9,0,25.2,11.3,25.2,25.2
	S269.9,230,256,230z M83.6,197.3H58.7c-4.1,0-7.5,3.4-7.5,7.5s3.4,7.5,7.5,7.5h24.9c4.1,0,7.5-3.4,7.5-7.5S87.7,197.3,83.6,197.3z
	 M453.3,197.3h-24.9c-4.1,0-7.5,3.4-7.5,7.5s3.4,7.5,7.5,7.5h24.9c4.1,0,7.5-3.4,7.5-7.5S457.5,197.3,453.3,197.3z M139.4,321.4
	c-2.9-2.9-7.7-2.9-10.6,0L111.2,339c-2.9,2.9-2.9,7.7,0,10.6s7.7,2.9,10.6,0l17.6-17.6C142.3,329.1,142.3,324.4,139.4,321.4z
	 M400.8,60c-2.9-2.9-7.7-2.9-10.6,0l-17.6,17.6c-2.9,2.9-2.9,7.7,0,10.6c2.9,2.9,7.7,2.9,10.6,0l17.6-17.6
	C403.8,67.7,403.8,62.9,400.8,60z M256,0c-4.1,0-7.5,3.4-7.5,7.5v24.9c0,4.1,3.4,7.5,7.5,7.5s7.5-3.4,7.5-7.5V7.5
	C263.5,3.4,260.1,0,256,0z M400.8,339l-17.6-17.6c-2.9-2.9-7.7-2.9-10.6,0c-2.9,2.9-2.9,7.7,0,10.6l17.6,17.6
	c2.9,2.9,7.7,2.9,10.6,0C403.8,346.7,403.8,342,400.8,339z M139.4,77.6L121.8,60c-2.9-2.9-7.7-2.9-10.6,0s-2.9,7.7,0,10.6l17.6,17.6
	c2.9,2.9,7.7,2.9,10.6,0C142.3,85.3,142.3,80.5,139.4,77.6z M405.6,186.4C397.6,117.6,343,63,274.4,54.6c-4.1-0.5-7.9,2.4-8.4,6.5
	c-0.5,4.1,2.4,7.9,6.5,8.4c62.3,7.6,110.8,56.4,118.1,118.7c0.4,3.8,3.7,6.6,7.4,6.6c0.3,0,0.6,0,0.9-0.1
	C403.2,194.3,406.1,190.6,405.6,186.4z M399,214.9c-4.1-0.5-7.9,2.4-8.4,6.5c-5.1,40.4-27.9,76-62.5,97.8
	c-14.9,9.4-23.8,25.4-23.8,42.9v30.9h-96.4v-31.5c0-16.9-8.9-33-23.1-41.8c-40.3-25-64.4-68.1-64.4-115.4
	c0-68.4,51.2-126.2,119.1-134.6c4.1-0.5,7-4.3,6.5-8.4c-0.5-4.1-4.3-7-8.4-6.5c-75,9.3-132.3,73.8-132.2,149.5
	c0,26.1,6.8,51.9,19.7,74.5c12.5,21.9,30.4,40.5,51.8,53.7c9.9,6.1,16,17.2,16,29V394c-7.6,2.6-13.1,9.9-13.1,18.4v10.7
	c0,4.5,1.6,8.7,4.2,12c-2.6,3.3-4.2,7.5-4.2,12v10.7c0,10.8,8.7,19.5,19.5,19.5h23.6v17c0,9.8,8,17.7,17.7,17.7h31
	c9.8,0,17.7-8,17.7-17.7v-17h23.6c10.8,0,19.5-8.7,19.5-19.5v-10.7c0-4.5-1.6-8.7-4.2-12c2.6-3.3,4.2-7.5,4.2-12v-10.7
	c0-8.5-5.5-15.8-13.1-18.4v-32c0-12.3,6.3-23.6,16.8-30.2c38.5-24.1,63.8-63.7,69.4-108.6C406,219.1,403.1,215.4,399,214.9z
	 M274.2,494.3c0,1.5-1.3,2.7-2.7,2.7h-31c-1.5,0-2.7-1.3-2.7-2.7v-17h36.5V494.3z M317.3,457.8c0,2.4-2.1,4.5-4.5,4.5
	c-13.2,0-101.1,0-113.6,0c-2.4,0-4.5-2.1-4.5-4.5v-10.7c0-2.4,2.1-4.5,4.5-4.5h113.6c2.4,0,4.5,2.1,4.5,4.5V457.8z M317.3,423.1
	c0,2.4-2.1,4.5-4.5,4.5H199.2c-2.4,0-4.5-2.1-4.5-4.5v-10.7c0-2.4,2.1-4.5,4.5-4.5h113.6c2.4,0,4.5,2.1,4.5,4.5L317.3,423.1
	L317.3,423.1z"/>
</svg>
