<?xml version="1.0" encoding="iso-8859-1"?>
<!-- Generator: Adobe Illustrator 22.1.0, SVG Export Plug-In . SVG Version: 6.00 Build 0)  -->
<svg version="1.1" id="Capa_1" xmlns="http://www.w3.org/2000/svg" xmlns:xlink="http://www.w3.org/1999/xlink" x="0px" y="0px"
	 viewBox="-49 141 512 512" style="enable-background:new -49 141 512 512;" xml:space="preserve">
<path fill="#198338" d="M207,589c-37.206,0.811-74.185-5.995-108.664-20l-6.672,14.544C128.207,598.612,167.483,605.919,207,605
	c19.2,0.046,38.372-1.49,57.32-4.592l-2.64-15.784C243.604,587.582,225.316,589.046,207,589z"/>
<path fill="#198338" d="M69.24,548.528l-12.48,10.016c5.097,6.124,11.122,11.412,17.856,15.672l8.8-13.376
	C78.082,557.494,73.3,553.341,69.24,548.528z"/>
<path fill="#198338" d="M434.576,317.84l-224-112c-2.251-1.125-4.901-1.125-7.152,0l-224,112c-3.954,1.971-5.562,6.774-3.591,10.729
	c0.775,1.555,2.036,2.816,3.591,3.591L63,373.944V501c0,40.376,63.256,72,144,72s144-31.624,144-72V373.944l40-20v108.528
	c-12.456,4.362-19.016,17.996-14.654,30.452c1.187,3.389,3.122,6.466,5.662,9.004l-14.4,36.104
	c-1.639,4.103,0.358,8.758,4.461,10.397c0.933,0.373,1.927,0.566,2.931,0.571h48c4.418,0.002,8.001-3.579,8.003-7.997
	c0-1.018-0.193-2.026-0.571-2.971l-14.4-36.104c9.33-9.334,9.326-24.464-0.008-33.794c-2.544-2.542-5.628-4.478-9.024-5.662V345.944
	l27.576-13.744c3.954-1.971,5.562-6.774,3.591-10.729c-0.775-1.556-2.036-2.816-3.591-3.591V317.84z M335,501
	c0,27.048-51.432,56-128,56S79,528.048,79,501v-6.608C102.704,517.504,150.528,533,207,533s104.296-15.496,128-38.608V501z M335,461
	c0,27.048-51.432,56-128,56S79,488.048,79,461v-79.056L203.424,444.2c2.251,1.125,4.901,1.125,7.152,0L335,381.944V461z M399,477
	c4.418,0,8,3.582,8,8s-3.582,8-8,8s-8-3.582-8-8S394.582,477,399,477z M411.184,533h-24.368l9.704-24.248
	c0.8,0.08,1.6,0.248,2.48,0.248s1.656-0.168,2.48-0.248L411.184,533z M397.496,332.808L244.984,317.56
	C239.976,307.776,225.4,301,207,301c-22.808,0-40,10.32-40,24s17.192,24,40,24c17.688,0,31.888-6.248,37.424-15.416l126.264,12.624
	L207,428.056L0.888,325L207,221.944L413.112,325L397.496,332.808z M231,325c0,1.992-8.512,8-24,8s-24-6.008-24-8s8.512-8,24-8
	S231,323.008,231,325z"/>
<rect fill="#198338" x="391.001" y="268.012" transform="matrix(0.4472 -0.8944 0.8944 0.4472 -27.1538 509.9763)" width="16" height="17.888"/>
<rect fill="#198338" x="307" y="167.903" transform="matrix(0.4472 -0.8944 0.8944 0.4472 -36.05 411.6441)" width="16" height="134.168"/>
</svg>
