<?xml version="1.0" encoding="iso-8859-1"?>
<!-- Generator: Adobe Illustrator 22.1.0, SVG Export Plug-In . SVG Version: 6.00 Build 0)  -->
<svg version="1.1" id="Camada_1" xmlns="http://www.w3.org/2000/svg" xmlns:xlink="http://www.w3.org/1999/xlink" x="0px" y="0px"
	 viewBox="0 0 409.92 410.88" style="enable-background:new 0 0 409.92 410.88;" xml:space="preserve">
<g>
	<path fill="#198338" d="M238.926,0.32h-95.571c-18.824,0-34.136,15.312-34.136,34.133v245.762c0,3.765,3.051,6.824,6.828,6.824h40.961
		c3.773,0,6.824-3.059,6.824-6.824c0-3.77-3.051-6.829-6.824-6.829h-34.137v-13.652h6.828c3.774,0,6.828-3.059,6.828-6.828
		c0-3.766-3.054-6.824-6.828-6.824h-6.828v-13.657h6.828c3.774,0,6.828-3.058,6.828-6.824c0-3.769-3.054-6.828-6.828-6.828h-6.828
		v-13.652h6.828c3.774,0,6.828-3.059,6.828-6.828c0-3.766-3.054-6.825-6.828-6.825h-6.828v-13.656h34.137
		c3.773,0,6.824-3.058,6.824-6.824c0-3.77-3.051-6.828-6.824-6.828h-34.137v-13.653h6.828c3.774,0,6.828-3.058,6.828-6.828
		c0-3.765-3.054-6.824-6.828-6.824h-6.828v-13.656h6.828c3.774,0,6.828-3.059,6.828-6.824c0-3.77-3.054-6.828-6.828-6.828h-6.828
		V95.894h6.828c3.774,0,6.828-3.058,6.828-6.828c0-3.766-3.054-6.824-6.828-6.824h-6.828V68.586h34.137
		c3.773,0,6.824-3.059,6.824-6.825c0-3.769-3.051-6.828-6.824-6.828h-34.137v-20.48c0-11.289,9.191-20.481,20.481-20.481h95.574
		c11.293,0,20.48,9.192,20.48,20.481v341.336c0,11.289-9.187,20.476-20.48,20.476h-95.571c-11.293,0-20.48-9.187-20.48-20.476
		v-68.27c0-3.765-3.051-6.824-6.828-6.824c-3.774,0-6.824,3.059-6.824,6.824v68.266c0,18.824,15.308,34.137,34.132,34.137h95.575
		c18.82,0,34.132-15.313,34.132-34.137V34.453C273.059,15.632,257.746,0.32,238.926,0.32L238.926,0.32z M238.926,0.32"/>
	<g>
		<defs>
			<rect fill="#198338" id="SVGID_1_" width="409.92" height="410.88"/>
		</defs>
		<clipPath id="SVGID_2_">
			<use xlink:href="#SVGID_1_"  style="overflow:visible;"/>
		</clipPath>
		<path fill="#198338" style="clip-path:url(#SVGID_2_);" d="M27.309,89.058V334.82c0,3.77,3.05,6.828,6.824,6.828c3.777,0,6.828-3.058,6.828-6.828
			V89.058c0-3.765-3.051-6.824-6.828-6.824C30.359,82.234,27.309,85.293,27.309,89.058L27.309,89.058z M27.309,89.058"/>
		<path fill="#198338" style="clip-path:url(#SVGID_2_);" d="M40.238,4.09c-2.316-4.629-9.894-4.629-12.215,0L0.719,58.703
			C0.246,59.644,0,60.695,0,61.754v314.027c0,18.82,15.312,34.133,34.133,34.133c18.82,0,34.133-15.313,34.133-34.133v-13.656
			c0-3.766-3.051-6.825-6.825-6.825H34.133c-3.774,0-6.824,3.059-6.824,6.825c0,3.769,3.05,6.828,6.824,6.828h20.48v6.824
			c0,11.293-9.187,20.48-20.48,20.48c-11.289,0-20.481-9.187-20.481-20.48V63.363l20.481-40.957l16.262,32.519H34.133
			c-3.774,0-6.824,3.059-6.824,6.829c0,3.765,3.05,6.824,6.824,6.824h20.48V334.82c0,3.766,3.051,6.824,6.828,6.824
			c3.774,0,6.825-3.058,6.825-6.824V61.644c-0.02-1.105-0.301-2.152-0.778-3.066L40.238,4.09z M40.238,4.09"/>
	</g>
	<path fill="#198338" d="M218.445,341.652c0-15.059-12.246-27.305-27.304-27.305c-15.059,0-27.309,12.246-27.309,27.305
		c0,15.063,12.25,27.309,27.309,27.309C206.199,368.961,218.445,356.715,218.445,341.652L218.445,341.652z M177.488,341.652
		c0-7.527,6.121-13.652,13.653-13.652c7.523,0,13.652,6.125,13.652,13.652c0,7.531-6.129,13.656-13.652,13.656
		C183.609,355.308,177.488,349.183,177.488,341.652L177.488,341.652z M177.488,341.652"/>
	<path fill="#198338" d="M348.152,328c-3.773,0-6.824,3.058-6.824,6.828c0,3.765,3.051,6.824,6.824,6.824h54.614c3.777,0,6.828-3.059,6.828-6.824
		v-40.961c0-18.82-15.313-34.133-34.133-34.133h-27.309c-18.82,0-34.132,15.313-34.132,34.133v81.918
		c0,18.824,15.312,34.137,34.132,34.137h27.309c18.82,0,34.133-15.313,34.133-34.137v-13.653c0-3.769-3.051-6.824-6.828-6.824
		c-3.774,0-6.825,3.055-6.825,6.824v13.653c0,11.293-9.187,20.48-20.48,20.48h-27.305c-11.293,0-20.48-9.187-20.48-20.48v-81.918
		c0-11.293,9.187-20.481,20.48-20.481h27.305c11.293,0,20.48,9.188,20.48,20.481V328H348.152z M348.152,328"/>
</g>
</svg>
