<?xml version="1.0" encoding="iso-8859-1"?>
<!-- Generator: Adobe Illustrator 22.1.0, SVG Export Plug-In . SVG Version: 6.00 Build 0)  -->
<svg version="1.1" id="Capa_1" xmlns="http://www.w3.org/2000/svg" xmlns:xlink="http://www.w3.org/1999/xlink" x="0px" y="0px"
	 viewBox="-49 141.005 511.995 511.995" style="enable-background:new -49 141.005 511.995 511.995;" xml:space="preserve">
<path  fill="#198338"  d="M207,209.321c-108.22,0-196.267,88.047-196.267,196.267S98.78,601.854,207,601.854s196.267-88.047,196.267-196.267
	S315.22,209.321,207,209.321z M207,584.787c-98.807,0-179.2-80.384-179.2-179.2s80.393-179.2,179.2-179.2
	c98.816,0,179.2,80.384,179.2,179.2S305.816,584.787,207,584.787z"/>
<path fill="#198338" d="M289.364,227.454c-0.785-0.358-1.613-0.606-2.466-0.717l-1.971-0.265c-3.038-0.435-6.05,0.836-7.902,3.268
	c-1.86,2.432-2.278,5.658-1.101,8.482c5.862,14.012,12.843,42.334,3.917,48.836l-19.78,7.91
	c-14.976,5.99-25.472,19.746-27.392,35.951l-0.128,0.981c-0.469,3.396-3.243,4.318-4.412,4.557
	c-2.116,0.427-4.941-0.085-6.562-2.799l-8.474-14.123c-3.115-5.197-8.866-8.286-14.839-7.919
	c-6.016,0.307-11.332,3.883-13.892,9.344c-7.62,16.273-17.186,39.757-19.507,59.204c-0.717,6.033,0.358,12.126,3.106,17.63
	l9.839,19.678c3.49,6.963,8.841,12.868,15.488,17.067c6.127,3.866,17.485,11.665,24.721,20.403
	c8.235,9.958,19.328,16.393,31.241,18.313c-0.478,15.983,0.572,42.257,11.452,53.862c3.806,4.053,8.576,6.281,13.858,6.46
	c0.956,0.128,2.637,0.299,4.813,0.299c6.332,0,16.905-1.434,26.573-9.421c13.466-11.127,20.369-30.703,20.523-58.189l12.22-55.006
	l4.642,7.731c3.772,6.289,10.078,10.709,17.28,12.126s14.711-0.307,20.591-4.71l18.654-13.995c2.15-1.613,3.413-4.139,3.413-6.827
	C403.267,329.41,358.552,259.488,289.364,227.454z M370.959,412.755c-2.048,1.527-4.565,2.099-7.066,1.613
	c-2.509-0.486-4.617-1.971-5.931-4.164l-8.849-14.754c-2.918-4.873-8.414-7.433-14.046-6.519
	c-5.606,0.913-10.027,5.086-11.264,10.633l-14.199,63.906c-0.137,0.606-0.205,1.229-0.205,1.852
	c0,22.161-4.881,37.999-14.114,45.807c-8.439,7.134-18.091,5.589-18.398,5.547c-1.101-0.205-1.937,0.683-3.729-1.229
	c-5.316-5.675-8.004-25.481-6.536-48.179c0.171-2.697-0.794-5.385-2.645-7.356c-1.86-1.988-4.506-3.123-7.236-3.123
	c-9.566,0-18.893-4.634-25.591-12.715c-8.303-10.044-20.224-18.577-28.757-23.962c-4.011-2.534-7.236-6.084-9.327-10.266
	l-9.839-19.678c-1.254-2.509-1.749-5.274-1.425-7.987c2.091-17.459,11.529-39.953,17.399-52.642l7.74,12.894
	c5.12,8.533,14.771,12.723,24.619,10.735c9.549-1.954,16.58-9.387,17.894-18.953l0.179-1.348
	c1.169-9.941,7.595-18.389,16.768-22.059l20.574-8.226c0.427-0.171,0.853-0.384,1.254-0.623
	c16.213-9.847,14.114-33.417,9.856-50.671c52.847,31.292,86.588,88.175,88.064,150.076L370.959,412.755z"/>
<path fill="#198338" d="M166.765,523.953l-5.171-5.163c-6.272-6.281-13.594-11.23-21.751-14.729l-26.317-11.281
	c-10.607-4.548-17.459-14.942-17.459-26.487V453.45c0-7.859-3.857-15.215-10.317-19.695c-6.46-4.471-14.711-5.487-22.067-2.739
	l-40.977,15.36c-4.113,1.545-6.391,5.956-5.248,10.206c19.208,71.535,78.524,127.078,151.117,141.491
	c0.563,0.111,1.126,0.162,1.673,0.162c3.746,0,7.142-2.466,8.209-6.187l3.123-10.94
	C187.382,560.792,181.707,538.887,166.765,523.953z M165.17,576.416l-0.922,3.209C103.977,564.82,54.851,518.799,36.12,459.578
	L69.673,447c2.159-0.819,4.471-0.529,6.357,0.785c1.886,1.306,2.97,3.371,2.97,5.666v12.843c0,18.381,10.914,34.935,27.802,42.172
	l26.317,11.281c6.161,2.645,11.682,6.383,16.41,11.11l5.171,5.163C165.255,546.575,169.274,562.054,165.17,576.416z"/>
<path fill="#198338" d="M117.545,238.923c-2.671-3.294-7.356-4.122-11-1.946c-56.354,33.647-92.066,92.749-95.522,158.089
	c-0.154,2.893,1.169,5.666,3.516,7.364c1.476,1.075,3.226,1.621,5.001,1.621c1.05,0,2.099-0.196,3.089-0.572l52.932-20.89
	c12.681-5.077,19.226-19.191,14.908-32.145c-1.05-3.166-0.239-6.596,2.116-8.96l24.593-24.593
	c8.397-8.388,13.022-19.55,13.022-31.428v-11.102C130.2,261.562,125.703,248.975,117.545,238.923z M113.133,285.455
	c0,7.322-2.85,14.191-8.03,19.362L80.51,329.41c-6.955,6.963-9.344,17.084-6.229,26.419c1.468,4.395-0.759,9.182-5.052,10.897
	l-39.953,15.838c6.63-51.618,35.422-97.809,79.172-126.643c3.055,5.675,4.685,12.023,4.685,18.432L113.133,285.455L113.133,285.455z
	"/>
<path fill="#198338" d="M207,141.054c-8.823,0-17.724,0.452-26.453,1.348c-4.685,0.478-8.098,4.676-7.62,9.361c0.452,4.395,4.164,7.663,8.482,7.663
	c0.29,0,0.589-0.017,0.879-0.051c8.149-0.828,16.461-1.254,24.713-1.254c4.71,0,8.533-3.823,8.533-8.533
	C215.534,144.878,211.71,141.054,207,141.054z"/>
<path fill="#198338" d="M-28.571,437.212c-2.227-13.176-3.362-26.684-3.362-40.158c0-2.85,0.051-5.692,0.154-8.533
	c0.162-4.71-3.524-8.653-8.235-8.823c-4.668-0.247-8.653,3.524-8.823,8.235c-0.112,3.028-0.163,6.066-0.163,9.121
	c0,14.421,1.212,28.894,3.593,43.008c0.708,4.164,4.318,7.108,8.405,7.108c0.478,0,0.956-0.034,1.442-0.119
	C-30.918,446.266-27.786,441.862-28.571,437.212z"/>
<path fill="#198338" d="M-15.541,484.213c-1.724-4.386-6.673-6.554-11.059-4.83c-4.386,1.715-6.554,6.665-4.83,11.059
	c6.357,16.213,14.421,31.838,23.962,46.447c1.638,2.509,4.369,3.866,7.151,3.866c1.604,0,3.226-0.452,4.668-1.382
	c3.942-2.577,5.052-7.868,2.475-11.81C-2.084,513.926-9.61,499.343-15.541,484.213z"/>
<path fill="#198338" d="M-35.449,346.485c0.683,0.162,1.365,0.239,2.031,0.239c3.84,0,7.33-2.62,8.286-6.511
	c3.857-15.795,9.361-31.258,16.375-45.943c2.031-4.258,0.23-9.344-4.028-11.375c-4.25-2.022-9.344-0.222-11.375,4.028
	c-7.518,15.744-13.423,32.316-17.553,49.246C-42.83,340.751-40.031,345.368-35.449,346.485z"/>
<path fill="#198338" d="M49.953,216.983c3.55-3.098,3.917-8.491,0.819-12.041s-8.482-3.925-12.041-0.819c-13.133,11.469-25.139,24.32-35.678,38.187
	c-2.85,3.746-2.125,9.105,1.63,11.955c1.544,1.178,3.354,1.741,5.154,1.741c2.577,0,5.12-1.169,6.801-3.371
	C26.477,239.682,37.69,227.684,49.953,216.983z"/>
<path fill="#198338" d="M165.366,632.386c-16.034-2.825-31.821-7.305-46.908-13.329c-4.386-1.749-9.344,0.375-11.093,4.762
	c-1.749,4.369,0.384,9.335,4.762,11.085c16.171,6.46,33.092,11.264,50.278,14.285c0.495,0.085,0.99,0.128,1.485,0.128
	c4.07,0,7.672-2.918,8.405-7.048C173.106,637.626,170.008,633.205,165.366,632.386z"/>
<path fill="#198338" d="M272.681,635.868c-1.092-4.591-5.709-7.407-10.274-6.332c-15.77,3.746-32.043,5.888-48.375,6.357
	c-4.71,0.128-8.422,4.062-8.286,8.772c0.137,4.625,3.925,8.286,8.525,8.286c0.077,0,0.162,0,0.256-0.008
	c17.493-0.503,34.927-2.79,51.823-6.801C270.932,645.05,273.765,640.45,272.681,635.868z"/>
<path fill="#198338" d="M140.039,158.598c-1.425-4.489-6.229-6.963-10.718-5.547c-16.606,5.282-32.734,12.314-47.932,20.89
	c-4.105,2.321-5.547,7.526-3.234,11.631c1.57,2.773,4.463,4.335,7.441,4.335c1.417,0,2.859-0.358,4.181-1.101
	c14.174-8.004,29.227-14.566,44.715-19.49C138.981,167.891,141.464,163.087,140.039,158.598z"/>
<path fill="#198338" d="M75.245,596.401c-13.551-8.969-26.24-19.379-37.726-30.933c-3.319-3.337-8.73-3.362-12.066-0.034
	c-3.337,3.328-3.354,8.73-0.034,12.075c12.305,12.373,25.899,23.526,40.405,33.135c1.451,0.956,3.089,1.417,4.702,1.417
	c2.765,0,5.478-1.34,7.117-3.831C80.246,604.303,79.171,599.004,75.245,596.401z"/>
<path d="M342.305,604.457c-2.449-4.028-7.697-5.325-11.725-2.876c-7.014,4.25-14.336,8.175-21.76,11.682
	c-4.258,2.014-6.093,7.091-4.079,11.358c1.459,3.089,4.523,4.898,7.723,4.898c1.22,0,2.458-0.265,3.644-0.819
	c7.962-3.755,15.804-7.962,23.322-12.518C343.457,613.732,344.745,608.484,342.305,604.457z"/>
<path fill="#198338" d="M461.2,519.814c-2.901-3.729-8.269-4.395-11.972-1.502l-76.8,59.733c-2.074,1.621-3.294,4.105-3.294,6.741v25.6
	c0,4.71,3.823,8.533,8.533,8.533s8.533-3.823,8.533-8.533v-21.427l73.498-57.173C463.418,528.894,464.092,523.535,461.2,519.814z"/>
<path fill="#198338" d="M380.372,576.689l-25.6-8.533c-4.489-1.51-9.31,0.93-10.795,5.393c-1.493,4.471,0.922,9.301,5.393,10.795l25.6,8.533
	c0.896,0.299,1.809,0.444,2.697,0.444c3.575,0,6.903-2.261,8.098-5.837C387.258,583.012,384.843,578.182,380.372,576.689z"/>
<path fill="#198338" d="M445.319,590.138l-17.067-42.667c-0.691-1.732-1.937-3.191-3.533-4.147l-42.667-25.6c-4.045-2.423-9.284-1.118-11.708,2.927
	c-2.424,4.045-1.118,9.284,2.927,11.708l40.201,24.124l16,40.004c1.34,3.337,4.54,5.367,7.927,5.367
	c1.058,0,2.133-0.196,3.166-0.623C444.944,599.482,447.068,594.515,445.319,590.138z"/>
</svg>
