<?xml version="1.0" encoding="iso-8859-1"?>
<!-- Generator: Adobe Illustrator 22.1.0, SVG Export Plug-In . SVG Version: 6.00 Build 0)  -->
<svg version="1.1" id="Camada_1" xmlns="http://www.w3.org/2000/svg" xmlns:xlink="http://www.w3.org/1999/xlink" x="0px" y="0px"
	 viewBox="0 0 276 278" style="enable-background:new 0 0 276 278;" xml:space="preserve">
<g>
	<g>
		<defs>
			<rect id="SVGID_1_" width="276" height="278"/>
		</defs>
		<clipPath id="SVGID_2_">
			<use xlink:href="#SVGID_1_"  style="overflow:visible;"/>
		</clipPath>
	</g>
</g>
<path style="fill:#FFFFFF;" d="M269.38,277.867c-2.539,0-4.945-1.523-5.945-4.027l-15.969-39.969
	c-8.203-20.211-17.637-30.414-30.766-32.809l-3.335,15.926l4.617,41.524c0.242,2.175-0.649,4.324-2.352,5.695l-10.301,8.273
	c-1.136,0.914-2.55,1.414-4.007,1.414h-3.657c-1.457,0-2.871-0.5-4.007-1.414l-10.301-8.273c-1.707-1.371-2.594-3.52-2.352-5.695
	l4.617-41.524l-3.336-15.926c-13.128,2.395-22.562,12.602-30.781,32.844l-16.215,39.965c-1.328,3.273-5.062,4.855-8.336,3.523
	c-3.277-1.328-4.855-5.058-3.527-8.336l16.219-39.968c7.035-17.328,19.512-40.227,46.984-41.344
	c0.242-0.027,0.488-0.043,0.738-0.043h24.25c0.25,0,0.497,0.016,0.739,0.043c27.476,1.117,39.953,24.016,46.984,41.344l15.981,40
	c1.312,3.285-0.286,7.007-3.571,8.316C270.974,277.719,270.169,277.867,269.38,277.867L269.38,277.867z M194.115,256.429
	l5.378,4.321l5.379-4.321l-3.711-33.351h-3.336L194.115,256.429z M197.294,210.277h4.399l2.047-9.773h-8.493L197.294,210.277z
	 M6.618,277.867c-0.8,0-1.613-0.152-2.402-0.473c-3.277-1.328-4.855-5.058-3.523-8.336l15.972-39.375
	c7.117-17.527,19.879-40.832,48.453-40.832H86.31c15.406,0,28.082,6.848,37.683,20.36c0.161,0.222,0.887,1.215,1.77,2.414
	c3.059,4.172,3.871,5.285,4.137,5.691c1.953,2.949,1.144,6.918-1.805,8.871c-2.937,1.942-6.887,1.145-8.844-1.773
	c-0.343-0.492-2.597-3.563-3.808-5.215c-0.953-1.297-1.735-2.363-1.887-2.578c-4.43-6.234-9.379-10.434-15.137-12.762
	l-17.535,24.028c-1.203,1.648-3.125,2.625-5.168,2.625c-2.043,0-3.965-0.977-5.168-2.625l-17.531-24.024
	c-9.992,4.051-17.668,13.824-24.488,30.633l-15.977,39.375C11.544,276.359,9.146,277.867,6.618,277.867L6.618,277.867z
	 M67.247,201.652l8.469,11.606l8.469-11.606H67.247z M101.532,277.863H33.466c-3.535,0-6.398-2.863-6.398-6.398
	c0-3.536,2.863-6.399,6.398-6.399h68.066c3.532,0,6.399,2.863,6.399,6.399C107.931,275,105.064,277.863,101.532,277.863
	L101.532,277.863z M228.599,231.281c-3.535,0-6.402-2.867-6.402-6.398v-0.801c0-3.535,2.867-6.403,6.402-6.403
	c3.531,0,6.398,2.868,6.398,6.403v0.801C234.997,228.414,232.13,231.281,228.599,231.281L228.599,231.281z M75.716,179.457
	c-17.906,0-32.473-14.567-32.473-32.473c0-14.75,9.883-27.234,23.372-31.18c0.066-0.019,0.132-0.039,0.199-0.058
	c2.136-0.609,4.336-0.992,6.562-1.152c0.008-0.004,0.02-0.004,0.032-0.004c0.015,0,0.023,0,0.035,0
	c0.015-0.004,0.027-0.004,0.043-0.004c0.011,0,0.019,0,0.035-0.004c0.015,0,0.027,0,0.039-0.004c0.012,0,0.023,0,0.031,0
	c0.027,0,0.051-0.004,0.074-0.004c0.106-0.008,0.211-0.016,0.317-0.02h0.004l0.101-0.003c0.012,0,0.047-0.004,0.071-0.004
	c0.007,0,0.019,0,0.031-0.004c0.015,0,0.027,0,0.043,0c0.011,0,0.015,0,0.031-0.004c0.008,0,0.016,0,0.027,0
	c0.012,0,0.028,0,0.035,0c0.012-0.004,0.024-0.004,0.04-0.004c0.007,0,0.015,0,0.027,0c0.023,0,0.051,0.004,0.074-0.004
	c0.395-0.016,0.793-0.023,1.192-0.023c0.011,0,0.019,0,0.027,0h0.129c0.015,0,0.035,0,0.051,0c0.015,0,0.035,0.004,0.05,0
	c0.02,0,0.039,0.004,0.055,0h0.02c15.918,0.132,29.183,11.586,31.753,27.082c0.293,1.754,0.446,3.554,0.446,5.394
	C108.193,164.89,93.622,179.457,75.716,179.457L75.716,179.457z M64.204,131.039c-4.941,3.574-8.164,9.39-8.164,15.945
	c0,10.848,8.828,19.676,19.676,19.676c9.195,0,16.938-6.34,19.082-14.883C80.896,151.859,68.943,143.387,64.204,131.039
	L64.204,131.039z M76.525,127.324c2.961,6.695,9.507,11.324,17.156,11.641C90.708,132.332,84.173,127.637,76.525,127.324
	L76.525,127.324z M199.493,177.976c-18.121,0-32.867-14.742-32.867-32.867c0-18.121,14.746-32.867,32.867-32.867
	c2.168,0,4.289,0.211,6.34,0.617c0.133,0.02,0.27,0.047,0.403,0.078c14.902,3.121,26.125,16.36,26.125,32.172
	C232.361,163.234,217.615,177.976,199.493,177.976L199.493,177.976z M188.122,128.582c-5.246,3.621-8.695,9.68-8.695,16.527
	c0,11.067,9,20.067,20.066,20.067c11.067,0,20.067-9,20.067-20.067c0-8.234-4.985-15.324-12.094-18.414
	c-2.684,3.457-6.043,6.356-9.894,8.52c-3.082,1.73-6.985,0.632-8.715-2.45C188.115,131.445,187.892,129.969,188.122,128.582
	L188.122,128.582z M47.892,111.062c-1.117,0-2.234-0.293-3.234-0.879c-1.961-1.148-3.165-3.25-3.165-5.519V46.996
	c0-11.207,9.122-20.328,20.329-20.328h22.707c3.531,0,6.398,2.867,6.398,6.402c0,3.531-2.867,6.399-6.398,6.399H61.822
	c-4.149,0-7.528,3.375-7.528,7.527v46.742l8.813-4.937c0.953-0.536,2.031-0.817,3.129-0.817h55.535c3.531,0,6.398,2.867,6.398,6.403
	c0,3.531-2.867,6.398-6.398,6.398H67.904l-16.883,9.461C50.048,110.789,48.97,111.062,47.892,111.062L47.892,111.062z
	 M199.529,97.804c-1.766,0-3.497-0.73-4.731-2.085l-19.703-21.602h-51.746c-11.211,0-20.328-9.121-20.328-20.328V20.328
	C103.021,9.117,112.138,0,123.349,0h62.25c11.207,0,20.328,9.117,20.328,20.328v71.078c0,2.641-1.625,5.012-4.09,5.965
	C201.087,97.664,200.302,97.804,199.529,97.804L199.529,97.804z M123.349,12.801c-4.152,0-7.527,3.375-7.527,7.527v33.461
	c0,4.148,3.375,7.527,7.527,7.527h54.574c1.797,0,3.516,0.758,4.727,2.086l10.476,11.488V20.328c0-4.152-3.379-7.527-7.527-7.527
	H123.349z M83.247,63.66H71.634c-3.535,0-6.398-2.863-6.398-6.398c0-3.536,2.863-6.399,6.398-6.399h11.613
	c3.535,0,6.399,2.863,6.399,6.399C89.646,60.797,86.782,63.66,83.247,63.66L83.247,63.66z M174.423,37.367h-26.418
	c-3.535,0-6.398-2.867-6.398-6.402c0-3.532,2.863-6.399,6.398-6.399h26.418c3.531,0,6.399,2.867,6.399,6.399
	C180.822,34.5,177.954,37.367,174.423,37.367L174.423,37.367z M174.423,37.367"/>
</svg>
