<svg xmlns="http://www.w3.org/2000/svg" viewBox="0 0 49 22" width="49" height="22">
    <title>Plan B Comunicação</title>
    <path fill="#d2d2d2" fill-rule="evenodd" d="M 22.9 13.1 h -0.4 v 2 h 0.5 c 0.4 0 0.8 0 1 -0.3 c 0.2 -0.1 0.3 -0.4 0.3 -0.7 c 0 -0.6 -0.5 -1 -1.4 -1 Z m 0.1 3 l -0.5 -0.1 v 2.2 h -1 v -6 h 1.2 c 1 0 1.6 0.2 2 0.4 c 0.5 0.3 0.7 0.8 0.7 1.4 c 0 1.3 -0.8 2 -2.4 2 Z m 3.3 2 v -5.9 h 1 v 5 h 2.8 v 1 h -3.8 Z M 33 14 l -0.7 2.2 h 1.4 L 33 14 Z m 1.5 4.2 l -0.5 -1.2 h -2 l -0.4 1.2 h -1.2 l 2.4 -6 h 0.5 l 2.3 6 h -1.1 Z m 5.6 0 l -2.8 -3.7 v 3.7 h -1 v -6 h 0.5 l 2.8 3.6 v -3.6 h 1 v 6 H 40 Z m 5.8 -2.9 h -0.6 v 2 h 0.6 c 0.4 0 0.8 0 1 -0.2 c 0.2 -0.2 0.3 -0.4 0.3 -0.8 c 0 -0.3 -0.1 -0.6 -0.3 -0.7 c -0.2 -0.2 -0.5 -0.3 -1 -0.3 Z m 0 -2.2 h -0.6 v 1.4 h 0.5 c 0.7 0 1 -0.2 1 -0.7 c 0 -0.5 -0.2 -0.7 -0.9 -0.7 Z m 0.2 5 h -1.8 v -5.8 l 1.7 -0.1 c 0.6 0 1 0.1 1.4 0.4 c 0.3 0.3 0.5 0.6 0.5 1.1 c 0 0.5 -0.2 0.9 -0.7 1.1 c 0.7 0.3 1 0.8 1 1.6 c 0 0.6 -0.1 1 -0.5 1.3 c -0.4 0.3 -1 0.5 -1.6 0.5 Z m -31.4 -6.6 Z m -11.7 -1 h 9 c 0.8 0 1.3 0.4 1.3 0.7 v 1.2 a 0.8 0.8 0 0 0 1 0.7 h 0.2 c 0.2 0 0.4 0 0.5 0.2 c 0.2 0.2 0.2 0.4 0.2 0.6 L 15 16 a 0.8 0.8 0 0 1 -1.2 0.6 a 0.8 0.8 0 0 0 -1 0.6 l -0.3 2.6 c 0 0.3 -0.6 0.7 -1.4 0.7 H 3.8 c -0.8 0 -1.4 -0.4 -1.4 -0.7 l -0.9 -8.6 c 0 -0.3 0.6 -0.6 1.4 -0.6 Z m 0 -1.4 C 1.3 9 0 10 0 11.2 v 0.1 l 1 8.6 H 0.8 C 0.9 21 2.2 22 3.8 22 H 11 c 1.6 0 2.9 -1 2.9 -2.2 v 0.1 l 0.1 -1.7 a 2.3 2.3 0 0 0 2.4 -2 l 0.2 -2.2 v -0.2 a 2.3 2.3 0 0 0 -1.9 -2.2 v -0.3 C 14.8 10 13.6 9 12 9 h -9 Z m 1.3 -0.9 s -0.4 -0.2 -0.3 -0.7 C 4 7 4.5 6.2 6.3 5 c 1.4 -1 2.2 -1.7 2.3 -2.3 c 0.1 -0.6 -0.4 -1.2 -1.5 -2.3 c -1 -0.8 0.5 -0.3 1.7 0.8 c 1.2 1 2.1 2.7 0.1 4.2 c -1.2 1 -0.5 1.6 0.4 2.1 c 1 0.5 2.3 0.7 2.3 0.7 H 4.2 Z"></path>
</svg>