<?xml version="1.0" encoding="iso-8859-1"?>
<!-- Generator: Adobe Illustrator 22.1.0, SVG Export Plug-In . SVG Version: 6.00 Build 0)  -->
<svg version="1.1" id="Camada_1" xmlns="http://www.w3.org/2000/svg" xmlns:xlink="http://www.w3.org/1999/xlink" x="0px" y="0px"
	 viewBox="0 0 353.043 409.602" style="enable-background:new 0 0 353.043 409.602;" xml:space="preserve">
<g>
	<path fill="#198338" d="M345.043,278.895H240.695v-79.782c0-4.418-3.582-8-8-8H120.348c-4.418,0-8,3.582-8,8v35.891H8c-4.418,0-8,3.582-8,8
		v158.598c0,4.418,3.582,8,8,8h337.043c4.418,0,8-3.582,8-8V286.895C353.043,282.477,349.461,278.895,345.043,278.895
		L345.043,278.895z M16,251.004h96.348v142.598H16V251.004z M128.348,207.113h96.347v186.489h-96.347V207.113z M337.043,393.602
		h-96.348v-98.707h96.348V393.602z M337.043,393.602"/>
	<path fill="#198338" d="M176.523,249.648c-0.519,0-1.05-0.054-1.562-0.16c-0.512-0.105-1.016-0.258-1.496-0.457
		c-0.488-0.199-0.949-0.445-1.383-0.734c-0.441-0.289-0.848-0.625-1.215-0.992c-0.371-0.368-0.703-0.782-0.992-1.219
		c-0.289-0.438-0.539-0.902-0.738-1.379c-0.199-0.48-0.36-0.984-0.457-1.496c-0.102-0.524-0.157-1.043-0.157-1.563
		c0-0.527,0.055-1.046,0.157-1.566c0.097-0.512,0.258-1.016,0.457-1.496c0.199-0.481,0.441-0.945,0.738-1.383
		c0.289-0.433,0.621-0.84,0.992-1.211c0.367-0.375,0.774-0.703,1.215-1c0.434-0.285,0.895-0.535,1.383-0.734
		c0.48-0.203,0.984-0.352,1.496-0.453c1.031-0.211,2.09-0.211,3.121,0c0.512,0.101,1.016,0.25,1.504,0.453
		c0.48,0.199,0.941,0.449,1.375,0.734c0.441,0.297,0.848,0.625,1.219,1c0.367,0.371,0.703,0.778,0.988,1.211
		c0.289,0.438,0.539,0.902,0.738,1.383c0.199,0.48,0.36,0.984,0.461,1.496c0.11,0.52,0.156,1.039,0.156,1.566
		c0,0.52-0.05,1.039-0.16,1.563c-0.097,0.512-0.258,1.016-0.457,1.496c-0.199,0.477-0.449,0.941-0.738,1.379
		c-0.285,0.434-0.621,0.851-0.988,1.219c-0.371,0.367-0.778,0.703-1.219,0.992c-0.434,0.289-0.895,0.535-1.375,0.734
		c-0.488,0.199-0.992,0.352-1.504,0.457C177.57,249.59,177.039,249.648,176.523,249.648L176.523,249.648z M176.523,249.648"/>
	<path fill="#198338" d="M176.523,361.68c-4.421,0-8-3.586-8-8v-82.172c0-4.422,3.579-8,8-8c4.418,0,8,3.578,8,8v82.172
		C184.523,358.094,180.941,361.68,176.523,361.68L176.523,361.68z M176.523,361.68"/>
	<path fill="#198338" d="M49.477,361.68c-4.418,0-8-3.586-8-8v-32.586c0-4.418,3.582-8,8-8c4.421,0,8,3.582,8,8v32.586
		C57.477,358.094,53.898,361.68,49.477,361.68L49.477,361.68z M49.477,361.68"/>
	<path fill="#198338" d="M76.953,361.68c-4.418,0-8-3.586-8-8v-32.586c0-4.418,3.582-8,8-8c4.414,0,8,3.582,8,8v32.586
		C84.953,358.094,81.371,361.68,76.953,361.68L76.953,361.68z M76.953,361.68"/>
	<path fill="#198338" d="M261.715,361.68c-4.418,0-8-3.586-8-8v-32.586c0-4.418,3.582-8,8-8c4.418,0,8,3.582,8,8v32.586
		C269.715,358.094,266.133,361.68,261.715,361.68L261.715,361.68z M261.715,361.68"/>
	<path fill="#198338" d="M288.867,361.68c-4.414,0-8-3.586-8-8v-32.586c0-4.418,3.586-8,8-8c4.422,0,8,3.582,8,8v32.586
		C296.867,358.094,293.289,361.68,288.867,361.68L288.867,361.68z M288.867,361.68"/>
	<path fill="#198338" d="M316.023,361.68c-4.418,0-8-3.586-8-8v-32.586c0-4.418,3.582-8,8-8s8,3.582,8,8v32.586
		C324.023,358.094,320.441,361.68,316.023,361.68L316.023,361.68z M316.023,361.68"/>
	<path fill="#198338" d="M322.617,209.496c-1.035,0-2.078-0.199-3.062-0.609l-24.485-10.145l-24.48,10.145c-2.57,1.066-5.512,0.718-7.766-0.918
		c-2.254-1.633-3.488-4.324-3.269-7.102l2.078-26.418l-17.215-20.148c-1.809-2.121-2.387-5.024-1.523-7.668
		c0.859-2.653,3.035-4.66,5.738-5.313l25.777-6.179l13.84-22.602c1.453-2.371,4.039-3.82,6.82-3.82c2.785,0,5.371,1.449,6.825,3.82
		l13.843,22.602l25.77,6.179c2.707,0.653,4.883,2.66,5.746,5.313c0.859,2.644,0.281,5.547-1.527,7.668l-17.219,20.148l2.086,26.418
		c0.218,2.778-1.024,5.469-3.274,7.102C325.93,208.977,324.281,209.496,322.617,209.496L322.617,209.496z M295.07,182.082
		c1.043,0,2.082,0.203,3.063,0.609l15.484,6.418l-1.32-16.707c-0.164-2.113,0.515-4.211,1.894-5.824l10.887-12.742l-16.297-3.906
		c-2.066-0.5-3.847-1.793-4.957-3.606l-8.754-14.285l-8.75,14.285c-1.109,1.813-2.89,3.106-4.953,3.606l-16.297,3.906l10.883,12.742
		c1.383,1.613,2.063,3.711,1.895,5.824l-1.317,16.707l15.481-6.418C292.992,182.285,294.031,182.082,295.07,182.082L295.07,182.082z
		 M295.07,182.082"/>
	<path fill="#198338" d="M30.426,209.496c-1.664,0-3.313-0.519-4.703-1.527c-2.25-1.633-3.493-4.324-3.274-7.102l2.086-26.418L7.316,154.301
		c-1.808-2.121-2.386-5.024-1.527-7.668c0.859-2.653,3.035-4.66,5.742-5.313l25.774-6.179l13.843-22.602
		c1.454-2.371,4.04-3.82,6.825-3.82c2.781,0,5.363,1.449,6.816,3.82l13.844,22.602l25.773,6.179c2.711,0.653,4.883,2.66,5.742,5.313
		c0.86,2.644,0.282,5.547-1.527,7.668l-17.215,20.148l2.086,26.418c0.219,2.778-1.019,5.469-3.273,7.102
		c-2.254,1.64-5.196,1.984-7.766,0.918l-24.484-10.145l-24.481,10.145C32.504,209.297,31.461,209.496,30.426,209.496L30.426,209.496
		z M27.965,153.836l10.887,12.738c1.378,1.617,2.062,3.715,1.89,5.828l-1.312,16.703l15.48-6.414c1.957-0.812,4.16-0.812,6.125,0
		l15.481,6.414l-1.321-16.703c-0.164-2.117,0.516-4.211,1.895-5.828l10.887-12.738l-16.297-3.91
		c-2.063-0.496-3.848-1.789-4.953-3.602l-8.754-14.285l-8.754,14.285c-1.11,1.813-2.895,3.106-4.957,3.602L27.965,153.836z
		 M27.965,153.836"/>
	<path fill="#198338" d="M261.961,27.812c-1.516-1.695-3.684-2.664-5.957-2.664h-18.152l1.781-16.277c0.25-2.258-0.481-4.519-1.996-6.211
		C236.117,0.969,233.953,0,231.68,0H121.363c-2.277,0-4.441,0.969-5.961,2.664c-1.515,1.691-2.238,3.953-1.988,6.219l1.797,16.265
		H97.039c-2.273,0-4.437,0.969-5.957,2.664c-1.516,1.696-2.242,3.958-1.992,6.219l3.16,28.571c1.031,9.281,5.234,18.05,11.84,24.695
		c5.722,5.754,13.051,9.715,20.933,11.379c4.969,13.285,14.872,24.019,27.391,30.129l-3.906,27.043h-2.524c-4.414,0-8,3.582-8,8
		c0,4.418,3.586,8,8,8h61.075c4.418,0,8-3.582,8-8c0-4.418-3.582-8-8-8h-2.52l-3.906-27c12.57-6.106,22.512-16.864,27.484-30.196
		c7.852-1.675,15.141-5.629,20.836-11.355c6.606-6.645,10.809-15.414,11.84-24.699l3.16-28.567
		C264.203,31.77,263.477,29.508,261.961,27.812L261.961,27.812z M108.152,60.836l-2.175-19.688h11.003l4.344,39.282
		c-2.152-1.172-4.14-2.657-5.89-4.414C111.371,71.93,108.785,66.539,108.152,60.836L108.152,60.836z M188.367,155.848h-23.691
		l3.203-22.168c2.832,0.449,5.738,0.679,8.691,0.679c2.922,0,5.793-0.226,8.594-0.664L188.367,155.848z M176.57,118.359
		c-19.918,0-36.593-14.906-38.785-34.672L130.297,16h92.461l-7.403,67.676C213.164,103.449,196.488,118.359,176.57,118.359
		L176.57,118.359z M244.891,60.832c-0.633,5.707-3.219,11.098-7.282,15.18c-1.722,1.73-3.679,3.199-5.793,4.367l4.286-39.231h10.968
		L244.891,60.832z M244.891,60.832"/>
</g>
</svg>
