<?xml version="1.0" encoding="utf-8"?>
<!-- Generator: Adobe Illustrator 22.1.0, SVG Export Plug-In . SVG Version: 6.00 Build 0)  -->
<svg version="1.1" id="Capa_1" xmlns="http://www.w3.org/2000/svg" xmlns:xlink="http://www.w3.org/1999/xlink" x="0px" y="0px"
	 viewBox="0 0 480 480" style="enable-background:new 0 0 480 480;" xml:space="preserve">
<style type="text/css">
	.st0{fill:url(#SVGID_1_);}
</style>
<linearGradient id="SVGID_1_" gradientUnits="userSpaceOnUse" x1="2.3426" y1="2.3426" x2="477.6574" y2="477.6573">
	<stop  offset="0" style="stop-color:#1D8E3E"/>
	<stop  offset="1" style="stop-color:#07521D"/>
</linearGradient>
<path class="st0" d="M480,8v192c0,0,0,0,0,0c0,4.4-3.6,8-8,8H184v-16h280V16H16v152H0V8c0,0,0,0,0,0c0-4.4,3.6-8,8-8h464
	c0,0,0,0,0,0C476.4,0,480,3.6,480,8z M264,56h160V40H264V56z M288,104h160V88H288V104z M256,152h160v-16H256V152z M224,405v67
	c0,0,0,0,0,0c0,4.4-3.6,8-8,8h-80c0,0,0,0,0,0c-4.4,0-8-3.6-8-8v-67c0-11.3,5.3-22,14.3-29H81.7c9,6.9,14.2,17.6,14.3,29v67
	c0,0,0,0,0,0c0,4.4-3.6,8-8,8H8c0,0,0,0,0,0c-4.4,0-8-3.6-8-8v-67c0-13.8,7.8-26.4,20.1-32.7C12.3,364.7,8,354.4,8,343.6
	c0-22.1,17.9-39.9,40-39.9c8.7,0,17.1,2.9,24,8.2V196.1l-8.4,26.6c-2.5,7-7.8,12.6-14.7,15.4c-6,2.4-12.7,2.4-18.7,0.1
	c-13.2-5.1-19.8-19.9-14.7-33.1l21.4-73.6c8-21.2,28.3-35.4,51-35.5h0.3C82.9,89.1,80,80.7,80,72c0-22.1,17.9-40,40-40
	s40,17.9,40,40c0,5.9-1.4,11.7-3.9,17l64.9-33.7c0.2-0.1,0.4-0.2,0.7-0.3c13.2-5.5,28.3,0.8,33.8,13.9c5.5,13.2-0.8,28.3-13.9,33.8
	L168,140.9v163.7c13.3-2.7,27.1,1.5,36.6,11.2c15.4,15.8,15.1,41.1-0.7,56.5C216.2,378.5,224,391.2,224,405z M152,343.7
	c0,13.3,10.7,24,24,24s24-10.7,24-24c0-13.2-10.8-24-24-24C162.7,319.7,152,330.4,152,343.7z M96,72c0,13.2,10.8,24,24,24
	c13.3,0,24-10.7,24-24s-10.7-24-24-24S96,58.7,96,72z M24,343.7c0,13.3,10.7,24,24,24s24-10.7,24-24s-10.7-24-24-24
	C34.8,319.7,24,330.5,24,343.7z M80,405c0-11.6-9.4-20.9-21-21H37c-11.6,0-20.9,9.4-21,21v59h64V405z M152,311.9V136
	c0-3,1.7-5.7,4.3-7.1l78.4-40.7c2.8-1,5-3.2,6-5.9c1-2.6,0.8-5.4-0.4-7.8c-2.3-4.6-7.8-6.7-12.6-4.7l-79.5,41.3
	c-1.1,0.6-2.4,0.9-3.7,0.9H87.9c-15.9,0.1-30.1,9.8-35.8,24.6l-21.4,73.6c-2.1,4.8-0.1,10.3,4.5,12.7c0.3,0.2,0.7,0.3,1,0.4
	c5,1.8,10.5-0.8,12.3-5.8l23.9-76c1-3.3,4.1-5.6,7.6-5.6c4.4,0,8,3.6,8,8v200h0c0,5.5-1.2,11-3.5,16H112V224h16v136h11.6
	C131.8,343,137,323,152,311.9z M208,405c0-11.6-9.4-20.9-21-21H165c-11.6,0-20.9,9.4-21,21v59h64V405z M352,405v67c0,0,0,0,0,0
	c0,4.4-3.6,8-8,8h-80c0,0,0,0,0,0c-4.4,0-8-3.6-8-8v-67c0-13.8,7.8-26.4,20.1-32.7c-0.2-0.2-0.5-0.5-0.7-0.7
	c-15.4-15.8-15.1-41.1,0.7-56.6s41.1-15.1,56.6,0.7c15.4,15.8,15.1,41.1-0.7,56.6C344.2,378.5,352,391.2,352,405z M280,343.7
	c0,13.3,10.7,24,24,24s24-10.7,24-24s-10.7-24-24-24C290.8,319.7,280,330.5,280,343.7z M336,405c0-11.6-9.4-20.9-21-21H293
	c-11.6,0-20.9,9.4-21,21v59h64V405z M480,405v67c0,0,0,0,0,0c0,4.4-3.6,8-8,8h-80c0,0,0,0,0,0c-4.4,0-8-3.6-8-8v-67
	c0-13.8,7.8-26.4,20.1-32.7c-0.2-0.2-0.5-0.5-0.7-0.7c-15.4-15.8-15.1-41.1,0.7-56.6s41.1-15.1,56.6,0.7
	c15.4,15.8,15.1,41.1-0.7,56.6C472.2,378.5,480,391.2,480,405z M408,343.7c0,13.3,10.7,24,24,24s24-10.7,24-24s-10.7-24-24-24
	C418.8,319.7,408,330.5,408,343.7z M464,405c0-11.6-9.4-20.9-21-21H421c-11.6,0-20.9,9.4-21,21v59h64V405z"/>
</svg>
