<?xml version="1.0" encoding="iso-8859-1"?>
<!-- Generator: Adobe Illustrator 22.1.0, SVG Export Plug-In . SVG Version: 6.00 Build 0)  -->
<svg version="1.1" id="Camada_1" xmlns="http://www.w3.org/2000/svg" xmlns:xlink="http://www.w3.org/1999/xlink" x="0px" y="0px"
	 viewBox="0 0 409.602 409.602" style="enable-background:new 0 0 409.602 409.602;" xml:space="preserve">
<g>
	<path fill="#198338"  d="M230.105,370.641c-2.667-2.672-6.984-2.672-9.652,0c-2.668,2.668-2.668,6.984,0,9.652l27.309,27.309
		c1.328,1.328,3.078,2,4.824,2c1.75,0,3.496-0.672,4.828-2c2.668-2.672,2.668-6.985,0-9.657L230.105,370.641z M230.105,370.641"/>
	<path fill="#198338" d="M204.801,327.68c-3.778,0-6.828,3.058-6.828,6.828v17.652l-45.785,45.785c-2.668,2.672-2.668,6.985,0,9.653
		c1.332,1.332,3.078,2,4.824,2c1.75,0,3.496-0.668,4.828-2l47.785-47.786c1.277-1.281,2-3.015,2-4.824v-20.48
		C211.625,330.738,208.574,327.68,204.801,327.68L204.801,327.68z M204.801,327.68"/>
	<path fill="#198338" d="M402.773,13.652H211.625V6.828c0-3.769-3.051-6.828-6.824-6.828c-3.778,0-6.828,3.059-6.828,6.828v6.824H6.828
		C3.051,13.652,0,16.711,0,20.48v27.305c0,3.77,3.051,6.828,6.828,6.828h354.984c3.778,0,6.829-3.058,6.829-6.828
		c0-3.765-3.051-6.824-6.829-6.824H13.652V27.305h382.293v13.656h-6.824c-3.777,0-6.828,3.059-6.828,6.824v232.11
		c0,11.289-9.188,20.476-20.481,20.476H47.785c-11.289,0-20.48-9.187-20.48-20.476V75.094c0-3.77-3.051-6.828-6.825-6.828
		c-3.777,0-6.828,3.058-6.828,6.828v204.801c0,18.82,15.313,34.132,34.137,34.132h314.023c18.821,0,34.133-15.312,34.133-34.132
		V54.613h6.828c3.774,0,6.829-3.058,6.829-6.828V20.48C409.602,16.711,406.547,13.652,402.773,13.652L402.773,13.652z
		 M402.773,13.652"/>
	<path fill="#198338" d="M307.199,136.535c19.258,0,20.442,17.07,20.481,20.512c0.019,3.754,3.066,6.793,6.828,6.793
		c3.773,0,6.824-3.059,6.824-6.824c0-11.813-7.133-34.137-34.133-34.137s-34.133,22.324-34.133,34.137v27.304
		c0,11.805,7.133,34.133,34.133,34.133s34.133-22.328,34.133-34.133c0-3.754-3.031-6.785-6.785-6.808h-0.039
		c-3.742,0-6.785,3.027-6.828,6.773c-0.039,3.426-1.207,20.516-20.481,20.516c-19.269,0-20.437-17.09-20.48-20.481v-27.273
		C286.762,153.621,287.93,136.535,307.199,136.535L307.199,136.535z M307.199,136.535"/>
	<path fill="#198338" d="M137.059,200.602c1.093,2.621,3.625,4.199,6.3,4.199c0.883,0,1.77-0.164,2.629-0.528c3.473-1.453,5.125-5.445,3.672-8.929
		l-34.133-81.918c-1.058-2.539-3.55-4.199-6.3-4.199c-2.75,0-5.243,1.66-6.301,4.199l-34.133,81.918
		c-1.457,3.484,0.191,7.476,3.672,8.929c3.488,1.461,7.476-0.191,8.93-3.671l3.937-9.457h17.066c3.778,0,6.829-3.055,6.829-6.825
		c0-3.769-3.051-6.828-6.829-6.828H91.02l18.207-43.687L137.059,200.602z M137.059,200.602"/>
	<path fill="#198338" d="M184.32,150.187c-3.777,0-6.828,3.059-6.828,6.825v81.922c0,3.765,3.051,6.824,6.828,6.824h27.305
		c11.805,0,34.137-5.707,34.137-27.305c0-8.664-3.594-14.773-8.657-18.98c5.739-4.914,8.657-12.301,8.657-21.981
		c0-10.117-3.192-17.742-9.465-22.637c-10.43-8.144-24.731-4.859-26.324-4.464c-3.657,0.914-5.883,4.613-4.969,8.281
		c0.914,3.652,4.617,5.871,8.273,4.961c0.098-0.028,9.387-2.102,14.618,1.98c2.793,2.188,4.21,6.18,4.21,11.879
		c0,5.68-1.406,9.668-4.175,11.852c-2.282,1.801-5.45,2.437-8.328,2.547c-2.903-0.52-5.641-0.746-7.977-0.746
		c-3.445,0-6.355,2.566-6.77,5.996c-0.429,3.418,1.774,6.621,5.118,7.453c0.718,0.183,4.031,0.941,8.398,0.984
		c5.981,1.242,13.734,4.477,13.734,12.875c0,13.367-19.667,13.645-20.48,13.652h-20.48v-75.093
		C191.145,153.246,188.094,150.187,184.32,150.187L184.32,150.187z M184.32,150.187"/>
</g>
</svg>
