<svg enable-background="new -49 141 512 512" version="1.1" viewBox="-49 141 512 512" xml:space="preserve" xmlns="http://www.w3.org/2000/svg">
<path d="m341.82 444.28c20.024-10.904 24.68-28.28 24.944-29.344l1.288-5.152-17.048-12.784c-10.016-7.512-16-19.48-16-32v-127.21c0-26.616-18.376-49.824-44.032-56.104-21.936-21.096-50.688-32.688-81.224-32.688h-13.496c-64.648 0-117.25 52.6-117.25 117.26v98.744c0 12.52-5.984 24.488-16 32l-17.048 12.792 1.288 5.152c0.264 1.064 4.928 18.44 24.944 29.344-19.688 8.808-33.184 28.56-33.184 51.088v85.624c0 13.232 10.768 24 24 24h24v22.936l118.86 16.984 1.136 0.16 120-17.144v-22.936h24c13.232 0 24-10.768 24-24v-85.624c0-22.528-13.496-42.28-33.184-51.096zm-0.416-34.48l7.824 5.864c-4.152 7.48-15.88 21.2-45.872 21.312l-56.44-7.056c0-0.312 0.088-0.6 0.088-0.92v-0.84c26.064-12.008 45.8-35.328 52.968-63.656 7.096-0.896 13.584-3.584 19.032-7.704v8.2c0 17.528 8.376 34.28 22.4 44.8zm-134.4 11.2c-44.112 0-80-35.888-80-80v-56.128c28.072-1.064 55.512-8.816 80-22.616 24.488 13.808 51.928 21.552 80 22.616v56.128c0 44.112-35.888 80-80 80zm0 16c8.104 0 15.944-1.12 23.464-3.024-2.296 10.856-11.936 19.024-23.464 19.024s-21.168-8.168-23.464-19.024c7.52 1.904 15.36 3.024 23.464 3.024zm95.664-89.368c0.152-2.2 0.336-4.392 0.336-6.632v-38.528c9.288 3.312 16 12.112 16 22.528 0 10.536-6.872 19.416-16.336 22.632zm-106.41-182.63h13.496c27.048 0 52.48 10.528 71.6 29.656l1.712 1.712 2.376 0.48c19.44 3.888 33.56 21.104 33.56 40.944v55.416c-4.672-3.536-10.056-6.184-16-7.392v-16.816h-9.352c-29.064 0-57.608-7.904-82.528-22.856l-4.12-2.472-4.12 2.472c-24.92 14.952-53.464 22.856-82.528 22.856h-9.352v16.808c-5.944 1.216-11.328 3.856-16 7.392v-26.944c0-55.832 45.424-101.26 101.26-101.26zm-85.256 137.47v38.528c0 2.24 0.184 4.432 0.336 6.632-9.464-3.216-16.336-12.096-16.336-22.632 0-10.416 6.712-19.216 16-22.528zm-46.224 113.2l7.824-5.872c14.024-10.512 22.4-27.264 22.4-44.8v-8.208c5.44 4.12 11.928 6.808 19.032 7.704 7.168 28.336 26.904 51.648 52.968 63.656v0.848c0 0.32 0.088 0.608 0.096 0.928l-56.44 7.056c-30.032-0.12-41.752-13.872-45.88-21.312zm-9.776 165.33v-24h80c8.824 0 16 7.176 16 16s-7.176 16-16 16h-72c-4.408 0-8-3.584-8-8zm256 33.064l-96 13.72v-78.784h-16v78.776l-96-13.72v-9.056h32c17.648 0 32-14.352 32-32s-14.352-32-32-32h-32v-38.776l96 13.712v17.064h16v-17.064l96-13.712v38.776h-32c-17.648 0-32 14.352-32 32s14.352 32 32 32h32v9.064zm48-33.064c0 4.416-3.592 8-8 8h-72c-8.824 0-16-7.176-16-16s7.176-16 16-16h80v24zm0-40h-32v-57.224l-120 17.144-120-17.152v57.232h-32v-45.624c0-20.128 15.064-37.192 35.04-39.696l80.68-10.08c6.32 13.768 20.16 23.4 36.28 23.4s29.96-9.632 36.288-23.4l80.68 10.08c19.976 2.496 35.04 19.568 35.04 39.696v45.624h-8e-3z" fill="#00913d"/>
<circle cx="159" cy="309" r="8" fill="#00913d"/>
<circle cx="255" cy="309" r="8" fill="#00913d"/>
<path d="m207 389c-22.056 0-40-17.944-40-40h-16c0 30.872 25.12 56 56 56s56-25.128 56-56h-16c0 22.056-17.944 40-40 40z" fill="#00913d"/>
</svg>
