<?xml version="1.0" encoding="utf-8"?>
<!-- Generator: Adobe Illustrator 22.1.0, SVG Export Plug-In . SVG Version: 6.00 Build 0)  -->
<svg version="1.1" id="Camada_1" xmlns="http://www.w3.org/2000/svg" xmlns:xlink="http://www.w3.org/1999/xlink" x="0px" y="0px"
	 viewBox="0 0 31.5 31.5" style="enable-background:new 0 0 31.5 31.5;" xml:space="preserve">
<path fill="#0f6929" d="M30.3,14.2L20.1,3.9c-0.4-0.4-1-0.7-1.6-0.7c-0.6,0-1.2,0.2-1.6,0.7c-0.9,0.9-0.9,2.3,0,3.2l6.3,6.3H2.7c0,0,0,0,0,0
	c-1.2,0-2.2,1-2.3,2.3c0,1.3,1,2.3,2.3,2.3h20.5l-6.4,6.3c-0.9,0.9-0.9,2.3,0,3.2c0.4,0.4,1,0.7,1.6,0.7c0,0,0,0,0,0
	c0.6,0,1.2-0.2,1.6-0.6l10.2-10.2c0.4-0.4,0.7-1,0.7-1.6C31,15.2,30.8,14.6,30.3,14.2z"/>
</svg>
