<?xml version="1.0" encoding="utf-8"?>
<!-- Generator: Adobe Illustrator 22.1.0, SVG Export Plug-In . SVG Version: 6.00 Build 0)  -->
<svg version="1.1" id="Capa_1" xmlns="http://www.w3.org/2000/svg" xmlns:xlink="http://www.w3.org/1999/xlink" x="0px" y="0px"
	 viewBox="0 0 465 465" style="enable-background:new 0 0 465 465;" xml:space="preserve">
<style type="text/css">
	.st0{fill:url(#SVGID_1_);}
	.st1{fill:url(#SVGID_2_);}
	.st2{fill:url(#SVGID_3_);}
</style>
<g>
	<linearGradient id="SVGID_1_" gradientUnits="userSpaceOnUse" x1="171.2086" y1="182.8041" x2="293.7914" y2="305.3869">
		<stop  offset="0" style="stop-color:#1D8E3E"/>
		<stop  offset="1" style="stop-color:#07521D"/>
	</linearGradient>
	<path class="st0" d="M240,356.1v-224c0-4.1-3.4-7.5-7.5-7.5s-7.5,3.4-7.5,7.5v224c0,4.1,3.4,7.5,7.5,7.5S240,360.2,240,356.1z"/>
	<linearGradient id="SVGID_2_" gradientUnits="userSpaceOnUse" x1="39.1733" y1="41.0015" x2="425.8271" y2="427.6552">
		<stop  offset="0" style="stop-color:#1D8E3E"/>
		<stop  offset="1" style="stop-color:#07521D"/>
	</linearGradient>
	<path class="st1" d="M457.5,75.8c-15.9,0-35.6-6.8-56.5-14.1c-26.5-9.2-56.5-19.6-87.7-19.6c-36,0-58,15.8-70.1,29
		c-4.5,5-8,9.9-10.7,14.3c-2.7-4.4-6.2-9.4-10.7-14.3c-12.1-13.2-34.1-29-70.1-29c-31.1,0-61.2,10.4-87.7,19.6
		C43.1,68.9,23.4,75.8,7.5,75.8c-4.1,0-7.5,3.4-7.5,7.5v302.1c0,4.1,3.4,7.5,7.5,7.5c18.4,0,39.3-7.2,61.4-14.9
		c25.4-8.8,54.1-18.7,82.8-18.7c24.5,0,44.4,8.1,59,24.2c2.8,3.1,7.5,3.3,10.6,0.5s3.3-7.5,0.5-10.6c-12.1-13.2-34.1-29-70.1-29
		c-31.1,0-61.2,10.4-87.7,19.6c-17.7,6.1-34.6,12-49,13.6v-287c16.5-1.6,34.8-7.9,53.9-14.5c25.4-8.8,54.1-18.7,82.8-18.7
		c57.9,0,73,46,73.6,47.9c1,3.1,3.9,5.3,7.2,5.3s6.2-2.1,7.2-5.3c0.1-0.5,15.4-47.9,73.6-47.9c28.6,0,57.4,10,82.8,18.7
		c19.2,6.6,37.5,13,53.9,14.5v287c-14.4-1.6-31.3-7.5-49-13.6c-26.5-9.2-56.5-19.6-87.7-19.6c-36,0-58,15.8-70.1,29
		c-2.8,3.1-2.6,7.8,0.5,10.6c3.1,2.8,7.8,2.6,10.6-0.5c14.6-16,34.5-24.2,59-24.2c28.6,0,57.4,10,82.8,18.7
		c22.1,7.7,43.1,14.9,61.4,14.9c4.1,0,7.5-3.4,7.5-7.5V83.3C465,79.1,461.6,75.8,457.5,75.8z"/>
	<linearGradient id="SVGID_3_" gradientUnits="userSpaceOnUse" x1="114.6963" y1="297.5705" x2="350.303" y2="533.1772">
		<stop  offset="0" style="stop-color:#1D8E3E"/>
		<stop  offset="1" style="stop-color:#07521D"/>
	</linearGradient>
	<path class="st2" d="M457.5,407.9c-15.9,0-35.6-6.8-56.5-14.1c-26.5-9.2-56.5-19.6-87.7-19.6c-33.8,0-55.3,13.9-67.8,26.6l-26,0
		c-12.5-12.7-34-26.6-67.8-26.6c-31.1,0-61.2,10.4-87.7,19.6c-20.9,7.2-40.7,14.1-56.5,14.1c-4.1,0-7.5,3.4-7.5,7.5s3.4,7.5,7.5,7.5
		c18.4,0,39.3-7.2,61.4-14.9c25.4-8.8,54.1-18.7,82.8-18.7c24.5,0,44.4,8.1,59,24.2c1.4,1.6,3.4,2.4,5.5,2.4l32.5,0
		c2.1,0,4.1-0.9,5.5-2.4c14.6-16,34.5-24.2,59-24.2c28.6,0,57.4,10,82.8,18.7c22.1,7.7,43.1,14.9,61.4,14.9c4.1,0,7.5-3.4,7.5-7.5
		S461.6,407.9,457.5,407.9z"/>
</g>
</svg>
