<svg xmlns="http://www.w3.org/2000/svg" viewBox="0 0 884 337"><linearGradient id="a" gradientUnits="userSpaceOnUse" x1="962" y1="-2707" x2="962" y2="-2372" gradientTransform="matrix(1 0 0 -1 -520 -2371)"><stop offset="0" stop-color="#198338"/><stop offset="1" stop-color="#0c5e24"/></linearGradient><path d="M773 336H111c-5.5 0-10-4.5-10-10V11c0-5.5 4.5-10 10-10h185c5.5 0 10 4.5 10 10v125c0 5.5 4.5 10 10 10h252c5.5 0 10-4.5 10-10V11c0-5.5 4.5-10 10-10h185c5.5 0 10 4.5 10 10v315c0 5.5-4.5 10-10 10z" fill="none" stroke="url(#a)" stroke-width="2" stroke-linecap="round" stroke-dasharray="1.000000e-03,4"/></svg>