<svg xmlns="http://www.w3.org/2000/svg" viewBox="-49 141 512 512"><g fill="#fff"><path d="M366.312 497l14.344-14.344-11.312-11.312L355 485.688l-15.096-15.096C352.032 448.76 359 423.688 359 397c0-2.28-.24-4.496-.344-6.752C396.248 381.408 423 348.128 423 309h-16c0 30.896-20.624 57.32-49.904 65.192C346.032 301.184 283.04 245 207 245c-2.28 0-4.496.24-6.752.344C191.408 207.752 158.128 181 119 181v16c30.896 0 57.32 20.624 65.192 49.904C111.184 257.968 55 320.96 55 397c0 2.28.24 4.496.344 6.752C17.752 412.592-9 445.872-9 485H7c0-30.896 20.624-57.32 49.904-65.192C67.968 492.816 130.96 549 207 549c26.688 0 51.76-6.968 73.584-19.096L295.68 545l-14.344 14.344 11.312 11.312 14.344-14.344L383.4 632.72c7.92 7.92 18.456 12.28 29.656 12.28C436.184 645 455 626.184 455 603.064c0-11.2-4.36-21.736-12.28-29.656L366.312 497zm-24.928-119.84l-15.768 2.624C317.232 321.76 267.312 277 207 277c-.408 0-.808.056-1.216.064l-2.64-15.864c1.296-.04 2.552-.2 3.856-.2 68.24 0 124.728 50.56 134.384 116.16zM207 293c57.344 0 104 46.656 104 104s-46.656 104-104 104-104-46.656-104-104 46.656-104 104-104zm-19.84-30.384l2.624 15.768C131.76 286.768 87 336.688 87 397c0 .408.056.808.064 1.216l-15.864 2.64c-.04-1.296-.2-2.552-.2-3.856 0-68.24 50.56-124.728 116.16-134.384zM72.616 416.84l15.768-2.624C96.768 472.24 146.688 517 207 517c66.168 0 120-53.832 120-120 0-.408-.056-.808-.064-1.216l15.864-2.64c.04 1.296.2 2.552.2 3.856 0 74.992-61.008 136-136 136-68.24 0-124.728-50.56-134.384-116.16zM294.44 521.128a153.05 153.05 0 0 0 36.688-36.688l12.56 12.56L307 533.688l-12.56-12.56zM413.064 629c-6.928 0-13.448-2.696-18.344-7.592L318.312 545 355 508.312l76.408 76.408c4.896 4.896 7.592 11.416 7.592 18.344C439 617.368 427.368 629 413.064 629z"/><path d="M383 293c39.704 0 72-32.296 72-72s-32.296-72-72-72-72 32.296-72 72 32.296 72 72 72zm-24-21.48V261c0-13.232 10.768-24 24-24s24 10.768 24 24v10.52c-7.288 3.472-15.408 5.48-24 5.48s-16.712-2.008-24-5.48zm8-66.52c0-8.824 7.176-16 16-16s16 7.176 16 16-7.176 16-16 16-16-7.176-16-16zm16-40c30.872 0 56 25.128 56 56 0 15.256-6.152 29.088-16.08 39.2a39.975 39.975 0 0 0-17.568-32.36C411.288 222.032 415 213.952 415 205c0-17.648-14.352-32-32-32s-32 14.352-32 32c0 8.952 3.712 17.032 9.648 22.84a39.945 39.945 0 0 0-17.568 32.36C333.152 250.088 327 236.256 327 221c0-30.872 25.128-56 56-56zM31 293c39.704 0 72-32.296 72-72s-32.296-72-72-72-72 32.296-72 72 32.296 72 72 72zM7 271.52V261c0-13.232 10.768-24 24-24s24 10.768 24 24v10.52c-7.288 3.472-15.408 5.48-24 5.48s-16.712-2.008-24-5.48zM15 205c0-8.824 7.176-16 16-16s16 7.176 16 16-7.176 16-16 16-16-7.176-16-16zm16-40c30.872 0 56 25.128 56 56 0 15.256-6.152 29.088-16.08 39.2a39.975 39.975 0 0 0-17.568-32.36C59.288 222.032 63 213.952 63 205c0-17.648-14.352-32-32-32s-32 14.352-32 32c0 8.952 3.712 17.032 9.648 22.84A39.987 39.987 0 0 0-8.92 260.2C-18.848 250.088-25 236.256-25 221c0-30.872 25.128-56 56-56zm0 336c-39.704 0-72 32.296-72 72s32.296 72 72 72 72-32.296 72-72-32.296-72-72-72zM7 623.52V613c0-13.232 10.768-24 24-24s24 10.768 24 24v10.52c-7.288 3.472-15.408 5.48-24 5.48s-16.712-2.008-24-5.48zM15 557c0-8.824 7.176-16 16-16s16 7.176 16 16-7.176 16-16 16-16-7.176-16-16zm55.92 55.2a39.975 39.975 0 0 0-17.568-32.36C59.288 574.032 63 565.952 63 557c0-17.648-14.352-32-32-32s-32 14.352-32 32c0 8.952 3.712 17.032 9.648 22.84A39.987 39.987 0 0 0-8.92 612.2C-18.848 602.088-25 588.256-25 573c0-30.872 25.128-56 56-56s56 25.128 56 56c0 15.256-6.152 29.088-16.08 39.2zM119 381v56h176v-88h-48v72h-16V317h-48v104h-16v-40h-48zm16 16h16v24h-16v-24zm128-32h16v56h-16v-56zm-64-32h16v88h-16v-88z"/></g></svg>