<svg width="512" height="512" viewBox="0 0 511.999 511.999" xmlns="http://www.w3.org/2000/svg"><path d="M289.91 74.743c5.081-6.945 8.091-15.498 8.091-24.743v-8c0-23.159-18.841-42-42-42s-42 18.841-42 42v8c0 9.245 3.01 17.798 8.091 24.743-31.161 8.718-54.091 37.351-54.091 71.257v76c0 16.542 13.458 30 30 30h8.063v132c0 5.522 4.477 10 10 10h80c5.523 0 10-4.478 10-10V252h7.937c16.542 0 30-13.458 30-30v-76c0-33.906-22.93-62.539-54.091-71.257zM234.001 42c0-12.131 9.869-22 22-22s22 9.869 22 22v8c0 12.131-9.869 22-22 22s-22-9.869-22-22v-8zm52.064 332h-19.944V266.5a10 10 0 0 0-.113-1.426V236c0-5.523-4.477-10-10-10s-10 4.477-10 10v138h-19.943V209.5h60V374zm37.936-152c0 5.514-4.486 10-10 10h-7.937v-44.5c0-5.523-4.477-10-10-10s-10 4.477-10 10v2h-60V150c0-5.523-4.477-10-10-10s-10 4.477-10 10v82h-8.063c-5.514 0-10-4.486-10-10v-76c0-29.776 24.224-54 54-54h28c29.776 0 54 24.224 54 54v76zM507.31 419.52l-53.167-33.294a10.002 10.002 0 0 0-15.307 8.476v3.294h-83c-5.523 0-10 4.478-10 10s4.477 10 10 10h93c4.026 0 7.496-2.379 9.082-5.808l25.243 15.808-25.244 15.808a10.001 10.001 0 0 0-9.082-5.808h-93c-5.523 0-10 4.478-10 10s4.477 10 10 10h83v3.294a10.002 10.002 0 0 0 15.307 8.476l53.167-33.294a10.001 10.001 0 0 0 .001-16.952zm-209.27 24.47a10.002 10.002 0 0 0-8.749-5.156h-3.294v-12.5c0-5.522-4.477-10-10-10s-10 4.478-10 10v22.5c0 4.025 2.379 7.496 5.808 9.082l-15.808 25.243-15.808-25.243a10.004 10.004 0 0 0 5.808-9.082v-22.5c0-5.522-4.477-10-10-10s-10 4.478-10 10v12.5h-3.294a10.002 10.002 0 0 0-8.476 15.307l33.294 53.167a10.003 10.003 0 0 0 16.952 0l33.294-53.167a10 10 0 0 0 .273-10.151zm-134.8-3.06c-1.87-1.861-4.44-2.93-7.07-2.93s-5.21 1.069-7.07 2.93c-1.87 1.86-2.93 4.44-2.93 7.07s1.06 5.21 2.93 7.069c1.86 1.86 4.44 2.931 7.07 2.931s5.2-1.07 7.07-2.931c1.86-1.859 2.93-4.439 2.93-7.069s-1.07-5.21-2.93-7.07zM156.17 398h-83v-3.294a10.002 10.002 0 0 0-15.307-8.476L4.695 419.524a10.004 10.004 0 0 0 0 16.952l53.167 33.294a9.996 9.996 0 0 0 15.307-8.476V458h40.5c5.523 0 10-4.478 10-10s-4.476-10-9.999-10h-50.5a10.003 10.003 0 0 0-9.082 5.808L28.844 428l25.244-15.808A10.001 10.001 0 0 0 63.17 418h93c5.523 0 10-4.478 10-10s-4.477-10-10-10z" fill="#00913d"/><path d="M303.13 142.93a10.058 10.058 0 0 0-7.07-2.93c-2.63 0-5.21 1.07-7.07 2.93s-2.93 4.44-2.93 7.07 1.07 5.21 2.93 7.07c1.87 1.86 4.44 2.93 7.07 2.93 2.64 0 5.21-1.07 7.07-2.93 1.87-1.86 2.93-4.44 2.93-7.07s-1.06-5.21-2.93-7.07z" fill="#00913d"/></svg>