<svg xmlns="http://www.w3.org/2000/svg" viewBox="0 0 10 10"><path d="M6.141 5.253a.175.175 0 0 1 0-.253l2.717-2.717a.392.392 0 0 0 .109-.253.398.398 0 0 0-.108-.255l-.508-.507a.388.388 0 0 0-.253-.108.328.328 0 0 0-.255.108L5.126 3.984a.175.175 0 0 1-.253 0L2.156 1.268a.388.388 0 0 0-.252-.108.393.393 0 0 0-.255.108l-.508.507a.398.398 0 0 0-.108.255c0 .071.035.18.108.253L3.858 5a.175.175 0 0 1 0 .253L1.141 7.969a.396.396 0 0 0-.108.255c0 .072.035.18.108.253l.508.508a.396.396 0 0 0 .255.108c.071 0 .18-.036.253-.108l2.717-2.717a.175.175 0 0 1 .253 0l2.717 2.717a.394.394 0 0 0 .255.108c.072 0 .18-.036.253-.108l.508-.508a.39.39 0 0 0 .108-.253.396.396 0 0 0-.108-.255L6.141 5.253zm0 0" fill="#00913d"/></svg>