<svg xmlns="http://www.w3.org/2000/svg" xmlns:xlink="http://www.w3.org/1999/xlink" viewBox="0 0 496 496"><defs><path id="a" d="M0 0h496v496H0z"/></defs><clipPath id="b"><use xlink:href="#a" overflow="visible"/></clipPath><path fill="#198338" d="M488 0H152c-4.414 0-8 3.574-8 8v24h-24c-4.414 0-8 3.574-8 8v33.473C102.711 76.785 96 85.586 96 96v29.48c-18.887 9.008-32 28.239-32 50.52a55.653 55.653 0 0 0 6.754 26.633L.383 421.551a8.008 8.008 0 0 0 1.152 7.16A7.984 7.984 0 0 0 8 432h16v32h16v-32h16a8.002 8.002 0 0 0 7.801-6.199L82.672 344H112v144c0 4.426 3.586 8 8 8h336c4.418 0 8-3.574 8-8v-24h24c4.418 0 8-3.574 8-8V8c0-4.426-3.582-8-8-8zM112 96c0-4.414 3.594-8 8-8 4.406 0 8 3.586 8 8v24.641c-2.625-.375-5.281-.641-8-.641-2.719 0-5.375.266-8 .641V96zm8 40c22.055 0 40 17.945 40 40s-17.945 40-40 40-40-17.945-40-40 17.945-40 40-40zm70.359 280l-43.992-190.625c3.953-2.117 7.586-4.734 10.906-7.703L221.023 416h-30.664zM120 232c3.84 0 7.594-.391 11.215-1.137L146.25 296H93.754l15.031-65.137A55.558 55.558 0 0 0 120 232zM49.641 416H18.977l63.75-198.328c3.312 2.969 6.953 5.586 10.906 7.703L49.641 416zm40.414-104h59.89l3.696 16H86.367l3.688-16zM448 480H128V344h29.328l18.871 81.801A8.002 8.002 0 0 0 184 432h16v32h16v-32h16a7.984 7.984 0 0 0 6.465-3.289 8.008 8.008 0 0 0 1.152-7.16L169.25 202.633c4.301-7.93 6.75-17 6.75-26.633 0-22.281-13.113-41.504-32-50.52V96c0-10.414-6.711-19.215-16-22.527V48h256v56c0 4.426 3.586 8 8 8h56v368zM436.688 96H400V59.312L436.688 96zM480 448h-16V104a7.953 7.953 0 0 0-2.352-5.664l-63.984-63.984A7.953 7.953 0 0 0 392 32H160V16h320v432zm0 0" clip-path="url(#b)"/><path fill="#198338" d="M120 200c13.23 0 24-10.77 24-24s-10.77-24-24-24-24 10.77-24 24 10.77 24 24 24zm0-32c4.406 0 8 3.586 8 8 0 4.418-3.594 8-8 8-4.406 0-8-3.582-8-8 0-4.414 3.594-8 8-8zm208-25.879C317.031 133.305 303.129 128 288 128c-35.289 0-64 28.711-64 64 0 26.887 16.688 49.91 40.23 59.375-.101 1.527-.23 3.066-.23 4.625 0 35.289 28.711 64 64 64s64-28.711 64-64c0-1.559-.129-3.098-.23-4.625C415.312 241.91 432 218.887 432 192c0-35.289-28.711-64-64-64-15.129 0-29.031 5.305-40 14.121zm7.977 50.43c-2.625-.328-5.274-.551-7.977-.551-2.703 0-5.352.223-7.977.551 0-.184-.023-.367-.023-.551 0-9.785 2.953-18.879 8-26.48 5.047 7.601 8 16.695 8 26.48 0 .184-.023.367-.023.551zm12.535 20.113a48.182 48.182 0 0 1 24.586 27.055A48.762 48.762 0 0 1 368 240c-10.832 0-20.793-3.648-28.832-9.719a63.928 63.928 0 0 0 9.344-17.617zM328 218.48c-2.098-3.152-3.793-6.585-5.098-10.199 1.672-.176 3.379-.281 5.098-.281s3.426.105 5.098.281c-1.305 3.614-3 7.039-5.098 10.199zm-11.168 11.801c-8.039 6.071-18 9.719-28.832 9.719-1.719 0-3.426-.105-5.098-.281 4.321-11.926 13.219-21.649 24.586-27.055a63.928 63.928 0 0 0 9.344 17.617zM240 192c0-26.473 21.527-48 48-48 10.832 0 20.793 3.648 28.832 9.719C308.816 164.406 304 177.641 304 192c0 1.559.129 3.098.23 4.625-17.207 6.91-30.703 21.078-36.742 38.703C251.273 227.625 240 211.129 240 192zm136 64c0 26.473-21.527 48-48 48s-48-21.527-48-48c0-.184.023-.367.023-.551 2.625.328 5.274.551 7.977.551 15.129 0 29.031-5.305 40-14.121C338.969 250.695 352.871 256 368 256c2.703 0 5.352-.223 7.977-.551 0 .184.023.367.023.551zm40-64c0 19.129-11.273 35.625-27.488 43.336-6.039-17.625-19.535-31.793-36.742-38.703.101-1.535.23-3.074.23-4.633 0-14.359-4.816-27.594-12.832-38.281 8.039-6.071 18-9.719 28.832-9.719 26.473 0 48 21.527 48 48zM256 336h176v16H256zm0 32h176v16H256zm0 32h176v16H256zm0 32h176v16H256z"/></svg>