<svg xmlns="http://www.w3.org/2000/svg" viewBox="0 0 512 512"><linearGradient id="a" gradientUnits="userSpaceOnUse" x1="99.244" y1="71.922" x2="412.754" y2="385.432"><stop offset="0" stop-color="#1d8e3e"/><stop offset="1" stop-color="#07521d"/></linearGradient><path d="M354.7 180.8H332c-1.4-4.4-3.2-8.7-5.3-12.8l16.1-16.1c2-2 3.1-4.7 3.1-7.5s-1.1-5.5-3.1-7.5L323.9 118c-4.1-4.1-10.9-4.1-15 0l-16.1 16.1c-4.1-2.1-8.4-3.9-12.8-5.3v-22.7c0-5.9-4.8-10.6-10.6-10.6h-26.7c-5.9 0-10.6 4.8-10.6 10.6v22.7c-4.4 1.4-8.7 3.2-12.8 5.3L203.2 118c-4.1-4.1-10.9-4.1-15 0l-18.9 19c-2 2-3.1 4.7-3.1 7.5s1.1 5.5 3.1 7.5l16.1 16.1c-2.1 4.1-3.9 8.4-5.3 12.8h-22.7c-5.9 0-10.6 4.8-10.6 10.6v26.7c0 5.9 4.8 10.6 10.6 10.6H180c1.4 4.4 3.2 8.7 5.3 12.8l-16.1 16.1c-4.1 4.1-4.1 10.9 0 15l18.9 18.9c4.1 4.1 10.9 4.1 15 0l16.1-16.1c4.1 2.1 8.4 3.9 12.8 5.3v22.7c0 5.9 4.8 10.6 10.6 10.6h26.7c5.9 0 10.6-4.8 10.6-10.6v-22.7c4.4-1.4 8.7-3.2 12.8-5.3l16.1 16.1c4.1 4.1 10.9 4.1 15 0l18.9-18.9c2-2 3.1-4.7 3.1-7.5s-1.1-5.5-3.1-7.5l-16.1-16.1c2.1-4.1 3.9-8.4 5.3-12.8h22.7c5.9 0 10.6-4.8 10.6-10.6v-26.7c.1-5.9-4.7-10.7-10.5-10.7zm-4.4 33h-24.1c-3.5 0-6.5 2.4-7.3 5.8-1.6 6.8-4.3 13.3-8 19.3-1.8 3-1.4 6.8 1.1 9.3l17 17-12.7 12.7-17-17c-2.5-2.5-6.3-2.9-9.3-1.1-6 3.7-12.4 6.4-19.3 8-3.4.8-5.8 3.8-5.8 7.3v24.1h-18v-24.1c0-3.5-2.4-6.5-5.8-7.3-6.8-1.6-13.3-4.3-19.3-8-3-1.8-6.8-1.4-9.3 1.1l-17 17-12.5-12.8 17-17c2.5-2.5 2.9-6.3 1.1-9.3-3.7-5.9-6.4-12.4-8-19.3-.8-3.4-3.8-5.8-7.3-5.8h-24.1v-18h24.1c3.5 0 6.5-2.4 7.3-5.8 1.6-6.8 4.3-13.3 8-19.3 1.8-3 1.4-6.8-1.1-9.3l-17-17 12.7-12.7 17 17c2.5 2.5 6.3 2.9 9.3 1.1 5.9-3.7 12.4-6.4 19.3-8 3.4-.8 5.8-3.8 5.8-7.3v-24.1h18v24.1c0 3.5 2.4 6.5 5.8 7.3 6.8 1.6 13.3 4.3 19.3 8 3 1.8 6.8 1.4 9.3-1.1l17-17 12.7 12.7-17 17c-2.5 2.5-2.9 6.3-1.1 9.3 3.7 5.9 6.4 12.4 8 19.3.8 3.4 3.8 5.8 7.3 5.8h24.1v18.1zM256 164.6c-22.2 0-40.2 18-40.2 40.2s18 40.2 40.2 40.2 40.2-18 40.2-40.2-18-40.2-40.2-40.2zm0 65.4c-13.9 0-25.2-11.3-25.2-25.2s11.3-25.2 25.2-25.2c13.9 0 25.2 11.3 25.2 25.2S269.9 230 256 230zM83.6 197.3H58.7c-4.1 0-7.5 3.4-7.5 7.5s3.4 7.5 7.5 7.5h24.9c4.1 0 7.5-3.4 7.5-7.5s-3.4-7.5-7.5-7.5zm369.7 0h-24.9c-4.1 0-7.5 3.4-7.5 7.5s3.4 7.5 7.5 7.5h24.9c4.1 0 7.5-3.4 7.5-7.5s-3.3-7.5-7.5-7.5zM139.4 321.4c-2.9-2.9-7.7-2.9-10.6 0L111.2 339c-2.9 2.9-2.9 7.7 0 10.6s7.7 2.9 10.6 0l17.6-17.6c2.9-2.9 2.9-7.6 0-10.6zM400.8 60c-2.9-2.9-7.7-2.9-10.6 0l-17.6 17.6c-2.9 2.9-2.9 7.7 0 10.6 2.9 2.9 7.7 2.9 10.6 0l17.6-17.6c3-2.9 3-7.7 0-10.6zM256 0c-4.1 0-7.5 3.4-7.5 7.5v24.9c0 4.1 3.4 7.5 7.5 7.5s7.5-3.4 7.5-7.5V7.5c0-4.1-3.4-7.5-7.5-7.5zm144.8 339l-17.6-17.6c-2.9-2.9-7.7-2.9-10.6 0-2.9 2.9-2.9 7.7 0 10.6l17.6 17.6c2.9 2.9 7.7 2.9 10.6 0 3-2.9 3-7.6 0-10.6zM139.4 77.6L121.8 60c-2.9-2.9-7.7-2.9-10.6 0s-2.9 7.7 0 10.6l17.6 17.6c2.9 2.9 7.7 2.9 10.6 0 2.9-2.9 2.9-7.7 0-10.6zm266.2 108.8C397.6 117.6 343 63 274.4 54.6c-4.1-.5-7.9 2.4-8.4 6.5s2.4 7.9 6.5 8.4c62.3 7.6 110.8 56.4 118.1 118.7.4 3.8 3.7 6.6 7.4 6.6.3 0 .6 0 .9-.1 4.3-.4 7.2-4.1 6.7-8.3zm-6.6 28.5c-4.1-.5-7.9 2.4-8.4 6.5-5.1 40.4-27.9 76-62.5 97.8-14.9 9.4-23.8 25.4-23.8 42.9V393h-96.4v-31.5c0-16.9-8.9-33-23.1-41.8-40.3-25-64.4-68.1-64.4-115.4 0-68.4 51.2-126.2 119.1-134.6 4.1-.5 7-4.3 6.5-8.4-.5-4.1-4.3-7-8.4-6.5-75 9.3-132.3 73.8-132.2 149.5 0 26.1 6.8 51.9 19.7 74.5 12.5 21.9 30.4 40.5 51.8 53.7 9.9 6.1 16 17.2 16 29V394c-7.6 2.6-13.1 9.9-13.1 18.4v10.7c0 4.5 1.6 8.7 4.2 12-2.6 3.3-4.2 7.5-4.2 12v10.7c0 10.8 8.7 19.5 19.5 19.5h23.6v17c0 9.8 8 17.7 17.7 17.7h31c9.8 0 17.7-8 17.7-17.7v-17h23.6c10.8 0 19.5-8.7 19.5-19.5v-10.7c0-4.5-1.6-8.7-4.2-12 2.6-3.3 4.2-7.5 4.2-12v-10.7c0-8.5-5.5-15.8-13.1-18.4v-32c0-12.3 6.3-23.6 16.8-30.2 38.5-24.1 63.8-63.7 69.4-108.6.5-4.1-2.4-7.8-6.5-8.3zM274.2 494.3c0 1.5-1.3 2.7-2.7 2.7h-31c-1.5 0-2.7-1.3-2.7-2.7v-17h36.5v17zm43.1-36.5c0 2.4-2.1 4.5-4.5 4.5H199.2c-2.4 0-4.5-2.1-4.5-4.5v-10.7c0-2.4 2.1-4.5 4.5-4.5h113.6c2.4 0 4.5 2.1 4.5 4.5v10.7zm0-34.7c0 2.4-2.1 4.5-4.5 4.5H199.2c-2.4 0-4.5-2.1-4.5-4.5v-10.7c0-2.4 2.1-4.5 4.5-4.5h113.6c2.4 0 4.5 2.1 4.5 4.5v10.7z" fill="url(#a)"/></svg>