<svg xmlns="http://www.w3.org/2000/svg" xmlns:xlink="http://www.w3.org/1999/xlink" viewBox="0 0 409.92 410.88"><path fill="#198338" d="M238.926.32h-95.571c-18.824 0-34.136 15.312-34.136 34.133v245.762a6.825 6.825 0 0 0 6.828 6.824h40.961a6.824 6.824 0 0 0 6.824-6.824 6.825 6.825 0 0 0-6.824-6.829h-34.137v-13.652h6.828a6.826 6.826 0 1 0 0-13.652h-6.828v-13.657h6.828a6.826 6.826 0 1 0 0-13.652h-6.828v-13.652h6.828a6.827 6.827 0 1 0 0-13.653h-6.828v-13.656h34.137a6.823 6.823 0 0 0 6.824-6.824 6.824 6.824 0 0 0-6.824-6.828h-34.137v-13.653h6.828a6.827 6.827 0 1 0 0-13.652h-6.828v-13.656h6.828a6.827 6.827 0 1 0 0-13.652h-6.828V95.894h6.828a6.827 6.827 0 1 0 0-13.652h-6.828V68.586h34.137a6.824 6.824 0 0 0 6.824-6.825 6.825 6.825 0 0 0-6.824-6.828h-34.137v-20.48c0-11.289 9.191-20.481 20.481-20.481h95.574c11.293 0 20.48 9.192 20.48 20.481v341.336c0 11.289-9.187 20.476-20.48 20.476h-95.571c-11.293 0-20.48-9.187-20.48-20.476v-68.27a6.825 6.825 0 0 0-6.828-6.824 6.823 6.823 0 0 0-6.824 6.824v68.266c0 18.824 15.308 34.137 34.132 34.137h95.575c18.82 0 34.132-15.313 34.132-34.137V34.453C273.059 15.632 257.746.32 238.926.32zm0 0"/><defs><path fill="#198338" id="a" d="M0 0h409.92v410.88H0z"/></defs><clipPath id="b"><use xlink:href="#a" overflow="visible"/></clipPath><path fill="#198338" d="M27.309 89.058V334.82c0 3.77 3.05 6.828 6.824 6.828a6.825 6.825 0 0 0 6.828-6.828V89.058a6.825 6.825 0 0 0-6.828-6.824 6.823 6.823 0 0 0-6.824 6.824zm0 0" clip-path="url(#b)"/><path fill="#198338" d="M40.238 4.09c-2.316-4.629-9.894-4.629-12.215 0L.719 58.703A6.81 6.81 0 0 0 0 61.754v314.027c0 18.82 15.312 34.133 34.133 34.133 18.82 0 34.133-15.313 34.133-34.133v-13.656a6.824 6.824 0 0 0-6.825-6.825H34.133a6.823 6.823 0 0 0-6.824 6.825 6.824 6.824 0 0 0 6.824 6.828h20.48v6.824c0 11.293-9.187 20.48-20.48 20.48-11.289 0-20.481-9.187-20.481-20.48V63.363l20.481-40.957 16.262 32.519H34.133a6.824 6.824 0 0 0-6.824 6.829 6.823 6.823 0 0 0 6.824 6.824h20.48V334.82a6.824 6.824 0 0 0 6.828 6.824 6.823 6.823 0 0 0 6.825-6.824V61.644a6.897 6.897 0 0 0-.778-3.066L40.238 4.09zm0 0" clip-path="url(#b)"/><path fill="#198338" d="M218.445 341.652c0-15.059-12.246-27.305-27.304-27.305-15.059 0-27.309 12.246-27.309 27.305 0 15.063 12.25 27.309 27.309 27.309 15.058 0 27.304-12.246 27.304-27.309zm-40.957 0c0-7.527 6.121-13.652 13.653-13.652 7.523 0 13.652 6.125 13.652 13.652 0 7.531-6.129 13.656-13.652 13.656-7.532 0-13.653-6.125-13.653-13.656zM348.152 328a6.824 6.824 0 0 0-6.824 6.828 6.824 6.824 0 0 0 6.824 6.824h54.614a6.825 6.825 0 0 0 6.828-6.824v-40.961c0-18.82-15.313-34.133-34.133-34.133h-27.309c-18.82 0-34.132 15.313-34.132 34.133v81.918c0 18.824 15.312 34.137 34.132 34.137h27.309c18.82 0 34.133-15.313 34.133-34.137v-13.653a6.822 6.822 0 0 0-6.828-6.824 6.821 6.821 0 0 0-6.825 6.824v13.653c0 11.293-9.187 20.48-20.48 20.48h-27.305c-11.293 0-20.48-9.187-20.48-20.48v-81.918c0-11.293 9.187-20.481 20.48-20.481h27.305c11.293 0 20.48 9.188 20.48 20.481V328h-47.789zm0 0"/></svg>