<svg xmlns="http://www.w3.org/2000/svg" viewBox="-49 141.005 511.995 511.995"><path fill="#198338" d="M207 209.321c-108.22 0-196.267 88.047-196.267 196.267S98.78 601.854 207 601.854s196.267-88.047 196.267-196.267S315.22 209.321 207 209.321zm0 375.466c-98.807 0-179.2-80.384-179.2-179.2s80.393-179.2 179.2-179.2c98.816 0 179.2 80.384 179.2 179.2s-80.384 179.2-179.2 179.2z"/><path fill="#198338" d="M289.364 227.454a8.63 8.63 0 0 0-2.466-.717l-1.971-.265c-3.038-.435-6.05.836-7.902 3.268a8.538 8.538 0 0 0-1.101 8.482c5.862 14.012 12.843 42.334 3.917 48.836l-19.78 7.91c-14.976 5.99-25.472 19.746-27.392 35.951l-.128.981c-.469 3.396-3.243 4.318-4.412 4.557-2.116.427-4.941-.085-6.562-2.799l-8.474-14.123c-3.115-5.197-8.866-8.286-14.839-7.919a16.22 16.22 0 0 0-13.892 9.344c-7.62 16.273-17.186 39.757-19.507 59.204-.717 6.033.358 12.126 3.106 17.63l9.839 19.678a42.989 42.989 0 0 0 15.488 17.067c6.127 3.866 17.485 11.665 24.721 20.403 8.235 9.958 19.328 16.393 31.241 18.313-.478 15.983.572 42.257 11.452 53.862 3.806 4.053 8.576 6.281 13.858 6.46.956.128 2.637.299 4.813.299 6.332 0 16.905-1.434 26.573-9.421 13.466-11.127 20.369-30.703 20.523-58.189l12.22-55.006 4.642 7.731c3.772 6.289 10.078 10.709 17.28 12.126s14.711-.307 20.591-4.71l18.654-13.995a8.53 8.53 0 0 0 3.413-6.827c-.002-76.175-44.717-146.097-113.905-178.131zm81.595 185.301a8.873 8.873 0 0 1-7.066 1.613 8.792 8.792 0 0 1-5.931-4.164l-8.849-14.754c-2.918-4.873-8.414-7.433-14.046-6.519a13.752 13.752 0 0 0-11.264 10.633l-14.199 63.906a8.41 8.41 0 0 0-.205 1.852c0 22.161-4.881 37.999-14.114 45.807-8.439 7.134-18.091 5.589-18.398 5.547-1.101-.205-1.937.683-3.729-1.229-5.316-5.675-8.004-25.481-6.536-48.179a9.884 9.884 0 0 0-2.645-7.356 9.948 9.948 0 0 0-7.236-3.123c-9.566 0-18.893-4.634-25.591-12.715-8.303-10.044-20.224-18.577-28.757-23.962-4.011-2.534-7.236-6.084-9.327-10.266l-9.839-19.678c-1.254-2.509-1.749-5.274-1.425-7.987 2.091-17.459 11.529-39.953 17.399-52.642l7.74 12.894c5.12 8.533 14.771 12.723 24.619 10.735 9.549-1.954 16.58-9.387 17.894-18.953l.179-1.348c1.169-9.941 7.595-18.389 16.768-22.059l20.574-8.226a9.032 9.032 0 0 0 1.254-.623c16.213-9.847 14.114-33.417 9.856-50.671 52.847 31.292 86.588 88.175 88.064 150.076l-15.19 11.391zM166.765 523.953l-5.171-5.163a69.078 69.078 0 0 0-21.751-14.729l-26.317-11.281a28.782 28.782 0 0 1-17.459-26.487V453.45a23.97 23.97 0 0 0-10.317-19.695 24.021 24.021 0 0 0-22.067-2.739l-40.977 15.36a8.535 8.535 0 0 0-5.248 10.206c19.208 71.535 78.524 127.078 151.117 141.491a8.664 8.664 0 0 0 1.673.162 8.543 8.543 0 0 0 8.209-6.187l3.123-10.94c5.802-20.316.127-42.221-14.815-57.155zm-1.595 52.463l-.922 3.209C103.977 564.82 54.851 518.799 36.12 459.578L69.673 447c2.159-.819 4.471-.529 6.357.785a6.805 6.805 0 0 1 2.97 5.666v12.843a45.827 45.827 0 0 0 27.802 42.172l26.317 11.281a52.269 52.269 0 0 1 16.41 11.11l5.171 5.163a41.168 41.168 0 0 1 10.47 40.396zm-47.625-337.493a8.529 8.529 0 0 0-11-1.946c-56.354 33.647-92.066 92.749-95.522 158.089a8.528 8.528 0 0 0 3.516 7.364 8.472 8.472 0 0 0 5.001 1.621c1.05 0 2.099-.196 3.089-.572l52.932-20.89c12.681-5.077 19.226-19.191 14.908-32.145a8.732 8.732 0 0 1 2.116-8.96l24.593-24.593c8.397-8.388 13.022-19.55 13.022-31.428v-11.102c0-12.799-4.497-25.386-12.655-35.438zm-4.412 46.532c0 7.322-2.85 14.191-8.03 19.362L80.51 329.41c-6.955 6.963-9.344 17.084-6.229 26.419 1.468 4.395-.759 9.182-5.052 10.897l-39.953 15.838c6.63-51.618 35.422-97.809 79.172-126.643 3.055 5.675 4.685 12.023 4.685 18.432v11.102zM207 141.054c-8.823 0-17.724.452-26.453 1.348-4.685.478-8.098 4.676-7.62 9.361.452 4.395 4.164 7.663 8.482 7.663.29 0 .589-.017.879-.051a245.424 245.424 0 0 1 24.713-1.254 8.536 8.536 0 0 0 8.533-8.533c0-4.71-3.824-8.534-8.534-8.534zM-28.571 437.212a241.64 241.64 0 0 1-3.362-40.158c0-2.85.051-5.692.154-8.533.162-4.71-3.524-8.653-8.235-8.823-4.668-.247-8.653 3.524-8.823 8.235a246.673 246.673 0 0 0-.163 9.121c0 14.421 1.212 28.894 3.593 43.008a8.538 8.538 0 0 0 9.847 6.989c4.642-.785 7.774-5.189 6.989-9.839zm13.03 47.001c-1.724-4.386-6.673-6.554-11.059-4.83a8.527 8.527 0 0 0-4.83 11.059 256.066 256.066 0 0 0 23.962 46.447 8.52 8.52 0 0 0 7.151 3.866 8.598 8.598 0 0 0 4.668-1.382c3.942-2.577 5.052-7.868 2.475-11.81a238.673 238.673 0 0 1-22.367-43.35zm-19.908-137.728a8.553 8.553 0 0 0 10.317-6.272A237.587 237.587 0 0 1-8.757 294.27a8.526 8.526 0 0 0-4.028-11.375c-4.25-2.022-9.344-.222-11.375 4.028a254.492 254.492 0 0 0-17.553 49.246c-1.117 4.582 1.682 9.199 6.264 10.316zm85.402-129.502c3.55-3.098 3.917-8.491.819-12.041s-8.482-3.925-12.041-.819A258.377 258.377 0 0 0 3.053 242.31c-2.85 3.746-2.125 9.105 1.63 11.955a8.457 8.457 0 0 0 5.154 1.741 8.543 8.543 0 0 0 6.801-3.371 240.492 240.492 0 0 1 33.315-35.652zm115.413 415.403a238.236 238.236 0 0 1-46.908-13.329 8.526 8.526 0 0 0-11.093 4.762c-1.749 4.369.384 9.335 4.762 11.085a254.654 254.654 0 0 0 50.278 14.285c.495.085.99.128 1.485.128 4.07 0 7.672-2.918 8.405-7.048a8.54 8.54 0 0 0-6.929-9.883zm107.315 3.482c-1.092-4.591-5.709-7.407-10.274-6.332a239.469 239.469 0 0 1-48.375 6.357c-4.71.128-8.422 4.062-8.286 8.772.137 4.625 3.925 8.286 8.525 8.286.077 0 .162 0 .256-.008 17.493-.503 34.927-2.79 51.823-6.801a8.543 8.543 0 0 0 6.331-10.274zm-132.642-477.27c-1.425-4.489-6.229-6.963-10.718-5.547a255.064 255.064 0 0 0-47.932 20.89c-4.105 2.321-5.547 7.526-3.234 11.631a8.542 8.542 0 0 0 7.441 4.335 8.527 8.527 0 0 0 4.181-1.101 237.48 237.48 0 0 1 44.715-19.49c4.489-1.425 6.972-6.229 5.547-10.718zM75.245 596.401a240.433 240.433 0 0 1-37.726-30.933c-3.319-3.337-8.73-3.362-12.066-.034-3.337 3.328-3.354 8.73-.034 12.075a258.286 258.286 0 0 0 40.405 33.135 8.533 8.533 0 0 0 4.702 1.417 8.494 8.494 0 0 0 7.117-3.831c2.603-3.927 1.528-9.226-2.398-11.829z"/><path d="M342.305 604.457c-2.449-4.028-7.697-5.325-11.725-2.876a239.768 239.768 0 0 1-21.76 11.682c-4.258 2.014-6.093 7.091-4.079 11.358a8.535 8.535 0 0 0 7.723 4.898c1.22 0 2.458-.265 3.644-.819a255.198 255.198 0 0 0 23.322-12.518c4.027-2.45 5.315-7.698 2.875-11.725z"/><path fill="#198338" d="M461.2 519.814c-2.901-3.729-8.269-4.395-11.972-1.502l-76.8 59.733a8.56 8.56 0 0 0-3.294 6.741v25.6c0 4.71 3.823 8.533 8.533 8.533s8.533-3.823 8.533-8.533v-21.427l73.498-57.173a8.532 8.532 0 0 0 1.502-11.972z"/><path fill="#198338" d="M380.372 576.689l-25.6-8.533c-4.489-1.51-9.31.93-10.795 5.393-1.493 4.471.922 9.301 5.393 10.795l25.6 8.533a8.531 8.531 0 0 0 2.697.444 8.542 8.542 0 0 0 8.098-5.837 8.53 8.53 0 0 0-5.393-10.795zm64.947 13.449l-17.067-42.667a8.522 8.522 0 0 0-3.533-4.147l-42.667-25.6c-4.045-2.423-9.284-1.118-11.708 2.927-2.424 4.045-1.118 9.284 2.927 11.708l40.201 24.124 16 40.004a8.543 8.543 0 0 0 7.927 5.367 8.267 8.267 0 0 0 3.166-.623c4.379-1.749 6.503-6.716 4.754-11.093z"/></svg>