<svg xmlns="http://www.w3.org/2000/svg" viewBox="0 0 276 278"><path d="M269.38 277.867a6.403 6.403 0 0 1-5.945-4.027l-15.969-39.969c-8.203-20.211-17.637-30.414-30.766-32.809l-3.335 15.926 4.617 41.524a6.408 6.408 0 0 1-2.352 5.695l-10.301 8.273a6.394 6.394 0 0 1-4.007 1.414h-3.657c-1.457 0-2.871-.5-4.007-1.414l-10.301-8.273a6.398 6.398 0 0 1-2.352-5.695l4.617-41.524-3.336-15.926c-13.128 2.395-22.562 12.602-30.781 32.844l-16.215 39.965a6.398 6.398 0 0 1-8.336 3.523 6.399 6.399 0 0 1-3.527-8.336l16.219-39.968c7.035-17.328 19.512-40.227 46.984-41.344.242-.027.488-.043.738-.043h24.25c.25 0 .497.016.739.043 27.476 1.117 39.953 24.016 46.984 41.344l15.981 40a6.395 6.395 0 0 1-3.571 8.316 6.34 6.34 0 0 1-2.371.461zm-75.265-21.438l5.378 4.321 5.379-4.321-3.711-33.351h-3.336l-3.71 33.351zm3.179-46.152h4.399l2.047-9.773h-8.493l2.047 9.773zM6.618 277.867c-.8 0-1.613-.152-2.402-.473a6.393 6.393 0 0 1-3.523-8.336l15.972-39.375c7.117-17.527 19.879-40.832 48.453-40.832H86.31c15.406 0 28.082 6.848 37.683 20.36.161.222.887 1.215 1.77 2.414 3.059 4.172 3.871 5.285 4.137 5.691a6.4 6.4 0 0 1-10.649 7.098c-.343-.492-2.597-3.563-3.808-5.215a420.93 420.93 0 0 1-1.887-2.578c-4.43-6.234-9.379-10.434-15.137-12.762l-17.535 24.028a6.402 6.402 0 0 1-10.336 0l-17.531-24.024c-9.992 4.051-17.668 13.824-24.488 30.633l-15.977 39.375a6.402 6.402 0 0 1-5.934 3.996zm60.629-76.215l8.469 11.606 8.469-11.606H67.247zm34.285 76.211H33.466a6.396 6.396 0 0 1-6.398-6.398 6.396 6.396 0 0 1 6.398-6.399h68.066a6.4 6.4 0 0 1 0 12.797zm127.067-46.582a6.402 6.402 0 0 1-6.402-6.398v-.801a6.404 6.404 0 0 1 6.402-6.403 6.403 6.403 0 0 1 6.398 6.403v.801a6.401 6.401 0 0 1-6.398 6.398zM75.716 179.457c-17.906 0-32.473-14.567-32.473-32.473 0-14.75 9.883-27.234 23.372-31.18l.199-.058a32.405 32.405 0 0 1 6.562-1.152c.008-.004.02-.004.032-.004h.035c.015-.004.027-.004.043-.004.011 0 .019 0 .035-.004.015 0 .027 0 .039-.004h.031c.027 0 .051-.004.074-.004.106-.008.211-.016.317-.02h.004l.101-.003c.012 0 .047-.004.071-.004.007 0 .019 0 .031-.004h.043c.011 0 .015 0 .031-.004h.062c.012-.004.024-.004.04-.004h.027c.023 0 .051.004.074-.004.395-.016.793-.023 1.192-.023h.207c.015 0 .035.004.05 0 .02 0 .039.004.055 0h.02c15.918.132 29.183 11.586 31.753 27.082.293 1.754.446 3.554.446 5.394.004 17.906-14.567 32.473-32.473 32.473zm-11.512-48.418c-4.941 3.574-8.164 9.39-8.164 15.945 0 10.848 8.828 19.676 19.676 19.676 9.195 0 16.938-6.34 19.082-14.883-13.902.082-25.855-8.39-30.594-20.738zm12.321-3.715a19.595 19.595 0 0 0 17.156 11.641c-2.973-6.633-9.508-11.328-17.156-11.641zm122.968 50.652c-18.121 0-32.867-14.742-32.867-32.867 0-18.121 14.746-32.867 32.867-32.867 2.168 0 4.289.211 6.34.617.133.02.27.047.403.078 14.902 3.121 26.125 16.36 26.125 32.172 0 18.125-14.746 32.867-32.868 32.867zm-11.371-49.394c-5.246 3.621-8.695 9.68-8.695 16.527 0 11.067 9 20.067 20.066 20.067 11.067 0 20.067-9 20.067-20.067 0-8.234-4.985-15.324-12.094-18.414a32.961 32.961 0 0 1-9.894 8.52 6.403 6.403 0 0 1-9.45-6.633zm-140.23-17.52a6.391 6.391 0 0 1-3.234-.879 6.397 6.397 0 0 1-3.165-5.519V46.996c0-11.207 9.122-20.328 20.329-20.328h22.707a6.402 6.402 0 0 1 6.398 6.402 6.402 6.402 0 0 1-6.398 6.399H61.822c-4.149 0-7.528 3.375-7.528 7.527v46.742l8.813-4.937a6.382 6.382 0 0 1 3.129-.817h55.535a6.401 6.401 0 0 1 0 12.801H67.904l-16.883 9.461a6.418 6.418 0 0 1-3.129.816zm151.637-13.258a6.398 6.398 0 0 1-4.731-2.085l-19.703-21.602h-51.746c-11.211 0-20.328-9.121-20.328-20.328V20.328C103.021 9.117 112.138 0 123.349 0h62.25c11.207 0 20.328 9.117 20.328 20.328v71.078a6.397 6.397 0 0 1-4.09 5.965 6.344 6.344 0 0 1-2.308.433zm-76.18-85.003a7.533 7.533 0 0 0-7.527 7.527v33.461c0 4.148 3.375 7.527 7.527 7.527h54.574c1.797 0 3.516.758 4.727 2.086l10.476 11.488V20.328c0-4.152-3.379-7.527-7.527-7.527h-62.25zM83.247 63.66H71.634a6.396 6.396 0 0 1-6.398-6.398 6.396 6.396 0 0 1 6.398-6.399h11.613a6.397 6.397 0 0 1 6.399 6.399 6.397 6.397 0 0 1-6.399 6.398zm91.176-26.293h-26.418a6.4 6.4 0 0 1-6.398-6.402 6.399 6.399 0 0 1 6.398-6.399h26.418a6.402 6.402 0 0 1 6.399 6.399 6.403 6.403 0 0 1-6.399 6.402zm0 0" fill="#00913d"/></svg>