<svg xmlns="http://www.w3.org/2000/svg" viewBox="0 0 49 22" width="49" height="22"><path fill="#d2d2d2" fill-rule="evenodd" d="M22.9 13.1h-.4v2h.5c.4 0 .8 0 1-.3.2-.1.3-.4.3-.7 0-.6-.5-1-1.4-1zm.1 3l-.5-.1v2.2h-1v-6h1.2c1 0 1.6.2 2 .4.5.3.7.8.7 1.4 0 1.3-.8 2-2.4 2zm3.3 2v-5.9h1v5h2.8v1h-3.8zM33 14l-.7 2.2h1.4L33 14zm1.5 4.2L34 17h-2l-.4 1.2h-1.2l2.4-6h.5l2.3 6h-1.1zm5.6 0l-2.8-3.7v3.7h-1v-6h.5l2.8 3.6v-3.6h1v6H40zm5.8-2.9h-.6v2h.6c.4 0 .8 0 1-.2.2-.2.3-.4.3-.8 0-.3-.1-.6-.3-.7-.2-.2-.5-.3-1-.3zm0-2.2h-.6v1.4h.5c.7 0 1-.2 1-.7 0-.5-.2-.7-.9-.7zm.2 5h-1.8v-5.8l1.7-.1c.6 0 1 .1 1.4.4.3.3.5.6.5 1.1 0 .5-.2.9-.7 1.1.7.3 1 .8 1 1.6 0 .6-.1 1-.5 1.3-.4.3-1 .5-1.6.5zm-31.4-6.6zM3 10.5h9c.8 0 1.3.4 1.3.7v1.2a.8.8 0 0 0 1 .7h.2c.2 0 .4 0 .5.2.2.2.2.4.2.6L15 16a.8.8 0 0 1-1.2.6.8.8 0 0 0-1 .6l-.3 2.6c0 .3-.6.7-1.4.7H3.8c-.8 0-1.4-.4-1.4-.7l-.9-8.6c0-.3.6-.6 1.4-.6zm0-1.4C1.3 9 0 10 0 11.2v.1l1 8.6H.8C.9 21 2.2 22 3.8 22H11c1.6 0 2.9-1 2.9-2.2v.1l.1-1.7a2.3 2.3 0 0 0 2.4-2l.2-2.2v-.2a2.3 2.3 0 0 0-1.9-2.2v-.3C14.8 10 13.6 9 12 9H3zm1.3-.9S3.9 8 4 7.5C4 7 4.5 6.2 6.3 5c1.4-1 2.2-1.7 2.3-2.3.1-.6-.4-1.2-1.5-2.3-1-.8.5-.3 1.7.8 1.2 1 2.1 2.7.1 4.2-1.2 1-.5 1.6.4 2.1 1 .5 2.3.7 2.3.7H4.2z"/></svg>