<svg xmlns="http://www.w3.org/2000/svg" viewBox="0 0 353.043 409.602"><g fill="#198338"><path d="M345.043 278.895H240.695v-79.782a8 8 0 0 0-8-8H120.348a8 8 0 0 0-8 8v35.891H8a8 8 0 0 0-8 8v158.598a8 8 0 0 0 8 8h337.043a8 8 0 0 0 8-8V286.895a8 8 0 0 0-8-8zM16 251.004h96.348v142.598H16V251.004zm112.348-43.891h96.347v186.489h-96.347V207.113zm208.695 186.489h-96.348v-98.707h96.348v98.707zm0 0"/><path d="M176.523 249.648c-.519 0-1.05-.054-1.562-.16a8.237 8.237 0 0 1-2.879-1.191 7.704 7.704 0 0 1-2.207-2.211 8.36 8.36 0 0 1-.738-1.379 7.65 7.65 0 0 1-.457-1.496 8.155 8.155 0 0 1-.157-1.563c0-.527.055-1.046.157-1.566a7.65 7.65 0 0 1 .457-1.496 7.971 7.971 0 0 1 5.824-4.781 7.773 7.773 0 0 1 3.121 0 7.883 7.883 0 0 1 2.879 1.187 7.934 7.934 0 0 1 2.207 2.211 8.239 8.239 0 0 1 1.199 2.879c.11.52.156 1.039.156 1.566 0 .52-.05 1.039-.16 1.563a7.65 7.65 0 0 1-.457 1.496 8.36 8.36 0 0 1-.738 1.379 7.817 7.817 0 0 1-.988 1.219 7.885 7.885 0 0 1-1.219.992 8.032 8.032 0 0 1-2.879 1.191 8.055 8.055 0 0 1-1.559.16zm0 112.032c-4.421 0-8-3.586-8-8v-82.172c0-4.422 3.579-8 8-8 4.418 0 8 3.578 8 8v82.172c0 4.414-3.582 8-8 8zm-127.046 0c-4.418 0-8-3.586-8-8v-32.586a8 8 0 0 1 16 0v32.586c0 4.414-3.579 8-8 8zm27.476 0c-4.418 0-8-3.586-8-8v-32.586a8 8 0 0 1 16 0v32.586c0 4.414-3.582 8-8 8zm184.762 0c-4.418 0-8-3.586-8-8v-32.586a8 8 0 0 1 16 0v32.586c0 4.414-3.582 8-8 8zm27.152 0c-4.414 0-8-3.586-8-8v-32.586c0-4.418 3.586-8 8-8 4.422 0 8 3.582 8 8v32.586a8 8 0 0 1-8 8zm27.156 0c-4.418 0-8-3.586-8-8v-32.586a8 8 0 0 1 16 0v32.586c0 4.414-3.582 8-8 8zm6.594-152.184a7.961 7.961 0 0 1-3.062-.609l-24.485-10.145-24.48 10.145a8.003 8.003 0 0 1-7.766-.918 7.987 7.987 0 0 1-3.269-7.102l2.078-26.418-17.215-20.148a7.99 7.99 0 0 1-1.523-7.668 8.003 8.003 0 0 1 5.738-5.313l25.777-6.179 13.84-22.602a8.005 8.005 0 0 1 13.645 0l13.843 22.602 25.77 6.179a8.015 8.015 0 0 1 5.746 5.313 8.007 8.007 0 0 1-1.527 7.668l-17.219 20.148 2.086 26.418a8.003 8.003 0 0 1-7.977 8.629zm-27.547-27.414a8 8 0 0 1 3.063.609l15.484 6.418-1.32-16.707a8.012 8.012 0 0 1 1.894-5.824l10.887-12.742-16.297-3.906a8.016 8.016 0 0 1-4.957-3.606l-8.754-14.285-8.75 14.285a8.013 8.013 0 0 1-4.953 3.606l-16.297 3.906 10.883 12.742a7.978 7.978 0 0 1 1.895 5.824l-1.317 16.707 15.481-6.418a7.987 7.987 0 0 1 3.058-.609zM30.426 209.496a8 8 0 0 1-7.977-8.629l2.086-26.418-17.219-20.148a8.007 8.007 0 0 1 4.215-12.981l25.774-6.179 13.843-22.602a7.998 7.998 0 0 1 13.641 0l13.844 22.602 25.773 6.179a7.995 7.995 0 0 1 5.742 5.313 8.002 8.002 0 0 1-1.527 7.668l-17.215 20.148 2.086 26.418a7.99 7.99 0 0 1-3.273 7.102 7.993 7.993 0 0 1-7.766.918l-24.484-10.145-24.481 10.145a7.961 7.961 0 0 1-3.062.609zm-2.461-55.66l10.887 12.738a7.994 7.994 0 0 1 1.89 5.828l-1.312 16.703 15.48-6.414a8.005 8.005 0 0 1 6.125 0l15.481 6.414-1.321-16.703a8.022 8.022 0 0 1 1.895-5.828l10.887-12.738-16.297-3.91a7.982 7.982 0 0 1-4.953-3.602l-8.754-14.285-8.754 14.285a8.006 8.006 0 0 1-4.957 3.602l-16.297 3.91zM261.961 27.812a7.994 7.994 0 0 0-5.957-2.664h-18.152l1.781-16.277A8.001 8.001 0 0 0 231.68 0H121.363a8.003 8.003 0 0 0-5.961 2.664 8.003 8.003 0 0 0-1.988 6.219l1.797 16.265H97.039a8 8 0 0 0-7.949 8.883l3.16 28.571c1.031 9.281 5.234 18.05 11.84 24.695a41.78 41.78 0 0 0 20.933 11.379c4.969 13.285 14.872 24.019 27.391 30.129l-3.906 27.043h-2.524c-4.414 0-8 3.582-8 8s3.586 8 8 8h61.075a8 8 0 0 0 0-16h-2.52l-3.906-27c12.57-6.106 22.512-16.864 27.484-30.196a41.758 41.758 0 0 0 20.836-11.355c6.606-6.645 10.809-15.414 11.84-24.699l3.16-28.567a8.014 8.014 0 0 0-1.992-6.219zM108.152 60.836l-2.175-19.688h11.003l4.344 39.282a25.596 25.596 0 0 1-5.89-4.414 25.629 25.629 0 0 1-7.282-15.18zm80.215 95.012h-23.691l3.203-22.168c2.832.449 5.738.679 8.691.679 2.922 0 5.793-.226 8.594-.664l3.203 22.153zm-11.797-37.489c-19.918 0-36.593-14.906-38.785-34.672L130.297 16h92.461l-7.403 67.676c-2.191 19.773-18.867 34.683-38.785 34.683zm68.321-57.527a25.607 25.607 0 0 1-7.282 15.18 25.748 25.748 0 0 1-5.793 4.367l4.286-39.231h10.968l-2.179 19.684zm0 0"/></g></svg>