<svg xmlns="http://www.w3.org/2000/svg" viewBox="0 0 480 480"><linearGradient id="a" gradientUnits="userSpaceOnUse" x1="2.343" y1="2.343" x2="477.657" y2="477.657"><stop offset="0" stop-color="#1d8e3e"/><stop offset="1" stop-color="#07521d"/></linearGradient><path d="M480 8v192c0 4.4-3.6 8-8 8H184v-16h280V16H16v152H0V8c0-4.4 3.6-8 8-8h464c4.4 0 8 3.6 8 8zM264 56h160V40H264v16zm24 48h160V88H288v16zm-32 48h160v-16H256v16zm-32 253v67c0 4.4-3.6 8-8 8h-80c-4.4 0-8-3.6-8-8v-67c0-11.3 5.3-22 14.3-29H81.7c9 6.9 14.2 17.6 14.3 29v67c0 4.4-3.6 8-8 8H8c-4.4 0-8-3.6-8-8v-67c0-13.8 7.8-26.4 20.1-32.7C12.3 364.7 8 354.4 8 343.6c0-22.1 17.9-39.9 40-39.9 8.7 0 17.1 2.9 24 8.2V196.1l-8.4 26.6c-2.5 7-7.8 12.6-14.7 15.4-6 2.4-12.7 2.4-18.7.1-13.2-5.1-19.8-19.9-14.7-33.1l21.4-73.6c8-21.2 28.3-35.4 51-35.5h.3C82.9 89.1 80 80.7 80 72c0-22.1 17.9-40 40-40s40 17.9 40 40c0 5.9-1.4 11.7-3.9 17L221 55.3c.2-.1.4-.2.7-.3 13.2-5.5 28.3.8 33.8 13.9 5.5 13.2-.8 28.3-13.9 33.8L168 140.9v163.7c13.3-2.7 27.1 1.5 36.6 11.2 15.4 15.8 15.1 41.1-.7 56.5 12.3 6.2 20.1 18.9 20.1 32.7zm-72-61.3c0 13.3 10.7 24 24 24s24-10.7 24-24c0-13.2-10.8-24-24-24-13.3 0-24 10.7-24 24zM96 72c0 13.2 10.8 24 24 24 13.3 0 24-10.7 24-24s-10.7-24-24-24-24 10.7-24 24zM24 343.7c0 13.3 10.7 24 24 24s24-10.7 24-24-10.7-24-24-24c-13.2 0-24 10.8-24 24zM80 405c0-11.6-9.4-20.9-21-21H37c-11.6 0-20.9 9.4-21 21v59h64v-59zm72-93.1V136c0-3 1.7-5.7 4.3-7.1l78.4-40.7c2.8-1 5-3.2 6-5.9 1-2.6.8-5.4-.4-7.8-2.3-4.6-7.8-6.7-12.6-4.7l-79.5 41.3c-1.1.6-2.4.9-3.7.9H87.9c-15.9.1-30.1 9.8-35.8 24.6l-21.4 73.6c-2.1 4.8-.1 10.3 4.5 12.7.3.2.7.3 1 .4 5 1.8 10.5-.8 12.3-5.8l23.9-76c1-3.3 4.1-5.6 7.6-5.6 4.4 0 8 3.6 8 8v200c0 5.5-1.2 11-3.5 16H112V224h16v136h11.6c-7.8-17-2.6-37 12.4-48.1zm56 93.1c0-11.6-9.4-20.9-21-21h-22c-11.6 0-20.9 9.4-21 21v59h64v-59zm144 0v67c0 4.4-3.6 8-8 8h-80c-4.4 0-8-3.6-8-8v-67c0-13.8 7.8-26.4 20.1-32.7l-.7-.7c-15.4-15.8-15.1-41.1.7-56.6s41.1-15.1 56.6.7c15.4 15.8 15.1 41.1-.7 56.6 12.2 6.2 20 18.9 20 32.7zm-72-61.3c0 13.3 10.7 24 24 24s24-10.7 24-24-10.7-24-24-24c-13.2 0-24 10.8-24 24zm56 61.3c0-11.6-9.4-20.9-21-21h-22c-11.6 0-20.9 9.4-21 21v59h64v-59zm144 0v67c0 4.4-3.6 8-8 8h-80c-4.4 0-8-3.6-8-8v-67c0-13.8 7.8-26.4 20.1-32.7l-.7-.7c-15.4-15.8-15.1-41.1.7-56.6s41.1-15.1 56.6.7c15.4 15.8 15.1 41.1-.7 56.6 12.2 6.2 20 18.9 20 32.7zm-72-61.3c0 13.3 10.7 24 24 24s24-10.7 24-24-10.7-24-24-24c-13.2 0-24 10.8-24 24zm56 61.3c0-11.6-9.4-20.9-21-21h-22c-11.6 0-20.9 9.4-21 21v59h64v-59z" fill="url(#a)"/></svg>