<svg xmlns="http://www.w3.org/2000/svg" viewBox="0 0 409.602 409.602"><g fill="#198338"><path d="M230.105 370.641a6.813 6.813 0 0 0-9.652 0 6.82 6.82 0 0 0 0 9.652l27.309 27.309a6.822 6.822 0 0 0 9.652 0 6.826 6.826 0 0 0 0-9.657l-27.309-27.304zm-25.304-42.961a6.824 6.824 0 0 0-6.828 6.828v17.652l-45.785 45.785a6.821 6.821 0 0 0 0 9.653 6.803 6.803 0 0 0 4.824 2c1.75 0 3.496-.668 4.828-2l47.785-47.786a6.837 6.837 0 0 0 2-4.824v-20.48a6.824 6.824 0 0 0-6.824-6.828zM402.773 13.652H211.625V6.828A6.825 6.825 0 0 0 204.801 0a6.825 6.825 0 0 0-6.828 6.828v6.824H6.828A6.825 6.825 0 0 0 0 20.48v27.305a6.825 6.825 0 0 0 6.828 6.828h354.984a6.825 6.825 0 0 0 6.829-6.828 6.825 6.825 0 0 0-6.829-6.824H13.652V27.305h382.293v13.656h-6.824a6.825 6.825 0 0 0-6.828 6.824v232.11c0 11.289-9.188 20.476-20.481 20.476H47.785c-11.289 0-20.48-9.187-20.48-20.476V75.094a6.824 6.824 0 0 0-6.825-6.828 6.825 6.825 0 0 0-6.828 6.828v204.801c0 18.82 15.313 34.132 34.137 34.132h314.023c18.821 0 34.133-15.312 34.133-34.132V54.613h6.828a6.828 6.828 0 0 0 6.829-6.828V20.48a6.828 6.828 0 0 0-6.829-6.828zm0 0"/><path d="M307.199 136.535c19.258 0 20.442 17.07 20.481 20.512a6.827 6.827 0 0 0 13.652-.031c0-11.813-7.133-34.137-34.133-34.137s-34.133 22.324-34.133 34.137v27.304c0 11.805 7.133 34.133 34.133 34.133s34.133-22.328 34.133-34.133c0-3.754-3.031-6.785-6.785-6.808h-.039c-3.742 0-6.785 3.027-6.828 6.773-.039 3.426-1.207 20.516-20.481 20.516-19.269 0-20.437-17.09-20.48-20.481v-27.273c.043-3.426 1.211-20.512 20.48-20.512zm-170.14 64.067a6.82 6.82 0 0 0 6.3 4.199c.883 0 1.77-.164 2.629-.528a6.83 6.83 0 0 0 3.672-8.929l-34.133-81.918a6.834 6.834 0 0 0-6.3-4.199 6.836 6.836 0 0 0-6.301 4.199l-34.133 81.918a6.82 6.82 0 0 0 3.672 8.929 6.817 6.817 0 0 0 8.93-3.671l3.937-9.457h17.066a6.822 6.822 0 0 0 6.829-6.825 6.826 6.826 0 0 0-6.829-6.828H91.02l18.207-43.687 27.832 66.797zm47.261-50.415a6.825 6.825 0 0 0-6.828 6.825v81.922a6.825 6.825 0 0 0 6.828 6.824h27.305c11.805 0 34.137-5.707 34.137-27.305 0-8.664-3.594-14.773-8.657-18.98 5.739-4.914 8.657-12.301 8.657-21.981 0-10.117-3.192-17.742-9.465-22.637-10.43-8.144-24.731-4.859-26.324-4.464a6.826 6.826 0 0 0-4.969 8.281c.914 3.652 4.617 5.871 8.273 4.961.098-.028 9.387-2.102 14.618 1.98 2.793 2.188 4.21 6.18 4.21 11.879 0 5.68-1.406 9.668-4.175 11.852-2.282 1.801-5.45 2.437-8.328 2.547-2.903-.52-5.641-.746-7.977-.746a6.815 6.815 0 0 0-6.77 5.996 6.814 6.814 0 0 0 5.118 7.453c.718.183 4.031.941 8.398.984 5.981 1.242 13.734 4.477 13.734 12.875 0 13.367-19.667 13.645-20.48 13.652h-20.48v-75.093a6.824 6.824 0 0 0-6.825-6.825zm0 0"/></g></svg>