<svg xmlns="http://www.w3.org/2000/svg" viewBox="-49 141 512 512"><path d="M341.816 444.28c20.024-10.904 24.68-28.28 24.944-29.344l1.288-5.152L351 397c-10.016-7.512-16-19.48-16-32V237.792c0-26.616-18.376-49.824-44.032-56.104C269.032 160.592 240.28 149 209.744 149h-13.496C131.6 149 79 201.6 79 266.256V365c0 12.52-5.984 24.488-16 32l-17.048 12.792 1.288 5.152c.264 1.064 4.928 18.44 24.944 29.344C52.496 453.096 39 472.848 39 495.376V581c0 13.232 10.768 24 24 24h24v22.936l118.864 16.984 1.136.16 120-17.144V605h24c13.232 0 24-10.768 24-24v-85.624c0-22.528-13.496-42.28-33.184-51.096zm-.416-34.48l7.824 5.864c-4.152 7.48-15.88 21.2-45.872 21.312l-56.44-7.056c0-.312.088-.6.088-.92v-.84c26.064-12.008 45.8-35.328 52.968-63.656 7.096-.896 13.584-3.584 19.032-7.704v8.2c0 17.528 8.376 34.28 22.4 44.8zM207 421c-44.112 0-80-35.888-80-80v-56.128a176.609 176.609 0 0 0 80-22.616 176.509 176.509 0 0 0 80 22.616V341c0 44.112-35.888 80-80 80zm0 16c8.104 0 15.944-1.12 23.464-3.024C228.168 444.832 218.528 453 207 453s-21.168-8.168-23.464-19.024C191.056 435.88 198.896 437 207 437zm95.664-89.368c.152-2.2.336-4.392.336-6.632v-38.528c9.288 3.312 16 12.112 16 22.528 0 10.536-6.872 19.416-16.336 22.632zM196.256 165h13.496c27.048 0 52.48 10.528 71.6 29.656l1.712 1.712 2.376.48c19.44 3.888 33.56 21.104 33.56 40.944v55.416c-4.672-3.536-10.056-6.184-16-7.392V269h-9.352a160.455 160.455 0 0 1-82.528-22.856l-4.12-2.472-4.12 2.472A160.455 160.455 0 0 1 120.352 269H111v16.808c-5.944 1.216-11.328 3.856-16 7.392v-26.944C95 210.424 140.424 165 196.256 165zM111 302.472V341c0 2.24.184 4.432.336 6.632C101.872 344.416 95 335.536 95 325c0-10.416 6.712-19.216 16-22.528zm-46.224 113.2L72.6 409.8C86.624 399.288 95 382.536 95 365v-8.208c5.44 4.12 11.928 6.808 19.032 7.704 7.168 28.336 26.904 51.648 52.968 63.656V429c0 .32.088.608.096.928l-56.44 7.056c-30.032-.12-41.752-13.872-45.88-21.312zM55 581v-24h80c8.824 0 16 7.176 16 16s-7.176 16-16 16H63c-4.408 0-8-3.584-8-8zm256 33.064l-96 13.72V549h-16v78.776l-96-13.72V605h32c17.648 0 32-14.352 32-32s-14.352-32-32-32h-32v-38.776l96 13.712V533h16v-17.064l96-13.712V541h-32c-17.648 0-32 14.352-32 32s14.352 32 32 32h32v9.064zM359 581c0 4.416-3.592 8-8 8h-72c-8.824 0-16-7.176-16-16s7.176-16 16-16h80v24zm0-40h-32v-57.224L207 500.92 87 483.768V541H55v-45.624c0-20.128 15.064-37.192 35.04-39.696l80.68-10.08c6.32 13.768 20.16 23.4 36.28 23.4s29.96-9.632 36.288-23.4l80.68 10.08c19.976 2.496 35.04 19.568 35.04 39.696V541H359z" fill="#fff"/><circle cx="159" cy="309" r="8" fill="#fff"/><circle cx="255" cy="309" r="8" fill="#fff"/><path d="M207 389c-22.056 0-40-17.944-40-40h-16c0 30.872 25.12 56 56 56s56-25.128 56-56h-16c0 22.056-17.944 40-40 40z" fill="#fff"/></svg>