<svg viewBox="0 0 512 512" xmlns="http://www.w3.org/2000/svg"><path d="M465.08 243.94c-1.86-1.86-4.44-2.92-7.07-2.92s-5.21 1.061-7.07 2.92a10.093 10.093 0 0 0-2.93 7.07 10.1 10.1 0 0 0 2.93 7.08c1.86 1.86 4.44 2.93 7.07 2.93s5.21-1.069 7.07-2.93a10.1 10.1 0 0 0 2.93-7.08c0-2.63-1.07-5.2-2.93-7.07z" fill="#00913d"/><path d="M458.01 222c5.523 0 10-4.478 10-10V30c0-16.542-13.458-30-30-30H151.98a10.001 10.001 0 0 0-7.071 2.929l-97.987 97.99a10.003 10.003 0 0 0-2.929 7.071V482c0 16.542 13.458 30 30 30h364.02c16.542 0 30-13.458 30-30V296c0-5.522-4.477-10-10-10s-10 4.478-10 10v186c0 5.514-4.486 10-10 10H73.993c-5.514 0-10-4.486-10-10V117.99h67.987c16.542 0 30-13.458 30-30V20h276.03c5.514 0 10 4.486 10 10v182c0 5.522 4.477 10 10 10zM141.98 87.99c0 5.514-4.486 10-10 10H78.134l63.846-63.848V87.99z" fill="#00913d"/><path d="M168.28 154.21c-3.903-3.907-10.264-3.878-14.17.023l-.234.234c-3.882 3.928-3.845 10.259.083 14.142a9.966 9.966 0 0 0 7.029 2.888 9.966 9.966 0 0 0 7.112-2.971l.141-.141.068-.067c3.904-3.904 3.874-10.203-.029-14.108z" fill="#00913d"/><path d="M357.81 154.18c-46.404-46.404-118.27-55.604-174.77-22.371-4.761 2.8-6.35 8.929-3.55 13.689 2.801 4.76 8.93 6.349 13.69 3.549 48.642-28.611 110.53-20.688 150.49 19.275 48.348 48.347 48.348 127.02 0 175.36-23.421 23.422-54.56 36.32-87.681 36.32s-64.261-12.898-87.681-36.319c-38.992-38.992-47.514-99.833-20.723-147.96 2.686-4.826.952-10.915-3.874-13.602-4.828-2.688-10.916-.952-13.602 3.873-14.927 26.813-20.918 58.42-16.869 89.001 4.183 31.594 18.334 60.234 40.924 82.825 27.199 27.198 63.361 42.177 101.82 42.177s74.625-14.979 101.82-42.177 42.177-63.359 42.177-101.82-14.979-74.625-42.177-101.82z" fill="#00913d"/><path d="M275.57 313.5l-8.485-26.892c5.028-.526 8.948-4.777 8.948-9.944 0-5.522-4.477-10-10-10h-5.24l-26.552-84.155a10 10 0 0 0-19.074 0l-26.552 84.155h-5.241c-5.523 0-10 4.478-10 10 0 5.167 3.92 9.418 8.948 9.944l-8.485 26.892c-1.659 5.267 1.263 10.884 6.53 12.545 5.27 1.666 10.884-1.26 12.545-6.527l10.366-32.854h42.853l10.365 32.854c1.346 4.266 5.286 6.994 9.534 6.994.997 0 2.011-.15 3.012-.467 5.267-1.661 8.189-7.278 6.528-12.545zm-65.982-46.836l15.117-47.911 15.116 47.911h-30.233zM326.65 196.52h-11.002v-11.002c0-5.523-4.477-10-10-10s-10 4.478-10 10v11.002h-11.001c-5.523 0-10 4.478-10 10s4.477 10 10 10h11.001v11.002c0 5.522 4.477 10 10 10s10-4.478 10-10V216.52h11.002c5.523 0 10-4.478 10-10s-4.477-10-10-10z" fill="#00913d"/></svg>