<svg xmlns="http://www.w3.org/2000/svg" viewBox="0 0 465 465"><linearGradient id="a" gradientUnits="userSpaceOnUse" x1="171.209" y1="182.804" x2="293.791" y2="305.387"><stop offset="0" stop-color="#1d8e3e"/><stop offset="1" stop-color="#07521d"/></linearGradient><path d="M240 356.1v-224c0-4.1-3.4-7.5-7.5-7.5s-7.5 3.4-7.5 7.5v224c0 4.1 3.4 7.5 7.5 7.5s7.5-3.4 7.5-7.5z" fill="url(#a)"/><linearGradient id="b" gradientUnits="userSpaceOnUse" x1="39.173" y1="41.002" x2="425.827" y2="427.655"><stop offset="0" stop-color="#1d8e3e"/><stop offset="1" stop-color="#07521d"/></linearGradient><path d="M457.5 75.8c-15.9 0-35.6-6.8-56.5-14.1-26.5-9.2-56.5-19.6-87.7-19.6-36 0-58 15.8-70.1 29-4.5 5-8 9.9-10.7 14.3-2.7-4.4-6.2-9.4-10.7-14.3-12.1-13.2-34.1-29-70.1-29-31.1 0-61.2 10.4-87.7 19.6-20.9 7.2-40.6 14.1-56.5 14.1-4.1 0-7.5 3.4-7.5 7.5v302.1c0 4.1 3.4 7.5 7.5 7.5 18.4 0 39.3-7.2 61.4-14.9 25.4-8.8 54.1-18.7 82.8-18.7 24.5 0 44.4 8.1 59 24.2 2.8 3.1 7.5 3.3 10.6.5s3.3-7.5.5-10.6c-12.1-13.2-34.1-29-70.1-29-31.1 0-61.2 10.4-87.7 19.6-17.7 6.1-34.6 12-49 13.6v-287c16.5-1.6 34.8-7.9 53.9-14.5 25.4-8.8 54.1-18.7 82.8-18.7 57.9 0 73 46 73.6 47.9 1 3.1 3.9 5.3 7.2 5.3s6.2-2.1 7.2-5.3c.1-.5 15.4-47.9 73.6-47.9 28.6 0 57.4 10 82.8 18.7 19.2 6.6 37.5 13 53.9 14.5v287c-14.4-1.6-31.3-7.5-49-13.6-26.5-9.2-56.5-19.6-87.7-19.6-36 0-58 15.8-70.1 29-2.8 3.1-2.6 7.8.5 10.6s7.8 2.6 10.6-.5c14.6-16 34.5-24.2 59-24.2 28.6 0 57.4 10 82.8 18.7 22.1 7.7 43.1 14.9 61.4 14.9 4.1 0 7.5-3.4 7.5-7.5V83.3c0-4.2-3.4-7.5-7.5-7.5z" fill="url(#b)"/><linearGradient id="c" gradientUnits="userSpaceOnUse" x1="114.696" y1="297.57" x2="350.303" y2="533.177"><stop offset="0" stop-color="#1d8e3e"/><stop offset="1" stop-color="#07521d"/></linearGradient><path d="M457.5 407.9c-15.9 0-35.6-6.8-56.5-14.1-26.5-9.2-56.5-19.6-87.7-19.6-33.8 0-55.3 13.9-67.8 26.6h-26c-12.5-12.7-34-26.6-67.8-26.6-31.1 0-61.2 10.4-87.7 19.6-20.9 7.2-40.7 14.1-56.5 14.1-4.1 0-7.5 3.4-7.5 7.5s3.4 7.5 7.5 7.5c18.4 0 39.3-7.2 61.4-14.9 25.4-8.8 54.1-18.7 82.8-18.7 24.5 0 44.4 8.1 59 24.2 1.4 1.6 3.4 2.4 5.5 2.4h32.5c2.1 0 4.1-.9 5.5-2.4 14.6-16 34.5-24.2 59-24.2 28.6 0 57.4 10 82.8 18.7 22.1 7.7 43.1 14.9 61.4 14.9 4.1 0 7.5-3.4 7.5-7.5s-3.3-7.5-7.4-7.5z" fill="url(#c)"/></svg>