<svg xmlns="http://www.w3.org/2000/svg" viewBox="-49 141 512 512"><path d="M293.733 581.295a10.003 10.003 0 0 0-7.071-2.929h-.014l-28.815.041h-.189c-15.906 0-31.84-2.925-46.753-8.506l17.291-11.595c7.078-4.746 11.837-11.973 13.402-20.35 1.564-8.378-.266-16.836-5.154-23.818-6.078-8.68-15.866-13.392-25.832-13.392-.162 0-.324.001-.487.004l39.829-39.829c12.083-12.084 12.083-31.746 0-43.83a30.939 30.939 0 0 0-10.099-6.753c2.766-4.702 4.245-10.073 4.245-15.672 0-8.278-3.224-16.062-9.077-21.916-5.854-5.854-13.637-9.078-21.916-9.078-5.599 0-10.969 1.48-15.672 4.246a30.954 30.954 0 0 0-6.753-10.1c-5.854-5.854-13.637-9.078-21.916-9.078s-16.062 3.224-21.916 9.078l-14.301 14.301a31.013 31.013 0 0 0-6.322-9.12c-5.854-5.854-13.637-9.077-21.916-9.077s-16.062 3.224-21.916 9.077l-6.339 6.339-25.771-25.626c-7.486-7.486-7.486-19.667 0-27.153 7.013-7.013 18.145-7.455 25.678-1.33l24.958 24.959c1.953 1.953 4.512 2.929 7.071 2.929s5.119-.977 7.071-2.929c3.905-3.905 3.905-10.237 0-14.142L71.993 282.99c-7.486-7.487-7.486-19.668 0-27.154 7.486-7.487 19.668-7.486 27.154 0l75.437 75.582c1.953 1.953 4.512 2.929 7.071 2.929s5.119-.977 7.071-2.929c3.905-3.905 3.905-10.237 0-14.142l-57.339-57.485c-6.125-7.534-5.682-18.665 1.33-25.677 7.487-7.486 19.669-7.486 27.154 0l21.008 21.009c3.906 3.906 10.238 3.906 14.142 0 3.905-3.905 3.906-10.237 0-14.142l-21.008-21.009c-15.285-15.284-40.154-15.283-55.438 0a38.948 38.948 0 0 0-10.134 17.604c-6.621-4.778-14.545-7.363-22.871-7.363-10.471 0-20.315 4.078-27.719 11.481-13.758 13.758-15.124 35.279-4.114 50.589a38.945 38.945 0 0 0-17.608 10.135c-14.424 14.425-15.228 37.382-2.427 52.767a38.94 38.94 0 0 0-17.221 10.031c-15.283 15.284-15.283 40.153 0 55.438l4.463 4.463C4.069 445.379-5.102 470.66-5.064 497.357l.024 16.564-41.031 41.034c-3.905 3.905-3.905 10.237 0 14.143 1.953 1.952 4.512 2.929 7.071 2.929s5.119-.977 7.071-2.929l43.966-43.967a10 10 0 0 0 2.929-7.086l-.03-20.715c-.036-24.854 9.625-48.223 27.2-65.798l49.626-49.627.001-.001 4.76-4.76c2.076-2.077 4.836-3.22 7.773-3.22s5.697 1.143 7.773 3.22a10.916 10.916 0 0 1 3.22 7.773 10.9 10.9 0 0 1-2.402 6.85l-13.219 13.219c-3.905 3.905-3.905 10.237 0 14.143.009.009.019.016.027.025l.025.027c1.953 1.952 4.512 2.929 7.071 2.929s5.119-.977 7.071-2.929l47.114-47.219c2.076-2.077 4.836-3.22 7.773-3.22s5.697 1.144 7.773 3.22c3.99 3.99 4.261 10.308.821 14.62l-47.988 48.093c-3.905 3.905-3.905 10.237 0 14.143 1.953 1.952 4.512 2.929 7.071 2.929s5.119-.977 7.071-2.929l61.819-61.924c2.076-2.077 4.836-3.22 7.773-3.22s5.697 1.144 7.773 3.22c4.286 4.286 4.286 11.26 0 15.546l-61.923 61.818c-3.905 3.905-3.906 10.237 0 14.143 3.906 3.904 10.238 3.905 14.142 0l48.094-47.988c4.311-3.441 10.629-3.17 14.619.822 4.286 4.285 4.286 11.26 0 15.545l-67.515 67.517c-4.756 4.755-5.196 12.047-1.045 17.339 4.15 5.292 11.338 6.603 17.09 3.116l20.397-12.365c5.142-3.119 11.872-1.702 15.321 3.225a11.368 11.368 0 0 1 1.877 8.675 11.37 11.37 0 0 1-4.88 7.41l-47.189 31.644c-15.355 10.297-33.236 15.736-51.722 15.736h-.131l-32.051-.046h-.014a10.001 10.001 0 0 0-7.071 2.929l-43.967 43.967c-3.905 3.905-3.905 10.237 0 14.143 1.953 1.952 4.512 2.929 7.071 2.929s5.119-.977 7.071-2.929l41.032-41.032 27.901.04h.158c22.465 0 44.201-6.612 62.861-19.125l10.105-6.776c20.649 9.964 43.623 15.233 66.546 15.233h.218l24.664-.035 50.776 50.776c1.953 1.952 4.512 2.929 7.071 2.929s5.119-.977 7.071-2.929c3.905-3.905 3.905-10.237 0-14.143l-53.706-53.713zM30.624 379.36c7.013-7.013 18.145-7.455 25.678-1.33l5.526 5.526-6.473 6.473-.002.002-20.606 20.606-4.123-4.123c-7.486-7.487-7.486-19.668 0-27.154zM453 519.454c-2.63 0-5.21 1.06-7.07 2.93a10.058 10.058 0 0 0-2.93 7.07c0 2.63 1.07 5.21 2.93 7.069 1.86 1.86 4.44 2.931 7.07 2.931s5.21-1.07 7.07-2.931a10.091 10.091 0 0 0 2.93-7.069c0-2.641-1.07-5.21-2.93-7.07a10.033 10.033 0 0 0-7.07-2.93zm-43.706-47.85l.058-40.432c.043-30.548-8.926-60.105-25.94-85.477l-44.015-65.638c-6.012-8.966-15.167-14.995-25.778-16.977-10.612-1.982-21.325.337-30.167 6.529-14.488 10.145-20.249 28.449-15.126 44.675l-26.135-26.136c-3.905-3.904-10.237-3.904-14.143 0-3.905 3.905-3.905 10.237 0 14.143l56.144 56.144c5.194 5.194 13.161 5.675 18.941 1.14 5.78-4.534 7.212-12.385 3.403-18.668l-17.2-28.372c-5.4-8.908-2.946-20.567 5.587-26.542a19.699 19.699 0 0 1 15.024-3.251 19.694 19.694 0 0 1 12.838 8.455l44.015 65.638c14.791 22.058 22.589 47.753 22.551 74.309l-.063 44.582a10 10 0 0 0 2.929 7.086l26.821 26.821c1.953 1.952 4.512 2.929 7.071 2.929s5.119-.977 7.071-2.929c3.905-3.905 3.905-10.237 0-14.143l-23.886-23.886z" fill="#fff"/><path d="M211.62 281.714c2.63 0 5.2-1.07 7.06-2.93 1.87-1.86 2.94-4.44 2.94-7.07s-1.07-5.21-2.94-7.07a10.035 10.035 0 0 0-7.06-2.93 10.1 10.1 0 0 0-7.08 2.93 10.076 10.076 0 0 0-2.93 7.07c0 2.64 1.07 5.21 2.93 7.07a10.1 10.1 0 0 0 7.08 2.93zm99.865 138.112c3.905-3.905 3.905-10.237 0-14.143-3.905-3.904-10.237-3.904-14.143 0l-4.362 4.362c-18.674 18.675-18.674 49.061 0 67.735a9.972 9.972 0 0 0 7.071 2.929 9.97 9.97 0 0 0 7.071-2.929c3.905-3.905 3.906-10.237 0-14.143-10.876-10.876-10.876-28.574 0-39.45l4.363-4.361zm116.814-224.822c-6.357 0-12.571 1.804-17.944 5.103-5.373-3.299-11.587-5.103-17.944-5.103-19.134 0-34.701 15.852-34.701 35.335 0 11.042 7.939 24.303 24.271 40.543 10.996 10.934 21.843 19.256 22.3 19.605 1.792 1.371 3.933 2.056 6.074 2.056s4.281-.685 6.074-2.056c.457-.349 11.304-8.672 22.3-19.605C455.061 254.643 463 241.381 463 230.339c0-19.484-15.567-35.335-34.701-35.335zm-17.947 74.746c-16.712-13.88-32.642-31.59-32.642-39.411 0-8.456 6.595-15.335 14.701-15.335 4.032 0 7.794 1.671 10.594 4.707a10.001 10.001 0 0 0 14.7 0c2.8-3.035 6.562-4.707 10.594-4.707 8.106 0 14.701 6.879 14.701 15.335 0 7.801-15.935 25.516-32.648 39.411zM-2.429 236.488c1.792 1.371 3.933 2.056 6.074 2.056s4.281-.685 6.074-2.056c.457-.349 11.304-8.672 22.3-19.605 16.332-16.24 24.271-29.501 24.271-40.543 0-19.484-15.567-35.335-34.701-35.335-6.357 0-12.571 1.804-17.944 5.103-5.373-3.299-11.587-5.103-17.944-5.103C-33.433 141.004-49 156.855-49 176.339c0 11.042 7.939 24.303 24.271 40.543 10.996 10.934 21.844 19.257 22.3 19.606zm-11.87-75.484c4.032 0 7.794 1.671 10.594 4.707a10.001 10.001 0 0 0 14.7 0c2.8-3.035 6.562-4.707 10.594-4.707 8.106 0 14.701 6.879 14.701 15.335 0 7.8-15.935 25.516-32.648 39.411C-13.071 201.87-29 184.161-29 176.339c0-8.456 6.595-15.335 14.701-15.335z" fill="#fff"/></svg>