<svg enable-background="new 0 0 512 512" version="1.1" viewBox="0 0 512 512" xml:space="preserve" xmlns="http://www.w3.org/2000/svg"><path d="m414 0h-316c-54 0-98 44-98 98v316c0 54 44 98 98 98h158c5.5 0 10-4.5 10-10v-77.5c0-5.5-4.5-10-10-10s-10 4.5-10 10v67.5h-148c-43 0-78-35-78-78v-316c0-43 35-78 78-78h316c43 0 78 35 78 78v316c0 43-35 78-78 78h-64v-176.5h58c5.1 0 9.4-3.9 10-9l7.2-71.5c0.3-2.8-0.6-5.6-2.5-7.7s-4.6-3.3-7.4-3.3h-65.3v-37.5c0-6.8 2.2-9.3 8-9.3h56.7c5.5 0 10-4.5 10-10v-69.7c0-5.5-4.5-10-10-10h-74.5c-42.2 0-64.6 18.5-76 34.1-15.9 21.8-18.2 47.5-18.2 60.8v42h-49c-5.5 0-10 4.5-10 10v71c0 5.5 4.5 10 10 10h49v28.6c0 5.5 4.5 10 10 10s10-4.5 10-10v-38.5c0-5.5-4.5-10-10-10h-49v-51h49c5.5 0 10-4.5 10-10v-52c0-22.5 7.2-74.9 74.2-74.9h64.5v49.7h-46.7c-12.9 0-28 7.7-28 29.3v47.4c0 5.5 4.5 10 10 10h64.1l-5.2 51.5h-58.9c-5.5 0-10 4.5-10 10v196.5c0 5.5 4.5 10 10 10h74c54 0 98-44 98-98v-316c0-54-44-98-98-98z"/></svg>