<?xml version="1.0" encoding="UTF-8"?><svg enable-background="new 0 0 90 90" version="1.1" viewBox="0 0 90 90" xml:space="preserve" xmlns="http://www.w3.org/2000/svg"><style type="text/css">.st0{fill:none;stroke:#000000;stroke-width:1.5;stroke-miterlimit:10;}</style><path class="st0" d="m22.4 53.2c9.4-2.8 17.5-5.1 27-7.9 0.9-0.3 2-0.7 2.5-1.4 6.1-7.5 10.1-16 9.1-25.9-0.9-9.4-7.9-12.4-16-7.5-5.5 3.3-9.4 8.1-12.4 13.7-1.6 3-2.5 5-4.1 8.6-0.7 1.5-7.4 20.4-7.4 20.4h1.3zm4.5-21.9c-1.8-2.7-4.2-6.1-5.8-7.7-2.8-2.6-6.4-2.5-7.5 3.2-0.1 0.5-0.2 1.1-0.2 1.6-0.2 8.5 1.4 15.2 4.8 23.8 0.2 0.4 0.4 0.7 0.6 0.9 1.6-4.6 6.3-17.6 6.8-18.8 0.5-1.1 0.9-2.1 1.3-3m-2.2 23.9c9-2.6 18-5.3 27-7.9 0.9-0.3 1.9-0.5 2.7-0.2 8.7 3 16.3 7.7 20.6 16.1 4.1 8 0 14-9 14.3-6.1 0.2-11.7-1.7-17-4.7-2.8-1.6-6.5-3.7-9.6-5.8-4-2.7-16.7-10.9-16.7-10.9l2-0.9zm-3.9 2.3c-0.2 0.4-0.2 0.9-0.1 1.6 2.2 6.8 4.4 13.4 9.3 19.3 0.3 0.4 0.7 0.7 1 1 3.9 3.4 6.5 3.4 7.5-1.7 0.4-1.9 0.4-5.5 0.4-8.4-0.9-0.5-1.7-1.1-2.6-1.7-3.3-2.1-12.2-7.9-15.5-10.1"/></svg>