<?xml version="1.0" encoding="UTF-8"?><svg enable-background="new 0 0 90 90" version="1.1" viewBox="0 0 90 90" xml:space="preserve" xmlns="http://www.w3.org/2000/svg"><path class="st0" d="m63.9 51h-12.2c-0.4 0-0.7 0.3-0.7 0.7v12.2h-12v-12.2c0-0.4-0.3-0.7-0.7-0.7h-12.2v-12h12.2c0.4 0 0.7-0.3 0.7-0.7v-12.2h12v12.2c0 0.4 0.3 0.7 0.7 0.7h12.2v12zm0.7-13.5h-12.1v-12.1c0-0.4-0.3-0.7-0.7-0.7h-13.5c-0.4 0-0.7 0.3-0.7 0.7v12.2h-12.2c-0.4 0-0.7 0.3-0.7 0.7v13.5c0 0.4 0.3 0.7 0.7 0.7h12.2v12.2c0 0.4 0.3 0.7 0.7 0.7h13.5c0.4 0 0.7-0.3 0.7-0.7v-12.2h12.2c0.4 0 0.7-0.3 0.7-0.7v-13.5c0-0.4-0.4-0.8-0.8-0.8"/><path class="st0" d="m45 79.8c-19.2 0-34.8-15.6-34.8-34.8s15.6-34.8 34.8-34.8 34.8 15.6 34.8 34.8-15.6 34.8-34.8 34.8m0-71.1c-20 0-36.3 16.3-36.3 36.3s16.3 36.3 36.3 36.3 36.3-16.3 36.3-36.3-16.3-36.3-36.3-36.3"/></svg>
