<svg enable-background="new 0 0 100 100" version="1.1" viewBox="0 0 100 100" xml:space="preserve" xmlns="http://www.w3.org/2000/svg"><g transform="translate(0 -952.36)"><path d="m50 958c-13 0-23.6 10.6-23.6 23.6 0 6.3 1.8 14.2 5.7 20.7 1.1 1.9 2.5 3.8 4 5.4-0.1 0.9-0.3 1.7-0.5 2.2-0.3 0.6-0.4 0.7-0.6 0.8-2.4 0.9-8.8 1.4-14.9 3.3s-12.3 5.6-14 13.3c-0.2 0.7 0.1 1.4 0.6 1.9 23.9 21.6 62.8 21.6 86.7 0 0.5-0.5 0.8-1.2 0.6-1.9-1.6-7.7-7.9-11.4-14-13.3s-12.5-2.4-14.9-3.3 0 0 0 0c-0.3-0.1-0.5-0.3-0.8-0.8-0.2-0.4-0.4-1.1-0.6-1.9 1.6-1.7 3-3.6 4.2-5.6 3.8-6.6 5.7-14.4 5.7-20.7 0-13.1-10.6-23.7-23.6-23.7z"/></g></svg>
