<?xml version="1.0" encoding="UTF-8"?><svg enable-background="new 0 0 90 90" version="1.1" viewBox="0 0 90 90" xml:space="preserve" xmlns="http://www.w3.org/2000/svg" xmlns:xlink="http://www.w3.org/1999/xlink"><path class="st0" d="m64.7 67.2h-39.4v-16.5h39.4v16.5zm0 3.4c0 0.8-0.3 1.5-0.8 2s-1.2 0.8-2 0.8h-33.7c-0.8 0-1.5-0.3-2-0.8s-0.8-1.2-0.8-2v-1.9h39.4v1.9zm-39.2-21.8c0.2-0.3 0.4-0.7 0.7-1l5.2-4.6h27.2l5.1 4.6c0.3 0.3 0.6 0.6 0.7 0.9 0.1 0.1 0.1 0.3 0.1 0.4h-39.1s0.1-0.1 0.1-0.3m9.8-9c0.5-0.4 0.8-0.9 1.1-1.4 0.2-0.5 0.4-1.1 0.4-1.8v-4.5h16.5v4.5c0 0.6 0.1 1.2 0.4 1.7 0.2 0.5 0.6 1 1.1 1.4l2.3 2.1h-24.1l2.3-2zm-1.7-9.1c-0.3 0-0.6-0.1-0.7-0.3-0.2-0.2-0.3-0.4-0.3-0.7v-12c0-0.3 0.1-0.6 0.3-0.8s0.5-0.3 0.7-0.3h3.7v14.2h-3.7zm5.1-14.1h5.6v14.2h-5.6v-14.2zm7 0h5.6v14.2h-5.6v-14.2zm7 0h3.7c0.3 0 0.6 0.1 0.7 0.3 0.2 0.2 0.3 0.5 0.3 0.8v12c0 0.3-0.1 0.6-0.3 0.7-0.2 0.2-0.5 0.3-0.7 0.3h-3.7v-14.1zm13 31.6c-0.2-0.5-0.6-1-1.1-1.4l-9-8.1c-0.3-0.3-0.5-0.6-0.7-1-0.2-0.3-0.2-0.7-0.2-1.2v-4.5h1.7c0.7 0 1.3-0.3 1.8-0.7 0.4-0.4 0.7-1.1 0.7-1.7v-12c0-0.7-0.3-1.3-0.7-1.8-0.4-0.4-1.1-0.7-1.7-0.7h-22.9c-0.7 0-1.3 0.3-1.7 0.7s-0.7 1.1-0.7 1.7v12c0 0.7 0.3 1.3 0.7 1.7s1.1 0.7 1.7 0.7h1.7v4.5c0 0.4-0.1 0.8-0.2 1.2-0.2 0.4-0.4 0.7-0.7 1l-3.7 3.4h-0.1l-5.3 4.7c-0.5 0.4-0.8 0.9-1.1 1.4-0.2 0.5-0.4 1.1-0.4 1.7v20.6c0 1.2 0.5 2.2 1.2 3 0.8 0.8 1.8 1.2 3 1.2h33.7c1.2 0 2.2-0.5 3-1.2 0.8-0.8 1.2-1.8 1.2-3v-20.4c0.2-0.6 0.1-1.2-0.2-1.8"/><rect class="st1" x="46" y="58.1" width="14.8" height="1.4"/><defs><rect id="a" x="23.9" y="15.2" width="42.2" height="59.7"/></defs><clipPath><use xlink:href="#a"/></clipPath><path class="st2" d="m30 57.6h2.9c0.4 0 0.7-0.3 0.7-0.7v-2.9h2.4v2.9c0 0.4 0.3 0.7 0.7 0.7h2.9v2.4h-2.9c-0.4 0-0.7 0.3-0.7 0.7v2.9h-2.4v-2.9c0-0.4-0.3-0.7-0.7-0.7h-2.9v-2.4zm-0.7 3.8h2.9v2.9c0 0.4 0.3 0.7 0.7 0.7h3.8c0.4 0 0.7-0.3 0.7-0.7v-2.9h2.9c0.4 0 0.7-0.3 0.7-0.7v-3.8c0-0.4-0.3-0.7-0.7-0.7h-2.9v-2.9c0-0.4-0.3-0.7-0.7-0.7h-3.8c-0.4 0-0.7 0.3-0.7 0.7v2.9h-2.9c-0.4 0-0.7 0.3-0.7 0.7v3.8c0 0.4 0.3 0.7 0.7 0.7"/></svg>
