<?xml version="1.0" encoding="UTF-8"?><svg enable-background="new 0 0 90 90" version="1.1" viewBox="0 0 90 90" xml:space="preserve" xmlns="http://www.w3.org/2000/svg"><path class="st0" d="m62.2 52.7c-0.2 2.8-0.3 5.4-1.2 7.9-0.8 2.3-2.1 5.7-4.3 8.3-1.9 2.2-6.4 4.2-6.6-0.4-0.1-4.3 0.5-9-0.5-13.4-1-4.6-8.1-4.5-9.1 0-1.8 8.2 1.5 16.2-2.7 16.2-4.4 0-7.3-6.6-8.7-10.7-1.8-5.3-0.6-11.2-2.7-16.8-1.8-4.6-5.2-8.5-5.2-13.4 0-7.3 3.9-11.7 10.5-11.7 2.3 0 5.6 0.9 8.4 1.7 4.9 1.6 9.8 6.8 15.9 3.5 1-0.5 0.2-2-0.8-1.5-3.3 1.7-6.2 0.5-9.2-1.1 3.6-0.5 8.8-2.6 12.5-2.6 6.6 0 10.5 4.4 10.5 11.7 0 3.2-1.5 6-3 8.9-2.8 5-3.4 6.5-3.8 13.4m-3.8-35.7c-2.4 0-5.2 0.8-7.9 1.5-5.1 1.4-5.4 1.5-9.7 0.3h-0.1c-0.4-0.1-0.7-0.2-1.2-0.3-2.7-0.7-5.5-1.5-7.9-1.5-7.5 0-12.2 5.1-12.2 13.4 0 5.4 3.6 9.5 5.3 14 2 5.2 0.8 11.1 2.7 16.7 1.7 5 5 11.8 10.3 11.8 6.4 0 2.6-9.5 4.4-17.5 0.6-2.8 5.1-2.9 5.8 0 0.9 4.1 0.4 8.7 0.5 13.1 0.2 5.9 6.1 5.5 9.6 1.5 2.4-2.8 3.8-6.4 4.6-8.9 1.9-5.6 0.7-11.5 2.7-16.7 1.8-4.5 5.3-8.6 5.3-14 0-8.2-4.7-13.4-12.2-13.4"/><path class="st0" d="m25.2 33.6c-0.4-1.2-0.7-2.2-0.7-3.2 0-5.5 2.4-8.3 7.1-8.3 1.1 0 1.1 1.7 0 1.7-1.6 0-5.4 0-5.4 6.6 0 0.8 0.2 1.6 0.5 2.6 0.2 0.4-0.1 0.9-0.5 1.1s-0.9 0-1-0.5"/></svg>
