<svg enable-background="new 0 0 90 90" version="1.1" viewBox="0 0 90 90" xml:space="preserve" xmlns="http://www.w3.org/2000/svg"><path d="m81.7 32.7l-14.4-14.3c-0.5-0.5-1.2-0.5-1.7 0l-7.2 7.2c-0.2 0.2-0.3 0.5-0.3 0.8s0.1 0.6 0.3 0.8l0.7 0.7-1.6 1.6c-1.1 1.1-2.7 1.4-4.1 0.7-1.3-0.6-2.8-0.9-4.2-0.9-1.7 0-3.4 0.4-4.9 1.2-0.6-0.2-1.3-0.2-1.9-0.2-0.9 0-1.8 0.2-2.7 0.5-1.4 0.5-2.9 0.2-3.9-0.8l-3-3 0.4-0.4c0.2-0.2 0.3-0.5 0.3-0.8s-0.1-0.6-0.3-0.8l-7.2-7.1c-0.5-0.5-1.2-0.5-1.7 0l-16 16c-0.5 0.5-0.5 1.2 0 1.7l7.2 7.2c0.2 0.2 0.5 0.3 0.8 0.3s0.6-0.1 0.8-0.3l0.4-0.4 2.1 2.1c0.5 0.5 0.9 1.2 1 1.9 0.7 3.7 2.5 7.1 5.1 9.8l0.4 0.4c-0.8 0.8-1.2 1.8-1.2 2.9s0.4 2.2 1.2 3 1.9 1.2 3 1.2h0.2c-0.1 1.2 0.4 2.3 1.2 3.2 0.8 0.8 1.9 1.2 3 1.2h0.1c0 1.1 0.4 2.2 1.2 3.1 0.8 0.8 1.9 1.2 3 1.2s2.2-0.4 3-1.2l0.2-0.2c0.4 0.1 0.9 0.2 1.3 0.2 1.1 0 2.1-0.4 2.8-1.2 0.4-0.4 0.7-0.9 0.9-1.4l0.1 0.1c0.8 0.8 1.8 1.2 2.8 1.2s2-0.4 2.8-1.2c0.4-0.4 0.7-0.9 0.9-1.4 0.7 0.5 1.5 0.8 2.3 0.8 1 0 2-0.4 2.8-1.2s1.2-1.7 1.2-2.8c0-0.3 0-0.6-0.1-0.9 0.8-0.2 1.5-0.5 2-1.1 0.8-0.8 1.2-1.7 1.2-2.8 0-0.8-0.3-1.6-0.7-2.3l0.9-0.9c2.7-2.7 4.5-6.1 5.2-9.9 0.1-0.6 0.4-1.2 0.9-1.7l3.5-3.5 0.6 0.6c0.2 0.2 0.5 0.3 0.8 0.3s0.6-0.1 0.8-0.3l7.2-7.2c0.2-0.2 0.3-0.5 0.3-0.8 0.5-0.4 0.4-0.7 0.2-0.9zm-65.3 7.5l-5.5-5.5 14.3-14.3 5.5 5.5-14.3 14.3zm14.3 20.5c-0.7 0.7-1.9 0.7-2.7 0-0.4-0.4-0.6-0.8-0.6-1.3s0.2-1 0.6-1.3c0.4-0.4 0.9-0.6 1.3-0.6 0.5 0 1 0.2 1.3 0.6 0.8 0.7 0.8 1.9 0.1 2.6zm4.4 4.5c-0.4 0.4-0.8 0.6-1.3 0.6s-1-0.2-1.3-0.6c-0.7-0.7-0.7-1.9 0-2.7 0.4-0.4 0.9-0.6 1.3-0.6 0.5 0 1 0.2 1.3 0.6 0.8 0.7 0.8 1.9 0 2.7zm4.4 4.3c-0.4 0.4-0.8 0.6-1.3 0.6s-1-0.2-1.3-0.6c-0.7-0.7-0.7-1.9 0-2.7 0.4-0.4 0.9-0.6 1.3-0.6 0.5 0 1 0.2 1.3 0.6 0.7 0.8 0.7 2 0 2.7zm20-9.1c-0.3 0.3-0.7 0.5-1.1 0.5s-0.8-0.2-1.1-0.5l-11.5-11.4c-0.5-0.5-1.2-0.5-1.7 0s-0.5 1.2 0 1.7l12.4 12.3c0.3 0.3 0.5 0.7 0.5 1.1s-0.2 0.8-0.5 1.1c-0.6 0.6-1.6 0.6-2.3 0l-2.1-2.1-9.6-9.6c-0.5-0.5-1.2-0.5-1.7 0s-0.5 1.2 0 1.7l9.6 9.6c0.3 0.3 0.5 0.7 0.5 1.1s-0.2 0.8-0.5 1.1c-0.6 0.6-1.6 0.6-2.3 0l-10.4-10.3c-0.5-0.5-1.2-0.5-1.7 0s-0.5 1.2 0 1.7l7.7 7.7c0.3 0.3 0.5 0.7 0.5 1.1s-0.2 0.8-0.5 1.1-0.7 0.5-1.1 0.5h-0.3c0.2-1.3-0.2-2.6-1.2-3.6-0.8-0.8-1.9-1.2-3-1.2h-0.1c0-1.1-0.4-2.2-1.2-3.1-0.8-0.8-1.9-1.2-3-1.2h-0.2c0.1-1.2-0.4-2.3-1.2-3.2-1.1-1.1-2.6-1.5-4-1.1l-0.8-0.8c-2.3-2.3-3.9-5.3-4.5-8.5-0.2-1.2-0.8-2.3-1.7-3.1l-2.1-2.1 11.9-11.9 3 3c1.1 1.1 2.7 1.7 4.3 1.7 0.7 0 1.4-0.1 2.1-0.4 0.3-0.1 0.7-0.2 1-0.3l-7.3 7.3c-0.9 0.9-1.4 2.1-1.4 3.4s0.5 2.5 1.4 3.4 2.1 1.4 3.4 1.4c1.2 0 2.4-0.5 3.4-1.4l3.7-3.7 1 1 13.9 13.9c0.3 0.3 0.5 0.7 0.5 1.1-0.2 0.3-0.4 0.7-0.7 1zm7.5-17.6c-0.8 0.8-1.4 1.8-1.6 2.9-0.6 3.3-2.1 6.3-4.5 8.6l-0.9 1-7.5-7.5h0.5c0.8 0 1.5-0.1 2.3-0.4 0.6-0.2 0.9-0.9 0.6-1.5-0.2-0.6-0.9-0.9-1.5-0.6-3 1.2-6.7-2.2-7.1-2.6l-1-1 1.1-1.1c0.5-0.5 0.5-1.2 0-1.7s-1.2-0.5-1.7 0l-2 2-4.5 4.5c-0.9 0.9-2.4 0.9-3.4 0-0.4-0.4-0.7-1-0.7-1.7 0-0.6 0.2-1.2 0.7-1.7l7.8-7.8c0.4-0.4 0.9-0.8 1.4-1.1 1.2-0.8 2.6-1.2 4.1-1.2 1.1 0 2.2 0.2 3.2 0.7 2.3 1 5 0.6 6.8-1.2l1.6-1.6 9.7 9.7-3.4 3.3zm6.6-3.7l-12.6-12.7 5.5-5.5 12.7 12.7-5.6 5.5z"/><circle cx="74.8" cy="34.5" r="1.2"/><circle cx="15.7" cy="35.6" r="1.2"/></svg>