<svg enable-background="new 0 0 90 90" version="1.1" viewBox="0 0 90 90" xml:space="preserve" xmlns="http://www.w3.org/2000/svg"><path d="m26.6 40h-2.3v-2.3c0-0.7-0.6-1.3-1.3-1.3s-1.3 0.6-1.3 1.3v2.3h-2.3c-0.7 0-1.3 0.6-1.3 1.3s0.6 1.3 1.3 1.3h2.3v2.4c0 0.7 0.6 1.3 1.3 1.3s1.3-0.6 1.3-1.3v-2.3h2.3c0.7 0 1.3-0.6 1.3-1.3 0.1-0.9-0.5-1.4-1.3-1.4z"/><path d="m59.2 35.3h-1.4v-1.4c0-0.7-0.6-1.3-1.3-1.3s-1.3 0.6-1.3 1.3v1.4h-1.4c-0.7 0-1.3 0.6-1.3 1.3s0.5 1.4 1.2 1.4h1.4v1.4c0 0.7 0.6 1.3 1.3 1.3s1.3-0.6 1.3-1.3v-1.4h1.4c0.7 0 1.3-0.6 1.3-1.3s-0.5-1.4-1.2-1.4z"/><path d="m13.7 54.3v-2.7h19.9c0.7 0 1.3-0.6 1.3-1.3v-18c0-0.7-0.6-1.3-1.3-1.3h-19.9v-5.6c1 0.7 2.2 1.1 3.5 1.1 1.9 0 3.7-0.9 4.8-2.3 1.1 1.4 2.8 2.3 4.8 2.3s3.7-0.9 4.8-2.3c1.1 1.4 2.8 2.3 4.8 2.3s3.7-0.9 4.8-2.3c1.1 1.4 2.8 2.3 4.8 2.3s3.7-0.9 4.8-2.3c1.1 1.4 2.8 2.3 4.8 2.3s3.7-0.9 4.8-2.3c1.1 1.4 2.8 2.3 4.8 2.3 1.3 0 2.5-0.4 3.5-1.1v8.3c-0.2-0.3-0.4-0.5-0.6-0.7-3.3-2.5-7.2-3.8-11.3-3.8s-8 1.3-11.3 3.8c-0.7 0.6-1.1 1.5-0.8 2.4l2 7.8v0.3 4c0 3.7 1.8 7 4.5 9.1v1.8l-10 2.6c-4.1 1.1-6.9 4.7-6.9 9v7.8c0 0.7 0.6 1.3 1.3 1.3h42.5c0.7 0 1.3-0.6 1.3-1.3v-7.8c0-4.2-2.9-7.9-6.9-9l-10-2.6v-1.8c2.8-2.1 4.5-5.4 4.5-9.1v-4-0.3l1.8-6.9v19.7c0 0.7 0.6 1.3 1.3 1.3s0.9-0.6 0.9-1.3v-43.6c0-0.7-0.6-1.3-1.3-1.3h-57.4c-0.7 0-1.3 0.6-1.3 1.3v49.6c0 0.7 0.6 1.3 1.3 1.3h21.2c0.7 0 1.3-0.6 1.3-1.3s-0.6-1.3-1.3-1.3h-19.8v-3.7m18.5-23.4v15.4h-18.5v-15.4h18.5zm-11.6-13.3c0 1.9-1.5 3.5-3.5 3.5-1.9 0-3.4-1.5-3.5-3.4v-6.7h6.9l0.1 6.6zm9.5 0c0 1.9-1.5 3.5-3.5 3.5-1.9 0-3.5-1.5-3.5-3.5v-6.6h6.9l0.1 6.6zm9.6 0c0 1.9-1.5 3.5-3.5 3.5-1.9 0-3.5-1.5-3.5-3.5v-6.6h6.9l0.1 6.6zm9.5 0c0 1.9-1.5 3.5-3.5 3.5-1.9 0-3.5-1.5-3.5-3.5v-6.6h6.9l0.1 6.6zm9.6 0c0 1.9-1.5 3.5-3.5 3.5-1.9 0-3.5-1.5-3.5-3.5v-6.6h6.9l0.1 6.6zm6.1 3.5c-1.9 0-3.5-1.5-3.5-3.5v-6.6h6.9v6.7c0 1.8-1.5 3.4-3.4 3.4zm-18 11.1c5.7-4.1 13.4-4.1 19.1 0l-1.7 6.6h-15.7l-1.7-6.6zm2 12.5v-3.3h15v3.3c0 4.4-3.2 8.1-7.5 8.7-4.3-0.6-7.5-4.3-7.5-8.7zm-12.4 28.9v-6.5c0-3 2-5.6 4.9-6.4l9.6-2.4 4 15.3h-18.5zm16.9-16.5v-1.7c0.9 0.4 1.8 0.6 2.8 0.8h0.2s0.1 0 0.2 0c1-0.1 1.9-0.4 2.8-0.8v1.7l-3 11.6-3-11.6zm22.9 16.5h-18.4l4-15.3 9.6 2.5c2.9 0.7 4.9 3.4 4.9 6.4l-0.1 6.4z"/></svg>