<svg enable-background="new 0 0 615.52 615.52" version="1.1" viewBox="0 0 615.52 615.52" xml:space="preserve" xmlns="http://www.w3.org/2000/svg"><path d="m602.53 549.74l-184.31-185.37c26.679-37.72 42.528-83.729 42.528-133.55 1e-3 -127.47-102.75-230.82-229.49-230.82-126.74 0-229.49 103.35-229.49 230.82s102.75 230.82 229.49 230.82c49.53 0 95.271-15.944 132.78-42.777l184.31 185.37c7.482 7.521 17.292 11.291 27.102 11.291 9.812 0 19.62-3.77 27.083-11.291 14.963-15.041 14.963-39.452-2e-3 -54.493zm-246.63-229.97l-15.042 21.273-21.158 15.138c-26.083 18.658-56.667 28.526-88.442 28.526-84.365 0-153-69.035-153-153.88 0-84.846 68.63-153.88 153-153.88s153 69.034 153 153.88c0.017 31.949-9.792 62.706-28.354 88.943z"/></svg>