<svg enable-background="new 0 0 100 100" version="1.1" viewBox="0 0 100 100" xml:space="preserve" xmlns="http://www.w3.org/2000/svg"><polygon points="34.5 49.6 31.9 52.2 43.8 64.2 68.1 39.9 65.5 37.2 43.8 58.9"/><path d="M76.8,13H23.2C17.6,13,13,17.6,13,23.3v53.5C13,82.5,17.6,87,23.2,87h53.5C82.4,87,87,82.5,87,76.8c0-1-0.9-1.9-1.9-1.9   s-1.9,0.9-1.9,1.9c0,3.6-2.9,6.5-6.5,6.5H23.2c-3.6,0-6.5-2.9-6.5-6.5V23.3c0-3.6,2.9-6.5,6.5-6.5h53.5c3.6,0,6.5,2.9,6.5,6.5v46   c0,1,0.9,1.9,1.9,1.9s1.9-0.9,1.9-1.9v-46C87,17.6,82.4,13,76.8,13z"/></svg>