<svg enable-background="new 0 0 512 512" version="1.1" viewBox="0 0 512 512" xml:space="preserve" xmlns="http://www.w3.org/2000/svg"><path d="m501.4 123c-6.6-27-25.9-48.3-50.5-55.5-25.4-7.5-96.1-10.2-151-11.2-5.5-0.1-10.1 4.7-10.2 10.6s4.3 10.9 9.8 11c76 1.4 127.8 5.1 146.1 10.5 17.7 5.2 31.7 20.6 36.5 40.2 9.8 40.3 10 126.6 10 127.5s-0.1 87.1-10 127.5c-4.8 19.6-18.7 34.9-36.5 40.1-36.6 10.8-188.1 10.9-189.6 10.9s-152.9-0.1-189.6-10.9c-17.7-5.2-31.7-20.6-36.5-40.2-9.8-40.4-9.9-126.6-9.9-127.5s0.1-87.1 10-127.5c4.8-19.6 18.7-34.9 36.5-40.1 18.6-5.5 72.1-9.2 150.4-10.5 5.5-0.1 9.9-5 9.8-11s-4.6-10.7-10.2-10.7c-56.6 0.9-129.4 3.7-155.3 11.3-24.7 7.2-44 28.5-50.6 55.5-10.5 43.1-10.6 129.3-10.6 133s0.1 89.9 10.6 133c6.6 27 25.9 48.3 50.5 55.5 39.2 11.6 188.5 11.7 194.8 11.7s155.6-0.1 194.8-11.7c24.6-7.2 44-28.5 50.5-55.5 10.5-43.1 10.6-129.3 10.6-133 0.2-3.7 0.1-89.9-10.4-133z"/><path d="m337.1 248.3l-124-77.9c-3.1-1.9-6.9-2-10 0-3.1 1.9-5 5.5-5 9.4v155.8c0 3.9 1.9 7.4 5 9.4 1.5 1 3.3 1.4 5 1.4s3.5-0.5 5-1.5l124-77.9c3.1-1.9 5-5.5 5-9.4 0-3.8-1.9-7.4-5-9.3zm-119 68.4v-118.2l94.1 59.1-94.1 59.1z"/></svg>