<svg enable-background="new 0 0 90 90" version="1.1" viewBox="0 0 90 90" xml:space="preserve" xmlns="http://www.w3.org/2000/svg"><path d="m28.7 22c-0.7 0-1.3 0.6-1.3 1.3s0.6 1.3 1.3 1.3 1.3-0.6 1.3-1.3-0.6-1.3-1.3-1.3z"/><path d="M45,11c-18.3,0-34,15.6-34,34c0,18.3,15.6,34,34,34c18.3,0,34-15.6,34-34C79,26.7,63.4,11,45,11z M45,76.3    C28,76.3,13.7,62,13.7,45S28,13.7,45,13.7S76.3,28,76.3,45S62,76.3,45,76.3z"/><path d="m45 16.7c-4.3 0-8.8 1-12.4 2.7-0.7 0.3-0.9 1.1-0.6 1.8s1.1 0.9 1.8 0.6c3.3-1.5 7.3-2.4 11.2-2.4 13.9 0 25.6 11.7 25.6 25.6s-11.7 25.6-25.6 25.6-25.6-11.7-25.6-25.6c0-6.3 2.3-12.6 6.4-17.2 0.5-0.5 0.4-1.4-0.1-1.9s-1.4-0.4-1.9 0.1c-4.5 5-7.1 11.9-7.1 18.9 0 15.4 12.9 28.3 28.3 28.3s28.3-12.9 28.3-28.3c0-15.3-12.9-28.2-28.3-28.2z"/><path d="m60.9 38.4h-9.3v-9.3c0-0.7-0.6-1.3-1.3-1.3h-10.6c-0.7 0-1.3 0.6-1.3 1.3v9.3h-9.3c-0.7 0-1.3 0.6-1.3 1.3v10.6c0 0.7 0.6 1.3 1.3 1.3h9.3v9.3c0 0.7 0.6 1.3 1.3 1.3h10.6c0.7 0 1.3-0.6 1.3-1.3v-9.3h9.3c0.7 0 1.3-0.6 1.3-1.3v-10.6c0.1-0.7-0.5-1.3-1.3-1.3zm-1.3 10.6h-9.3c-0.7 0-1.3 0.6-1.3 1.3v9.3h-8v-9.3c0-0.7-0.6-1.3-1.3-1.3h-9.3v-8h9.3c0.7 0 1.3-0.6 1.3-1.3v-9.3h8v9.3c0 0.7 0.6 1.3 1.3 1.3h9.3v8z"/></svg>