<?xml version="1.0" encoding="UTF-8"?><svg enable-background="new 0 0 90 90" version="1.1" viewBox="0 0 90 90" xml:space="preserve" xmlns="http://www.w3.org/2000/svg"><path class="st0" d="m26.4 17h-1.4c-0.3 0-0.6-0.3-0.6-0.6v-1.4h-2.3v1.4c0 0.3-0.3 0.6-0.6 0.6h-1.4v2.3h1.4c0.3 0 0.6 0.3 0.6 0.6v1.4h2.3v-1.4c0-0.3 0.3-0.6 0.6-0.6h1.4v-2.3zm0.6 3.5h-1.4v1.4c0 0.3-0.3 0.6-0.6 0.6h-3.4c-0.3 0-0.6-0.3-0.6-0.6v-1.4h-1.4c-0.3 0-0.6-0.3-0.6-0.6v-3.4c0-0.3 0.3-0.6 0.6-0.6h1.4v-1.4c0-0.3 0.3-0.6 0.6-0.6h3.4c0.3 0 0.6 0.3 0.6 0.6v1.4h1.4c0.3 0 0.6 0.3 0.6 0.6v3.4c-0.1 0.3-0.3 0.6-0.6 0.6"/><path class="st0" d="m18.7 53.3c0.3 0.1 0.6 0.3 0.9 0.5 0.2 0.2 0.4 0.5 0.6 0.8l3.1 7 3.1-6.7c0.1-0.3 0.3-0.6 0.6-0.8 0.2-0.2 0.5-0.4 0.9-0.6l1.9-0.8c-0.1-0.1-0.2-0.2-0.3-0.4-0.3-0.4-0.5-1-0.6-1.5l-0.1-1.5c-0.5 0.5-1.1 0.9-1.6 1.2-1.2 0.7-2.4 1.1-3.7 1.1-0.9 0-1.9-0.2-2.7-0.6-0.9-0.4-1.7-0.9-2.5-1.6l-0.1-0.1-0.1 1.5c0 0.6-0.2 1.1-0.6 1.5-0.1 0.1-0.1 0.2-0.2 0.2l1.4 0.8zm12.8-10.8c0.5-1.6 0.9-3.4 1.1-5.4v-0.1-0.6-0.6-0.6c0-0.2 0-0.4-0.1-0.6-0.5-3.8-2.7-6.1-4.2-7.4-0.8 1.3-2.1 2.2-3.6 2.8-1.6 0.6-3.5 1-5.3 1.2-1.5 0.2-2.9 0.5-3.9 0.9-0.9 0.4-1.5 0.9-1.6 1.6v0.3 0.3 0.8 0.6 0.6 0.6 0.5c0.1 0.5 0.1 0.9 0.2 1.4s0.2 1 0.3 1.4c0.1 0.5 0.2 0.9 0.4 1.4 0.1 0.4 0.3 0.9 0.4 1.3 0.4 1.2 1 2.2 1.6 3.2 0.3 0.5 0.7 0.9 1 1.4l0.1 0.1 0.9 0.9c0.7 0.6 1.4 1.1 2.2 1.4 0.7 0.3 1.5 0.5 2.3 0.5 1.1 0 2.2-0.3 3.2-0.9s2-1.5 2.9-2.7c0 0 0-0.1 0.1-0.1 0.8-1.2 1.5-2.6 2-4.2m-0.4 3.8c0.3-0.1 0.7-0.2 0.9-0.2 2.4-4 3.7-7.5 4.1-10.5 0.5-3.5-0.1-6.4-1.2-8.8-1.9-0.5-3.8-0.9-5.7-1.2-2-0.3-4-0.4-6-0.4s-4 0.1-6 0.4c-1.8 0.3-3.6 0.6-5.4 1.1-1.1 2.7-1.7 5.9-1.2 9.5 0.4 3.1 1.6 6.5 3.9 10 0.3 0.1 0.6 0.1 0.9 0.2h0.1c-0.5-0.9-1-1.8-1.4-2.9v-0.1c-0.1-0.4-0.3-0.9-0.4-1.4s-0.3-0.9-0.4-1.4l-0.3-1.5c-0.1-0.5-0.2-0.9-0.2-1.4v-0.1-0.6-0.6-0.6-0.6-0.8-0.4-0.4c0.2-1.3 1-2 2.3-2.6 1.2-0.5 2.6-0.7 4.2-1 1.7-0.3 3.5-0.6 5-1.2 1.4-0.6 2.7-1.4 3.3-2.9 0.1-0.3 0.5-0.4 0.8-0.3 0.1 0 0.1 0.1 0.1 0.1 1.6 1.3 4.5 3.9 5.1 8.5 0 0.2 0.1 0.4 0.1 0.6v0.7 0.7 0.7c-0.2 2-0.5 3.9-1.1 5.6-0.4 1.3-0.9 2.4-1.6 3.4l0.1 0.4zm0.9-32.8c0-0.2-0.1-0.3-0.2-0.4l-0.3-0.3c-0.1-0.1-0.2-0.2-0.4-0.2-0.1-0.1-0.3-0.1-0.5-0.1h-14.8c-0.2 0-0.3 0-0.5 0.1-0.1 0-0.3 0.1-0.4 0.2l-0.3 0.3c-0.1 0.1-0.1 0.3-0.2 0.4l-2.6 12c1.7-0.5 3.5-0.8 5.2-1.1 2-0.3 4.1-0.4 6.1-0.4 2.1 0 4.1 0.1 6.2 0.4 1.7 0.3 3.5 0.6 5.2 1.1l-2.5-12zm-27.7 47.1c0.9-3 2.6-5.5 5.8-7 1.6-0.7 3.4-1.1 5.1-1.4 0.1-0.1 0.3-0.1 0.4-0.1 0.3 0 0.5-0.2 0.7-0.4s0.3-0.6 0.3-0.9l0.1-2.6c-0.1-0.2-0.3-0.3-0.4-0.5-0.4-0.1-0.8-0.1-1.2-0.2s-0.9-0.2-1.2-0.3c-0.1 0-0.2-0.1-0.3-0.2-2.4-3.7-3.7-7.3-4.2-10.6-0.5-3.6 0-6.9 1.2-9.7 0 0 0-0.1-0.1-0.1v-0.3l2.8-13c0.1-0.3 0.2-0.6 0.3-0.8s0.3-0.4 0.5-0.6 0.5-0.3 0.7-0.4c0.3-0.1 0.5-0.1 0.8-0.1h14.9c0.3 0 0.6 0 0.8 0.1 0.3 0.1 0.5 0.2 0.7 0.4s0.4 0.4 0.5 0.6 0.3 0.5 0.3 0.8l2.8 12.9c1.3 2.5 1.9 5.7 1.4 9.6-0.5 3.2-1.8 6.9-4.4 11.1l-0.3 0.3-1.2 0.3c-0.4 0.1-0.8 0.2-1.2 0.2-0.1 0.2-0.3 0.4-0.5 0.6l0.1 2.6c0 0.4 0.1 0.7 0.3 0.9s0.4 0.4 0.6 0.4l0.5 0.1c0.7 0.1 1.5 0.3 2.2 0.4l0.9 0.2c0.1 0 0.2 0.1 0.3 0.1 0.6 0.2 1.2 0.4 1.7 0.6 0.3 0.2 0.6 0.3 0.9 0.5-0.3 0.3-0.6 0.5-0.8 0.8l-0.6-0.3c-0.8-0.4-1.7-0.6-2.6-0.9l-2.1-0.4-3 1.2c-0.2 0.1-0.4 0.2-0.5 0.3s-0.3 0.3-0.3 0.5l-3.6 7.8c-0.1 0.3-0.5 0.4-0.8 0.3l-0.3-0.3-3.6-8.2c-0.1-0.2-0.2-0.3-0.3-0.4s-0.3-0.2-0.5-0.3l-2.8-1h-0.2c-1.6 0.3-3.3 0.6-4.8 1.3-2.9 1.3-4.4 3.6-5.2 6.3-0.8 2.8-0.9 6-0.9 9.1v0.7c0 0.6 0.3 1.2 0.7 1.6s1 0.7 1.6 0.7h24.3v1.1h-23.8c-0.9 0-1.8-0.4-2.4-1s-1-1.5-1-2.4v-0.6c0-3.2 0.1-6.6 0.9-9.4"/><path class="st0" d="m33.9 63.3v12.4c0 0.7 0.3 1.4 0.8 1.9s1.2 0.8 1.9 0.8h21.1l-1.6-5.9-1.5-3c-3-5.2-5-8.8-7.1-16.4-0.2 0.1-0.5 0.1-0.7 0.2-0.4 0.1-0.8 0.2-1.3 0.3l-0.6 0.2v0.3 10.9h0.2 0.1c2.3 0.5 3.8 2.4 3.8 4.7 0 2.6-2.2 4.8-4.8 4.8s-4.8-2.2-4.8-4.8c0-2.3 1.5-4.2 3.8-4.7h0.2 0.2v-10.9c-3 1-5.6 2.4-7.3 4-1.6 1.5-2.4 3.2-2.4 5.2zm25.3 15.1h0.7l1.4-5.8c-0.2-1.3-0.4-2.7-0.5-4-0.3-2.4-0.6-4.7-1-7.3v-0.7c0-0.2 0.1-0.3 0.2-0.5l0.4-1-1.1-1.9-1 1.9 0.4 1c0.1 0.2 0.2 0.3 0.2 0.5 0.1 0.2 0.1 0.4 0 0.6-0.3 2.5-0.6 4.9-1 7.3-0.2 1.3-0.3 2.5-0.5 3.8l1.8 6.1zm11.7-5.6l0.9 0.4c0.1 0.1 0.3 0.1 0.4 0s0.2-0.1 0.3-0.3v-0.1-0.4l-0.3-0.3-0.9-0.4-0.4 1.1zm6.5 0l-0.4-1-0.9 0.4c-0.1 0.1-0.3 0.2-0.3 0.3-0.1 0.1-0.1 0.3 0 0.4v0.1l0.3 0.3c0.1 0.1 0.3 0.1 0.4 0l0.9-0.5zm5.2 5.6c0.7 0 1.4-0.3 1.9-0.8s0.8-1.2 0.8-1.9v-12.4c0-2.1-1-3.9-2.6-5.4-1.9-1.7-4.6-3.1-7.9-4.1v0.5 0.8c2.1 0.2 4 1.1 5.5 2.5 1.6 1.6 2.5 3.7 2.5 6.2 0 0.3-0.2 0.6-0.5 0.7v0.4c0 2.1-0.1 3.7-0.6 5-0.5 1.2-1.3 2.2-2.8 3.1 0.1 0.3-0.1 0.6-0.4 0.8l-1.5 0.6c-0.5 0.2-1 0.2-1.5 0-0.4-0.2-0.8-0.5-1-1s-0.2-1 0-1.4c0.2-0.5 0.6-0.8 1-1l1.5-0.6c0.3-0.1 0.7 0 0.9 0.4l0.5 1.1c1-0.6 1.7-1.4 2-2.3 0.5-1.1 0.5-2.6 0.6-4.5v-0.4h-1.3c-0.4 0-0.7-0.3-0.7-0.7 0-1.3-0.5-2.6-1.4-3.4-0.9-0.9-2.1-1.4-3.4-1.4s-2.5 0.5-3.4 1.4-1.4 2.1-1.4 3.4c0 0.4-0.3 0.7-0.7 0.7h-1.3v0.4c0 1.9 0.1 3.4 0.5 4.5 0.4 0.9 1 1.6 2 2.3l0.5-1.1c0.1-0.3 0.5-0.5 0.9-0.4l1.5 0.6c0.5 0.2 0.8 0.6 1 1s0.2 0.9 0 1.4c0 0 0 0.1-0.1 0.1-0.2 0.5-0.6 0.8-1 1s-0.9 0.2-1.4 0h-0.1l-1.4-0.6c-0.3-0.1-0.5-0.4-0.4-0.8-1.4-0.8-2.3-1.8-2.8-3.1-0.4-0.9-0.5-1.9-0.6-3-0.5 0.8-0.9 1.6-1.4 2.5l-2.2 4.2-0.9 4.8h21.1zm-8.4-21.9c-1.5 0-2.9 0.4-4 1.2 0 0-0.1 0-0.1 0.1-0.4 0.3-0.8 0.6-1.1 0.9-1.2 1.2-2 2.8-2.1 4.5h1.1c0.2-1.4 0.8-2.7 1.8-3.7 1.1-1.1 2.7-1.8 4.4-1.8s3.3 0.7 4.4 1.8c1 1 1.6 2.3 1.8 3.7h1.2c-0.2-1.8-0.9-3.4-2.1-4.5-1.5-1.4-3.3-2.2-5.3-2.2m-0.7-2.1c0-0.3 0-0.6-0.1-0.9-0.6-0.2-1.2-0.3-1.7-0.4-0.2 0.7-0.4 1.3-0.6 2-0.1 0.3-0.2 0.5-0.2 0.7 0.8-0.3 1.7-0.5 2.6-0.6v-0.8zm-1.5-3.7c-0.8-0.8-1.8-1.3-2.9-1.5 0 0.4 0.1 0.7 0.2 1l2.3 1.5c0.3 0.1 0.8 0.2 1.4 0.3-0.3-0.5-0.7-0.9-1-1.3m-4 7c0.4-0.4 0.8-0.7 1.2-1 0.2-0.7 0.5-1.4 0.7-2.1l0.1-0.2-7.2 6.9c-0.3 0.3-0.7 0.2-0.9 0l-0.1-0.1-0.3-0.6v0.1s0 0.1-0.1 0.1c0 0.1-0.1 0.1-0.1 0.2v0.1c0.3 2.7 0.6 4.9 0.9 7.2l0.3 2.2c0.3-0.6 0.7-1.2 1-1.8 0.9-1.5 1.7-2.9 2.4-4.3-0.2-0.1-0.4-0.3-0.4-0.6 0-2.3 0.9-4.5 2.5-6.1m0.6-6.3l-8.2 4.6 1.5 2.7 0.6 1 7.7-7.4-1.6-0.9zm3.2-15.3c0.5-1.5 0.9-3 1-4.5l-0.8-3.3c-0.2-0.7-0.3-1.3-0.3-1.9s-0.1-1.2-0.1-1.7c0-0.7 0-1.4-0.1-2s-0.3-1.1-0.6-1.5c-0.5-0.7-1.3-0.9-2.1-0.9-0.9 0-2.1 0.3-3.3 0.6h-0.1c-1.8 0.5-3.7 1-5.8 1s-4.1-0.5-5.8-1c-1.2-0.3-2.4-0.6-3.3-0.6-0.8 0-1.5 0.2-2.1 0.9-0.4 0.5-0.5 1-0.6 1.5-0.1 0.6-0.1 1.3-0.1 2 0 0.6 0 1.2-0.1 1.7-0.1 0.6-0.1 1.3-0.3 1.9l-0.8 3.4c0.1 1.5 0.5 3 1 4.5 0.7 2 1.8 3.9 3.1 5.5 1.3 1.7 2.8 3 4.4 4 1.5 0.9 3.1 1.4 4.7 1.4s3.2-0.5 4.7-1.4c1.7-1 3.2-2.4 4.4-4 1.2-1.7 2.2-3.6 3-5.6m-12.2-24.5c-12.5 0-13.4 5.4-13.4 12.7 0-0.7 0-1.3 0.2-1.9 0.1-0.8 0.4-1.5 0.9-2.1 0.8-1 1.9-1.4 3.1-1.4 1.1 0 2.3 0.3 3.7 0.7 1.7 0.4 3.5 0.9 5.5 0.9s3.8-0.5 5.5-0.9c1.3-0.3 2.5-0.7 3.6-0.7 1.2 0 2.3 0.4 3.1 1.4 0.5 0.6 0.8 1.4 0.9 2.1 0.1 0.6 0.1 1.3 0.2 1.9 0.1-7.3-0.8-12.7-13.3-12.7m-8.1 36.7v0.1c0 0.1 0 0.2-0.1 0.3 0 0.4-0.1 0.8-0.1 1.2 0 0.2-0.1 0.3-0.1 0.5l8.3 4.7 8.4-4.8c-0.1-0.4-0.1-1-0.2-1.7v-0.1c-0.1-1.1-0.2-2.3-0.2-3.3v-0.2c-0.8 0.7-1.6 1.3-2.5 1.8-1.7 1-3.5 1.6-5.3 1.6s-3.6-0.6-5.3-1.6c-0.9-0.5-1.7-1.1-2.5-1.8v0.3c-0.2 0.8-0.3 1.9-0.4 3zm6.1 12.3l-0.3 0.6c0 0.1-0.1 0.1-0.1 0.1-0.3 0.3-0.7 0.3-0.9 0l-7-6.8c1.9 6.2 3.8 9.6 6.4 14.3 0.3 0.5 0.6 1 0.9 1.6l0.3-2c0.3-2.3 0.6-4.6 0.9-7.2v-0.1c0-0.1 0-0.1-0.1-0.2 0-0.2 0-0.2-0.1-0.3zm-7.1-9.2l-1.5 1 7.6 7.4 0.5-1 1.5-2.7-8.1-4.7zm-3.9-0.8c-0.5 0.4-1 1-1.3 1.5 0.4-0.1 0.7-0.2 1.1-0.3l1.2-0.3 2.3-1.4c0-0.2 0.1-0.4 0.1-0.6s0-0.3 0.1-0.5c-1.3 0.3-2.6 0.8-3.5 1.6m-3.5 17.9c-0.3 0.3-0.4 0.6-0.4 1s0.2 0.8 0.4 1.1c0.3 0.3 0.6 0.4 1 0.4s0.8-0.2 1-0.4c0.3-0.3 0.4-0.6 0.4-1.1 0-0.4-0.2-0.8-0.4-1-0.3-0.3-0.6-0.4-1-0.4-0.3 0-0.7 0.1-1 0.4m0.4-2.4h-0.1c-0.8 0.2-1.5 0.6-1.9 1.2-0.5 0.6-0.7 1.3-0.7 2.2 0 1.9 1.6 3.5 3.5 3.5s3.5-1.6 3.5-3.5c0-0.9-0.3-1.6-0.7-2.2-0.5-0.6-1.2-1-2-1.2h-0.1v0.7c1.2 0.3 2.1 1.4 2.1 2.7 0 1.6-1.3 2.8-2.8 2.8-1.6 0-2.8-1.3-2.8-2.8 0-1.3 0.9-2.4 2.2-2.7v-0.7zm-0.4-13.3l0.5-0.1c0.3-1.2 1.1-2.3 2-3.1 1.2-1 2.9-1.7 4.5-1.8 0.1-0.8 0.1-1.8 0.2-2.6 0-0.5 0.1-1 0.1-1.4-0.4-0.4-0.7-0.8-1.1-1.3-1.4-1.7-2.5-3.8-3.3-5.9-0.6-1.6-1-3.2-1.1-4.9-0.1-1.6-0.1-3.7-0.1-5.3-0.2-9.1-0.3-16.1 14.7-16.1s14.8 7 14.7 16.1c-0.1 3.8 0.2 6.4-1.2 10.2-0.8 2.2-1.9 4.2-3.3 5.9-0.3 0.4-0.7 0.8-1 1.2 0 0.4 0.1 0.8 0.1 1.4 0 0.8 0.1 1.8 0.2 2.7 1.5 0.2 2.9 0.9 4 1.9 0.7 0.7 1.3 1.7 1.6 2.7l0.6 0.2c3.5 1.1 6.4 2.5 8.4 4.4 1.9 1.8 3 3.9 3 6.3v12.4c0 1.1-0.5 2.1-1.2 2.8s-1.7 1.2-2.8 1.2h-46.1c-1.1 0-2.1-0.5-2.8-1.2s-1.2-1.7-1.2-2.8v-12.4c0-2.4 1-4.4 2.8-6.1 2.1-2.1 5.1-3.5 7.8-4.4"/></svg>