<svg enable-background="new 0 0 102 102" version="1.1" viewBox="0 0 102 102" xml:space="preserve" xmlns="http://www.w3.org/2000/svg"><path d="m66 69.5c-1.2-0.3-2.5 0.3-2.9 1.4-0.6 0.1-2.2-0.2-4.5-1.5-3.2-1.9-4.6-4.3-4.8-5.2 1.8 1.1 4 2 6.1 2.7 2.8 0.9 5.5 1.4 7.7 1.4 1.9 0 3.6-0.3 4.7-1s1.9-1.7 2.1-2.8c0.3-1.4-0.6-2.7-2-2.9-1.2-0.2-2.4 0.4-2.8 1.6-0.9 0.4-4 0.5-8.2-0.9-5-1.6-7.7-3.9-8-4.8v-0.3c3 1.1 6.7 1.6 10.3 1.6 7.8 0 16.1-2.4 16.1-7.8 0-1.4-1.1-2.5-2.5-2.5s-2.5 1.1-2.5 2.4c-0.4 0.8-4.2 2.9-11.1 2.9s-10.7-2-11.1-2.9v-3.6c3.4 1.6 8.2 2.3 12.7 2.3 8.5 0 17.7-2.6 17.7-8.4 0-1.4-1.1-2.5-2.5-2.5s-2.5 1.1-2.5 2.5c-0.3 1-4.9 3.5-12.7 3.5-7.9 0-12.5-2.4-12.7-3.4v-3.3c2.9 1.2 6.6 1.8 10.3 1.8 7.4 0 15.3-2.3 15.3-7.5 0-0.8-0.3-1.4-0.9-1.9h4c1.4 0 2.5-1.1 2.5-2.5s-1.1-2.5-2.5-2.5h-28.8v-3.5c0-1.4-1.1-2.5-2.5-2.5s-2.5 1.1-2.5 2.5v3.5h-28.6c-1.4 0-2.5 1.1-2.5 2.5s1.1 2.5 2.5 2.5h4c-0.5 0.5-0.9 1.1-0.9 1.9 0 5.1 7.9 7.5 15.3 7.5 3.6 0 7.4-0.6 10.3-1.8v3.2c-0.3 1-4.9 3.5-12.7 3.5s-12.5-2.4-12.7-3.5c0-1.4-1.1-2.5-2.5-2.5s-2.5 1.1-2.5 2.5c0 5.8 9.2 8.4 17.7 8.4 4.6 0 9.3-0.8 12.7-2.4v3.6c-0.4 0.9-4.2 2.9-11.1 2.9s-10.7-2-11.1-2.9c0-1.3-1.1-2.4-2.5-2.4s-2.5 1.1-2.5 2.5c0 5.4 8.4 7.8 16.1 7.8 3.6 0 7.3-0.5 10.3-1.6v0.3c-0.4 0.8-3 3.1-8 4.8-4.2 1.4-7.3 1.2-8.2 0.9-0.4-1.1-1.6-1.8-2.8-1.6-1.4 0.3-2.2 1.6-2 2.9 0.2 1.2 1 2.2 2.1 2.8 1.2 0.7 2.8 1 4.7 1 2.2 0 4.9-0.5 7.7-1.4 2.2-0.7 4.3-1.6 6.1-2.7-0.2 0.9-1.7 3.2-4.8 5.2-2.3 1.4-3.9 1.6-4.5 1.5-0.5-1.1-1.7-1.7-2.9-1.4-1.3 0.4-2.1 1.7-1.8 3.1 0.4 1.4 1.3 2.4 2.7 3 0.7 0.3 1.5 0.4 2.3 0.4 2 0 4.4-0.8 6.8-2.3 2.4-1.4 4.6-3.5 6-5.7 1.3 2.2 3.6 4.2 5.9 5.7 2.5 1.5 4.8 2.3 6.9 2.3 0.8 0 1.6-0.1 2.3-0.4 1.3-0.5 2.3-1.6 2.7-2.9 0.2-1.3-0.6-2.7-2-3.1zm8-39.1c-0.5 0.4-0.8 1.1-0.9 1.8-0.5 0.8-4.1 2.6-10.3 2.6s-9.8-1.8-10.3-2.6v-1.8h21.5zm-36.7 4.4c-6.2 0-9.8-1.8-10.3-2.6 0-0.7-0.4-1.3-0.9-1.8h21.4v1.8c-0.4 0.8-4 2.6-10.2 2.6z"/><path d="m96.4 79.6c0-0.1 0.1-0.2 0.1-0.2 0-0.1 0.1-0.1 0.1-0.2v-0.5-66.2c0-6.5-5.2-11.7-11.6-11.7h-68c-6.4 0-11.6 5.2-11.6 11.7v77c0 6.4 5.2 11.7 11.7 11.7h57 0.5c0.1 0 0.1 0 0.2-0.1 0.1 0 0.2 0 0.2-0.1 0.1 0 0.2-0.1 0.3-0.1s0.1-0.1 0.2-0.1c0.1-0.1 0.3-0.2 0.4-0.3l20.1-20.1c0.1-0.1 0.2-0.2 0.3-0.4 0-0.1 0.1-0.1 0.1-0.2v-0.2zm-86 9.9v-77c0-3.7 3-6.7 6.7-6.7h67.9c3.7 0 6.7 3 6.7 6.7v63.6h-8.4c-6.4 0-11.7 5.2-11.7 11.7v8.4h-54.6c-3.6 0-6.6-3-6.6-6.7zm77.7-8.4l-11.5 11.6v-4.9c0-3.7 3-6.7 6.7-6.7h4.8z"/></svg>