<svg enable-background="new 0 0 512 512" version="1.1" viewBox="0 0 512 512" xml:space="preserve" xmlns="http://www.w3.org/2000/svg"><path d="M362,0H150C67.3,0,0,67.3,0,150v212c0,82.7,67.3,150,150,150h212c82.7,0,150-67.3,150-150V150C512,67.3,444.7,0,362,0z     M492,362c0,71.7-58.3,130-130,130H150c-71.7,0-130-58.3-130-130V150C20,78.3,78.3,20,150,20h212c71.7,0,130,58.3,130,130V362z"/><path d="m362 44h-212c-58.4 0-106 47.6-106 106v212c0 58.4 47.6 106 106 106h61c5.5 0 10-4.5 10-10s-4.5-10-10-10h-61c-47.4 0-86-38.6-86-86v-212c0-47.4 38.6-86 86-86h212c47.4 0 86 38.6 86 86v212c0 47.4-38.6 86-86 86h-60.3c-5.5 0-10 4.5-10 10s4.5 10 10 10h60.3c58.4 0 106-47.6 106-106v-212c0-58.4-47.6-106-106-106z"/><path d="m256 118c-22 0-43.8 5.3-63.2 15.3-4.9 2.5-6.8 8.6-4.3 13.5s8.6 6.8 13.5 4.3c16.8-8.7 35-13.1 54-13.1 65.1 0 118 52.9 118 118s-52.9 118-118 118-118-52.9-118-118c0-20.4 5.3-40.5 15.3-58.2 2.7-4.8 1-10.9-3.8-13.6s-10.9-1-13.6 3.8c-11.7 20.6-17.9 44.1-17.9 68 0 76.1 61.9 138 138 138s138-61.9 138-138-61.9-138-138-138z"/><path d="m256 166c-49.6 0-90 40.4-90 90s40.4 90 90 90 90-40.4 90-90-40.4-90-90-90zm0 160c-38.6 0-70-31.4-70-70s31.4-70 70-70 70 31.4 70 70-31.4 70-70 70z"/><path d="m387.3 86.8c-21 0-38 17-38 38s17 38 38 38 38-17 38-38-17.1-38-38-38zm0 56c-9.9 0-18-8.1-18-18s8.1-18 18-18 18 8.1 18 18-8.1 18-18 18z"/></svg>