<svg enable-background="new 0 0 90 90" version="1.1" viewBox="0 0 90 90" xml:space="preserve" xmlns="http://www.w3.org/2000/svg"><path d="m59.4 45h-8.3c-1.1 0-2.1 0.9-2.1 2.1v16.5c0 1.1 0.9 2.1 2.1 2.1h8.3c2.3 0 4.1-1.8 4.1-4.1v-12.5c0.1-2.3-1.8-4.1-4.1-4.1zm0 16.5h-6.2v-12.4h6.2v12.4z"/><path d="M78,49.1V45H67.7c-1.1,0-2.1,0.9-2.1,2.1v18.6h4.1v-8.2H78v-4.1h-8.3v-4.1H78z"/><path d="m16.1 71.8v-53.6c0-1.1 0.9-2.1 2.1-2.1h30.9v8.3c0 2.3 1.8 4.1 4.1 4.1h8.3v6.2h4.1v-8.3c0-0.5-0.2-1.1-0.6-1.5l-12.3-12.3c-0.4-0.4-0.9-0.6-1.5-0.6h-33c-3.4 0-6.2 2.8-6.2 6.2v53.6c0 3.4 2.8 6.2 6.2 6.2h14.4v-4.1h-14.4c-1.2 0-2.1-0.9-2.1-2.1z"/><path d="m42.9 45h-8.3c-1.1 0-2.1 0.9-2.1 2.1v18.6h4.1v-6.2h6.2c2.3 0 4.1-1.8 4.1-4.1v-6.2c0.2-2.4-1.7-4.2-4-4.2zm0 10.3h-6.2v-6.2h6.2v6.2z"/></svg>