<svg enable-background="new 0 0 100 100" version="1.1" viewBox="0 0 100 100" xml:space="preserve" xmlns="http://www.w3.org/2000/svg"><path d="M50,0C22.4,0,0,22.4,0,50s22.4,50,50,50s50-22.4,50-50S77.6,0,50,0z M50,90.9C27.4,90.9,9.1,72.6,9.1,50S27.4,9.1,50,9.1   S90.9,27.4,90.9,50S72.6,90.9,50,90.9z"/><path d="m50 21.2c-3.3 0-6.1 2.7-6.1 6.1 0 3.3 2.7 6.1 6.1 6.1s6.1-2.7 6.1-6.1-2.8-6.1-6.1-6.1z"/><path d="m50 42.4c-2.5 0-4.5 2-4.5 4.5v27.3c0 2.5 2 4.5 4.5 4.5s4.5-2 4.5-4.5v-27.2c0-2.5-2-4.6-4.5-4.6z"/></svg>