<svg enable-background="new 0 0 90 90" version="1.1" viewBox="0 0 90 90" xml:space="preserve" xmlns="http://www.w3.org/2000/svg"><path d="m75.1 23.2h-13.4c-0.2-6.3-5.5-11.3-11.8-11.3-0.7 0-1.3 0.6-1.3 1.3s0.6 1.3 1.3 1.3c4.9 0 8.9 3.9 9.2 8.7h-6.3c-0.2-6.2-5.4-11.3-11.8-11.3s-11.6 5.1-11.8 11.3h-13.5c-0.7 0-1.3 0.6-1.3 1.3v22.9c0 0.7 0.6 1.3 1.3 1.3s1.3-0.6 1.3-1.3v-21.6h12.1v4.9c-2.1 0.6-3.7 2.5-3.7 4.8 0 2.8 2.3 5 5 5s5-2.3 5-5c0-2.3-1.6-4.2-3.7-4.8v-4.9h18.4v4.9c-2.1 0.6-3.7 2.5-3.7 4.8 0 2.8 2.3 5 5 5s5-2.3 5-5c0-2.3-1.6-4.2-3.7-4.8v-4.9h12.1v45.4h-6c-0.7 0-1.3 0.6-1.3 1.3s0.6 1.3 1.3 1.3h6.1c0.1 1 0.4 1.9 0.9 2.6h-45.6c-1.7 0-3.1-1.4-3.1-3.1v-14.4c0-0.7-0.6-1.3-1.3-1.3s-1.3 0.6-1.3 1.3v14.4c0 3.2 2.6 5.8 5.8 5.8h50.4c3.2 0 5.8-2.6 5.8-5.8v-48.8c-0.1-0.7-0.7-1.3-1.4-1.3zm-42.3 12.3c0 1.3-1.1 2.4-2.4 2.4s-2.4-1.1-2.4-2.4c0-0.8 0.4-1.5 1.1-2v1.1c0 0.7 0.6 1.3 1.3 1.3s1.3-0.6 1.3-1.3v-1.1c0.7 0.5 1.1 1.2 1.1 2zm-1-12.3c0.2-4.8 4.3-8.7 9.2-8.7s8.9 3.9 9.2 8.7h-18.4zm22 12.3c0 1.3-1.1 2.4-2.4 2.4s-2.4-1.1-2.4-2.4c0-0.8 0.4-1.5 1.1-2v1.1c0 0.7 0.6 1.3 1.3 1.3s1.3-0.6 1.3-1.3v-1.1c0.7 0.5 1.1 1.2 1.1 2zm20 37.8c0 1.7-1.4 3.1-3.1 3.1s-3.1-1.4-3.1-3.1v-47.5h6.3l-0.1 47.5z"/></svg>