<svg enable-background="new 0 0 110 110" version="1.1" viewBox="0 0 110 110" xml:space="preserve" xmlns="http://www.w3.org/2000/svg"><path d="m13.6 46.2c3.4 0 6.6-2.1 7.9-5.2 5.5-13.1 18.4-22.4 33.5-22.4 8.3 0 15.9 2.8 22 7.6l-4.8 0.8c-1.6 0.3-2.9 1.5-3.1 3.2-0.2 1.6 0.7 3.2 2.2 3.9l26.3 11.8c1.2 0.5 2.5 0.4 3.6-0.3s1.7-1.9 1.7-3.1l0.1-29c0-1.6-1.1-3.1-2.6-3.6-1.6-0.5-3.3 0.1-4.2 1.5l-3.6 5.5c-9.7-9.5-23-15.4-37.6-15.4-22.2 0-41.2 13.5-49.3 32.7-1.1 2.7-0.8 5.7 0.8 8.1 1.5 2.5 4.2 3.9 7.1 3.9z"/><path d="m103.6 67.6c-1.6-2.4-4.3-3.9-7.2-3.9-3.4 0-6.6 2.1-7.9 5.2-5.5 13.2-18.4 22.5-33.5 22.5-8.3 0-15.9-2.8-22-7.6l4.8-0.7c1.6-0.3 2.9-1.6 3.1-3.2s-0.7-3.2-2.2-3.9l-26.3-11.9c-1.2-0.5-2.5-0.4-3.6 0.3s-1.7 1.9-1.7 3.1l-0.1 29c0 1.6 1.1 3.1 2.6 3.6 1.6 0.5 3.3-0.1 4.2-1.5l3.6-5.5c9.7 9.5 22.9 15.4 37.5 15.4 22.2 0 41.2-13.5 49.3-32.8 1.2-2.6 1-5.6-0.6-8.1z"/></svg>