<svg enable-background="new 0 0 90 90" version="1.1" viewBox="0 0 90 90" xml:space="preserve" xmlns="http://www.w3.org/2000/svg"><path d="m59.8 13c-4 0-8 1.1-11.4 3.3-0.7 0.4-5.6 3.2-4.9 8.5 0.3 1.9 1.3 3.3 2.3 4.6 1.4 1.9 2.7 3.6 2.3 7.3h-0.1c-1-0.5-2.2-0.6-3.3-0.3-1 0.3-1.8 1-2.4 1.9-0.4-0.4-0.8-0.7-1.2-0.9-0.8-0.4-1.7-0.6-2.6-0.6-0.1-0.7 0-1.2 0-1.7 0.1-0.7 0.1-1.4 0-2.6-0.1-2.5-1.5-4.5-3.6-5.9-2.5-1.6-5.9-2.1-8.9-1.3-5.3 1.6-8.4 7.2-6.9 12.6 0.5 1.6 1.3 3 2.4 4.2 0.6 0.6 0.9 1.4 0.9 2.2-0.1 2.3 0.2 4.6 0.9 6.7 1.5 4.7 4.9 8.6 9.4 10.9 2.8 1.5 5.9 2.2 8.9 2.2 1.8 0 3.6-0.3 5.4-0.8 1-0.3 1.9-0.7 2.8-1.1 2.5-1.2 4.5-3.3 5.6-5.9 0.6-1.4 0.9-3 0.9-4.5 0.7 0.1 1.4 0.1 2.1-0.1 2.2-0.7 3.5-3.2 2.8-5.4l-1.1-3.5c-0.7-2.3-2.6-4.1-4.9-4.8-1.5-0.4-3.1-0.3-4.5 0.2 1-5.7-1-8.5-2.7-10.7-0.8-1.1-1.6-2.1-1.7-3.3-0.5-3.4 3.2-5.5 3.4-5.5 0 0 0.1 0 0.1-0.1 3-1.9 6.4-2.9 9.9-2.9 10.5 0 19 8.7 19 19.5 0 11.8-9.3 21.7-17 27.9-7.2 6-14.6 9.8-16.7 10.9-2-1-8.9-4.6-15.9-10-0.6-0.5-1.5-0.4-2 0.2s-0.4 1.5 0.2 2c8.6 6.7 16.7 10.5 17.1 10.6 0.2 0.2 0.4 0.2 0.6 0.2s0.4 0 0.6-0.1c0.4-0.2 9.1-4.2 17.9-11.3 5.2-4.2 9.4-8.6 12.4-13 3.8-5.7 5.7-11.4 5.7-17.2 0-12.4-9.7-22.4-21.8-22.4zm-23 28.6c0.6-0.6 1.3-1.2 1.7-2.1 0.5 0 1 0 1.4 0.3 0.5 0.3 0.9 0.7 1.1 1.2l-0.6 1.2-4.1-0.1 0.5-0.5zm12.6 1.9l0.5-0.9c0.2-0.3 0.4-0.5 0.7-0.8 1.1-1 2.6-1.3 4-1 1.4 0.4 2.5 1.5 3 2.9l1.1 3.5c0.2 0.8-0.2 1.6-0.9 1.9-0.8 0.2-1.5-0.1-1.8-0.8l-0.8-2.7c-0.2-0.8-1-1.2-1.8-0.9-0.8 0.2-1.2 1-0.9 1.8l0.9 2.8c1.3 4.2-0.6 8.6-4.5 10.5-0.8 0.4-1.6 0.7-2.4 1-8.3 2.5-17.5-2.3-20.2-10.5-0.6-1.9-0.9-3.8-0.8-5.7 0.1-1.6-0.5-3.2-1.7-4.3-0.8-0.9-1.4-1.9-1.7-3-1.1-3.8 1.1-7.9 4.9-9 0.7-0.2 1.5-0.3 2.2-0.3 1.5 0 3 0.4 4.3 1.2 1 0.6 2.2 1.8 2.5 3.7 0.1 0.9 0.1 1.4 0 2-0.1 0.7-0.1 1.6 0.1 3 0.1 0.8 0 1-1 1.8-0.3 0.2-0.6 0.5-0.9 0.8-0.8 0.8-1 1.9-0.6 2.9s1.4 1.7 2.4 1.7l4.9 0.1c0.9 0 1.7-0.5 2.1-1.3l2.1-4.1c0.2-0.3 0.5-0.6 0.8-0.7 0.4-0.1 0.8-0.1 1.1 0.1s0.6 0.5 0.7 0.8c0.1 0.4 0.1 0.8-0.1 1.1l-0.1 0.1-0.6 1.2-1.4 2.7c-0.6 1.2-1.8 2.2-3.1 2.6-0.5 0.2-1.1 0.2-1.6 0.2l-6.2-0.1c-0.8 0-1.4 0.6-1.5 1.4 0 0.8 0.6 1.4 1.4 1.5l6.2 0.1c0.9 0 1.7-0.1 2.5-0.4 1.4-0.4 2.7-1.3 3.7-2.4l1 3.2c0.2 0.8 1 1.2 1.8 0.9 0.8-0.2 1.2-1 0.9-1.8l-1.3-4.1c-0.3-0.8-0.2-1.8 0.1-2.7z"/><path d="m41.6 16.3c-3.4-2.2-7.4-3.3-11.4-3.3-12 0-21.8 10-21.8 22.4 0 7.8 3.5 15.5 10.4 23 0.3 0.3 0.7 0.5 1.1 0.5 0.3 0 0.7-0.1 1-0.4 0.6-0.5 0.6-1.4 0.1-2-6.4-7-9.6-14.1-9.6-21.1 0-10.7 8.5-19.5 19-19.5 3.5 0 6.9 1 9.9 2.9 0.7 0.4 1.6 0.2 2-0.4 0.2-0.8 0-1.7-0.7-2.1z"/><path d="m72.3 26.4c-1.8-2.6-4.2-4.5-7.1-5.6-0.7-0.3-1.6 0.1-1.8 0.8-0.3 0.7 0.1 1.6 0.8 1.8 4.8 1.8 8 6.6 8 11.9 0 0.8 0.6 1.4 1.4 1.4s1.4-0.6 1.4-1.4c0-3.2-0.9-6.3-2.7-8.9z"/></svg>