<svg enable-background="new 0 0 90 90" version="1.1" viewBox="0 0 90 90" xml:space="preserve" xmlns="http://www.w3.org/2000/svg"><path d="M50,47.3H22.2c-0.7,0-1.3,0.6-1.3,1.3s0.6,1.3,1.3,1.3H50c0.7,0,1.3-0.6,1.3-1.3S50.7,47.3,50,47.3z"/><path d="M50,55.8H22.2c-0.7,0-1.3,0.6-1.3,1.3s0.6,1.3,1.3,1.3H50c0.7,0,1.3-0.6,1.3-1.3S50.7,55.8,50,55.8z"/><path d="M50,38.8H22.2c-0.7,0-1.3,0.6-1.3,1.3s0.6,1.3,1.3,1.3H50c0.7,0,1.3-0.6,1.3-1.3S50.7,38.8,50,38.8z"/><path d="M50,30.3H22.2c-0.7,0-1.3,0.6-1.3,1.3s0.6,1.3,1.3,1.3H50c0.7,0,1.3-0.6,1.3-1.3S50.7,30.3,50,30.3z"/><path d="m50.9 64.7c-0.2-0.2-0.6-0.4-0.9-0.4s-0.7 0.1-0.9 0.4c-0.2 0.2-0.4 0.6-0.4 0.9s0.1 0.7 0.4 0.9c0.2 0.2 0.6 0.4 0.9 0.4s0.7-0.1 0.9-0.4c0.2-0.2 0.4-0.6 0.4-0.9s-0.1-0.6-0.4-0.9z"/><path d="m42.5 64.3h-20.3c-0.7 0-1.3 0.6-1.3 1.3s0.6 1.3 1.3 1.3h20.3c0.7 0 1.3-0.6 1.3-1.3s-0.6-1.3-1.3-1.3z"/><path d="m66 42.1c-0.2-0.2-0.6-0.4-0.9-0.4s-0.7 0.1-0.9 0.4c-0.2 0.2-0.4 0.6-0.4 0.9s0.1 0.7 0.4 0.9c0.2 0.2 0.6 0.4 0.9 0.4s0.7-0.1 0.9-0.4c0.2-0.2 0.4-0.6 0.4-0.9s-0.1-0.7-0.4-0.9z"/><path d="m76.7 23h-2.6v-2.3c0-2.8-2.3-5.2-5.2-5.2-2.8 0-5.2 2.3-5.2 5.2v16.5c0 0.7 0.6 1.3 1.3 1.3s1.3-0.6 1.3-1.3v-5.5h5.2v28.8h-5.2v-11.9c0-0.7-0.6-1.3-1.3-1.3s-1.3 0.6-1.3 1.3v13c0 0.1 0 0.3 0.1 0.4l3.9 11.6c0.2 0.5 0.7 0.9 1.2 0.9 0.6 0 1-0.4 1.2-0.9l4-11.6c0-0.1 0.1-0.3 0.1-0.4v-36.1h1.3v12.4c0 0.7 0.6 1.3 1.3 1.3s1.3-0.6 1.3-1.3v-13.6c-0.1-0.8-0.7-1.3-1.4-1.3zm-7.7 46.2l-2.1-6.2h4.2l-2.1 6.2zm2.6-40.2h-5.2v-3.5h5.2v3.5zm0-6h-5.2v-2.3c0-1.4 1.2-2.6 2.6-2.6s2.6 1.2 2.6 2.6v2.3z"/><path d="m58.9 17.3h-7.9v-0.9c0-2.4-2-4.4-4.4-4.4s-4.4 2-4.4 4.4v0.9h-1.8v-0.9c0-2.4-2-4.4-4.4-4.4s-4.4 2-4.4 4.4v0.9h-1.8v-0.9c0-2.4-2-4.4-4.4-4.4s-4.4 2-4.4 4.4v0.9h-7.9c-0.7 0-1.3 0.6-1.3 1.3v58.1c0 0.7 0.6 1.3 1.3 1.3h45.6c0.7 0 1.3-0.6 1.3-1.3v-58.1c0.2-0.7-0.4-1.3-1.1-1.3zm-14-0.9c0-1 0.8-1.8 1.8-1.8s1.8 0.8 1.8 1.8v0.9h-3.6v-0.9zm-10.6 0c0-1 0.8-1.8 1.8-1.8s1.8 0.8 1.8 1.8v0.9h-3.6v-0.9zm-10.6 0c0-1 0.8-1.8 1.8-1.8s1.8 0.8 1.8 1.8v0.9h-3.6v-0.9zm33.9 59h-43v-55.5h6.6v0.8c0 2.4 2 4.4 4.4 4.4 0.7 0 1.3-0.6 1.3-1.3s-0.6-1.3-1.3-1.3c-1 0-1.8-0.8-1.8-1.8v-0.8h8v0.8c0 2.4 2 4.4 4.4 4.4 0.7 0 1.3-0.6 1.3-1.3s-0.6-1.3-1.3-1.3c-1 0-1.8-0.8-1.8-1.8v-0.8h8v0.8c0 2.4 2 4.4 4.4 4.4 0.7 0 1.3-0.6 1.3-1.3s-0.6-1.3-1.3-1.3c-1 0-1.8-0.8-1.8-1.8v-0.8h12.8l-0.2 55.5z"/></svg>