<svg enable-background="new 0 0 90 90" version="1.1" viewBox="0 0 90 90" xml:space="preserve" xmlns="http://www.w3.org/2000/svg"><path d="m36.7 85.6h13.7c0.8 0 1.4-0.6 1.4-1.4s-0.6-1.4-1.4-1.4h-13.7c-2.9 0-5.2-2.3-5.2-5.2v-45.2c0-3.1 2.5-5.6 5.5-5.6h20v8.8c0 2.6 2.1 4.7 4.7 4.7h8.8v20.2c0 0.8 0.6 1.4 1.4 1.4s1.4-0.6 1.4-1.4v-20.4c0-1.3-0.5-2.4-1.4-3.3l-11.3-11.4c-0.9-0.9-2.1-1.4-3.3-1.4h-20.3c-4.6 0-8.4 3.8-8.4 8.4v45.1c0.1 4.5 3.7 8.1 8.1 8.1zm31.9-48.1h-7c-1 0-1.8-0.8-1.8-1.8v-7l8.8 8.8z"/><path d="m53.4 75c0 6.6 5.4 12 12 12s12-5.4 12-12-5.4-12-12-12c-6.6-0.1-12 5.3-12 12zm21.3 0c0 5.1-4.1 9.2-9.2 9.2s-9.2-4.1-9.2-9.2 4.1-9.2 9.2-9.2c5 0 9.2 4.1 9.2 9.2z"/><path d="m64 70v3.5h-3.5c-0.8 0-1.4 0.6-1.4 1.4s0.6 1.4 1.4 1.4h3.5v3.5c0 0.8 0.6 1.4 1.4 1.4s1.4-0.6 1.4-1.4v-3.5h3.5c0.8 0 1.4-0.6 1.4-1.4s-0.6-1.4-1.4-1.4h-3.5v-3.5c0-0.8-0.6-1.4-1.4-1.4s-1.4 0.6-1.4 1.4z"/><path d="m20.5 64.5h5.2c0.8 0 1.4-0.6 1.4-1.4s-0.6-1.4-1.4-1.4h-5.2c-2.9 0-5.2-2.3-5.2-5.2v-45.1c0-3.1 2.5-5.6 5.5-5.6h19.9v8.8c0 2.6 2.1 4.7 4.7 4.7h8.8v1.7c0 0.8 0.6 1.4 1.4 1.4s1.4-0.6 1.4-1.4v-2c0-1.3-0.5-2.4-1.4-3.3l-11.2-11.3c-0.9-0.9-2.1-1.4-3.3-1.4h-20.2c-4.6 0-8.4 3.8-8.4 8.4v45.1c0 4.4 3.6 8 8 8zm32-48.1h-7c-1 0-1.8-0.8-1.8-1.8v-7l8.8 8.8z"/></svg>