<svg enable-background="new 0 0 90 90" version="1.1" viewBox="0 0 90 90" xml:space="preserve" xmlns="http://www.w3.org/2000/svg"><path d="m77.4 73.2l-10.2-21.5c-0.2-0.4-0.7-0.7-1.1-0.7h-13.7l7-13.9v-0.1c0.9-2 1.3-4.1 1.3-6.3 0-8.7-7-15.7-15.7-15.7s-15.7 7-15.7 15.7c0 2.2 0.4 4.3 1.3 6.3v0.1l7 13.9h-13.6c-0.5 0-0.9 0.3-1.1 0.7l-10.3 21.5c-0.2 0.4-0.2 0.9 0.1 1.2 0.2 0.4 0.6 0.6 1.1 0.6h26.2c0.7 0 1.3-0.6 1.3-1.3s-0.6-1.3-1.3-1.3h-24.2l9-18.9h14.1l5 10c0.2 0.4 0.7 0.7 1.1 0.7 0.5 0 0.9-0.3 1.1-0.7l5-10h14.1l9 18.9h-24.1c-0.7 0-1.3 0.6-1.3 1.3s0.6 1.3 1.3 1.3h26.2c0.4 0 0.8-0.2 1.1-0.6 0.2-0.4 0.2-0.8 0-1.2zm-32.4-13l-12.1-24.2c-0.7-1.7-1.1-3.4-1.1-5.3 0-7.3 5.9-13.2 13.2-13.2s13.2 5.9 13.2 13.2c0 1.8-0.4 3.6-1.1 5.3l-12.1 24.2z"/><path d="m45 21.5c-5.1 0-9.2 4.1-9.2 9.2s4.1 9.2 9.2 9.2 9.2-4.1 9.2-9.2-4.1-9.2-9.2-9.2zm0 15.9c-3.7 0-6.7-3-6.7-6.7s3-6.7 6.7-6.7 6.7 3 6.7 6.7-3 6.7-6.7 6.7z"/><path d="m45 72.5c-0.7 0-1.3 0.6-1.3 1.3s0.6 1.2 1.3 1.2 1.3-0.6 1.3-1.3-0.6-1.2-1.3-1.2z"/></svg>