<svg enable-background="new 0 0 90 90" version="1.1" viewBox="0 0 90 90" xml:space="preserve" xmlns="http://www.w3.org/2000/svg"><g transform="translate(0 -952.36)"><path d="m45.2 966.4c-1.8 0-3.4 0.9-4.3 2.4l-31 52.2c-0.9 1.5-0.9 3.4 0 4.9s2.5 2.5 4.3 2.4c1.1 0 2-0.9 2-2s-0.9-2-2-2c-0.3 0-0.7-0.3-0.8-0.5s-0.1-0.6 0-0.8l31-52.2c0.1-0.2 0.5-0.4 0.8-0.4s0.7 0.2 0.8 0.4l31 52.2c0.1 0.2 0.1 0.6 0 0.8s-0.5 0.5-0.8 0.5c-1.1 0-2 0.9-2 2s0.9 2 2 2c1.8 0 3.4-0.9 4.3-2.4s0.9-3.4 0-4.9l-31-52.2c-0.9-1.6-2.5-2.4-4.3-2.4zm-0.2 20.9c-1 0.1-1.8 1-1.8 2v18c0 1.1 0.9 2 2 2s2-0.9 2-2v-0.1-18c0-1.1-0.9-2-2-2 0 0.1-0.1 0.1-0.2 0.1zm0.2 25.1c-1.7 0-3 1.3-3 3s1.3 3 3 3 3-1.3 3-3-1.3-3-3-3zm-24.2 12c-1.1 0.1-2 1-1.9 2.1s1 2 2.1 1.9h48c1.1 0 2-0.9 2-2s-0.9-2-2-2h-0.1-47.9-0.2z"/></g></svg>