<svg enable-background="new 0 0 90 90" version="1.1" viewBox="0 0 90 90" xml:space="preserve" xmlns="http://www.w3.org/2000/svg"><path d="m78.5 42.6c0.9-1 1.5-2.3 1.5-3.7 0-3-2.5-5.5-5.5-5.5h-20.1c-0.6-3.1-3.4-5.5-6.7-5.5h-20.4l-5.8-9.7c-1.6-2.6-4.9-3.4-7.5-1.9-2.6 1.6-3.4 4.9-1.9 7.5l2.4 4h-0.5c-2.3 0-4.1 1.8-4.1 4.1v11.1c0 3.8 3.1 6.8 6.8 6.8h4.1v14.4c-1.6 0.9-2.7 2.7-2.7 4.7 0 3 2.5 5.5 5.5 5.5s5.5-2.5 5.5-5.5c0-1-0.3-1.9-0.7-2.7h32.4c-0.5 0.8-0.8 1.7-0.8 2.7 0 3 2.5 5.5 5.5 5.5s5.5-2.5 5.5-5.5c0-2-1.1-3.8-2.7-4.7v-14.4h7.7c2.3 0 4.1-1.8 4.1-4.1-0.1-1.2-0.6-2.3-1.6-3.1zm-64-20.1c-0.8-1.3-0.4-3 0.9-3.8s3-0.4 3.8 0.9l4.9 8.2h-6.4l-3.2-5.3zm9.2 49.2c-1.5 0-2.7-1.2-2.7-2.7s1.2-2.7 2.7-2.7 2.7 1.2 2.7 2.7c0 1.4-1.2 2.7-2.7 2.7zm0-8.2v-2.7h41.8v2.7h-41.8zm0-5.5v-8.2h2.7v8.2h-2.7zm5.4 0v-8.2h30.9v8.2h-30.9zm33.7 0v-8.2h2.7v8.2h-2.7zm2.7 13.7c-1.5 0-2.7-1.2-2.7-2.7s1.2-2.7 2.7-2.7 2.7 1.2 2.7 2.7c0 1.4-1.2 2.7-2.7 2.7zm10.4-24.6h-59.1c-2.3 0-4.1-1.8-4.1-4.1v-11c0-0.8 0.6-1.4 1.4-1.4h33.6c2.3 0 4.1 1.8 4.1 4.1v8.3c0 0.8 0.6 1.4 1.4 1.4h22.7c0.8 0 1.4 0.6 1.4 1.4 0 0.6-0.6 1.3-1.4 1.3zm0.6-6.3c-0.5 0.5-1.2 0.8-1.9 0.8h-20v-5.5h20c1.5 0 2.7 1.2 2.7 2.7 0 0.8-0.3 1.5-0.8 2z"/></svg>