<svg enable-background="new 0 0 90 90" version="1.1" viewBox="0 0 90 90" xml:space="preserve" xmlns="http://www.w3.org/2000/svg"><path d="m77.1 56.5l-8-3.2s-0.1 0-0.1-0.1c5.5-1.3 8.2-3.4 8.3-3.5 0.3-0.2 0.4-0.6 0.4-0.9 0-0.1-1.2-8.2-1.2-16.3 0-7.7-6.2-13.9-13.9-13.9s-13.9 6.2-13.9 13.9c0 2.1-0.1 4.7-0.3 7.1l-2.2 1.1-6.6-3.3h-0.1c0.3-0.9 0.5-1.9 0.6-2.9 1.4-0.4 2.4-1.7 2.4-3.2 0-1-0.5-1.9-1.2-2.6v-6.7c0-1.9-1-3.6-2.5-4.7-0.5-2-2.3-3.3-4.4-3.3h-9.4c-5.1 0-9.2 4.1-9.2 9.2v5.7c-0.7 0.6-1.2 1.5-1.2 2.6 0 1.5 1 2.8 2.4 3.2 0.3 3.4 2 6.5 4.7 8.4v2.8l-8.5 2.5c-1.9 0.6-3.2 2.3-3.2 4.3v11.4c0 0.6 0.5 1 1 1h0.1v11.9c0 0.6 0.5 1 1 1 0.6 0 1-0.5 1-1v-11.8h3.9v11.8c0 0.6 0.5 1 1 1s1-0.5 1-1v-17.6c0-0.9-0.3-1.8-0.8-2.5l-1.8-2.6c-0.3-0.5-1-0.6-1.4-0.3-0.5 0.3-0.6 1-0.3 1.4l1.8 2.6c0.3 0.4 0.4 0.9 0.4 1.4v3.8h-4.9v-10.5c0-1.1 0.7-2.1 1.8-2.4l3.5-1.1c1.2 5.1 5.9 8.9 11.3 8.9 1.9 0 3.8-0.5 5.5-1.4 0.6 0.8 1.6 1.4 2.7 1.4h0.1v0.1c0 3.4 1.9 6.4 4.7 8v1.8c0 0.1 0 0.1-0.1 0.1l-3.8 1.3c-1.9 0.6-3.1 2.3-3.1 4.3v3.3c0 0.6 0.5 1 1 1s1-0.5 1-1v-3.3c0-1.1 0.7-2 1.7-2.4l1.1-0.4c1.5 2.2 4 3.6 6.7 3.6s5.2-1.4 6.7-3.6l1.1 0.4c1 0.3 1.7 1.3 1.7 2.4v3.3c0 0.6 0.5 1 1 1s1-0.5 1-1v-3.3c0-2-1.2-3.7-3.1-4.3l-3.8-1.3c-0.1 0-0.1-0.1-0.1-0.1v-1.7c2.1-1.2 3.7-3.2 4.3-5.5 1.9 2 4.6 3.2 7.5 3.2 4.5 0 8.5-2.9 9.9-7.2l3.9 1.6c1 0.4 1.6 1.3 1.6 2.3v4.8h-3.8v-1.3c0-0.6-0.5-1-1-1s-1 0.5-1 1v12.8c0 0.6 0.5 1 1 1s1-0.5 1-1v-9.5h2.6v9.5c0 0.6 0.5 1 1 1s1-0.5 1-1v-9.5h0.4c0.3 0 0.5-0.1 0.7-0.3s0.3-0.5 0.3-0.7v-5.8c0-1.9-1.1-3.5-2.9-4.2zm-26.4-24c0-6.5 5.3-11.9 11.9-11.9s11.8 5.4 11.8 11.9c0 6.9 0.8 13.8 1.1 15.9-0.9 0.6-3.3 1.9-7.2 2.8v-1.6c0.5-0.3 1.1-0.7 1.6-1.1 2-1.6 3.4-3.9 4-6.4 0.2-0.8 0.3-1.7 0.3-2.6 0-5.8-4.2-6.6-8.2-7.4-2.6-0.5-5.2-1-7.4-2.7-0.3-0.2-0.7-0.3-1.1-0.1s-0.6 0.5-0.6 0.9c0 0 0 2.7-3.9 3.7-0.5 0.1-0.9 0.7-0.7 1.2 0.1 0.5 0.7 0.9 1.2 0.7 3.2-0.8 4.6-2.6 5.1-4 2.2 1.3 4.7 1.8 7 2.3 4.3 0.9 6.6 1.5 6.6 5.4 0 0.7-0.1 1.4-0.2 2.1-0.5 2.1-1.6 3.9-3.3 5.3s-3.8 2.1-6 2.1c-2 0-3.9-0.6-5.5-1.8-0.6-1.6-1.5-3.1-2.8-4.3v-4.6c0-0.4-0.2-0.7-0.5-0.9s-0.7-0.2-1 0l-2.2 1.1c-0.1-2.1 0-4.1 0-6zm1.5 7.5v3.7l-3.7-1.9 3.7-1.8zm-12 0l3.7 1.9-3.7 1.9v-3.8zm-5.6 11.3v1c-0.7 0.6-1.2 1.6-1.2 2.5-1.5 0.9-3.1 1.3-4.8 1.3-4.5 0-8.3-3.1-9.3-7.4l2.5-0.8c0.6 3.2 3.4 5.5 6.8 5.5 2.7 0 5-1.5 6.1-3.7-0.1 0.6-0.1 1.1-0.1 1.6zm-10.8-4.7v-2.4c1.5 0.7 3.1 1.1 4.8 1.1s3.4-0.4 4.8-1.1v2.4c0 2.7-2.2 4.8-4.8 4.8-2.7 0-4.8-2.1-4.8-4.8zm4.8-3.4c-5.2 0-9.5-4.3-9.5-9.5 0-0.6-0.5-1-1-1-0.7 0-1.3-0.6-1.3-1.3s0.6-1.3 1.3-1.3h2.3c0.4 0 0.8-0.3 1-0.7l0.9-2.8c2.4-0.1 9.7-0.4 13.8-2.4 0.5-0.3 0.7-0.9 0.5-1.4-0.3-0.5-0.9-0.7-1.4-0.5-4.4 2.2-13.5 2.2-13.6 2.2-0.4 0-0.8 0.3-1 0.7l-0.9 2.8h-1.6-0.1v-4.8c0-4 3.2-7.2 7.2-7.2h9.4c1.2 0 2.3 0.9 2.4 2.1 0 0.3 0.2 0.6 0.5 0.7 1.2 0.7 1.9 1.9 1.9 3.2v6h-0.1-1.3c-0.6 0-1 0.5-1 1 0 0.6 0.5 1 1 1h1.2c0.7 0 1.3 0.6 1.3 1.3s-0.6 1.3-1.3 1.3c-0.6 0-1 0.5-1 1-0.1 5.3-4.4 9.6-9.6 9.6zm6.9 3.4v-3.6c1-0.8 1.9-1.7 2.6-2.7v2.7c-1.1 1.1-2 2.4-2.6 3.9v-0.3zm15.3 23.7c-1.1 1.4-2.8 2.2-4.6 2.2s-3.5-0.8-4.6-2.2l0.7-0.2c0.9-0.3 1.5-1.1 1.5-2.1v-0.8c0.8 0.2 1.6 0.3 2.5 0.3s1.7-0.1 2.5-0.3v0.8c0 0.9 0.6 1.8 1.5 2.1l0.5 0.2zm3.6-14.2c-0.6 0-1 0.5-1 1v1.1c0 4-3.2 7.2-7.2 7.2s-7.2-3.1-7.2-7.1v-1.2c0-0.6-0.5-1-1-1h-1.2c-0.7 0-1.3-0.6-1.3-1.3 0-0.5 0.2-0.9 0.7-1.1 0.1-0.1 0.2-0.1 0.2-0.2 2.5-0.1 10.8-0.6 16.2-3.6 0.5-0.3 0.7-0.9 0.4-1.4s-0.9-0.7-1.4-0.4c-4.7 2.7-12.2 3.2-14.9 3.4v-0.1c0-1.9 0.6-3.8 1.6-5.3l0.3 0.3c0.2 0.1 0.4 0.2 0.5 0.2 0.2 0 0.3 0 0.5-0.1l6.6-3.3 6.6 3.3c0.1 0.1 0.3 0.1 0.5 0.1s0.4-0.1 0.5-0.2l0.3-0.3c1 1.6 1.6 3.4 1.6 5.3v1.5c0 0.4 0.2 0.7 0.5 0.9 0.4 0.2 0.7 0.7 0.7 1.1 0 0.7-0.6 1.3-1.3 1.3h-1.2zm8.2 5.9c-2.8 0-5.5-1.4-7-3.8 1.8 0 3.3-1.5 3.3-3.4 0-1-0.4-1.9-1.2-2.5v-1c0-0.4 0-0.8-0.1-1.2 1.5 0.7 3.2 1.1 4.9 1.1 1.3 0 2.5-0.2 3.7-0.6v1.4c0 1.4 0.8 2.6 2.1 3.1l2.2 0.9c-1 3.5-4.2 6-7.9 6z"/><circle cx="25.6" cy="31.3" r="1.2"/><circle cx="31.7" cy="31.3" r="1.2"/><circle cx="25.6" cy="31.3" r="1.2"/><circle cx="31.7" cy="31.3" r="1.2"/><circle cx="59.6" cy="38.9" r="1.2"/><circle cx="65.6" cy="38.9" r="1.2"/><circle cx="43.1" cy="56" r="1.2"/><circle cx="49.2" cy="56" r="1.2"/></svg>