<svg enable-background="new 0 0 90 90" version="1.1" viewBox="0 0 90 90" xml:space="preserve" xmlns="http://www.w3.org/2000/svg"><path d="m46.6 31.7l-5.6-9.6c-0.4-0.6-1.2-0.8-1.9-0.5-0.6 0.4-0.8 1.2-0.5 1.9l5.6 9.6c0.3 0.5 0.7 0.6 1.1 0.6 0.2 0 0.5-0.1 0.6-0.2 0.8-0.3 1-1.1 0.7-1.8z"/><path d="m48.9 35.8c-0.3-0.3-0.6-0.4-0.9-0.4s-0.7 0.2-0.9 0.4c-0.3 0.3-0.4 0.6-0.4 0.9 0 0.4 0.2 0.7 0.4 0.9 0.2 0.4 0.5 0.4 0.9 0.4s0.7-0.2 0.9-0.4c0.3-0.3 0.4-0.6 0.4-0.9 0-0.2-0.2-0.6-0.4-0.9z"/><path d="m76.5 62.9v-5.4c0-0.7-0.6-1.3-1.3-1.3h-31c-0.7 0-1.3 0.6-1.3 1.3v5.4c0 0.7 0.6 1.3 1.3 1.3h5.2c-2.5 1-5.1 1.6-7.9 1.6-11 0-20-9-20-20 0-7.5 4.2-14.4 10.8-17.8l9.3 16.1c0.7 1.3 2.1 2 3.5 2 0.3 0 0.6 0 0.8-0.1l2.5 4.3c0.4 0.6 0.9 1 1.6 1.2 0.2 0.1 0.5 0.1 0.7 0.1 0.5 0 0.9-0.1 1.3-0.4l4.1-2.4c1.3-0.7 1.7-2.4 1-3.6l-2.5-4.3c0.5-0.5 0.7-1 0.9-1.7 0.3-1 0.1-2.1-0.4-3.1l-11.1-19.4c-0.6-0.9-1.4-1.6-2.4-1.9-0.3-0.1-0.6-0.1-0.8-0.1l-1.5-2.2c-0.5-0.7-1.2-1.4-2-1.6-0.8-0.3-1.8-0.1-2.6 0.4l-4.4 2.5c-1.6 0.9-2.1 3.1-1.2 4.6l1.1 1.9h-0.2c-4.5 2-8.4 5.3-11.3 9.4-3.4 4.8-5.2 10.4-5.2 16.1 0 15.5 12.5 28 28 28 8.2 0 15.8-3.5 21.1-9.6h4.2c0.6 3.6 3.4 6.5 7.1 7.1v5.2h-14.3c-0.7 0-1.3 0.6-1.3 1.3s0.6 1.3 1.3 1.3h15.5c0.7 0 1.3-0.6 1.3-1.3v-7.8c0-0.7-0.6-1.3-1.3-1.3-2.8 0-5.1-1.9-5.7-4.5h5.7c0.8 0 1.4-0.6 1.4-1.3zm-21.7-16.2l-4.1 2.4-2.4-4.1 4.1-2.4 2.4 4.1zm-15-28.9c0.2-0.1 0.5-0.2 0.6-0.2h0.4c0.4 0.1 0.6 0.3 0.8 0.6l11.2 19.5c0.2 0.3 0.2 0.6 0.1 1s-0.3 0.6-0.6 0.8l-6.6 3.8c-0.3 0.2-0.6 0.2-1 0.1s-0.6-0.3-0.8-0.6l-9.9-17-0.6-1-0.7-1.3c-0.4-0.6-0.2-1.5 0.5-1.9l0.2-0.1c-0.1 0 6.4-3.7 6.4-3.7zm-8.3-1.6l4.4-2.6c0.1-0.1 0.3-0.1 0.4-0.1h0.2c0.2 0.1 0.4 0.2 0.5 0.4l1 1.9-2.9 1.7-2.9 1.7-1-1.9c-0.2-0.5-0.1-0.9 0.3-1.1zm10 54.9c-14 0-25.3-11.4-25.3-25.3 0-5.3 1.6-10.3 4.5-14.5 2.3-3.2 5.4-6 8.9-7.9l1.3 2.3c-3.4 1.8-6.3 4.4-8.4 7.7-2.4 3.7-3.7 8-3.7 12.3 0 12.5 10.2 22.6 22.6 22.6 4.8 0 9.4-1.5 13.2-4.3h4.3c-4.6 4.6-10.8 7.1-17.4 7.1zm32.3-9.5h-28.2v-2.7h28.3v2.7z"/><path d="m54.5 76.9c-0.3-0.3-0.6-0.4-0.9-0.4s-0.7 0.2-0.9 0.4c-0.3 0.3-0.4 0.6-0.4 0.9s0.2 0.7 0.4 0.9c0.3 0.3 0.6 0.4 0.9 0.4s0.7-0.2 0.9-0.4c0.3-0.3 0.4-0.6 0.4-0.9s-0.1-0.7-0.4-0.9z"/><path d="m47 76.5h-23.9v-5.7c0-0.7-0.6-1.3-1.3-1.3s-1.3 0.6-1.3 1.3v6.9c0 0.7 0.6 1.3 1.3 1.3h25.2c0.7 0 1.3-0.6 1.3-1.3s-0.5-1.2-1.3-1.2z"/></svg>
