<svg enable-background="new 0 0 90 90" version="1.1" viewBox="0 0 90 90" xml:space="preserve" xmlns="http://www.w3.org/2000/svg"><path d="m41 30.5h8v-4h4v-7.9h-4v-4h-8v4h-4v7.9h4v4zm-1.3-6.6v-2.6h4v-4h2.6v4h4v2.6h-4v4h-2.6v-4h-4z"/><path d="m67.5 79.4v-71.4h-45v74h44.9v-2.6h0.1m-42.3-68.8h39.6v68.7h-3.8v-13.2h-32v13.2h-3.8v-68.7zm33.2 58.2v10.6h-12.1v-10.6h12.1zm-14.7 0v10.6h-12.1v-10.6h12.1zm21.1 10.6h-39.6v2.6h39.6v-2.6z"/><path d="M61,58.4H29V61h32"/><path d="M61,52.6H29v2.6h32"/><path d="M61,46.9H29v2.6h32"/><path d="M61,41.2H29v2.6h32"/><path d="M61,35.4H29v2.6h32"/></svg>