<svg xmlns="http://www.w3.org/2000/svg" xmlns:xlink="http://www.w3.org/1999/xlink" viewBox="0 0 132.71 44.61"><defs><linearGradient id="a" x1="21.13" y1="23.11" x2="13.83" y2="3.07" gradientUnits="userSpaceOnUse"><stop offset="0" stop-color="#1eaecc"/><stop offset="0.39" stop-color="#20accb"/><stop offset="0.59" stop-color="#25a4c6"/><stop offset="0.74" stop-color="#2f97bd"/><stop offset="0.88" stop-color="#3d84b1"/><stop offset="0.94" stop-color="#4578aa"/></linearGradient><linearGradient id="b" x1="22.19" y1="23.39" x2="29.56" y2="43.64" gradientUnits="userSpaceOnUse"><stop offset="0" stop-color="#8bc53f"/><stop offset="0.38" stop-color="#93c83f"/><stop offset="0.63" stop-color="#80bb41"/><stop offset="1" stop-color="#5ea444"/></linearGradient></defs><title>Artboard 1</title><path d="M71.36,21.32l3.42,0v4.11h3.84v2.67H74.78V37.2a2,2,0,0,0,.56,1.57,2.41,2.41,0,0,0,1.59.47,6.56,6.56,0,0,0,.73-.05,2.67,2.67,0,0,0,.6-.14l.23,2.57a4.55,4.55,0,0,1-1.11.31,8.63,8.63,0,0,1-1.46.12,4.42,4.42,0,0,1-3.45-1.26,5,5,0,0,1-1.15-3.53Z" style="fill:#002f87"/><path d="M92.89,28.6a4.67,4.67,0,0,0-1.09-2,4.54,4.54,0,0,0-1.93-1.16A9.74,9.74,0,0,0,87,25.09a13.56,13.56,0,0,0-5.5,1.05L81.77,29a12.54,12.54,0,0,1,2.19-.7,11.41,11.41,0,0,1,2.38-.22,4.17,4.17,0,0,1,2.63.65,2.75,2.75,0,0,1,.79,2.23v6a1.6,1.6,0,0,1-.27.85,2.5,2.5,0,0,1-.72.73,4,4,0,0,1-1,.51,3.86,3.86,0,0,1-1.23.19,3.23,3.23,0,0,1-2-.57,2.36,2.36,0,0,1-.77-2,2.35,2.35,0,0,1,.78-1.9A3.77,3.77,0,0,1,87,34.09a5.73,5.73,0,0,1,1.5.16c.07,0,.13,0,.14,0V31.91c-.19,0-.18-.06-.45-.11a10.53,10.53,0,0,0-1.81-.15A6.39,6.39,0,0,0,81.94,33a4.74,4.74,0,0,0-1.51,3.69,4.73,4.73,0,0,0,5.11,5.34,6.45,6.45,0,0,0,2.68-.55,5.17,5.17,0,0,0,2-1.5l.08,0,.31,1.75h2.65V31.46A10.86,10.86,0,0,0,92.89,28.6Z" style="fill:#002f87"/><path d="M41.87,21.28h4.18l4.56,14.85.61,2.12h.08l.6-2.12,4.62-14.85h4L53.31,41.9H49Z" style="fill:#002f87"/><path d="M63,21.5q0-1.7,2.1-1.68c1.4,0,2.09.56,2.08,1.68s-.7,1.65-2.11,1.65a2.71,2.71,0,0,1-1.55-.36A1.48,1.48,0,0,1,63,21.5Zm.3,20.4V25.46l3.49-.19V41.9Z" style="fill:#002f87"/><path d="M97.36,41.9V21.31l3.49-.19V41.9Z" style="fill:#002f87"/><path d="M105.63,41.9V21.31l3.49-.19V41.9Z" style="fill:#002f87"/><path d="M113.76,21.5q0-1.7,2.1-1.68c1.39,0,2.09.56,2.08,1.68s-.71,1.65-2.12,1.65a2.69,2.69,0,0,1-1.54-.36A1.48,1.48,0,0,1,113.76,21.5Zm.3,20.4V25.46l3.49-.19V41.9Z" style="fill:#002f87"/><path d="M121.43,30A4.5,4.5,0,0,1,123,26.44a6.58,6.58,0,0,1,4.53-1.36,11.18,11.18,0,0,1,4.57.93l-.3,2.91a10.06,10.06,0,0,0-2.21-.64,11.86,11.86,0,0,0-2.11-.2,3.5,3.5,0,0,0-1.94.46,1.47,1.47,0,0,0-.71,1.3,1.32,1.32,0,0,0,.59,1.13,5.92,5.92,0,0,0,1.47.72c.59.21,1.23.41,1.92.62a8,8,0,0,1,1.9.86,4.71,4.71,0,0,1,1.46,1.42,4.12,4.12,0,0,1,.59,2.31,6.89,6.89,0,0,1-.34,2.19,4,4,0,0,1-1.09,1.68,5.1,5.1,0,0,1-1.89,1.08,8.69,8.69,0,0,1-2.77.39,12.43,12.43,0,0,1-2.79-.3,8,8,0,0,1-2.35-.93l.42-2.95a7.39,7.39,0,0,0,2.28,1,10.09,10.09,0,0,0,2.44.33,3.24,3.24,0,0,0,2.19-.6,2,2,0,0,0,.67-1.51,1.45,1.45,0,0,0-.59-1.24,5.61,5.61,0,0,0-1.49-.78c-.61-.22-1.25-.43-1.94-.64a8.68,8.68,0,0,1-1.94-.86,4.46,4.46,0,0,1-1.5-1.43A4.12,4.12,0,0,1,121.43,30Z" style="fill:#002f87"/><path d="M5.08,27.75h0Z" style="fill:none"/><path d="M28.88,6.06C28.49,2.13,26.37,0,23.47,0A8.84,8.84,0,0,0,19,1.42a20.83,20.83,0,0,0-7.61,8.46C10.46,11.62,9.9,12.81,9,14.83c.28.4.52.76.71,1,1,1.49,5.29,8.91,5.29,8.91l-6.83,2c4.56-1.34,8.76-2.52,13.52-3.94a3.19,3.19,0,0,0,1.57-.84C27,17.38,29.49,12.18,28.88,6.06Z" style="fill:url(#a)"/><path d="M9.71,15.87c-.19-.28-.43-.64-.71-1l-.15.33c-.41.92-4.54,12.58-4.54,12.58h.78l3.08-.91,6.83-2S10.76,17.36,9.71,15.87Z" style="fill:#007bc1"/><path d="M5.45,27.65l2.72-.82-3.08.91A2.37,2.37,0,0,0,5.45,27.65Z" style="fill:#007bc1"/><path d="M8.85,15.16,9,14.83A41.3,41.3,0,0,0,4.78,9.18c-1.72-1.62-4-1.54-4.64,2a6.41,6.41,0,0,0-.13,1C-.13,17.4.9,21.54,2.94,26.81a1.71,1.71,0,0,0,2.13.94H4.31S8.44,16.08,8.85,15.16Z" style="fill:#4192cf"/><path d="M15.52,34.67c0-1.2-.3-8.74-.3-8.74l-3.45,1L6.06,28.57l-1.15.6s7.81,5,10.28,6.71l.33.22C15.52,35.49,15.51,35,15.52,34.67Z" style="fill:#00a771"/><path d="M4.91,29.17l1.15-.6c1.9-.55-.41.09-.41.09-1,.37-1.5.88-1.31,2,1.37,4.17,2.74,8.27,5.71,11.9a5.26,5.26,0,0,0,.62.63c2.42,2.12,4,2.08,4.61-1.07a41.28,41.28,0,0,0,.24-6l-.33-.22C12.72,34.22,4.91,29.17,4.91,29.17Z" style="fill:#52bd98"/><path d="M37.11,33.54c-2.65-5.22-7.32-8.11-12.72-9.95a1.59,1.59,0,0,0-.5-.07,4.24,4.24,0,0,0-1.18.21c-3.66,1.05-7.5,2.2-7.5,2.2s.3,7.54.29,8.74c0,.31,0,.82,0,1.43,1.86,1.23,4,2.45,5.59,3.37a19.92,19.92,0,0,0,10.46,2.87C37.14,42.19,39.61,38.47,37.11,33.54Z" style="fill:url(#b)"/></svg>