<?xml version="1.0" encoding="utf-8"?>
<!-- Generator: Adobe Illustrator 22.1.0, SVG Export Plug-In . SVG Version: 6.00 Build 0)  -->
<svg version="1.1" id="Layer_1" xmlns="http://www.w3.org/2000/svg" xmlns:xlink="http://www.w3.org/1999/xlink" x="0px" y="0px"
	 viewBox="0 0 111.3 37.5" style="enable-background:new 0 0 111.3 37.5;" xml:space="preserve">
<style type="text/css">
	.st0{fill:#022F57;}
	.st1{fill:#002F87;}
	.st2{fill:none;}
	.st3{fill:url(#SVGID_1_);}
	.st4{fill:#007BC1;}
	.st5{fill:#4192CF;}
	.st6{fill:#00A771;}
	.st7{fill:#52BD98;}
	.st8{fill:url(#SVGID_2_);}
	.st9{fill:#FFFFFF;}
	.st10{fill:url(#SVGID_3_);}
	.st11{fill:url(#SVGID_4_);}
</style>
<g>
	<g>
		<g id="XMLID_9_">
			<g id="XMLID_10_">
				<path id="XMLID_11_" class="st9" d="M59.8,17.9l2.9,0v3.4h3.2v2.2h-3.2v7.7c0,0.6,0.2,1,0.5,1.3c0.3,0.3,0.8,0.4,1.3,0.4
					c0.2,0,0.4,0,0.6,0c0.2,0,0.4-0.1,0.5-0.1l0.2,2.2c-0.2,0.1-0.5,0.2-0.9,0.3c-0.4,0.1-0.8,0.1-1.2,0.1c-1.3,0-2.3-0.3-2.9-1
					c-0.6-0.7-1-1.7-1-3L59.8,17.9z"/>
			</g>
		</g>
		<g id="XMLID_7_">
			<path id="XMLID_8_" class="st9" d="M77.9,24c-0.2-0.7-0.5-1.2-0.9-1.7c-0.4-0.4-1-0.8-1.6-1c-0.7-0.2-1.5-0.3-2.4-0.3
				c-1.7,0-3.3,0.3-4.6,0.9l0.3,2.4c0.6-0.3,1.3-0.5,1.8-0.6c0.6-0.1,1.2-0.2,2-0.2c1,0,1.8,0.2,2.2,0.5c0.4,0.4,0.7,1,0.7,1.9v5
				c0,0.2-0.1,0.5-0.2,0.7c-0.2,0.2-0.4,0.4-0.6,0.6c-0.3,0.2-0.5,0.3-0.9,0.4c-0.3,0.1-0.7,0.2-1,0.2c-0.7,0-1.2-0.2-1.7-0.5
				c-0.4-0.3-0.6-0.9-0.6-1.7c0-0.7,0.2-1.2,0.7-1.6c0.4-0.4,1.1-0.6,2.1-0.6c0.6,0,0.9,0,1.3,0.1c0.1,0,0.1,0,0.1,0v-2
				c-0.2,0-0.2,0-0.4-0.1c-0.5-0.1-1-0.1-1.5-0.1c-1.6,0-2.9,0.4-3.7,1.2c-0.8,0.8-1.3,1.8-1.3,3.1c0,1.5,0.4,2.7,1.2,3.4
				c0.8,0.7,1.8,1.1,3.1,1.1c0.8,0,1.6-0.2,2.2-0.5c0.7-0.3,1.2-0.7,1.6-1.3l0.1,0l0.3,1.5h2.2v-8.6C78.2,25.4,78.1,24.6,77.9,24z"
				/>
		</g>
		<g>
			<path class="st9" d="M35.1,17.8h3.5l3.8,12.4l0.5,1.8H43l0.5-1.8l3.9-12.4h3.3l-6,17.3h-3.6L35.1,17.8z"/>
			<path class="st9" d="M52.8,18c0-0.9,0.6-1.4,1.8-1.4c1.2,0,1.8,0.5,1.7,1.4c0,0.9-0.6,1.4-1.8,1.4c-0.6,0-1-0.1-1.3-0.3
				C53,18.9,52.8,18.5,52.8,18z M53.1,35.1V21.3l2.9-0.2v13.9H53.1z"/>
			<path class="st9" d="M81.6,35.1V17.9l2.9-0.2v17.4H81.6z"/>
			<path class="st9" d="M88.6,35.1V17.9l2.9-0.2v17.4H88.6z"/>
			<path class="st9" d="M95.4,18c0-0.9,0.6-1.4,1.8-1.4c1.2,0,1.8,0.5,1.7,1.4c0,0.9-0.6,1.4-1.8,1.4c-0.6,0-1-0.1-1.3-0.3
				C95.5,18.9,95.4,18.5,95.4,18z M95.6,35.1V21.3l2.9-0.2v13.9H95.6z"/>
			<path class="st9" d="M101.8,25.1c0-1.2,0.4-2.2,1.3-3c0.8-0.8,2.1-1.1,3.8-1.1c1.4,0,2.7,0.3,3.8,0.8l-0.3,2.4
				c-0.6-0.2-1.2-0.4-1.8-0.5c-0.6-0.1-1.2-0.2-1.8-0.2c-0.7,0-1.2,0.1-1.6,0.4c-0.4,0.3-0.6,0.6-0.6,1.1c0,0.4,0.2,0.7,0.5,0.9
				c0.3,0.2,0.7,0.4,1.2,0.6c0.5,0.2,1,0.3,1.6,0.5c0.6,0.2,1.1,0.4,1.6,0.7c0.5,0.3,0.9,0.7,1.2,1.2c0.3,0.5,0.5,1.1,0.5,1.9
				c0,0.7-0.1,1.3-0.3,1.8c-0.2,0.6-0.5,1-0.9,1.4c-0.4,0.4-0.9,0.7-1.6,0.9c-0.6,0.2-1.4,0.3-2.3,0.3c-0.8,0-1.6-0.1-2.3-0.2
				c-0.7-0.2-1.4-0.4-2-0.8l0.3-2.5c0.5,0.4,1.2,0.6,1.9,0.8c0.7,0.2,1.4,0.3,2,0.3c0.8,0,1.5-0.2,1.8-0.5c0.4-0.3,0.6-0.8,0.6-1.3
				c0-0.4-0.2-0.8-0.5-1c-0.3-0.2-0.7-0.5-1.3-0.6c-0.5-0.2-1-0.4-1.6-0.5c-0.6-0.2-1.1-0.4-1.6-0.7c-0.5-0.3-0.9-0.7-1.3-1.2
				C102,26.6,101.8,25.9,101.8,25.1z"/>
		</g>
	</g>
	<g>
		<g>
			<path class="st2" d="M4.3,23.3C4.3,23.3,4.3,23.3,4.3,23.3C4.3,23.3,4.3,23.3,4.3,23.3L4.3,23.3z"/>
			<linearGradient id="SVGID_1_" gradientUnits="userSpaceOnUse" x1="17.7109" y1="19.3775" x2="11.5943" y2="2.5724">
				<stop  offset="0" style="stop-color:#1EAECC"/>
				<stop  offset="0.3851" style="stop-color:#20ACCB"/>
				<stop  offset="0.5851" style="stop-color:#25A4C6"/>
				<stop  offset="0.7425" style="stop-color:#2F97BD"/>
				<stop  offset="0.8769" style="stop-color:#3D84B1"/>
				<stop  offset="0.939" style="stop-color:#4578AA"/>
			</linearGradient>
			<path class="st3" d="M24.2,5.1C23.9,1.8,22.1,0,19.7,0c-1.1,0-2.4,0.4-3.8,1.2c-2.9,1.7-4.9,4.2-6.4,7.1c-0.8,1.5-1.2,2.5-2,4.1
				c0.2,0.3,0.4,0.6,0.6,0.9c0.9,1.3,4.4,7.5,4.4,7.5l-5.7,1.7c3.8-1.1,7.3-2.1,11.3-3.3c0.5-0.1,1-0.3,1.3-0.7
				C22.6,14.6,24.7,10.2,24.2,5.1z"/>
			<path class="st4" d="M8.1,13.3c-0.2-0.2-0.4-0.5-0.6-0.9c0,0.1-0.1,0.2-0.1,0.3c-0.3,0.8-3.8,10.5-3.8,10.5l0.6,0c0,0,0,0,0,0
				C5.1,23,6,22.7,6.8,22.5l5.7-1.7C12.6,20.8,9,14.6,8.1,13.3z"/>
			<path class="st4" d="M4.6,23.2l2.3-0.7C6,22.7,5.1,23,4.3,23.3C4.4,23.2,4.5,23.2,4.6,23.2z"/>
			<path class="st5" d="M7.4,12.7c0-0.1,0.1-0.2,0.1-0.3C6.5,10.9,5,8.7,4,7.7C2.6,6.3,0.7,6.4,0.1,9.4C0.1,9.6,0,9.9,0,10.2
				c-0.1,4.4,0.7,7.9,2.5,12.3c0.4,0.8,1,0.9,1.8,0.8l-0.6,0C3.6,23.3,7.1,13.5,7.4,12.7z"/>
		</g>
		<path class="st6" d="M13,29.1c0-1-0.2-7.3-0.2-7.3l-2.9,0.8C8.3,23,6.7,23.5,5.1,24l-1,0.5c0,0,6.6,4.2,8.6,5.6
			c0.1,0.1,0.2,0.1,0.3,0.2C13,29.7,13,29.3,13,29.1z"/>
		<path class="st7" d="M4.1,24.5l1-0.5C6.7,23.5,4.7,24,4.7,24c-0.8,0.3-1.3,0.7-1.1,1.6c1.1,3.5,2.3,6.9,4.8,10
			c0.2,0.2,0.3,0.4,0.5,0.5c2,1.8,3.4,1.7,3.9-0.9c0.2-1.1,0.2-3.5,0.2-5c-0.1-0.1-0.2-0.1-0.3-0.2C10.7,28.7,4.1,24.5,4.1,24.5z"/>
		<linearGradient id="SVGID_2_" gradientUnits="userSpaceOnUse" x1="18.6041" y1="19.6093" x2="24.7844" y2="36.5895">
			<stop  offset="0" style="stop-color:#8BC53F"/>
			<stop  offset="0.383" style="stop-color:#93C83F"/>
			<stop  offset="0.6341" style="stop-color:#80BB41"/>
			<stop  offset="1" style="stop-color:#5EA444"/>
		</linearGradient>
		<path class="st8" d="M31.1,28.1c-2.2-4.4-6.1-6.8-10.7-8.3c-0.1,0-0.3-0.1-0.4-0.1c-0.3,0-0.7,0.1-1,0.2c-3.1,0.9-6.3,1.8-6.3,1.8
			s0.3,6.3,0.2,7.3c0,0.3,0,0.7,0,1.2c1.6,1,3.3,2,4.7,2.8c2.7,1.5,5.6,2.5,8.8,2.4C31.1,35.4,33.2,32.2,31.1,28.1z"/>
	</g>
</g>
</svg>
