<?xml version="1.0" encoding="utf-8"?>
<!-- Generator: Adobe Illustrator 22.1.0, SVG Export Plug-In . SVG Version: 6.00 Build 0)  -->
<svg version="1.1" id="Layer_1" xmlns="http://www.w3.org/2000/svg" xmlns:xlink="http://www.w3.org/1999/xlink" x="0px" y="0px"
	 viewBox="0 0 110 110" style="enable-background:new 0 0 110 110;" xml:space="preserve">
<style type="text/css">
	.st0{fill:#000066;}
</style>
<path class="st0" d="M13.6,46.2c3.4,0,6.6-2.1,7.9-5.2C27,27.9,39.9,18.6,55,18.6c8.3,0,15.9,2.8,22,7.6L72.2,27
	c-1.6,0.3-2.9,1.5-3.1,3.2c-0.2,1.6,0.7,3.2,2.2,3.9l26.3,11.8c1.2,0.5,2.5,0.4,3.6-0.3s1.7-1.9,1.7-3.1l0.1-29
	c0-1.6-1.1-3.1-2.6-3.6c-1.6-0.5-3.3,0.1-4.2,1.5l-3.6,5.5C82.9,7.4,69.6,1.5,55,1.5C32.8,1.5,13.8,15,5.7,34.2
	c-1.1,2.7-0.8,5.7,0.8,8.1C8,44.8,10.7,46.2,13.6,46.2z"/>
<path class="st0" d="M103.6,67.6c-1.6-2.4-4.3-3.9-7.2-3.9c-3.4,0-6.6,2.1-7.9,5.2C83,82.1,70.1,91.4,55,91.4
	c-8.3,0-15.9-2.8-22-7.6l4.8-0.7c1.6-0.3,2.9-1.6,3.1-3.2s-0.7-3.2-2.2-3.9L12.4,64.1c-1.2-0.5-2.5-0.4-3.6,0.3s-1.7,1.9-1.7,3.1
	L7,96.5c0,1.6,1.1,3.1,2.6,3.6c1.6,0.5,3.3-0.1,4.2-1.5l3.6-5.5c9.7,9.5,22.9,15.4,37.5,15.4c22.2,0,41.2-13.5,49.3-32.8
	C105.4,73.1,105.2,70.1,103.6,67.6z"/>
</svg>
