<?xml version="1.0" encoding="UTF-8"?><svg enable-background="new 0 0 77.1 59.3" version="1.1" viewBox="0 0 77.1 59.3" xml:space="preserve" xmlns="http://www.w3.org/2000/svg"><path d="M72.5,0H4.7C2.1,0,0,2.1,0,4.7v50c0,2.6,2.1,4.7,4.7,4.7h67.8c2.6,0,4.7-2.1,4.7-4.7v-50C77.1,2.1,75,0,72.5,0   z M74.8,54.6c0,1.3-1.1,2.4-2.4,2.4H4.7c-1.3,0-2.4-1.1-2.4-2.4v-50c0-1.3,1.1-2.4,2.4-2.4h67.8c1.3,0,2.4,1.1,2.4,2.4V54.6z"/><rect x="5.9" y="13.1" width="65.3" height="2.3"/><path d="m11.7 8.8h1.1c0.6 0 1.2-0.5 1.2-1.2 0-0.6-0.5-1.2-1.2-1.2h-1.1c-0.6 0-1.2 0.5-1.2 1.2 0.1 0.7 0.6 1.2 1.2 1.2z"/><path d="m20.5 8.8h1.1c0.6 0 1.2-0.5 1.2-1.2 0-0.6-0.5-1.2-1.2-1.2h-1.1c-0.6 0-1.2 0.5-1.2 1.2s0.5 1.2 1.2 1.2z"/><path d="m29.3 8.8h1.1c0.6 0 1.2-0.5 1.2-1.2 0-0.6-0.5-1.2-1.2-1.2h-1.1c-0.6 0-1.2 0.5-1.2 1.2s0.5 1.2 1.2 1.2z"/><path d="m22.6 29l-2.6-2.6-1.7 1.6 3.4 3.4c0.4 0.4 1.2 0.4 1.6 0l9-9-1.6-1.6-8.1 8.2z"/><path d="m15.8 23.5h10.1v-2.3h-11.2c-0.6 0-1.2 0.5-1.2 1.2v11.5c0 0.6 0.5 1.2 1.2 1.2h11.5c0.6 0 1.2-0.5 1.2-1.2v-2.6h-2.4v1.5h-9.1v-9.3z"/><rect x="37.4" y="23.7" width="14" height="2.3"/><rect x="37.4" y="29.9" width="24.8" height="2.3"/><path d="m30.8 38.6l-8.2 8.2-2.6-2.6-1.6 1.6 3.4 3.4c0.4 0.4 1.2 0.4 1.6 0l9-9-1.6-1.6z"/><path d="M15.8,41.3h10.1V39H14.7c-0.6,0-1.2,0.5-1.2,1.2v11.5c0,0.6,0.5,1.2,1.2,1.2h11.5c0.6,0,1.2-0.5,1.2-1.2V49H25   v1.5h-9.1V41.3z"/><rect x="37.4" y="41.5" width="14" height="2.3"/><rect x="37.4" y="47.7" width="24.8" height="2.3"/></svg>