<svg enable-background="new 0 0 64.6 62.3" version="1.1" viewBox="0 0 64.6 62.3" xml:space="preserve" xmlns="http://www.w3.org/2000/svg"><polyline class="icon-servico-faturamento" points="35.3 17.2 35.3 61.2 63.6 61.2 63.6 17.2"/><path class="icon-servico-faturamento" d="m29.6 11.5c3.1 0 5.7 2.5 5.7 5.7"/><path class="icon-servico-faturamento" d="m29.6 11.5c-3.1 0-5.7 2.5-5.7 5.7v25c0 3.1-2.5 5.7-5.7 5.7-3.1 0-5.7-2.5-5.7-5.7v-35.4c0-3.1-2.5-5.7-5.7-5.7-3.1 0-5.7 2.5-5.7 5.7v19.9h8.1"/><path class="icon-servico-faturamento" d="M63.6,17.2c0-3.1-2.5-5.7-5.7-5.7H29.6"/><line class="icon-servico-faturamento" x1="18.2" x2="31.3" y1="47.9" y2="47.9"/><path class="icon-servico-faturamento" d="m6.9 1.1h28.5c3.1 0 5.7 2.5 5.7 5.7"/><line class="icon-servico-faturamento" x1="41.9" x2="57.7" y1="21.5" y2="21.5"/><line class="icon-servico-faturamento" x1="41.9" x2="57.7" y1="25.6" y2="25.6"/><line class="icon-servico-faturamento" x1="50.6" x2="57.7" y1="29.7" y2="29.7"/><line class="icon-servico-faturamento" x1="41.9" x2="57.7" y1="40.8" y2="40.8"/><line class="icon-servico-faturamento" x1="41.9" x2="57.7" y1="44.9" y2="44.9"/><line class="icon-servico-faturamento" x1="50.6" x2="57.7" y1="49" y2="49"/></svg>