<svg enable-background="new 0 0 90 90" version="1.1" viewBox="0 0 90 90" xml:space="preserve" xmlns="http://www.w3.org/2000/svg"><path class="st0" d="m78.6 71.4h-67.2c-3.8 0-6.9-3.1-6.9-6.9v-39.2c0-3.8 3.1-6.9 6.9-6.9h67.3c3.8 0 6.9 3.1 6.9 6.9v39.2c-0.1 3.8-3.2 6.9-7 6.9zm-67.2-50.5c-2.4 0-4.4 2-4.4 4.4v39.2c0 2.4 1.9 4.3 4.3 4.3h67.3c2.4 0 4.3-1.9 4.3-4.3v-39.2c0-2.4-1.9-4.3-4.3-4.3h-67.2z"/><path class="st0" d="m40.5 54.9h-27.3c-0.7 0-1.3-0.6-1.3-1.3s0.6-1.3 1.3-1.3h27.3c0.7 0 1.3 0.6 1.3 1.3s-0.6 1.3-1.3 1.3z"/><path class="st0" d="m49.4 37.9h-2.9c-0.8 0-1.4-0.6-1.4-1.4v-2.5h-2.6c-0.8 0-1.4-0.6-1.4-1.4v-2.9c0-0.8 0.6-1.4 1.4-1.4h2.6v-2.6c0-0.8 0.6-1.4 1.4-1.4h2.9c0.7 0 1.4 0.6 1.4 1.4v2.6h2.6c0.8 0 1.4 0.6 1.4 1.4v2.9c0 0.8-0.6 1.4-1.4 1.4h-2.6v2.6c0 0.7-0.6 1.3-1.4 1.3zm-2.8-1.4h2.7v-3.2c0-0.4 0.3-0.7 0.7-0.7h3.2v-2.7h-3.2c-0.4 0-0.7-0.3-0.7-0.7v-3.2h-2.7v3.2c0 0.4-0.3 0.7-0.7 0.7h-3.2v2.7h3.2c0.4 0 0.7 0.3 0.7 0.7v3.2zm6.7-6.7"/><path class="st0" d="m38.7 59.6h-25.4c-0.7 0-1.3-0.6-1.3-1.3s0.6-1.3 1.3-1.3h25.4c0.7 0 1.3 0.6 1.3 1.3s-0.6 1.3-1.3 1.3z"/><path class="st0" d="m57.6 64.4h-44.4c-0.7 0-1.3-0.6-1.3-1.3s0.6-1.3 1.3-1.3h44.4c0.7 0 1.3 0.6 1.3 1.3s-0.6 1.3-1.3 1.3z"/><path class="st1" style="fill:#FF0000!important;" d="m51.3 50.1h-38.1c-0.7 0-1.3-0.6-1.3-1.3s0.6-1.3 1.3-1.3h38.1c0.7 0 1.3 0.6 1.3 1.3s-0.6 1.3-1.3 1.3z"/><path class="st0" d="m76.2 50.1h-14.7c-0.7 0-1.3-0.6-1.3-1.3s0.6-1.3 1.3-1.3h14.8c0.7 0 1.3 0.6 1.3 1.3s-0.7 1.3-1.4 1.3z"/><path class="st0" d="m32.3 45.4h-19.1c-0.7 0-1.3-0.6-1.3-1.3s0.6-1.3 1.3-1.3h19.1c0.7 0 1.3 0.6 1.3 1.3s-0.6 1.3-1.3 1.3z"/><path class="st0" d="m76.2 45.4h-14.7c-0.7 0-1.3-0.6-1.3-1.3s0.6-1.3 1.3-1.3h14.8c0.7 0 1.3 0.6 1.3 1.3s-0.7 1.3-1.4 1.3z"/></svg>