<svg enable-background="new 0 0 90 90" version="1.1" viewBox="0 0 90 90" xml:space="preserve" xmlns="http://www.w3.org/2000/svg"><path d="m23.7 84h17.9c1 0 1.8-0.8 1.8-1.8s-0.8-1.8-1.8-1.8h-17.9c-3.8 0-6.8-3-6.8-6.8v-58.8c0-4 3.2-7.3 7.2-7.3h26v11.4c0 3.3 2.8 6.1 6.1 6.1h11.4v26.3c0 1 0.8 1.8 1.8 1.8s1.8-0.8 1.8-1.8v-26.6c0-1.7-0.6-3.2-1.8-4.3l-14.6-14.8c-1.2-1.2-2.7-1.8-4.3-1.8h-26.4c-6 0-10.9 4.9-10.9 11v58.8c0 5.7 4.7 10.4 10.5 10.4zm41.6-62.7h-9.1c-1.3 0-2.4-1.1-2.4-2.4v-9.1l11.5 11.5z"/><path d="m45.5 70.1c0 8.7 7 15.7 15.7 15.7s15.7-7 15.7-15.7-7-15.7-15.7-15.7-15.7 7.1-15.7 15.7zm27.6 0c0 6.6-5.3 12-12 12s-12-5.3-12-12 5.3-12 12-12 12 5.4 12 12z"/><path d="m53.5 71l2.7 2.7 2.6 2.6 2.6-2.6 6.5-6.5c0.7-0.7 0.7-1.9 0-2.6s-1.9-0.7-2.6 0l-6.5 6.5-2.7-2.7c-0.7-0.7-1.9-0.7-2.6 0-0.8 0.7-0.8 1.8 0 2.6z"/><path d="m56.8 29.1h-29.5c-1 0-1.8 0.8-1.8 1.8s0.8 1.8 1.8 1.8h29.5c1 0 1.8-0.8 1.8-1.8 0-0.9-0.8-1.8-1.8-1.8z"/><path d="m56.8 37.9h-29.5c-1 0-1.8 0.8-1.8 1.8s0.8 1.8 1.8 1.8h29.5c1 0 1.8-0.8 1.8-1.8s-0.8-1.8-1.8-1.8z"/><path d="m56.8 46.6h-29.5c-1 0-1.8 0.8-1.8 1.8s0.8 1.8 1.8 1.8h29.5c1 0 1.8-0.8 1.8-1.8s-0.8-1.8-1.8-1.8z"/></svg>