<?xml version="1.0" encoding="UTF-8"?>
<svg enable-background="new 0 0 48.8 60.3" version="1.1" viewBox="0 0 48.8 60.3" xml:space="preserve" xmlns="http://www.w3.org/2000/svg"><path class="icon-procedimento-atendimento" d="m39.3 24.1c0-0.3 0-0.8-0.3-0.9-0.2 0.1-0.4 0.1-0.5 0.2-0.1 1.9-0.4 3.8-0.9 5.5 0.9-0.8 1.6-2.7 1.7-4.8z"/><path class="icon-procedimento-atendimento" d="m9.8 23.3c-0.1 0-0.2-0.1-0.3-0.1-0.2 0.2-0.3 0.7-0.3 1 0 1.9 0.6 3.6 1.4 4.5-0.4-1.7-0.7-3.5-0.8-5.4z"/><path class="icon-procedimento-atendimento" d="m25.8 34.5c0-0.5-0.4-0.8-0.8-0.8h-0.9c-0.4 0-0.8 0.4-0.8 0.8 0 0.5 0.4 0.8 0.8 0.8h0.9c0.5 0 0.8-0.4 0.8-0.8z"/><path class="icon-procedimento-atendimento" d="m32.3 34.8c0.1-0.2 0.3-0.4 0.4-0.6-1.3 0.6-2.9 1.1-4.7 1.2-0.3 0.8-1.1 1.3-2 1.3h-2.9c-1.2 0-2.2-1-2.2-2.2s1-2.2 2.2-2.2h2.9c1 0 1.8 0.6 2.1 1.5 3.2-0.5 5.7-2.5 6.3-3 1-2.6 1.6-5.6 1.6-8.6 0-0.9 0-1.7-0.1-2.4-0.8-0.8-2.8-2.8-3.7-4.8-3.1 1.6-10.3 4.6-19 4.5h-1.3c0 0.3 0.1 0.9 0.2 1.3 0.1 0.5 0.2 1 0.2 1.4 0 9.5 5.3 17.2 11.9 17.6 3-0.2 5.9-1.9 8.1-5z"/><path class="icon-procedimento-atendimento" d="m41.1 45.6l-9-3.1c-1.3 1.8-4 2.8-7.1 2.9h-0.2-0.5-0.4-0.2c-3.1 0-5.9-1.1-7.2-2.8l-8.8 3.1c-3.2 1.1-5.3 4.1-5.3 7.4v4.5c0 0.6 0.5 1.1 1.1 1.1h41.7c0.6 0 1.1-0.5 1.1-1.1v-4.6c0.1-3.3-2-6.3-5.2-7.4z"/><path class="icon-procedimento-atendimento" d="m30 41.6v-1.8c-1.7 1-3.5 1.5-5.3 1.5h-0.5-0.5c-1.8 0-3.4-0.5-5-1.3v1.6l0.1 0.1c1 1.3 3.2 2.2 5.6 2.3 2.5-0.2 4.6-1.1 5.6-2.4z"/><path class="icon-procedimento-atendimento" d="m9.5 21.7h0.3c0-0.2-0.1-0.4-0.1-0.7-0.2-1-0.4-2 0.2-2.6 0.2-0.3 0.6-0.4 1-0.4h0.9 0.1 1.5c10.5-0.2 18.7-5.1 18.8-5.2l0.9-0.5 0.1 0.6h0.1l0.9-0.5 0.2 1c0.3 2.1 3 4.8 4 5.7h0.1c0.1 0.9 0.2 1.7 0.2 2.6h0.6 0.2c-0.2-4-1.2-11.5-5.6-16.2-2.5-2.6-5.8-4-9.7-4.1-4.3 0.1-7.7 1.5-10.1 4.2-4.7 4.9-4.8 12.7-4.6 16.1z"/><path d="m42.6 44.3l-10.2-3.6v-2.7c0.7-0.7 1.4-1.5 2.1-2.4 1-1.5 1.9-3.1 2.5-4.9h0.5c0.6 0 1.2-0.2 1.7-0.6 1.6-1.1 2.2-3.6 2.3-5.6 0-0.5 0.7-13-6-20-2.6-3-6.4-4.5-11-4.5h-0.5-0.5c-5 0-8.9 1.6-11.7 4.6-5.2 5.8-4.9 15.1-4.6 18-0.2 0.4-0.3 0.9-0.3 1.5 0 2 0.7 4.8 2.4 6 0.5 0.4 1.1 0.6 1.7 0.6h0.4c1.1 3.1 2.8 5.7 4.9 7.6v2.6l-10 3.5c-3.8 1.2-6.3 4.7-6.3 8.6v5.2c0 1.3 1 2.3 2.3 2.3h44.2c1.3 0 2.3-1 2.3-2.3v-5.2c0-3.9-2.5-7.4-6.2-8.7zm-30.4-22.1c0-0.4-0.1-0.9-0.2-1.4-0.1-0.4-0.2-1-0.2-1.3h1.3c8.7 0.1 15.9-2.9 19-4.5 0.9 2.1 2.9 4 3.7 4.8 0.1 0.8 0.1 1.5 0.1 2.4 0 3.1-0.6 6-1.6 8.6-0.6 0.5-3.1 2.4-6.3 3-0.3-0.9-1.1-1.5-2.1-1.5h-2.9c-1.2 0-2.2 1-2.2 2.2s1 2.2 2.2 2.2h3c0.9 0 1.7-0.5 2-1.3 1.7-0.1 3.3-0.6 4.7-1.2-0.1 0.2-0.3 0.4-0.4 0.6-2.2 3.1-5.1 4.9-8.2 5.1-6.6-0.5-11.9-8.2-11.9-17.7zm-2.7 1c0.1 0 0.2 0.1 0.3 0.1 0.1 1.9 0.4 3.7 0.8 5.4-0.8-0.9-1.4-2.7-1.4-4.5 0-0.4 0.1-0.9 0.3-1zm13.9 11.2c0-0.4 0.4-0.8 0.8-0.8h0.8c0.4 0 0.8 0.4 0.8 0.8s-0.4 0.8-0.8 0.8h-0.9c-0.4 0.1-0.7-0.3-0.7-0.8zm15.1-11c0.2-0.1 0.4-0.1 0.5-0.2 0.2 0.2 0.3 0.7 0.3 0.9 0 2.1-0.7 4-1.7 4.8 0.5-1.8 0.8-3.6 0.9-5.5zm-4.8-17.9c4.4 4.7 5.4 12.2 5.6 16.2h-0.2c-0.2 0-0.4-0.1-0.6 0 0-0.9-0.1-1.7-0.2-2.6h-0.1c-1-0.9-3.7-3.6-4-5.7l-0.2-1-0.9 0.5h-0.1v-0.5l-0.9 0.5c-0.1 0.1-8.3 5-18.8 5.2h-1.5-0.1-0.9c-0.4 0-0.7 0.1-1 0.4-0.5 0.5-0.3 1.5-0.1 2.5 0 0.2 0.1 0.5 0.1 0.7h-0.3c-0.2-3.4-0.1-11.2 4.3-16.1 2.4-2.7 5.8-4.1 10.1-4.2 4 0.1 7.3 1.5 9.8 4.1zm-15 36.2l-0.1-1.7c1.6 0.8 3.2 1.3 5 1.3h0.5 0.5c1.9 0 3.7-0.5 5.3-1.5v1.8c-1 1.3-3.1 2.2-5.7 2.3-2.4-0.1-4.5-0.9-5.5-2.2zm-16.3 15.9v-4.6c0-3.3 2.1-6.3 5.3-7.4l8.8-3.1c1.4 1.7 4.1 2.8 7.2 2.8h0.2 0.4 0.5 0.2c3.1 0 5.8-1.1 7.1-2.9l9 3.1c3.2 1.1 5.3 4.1 5.3 7.4v4.5c0 0.6-0.5 1.1-1.1 1.1h-41.7c-0.7 0.2-1.2-0.3-1.2-0.9z"/></svg>
