<svg enable-background="new 0 0 100 100" version="1.1" viewBox="0 0 100 100" xml:space="preserve" xmlns="http://www.w3.org/2000/svg"><path d="m91 22h-82c-1.9 0-3.5 1.6-3.5 3.5v49c0 1.9 1.6 3.5 3.5 3.5h82c1.9 0 3.5-1.6 3.5-3.5v-49c0-1.9-1.6-3.5-3.5-3.5zm0.4 52.9c-0.1 0-0.3 0.1-0.4 0.1h-82c-0.1 0-0.3-0.1-0.4-0.1-0.1-0.1-0.1-0.2-0.1-0.4v-49c0-0.1 0.1-0.3 0.1-0.4 0.1 0 0.3-0.1 0.4-0.1h82c0.1 0 0.3 0.1 0.4 0.1 0.1 0.1 0.1 0.2 0.1 0.4v49c0 0.1-0.1 0.3-0.1 0.4z"/><path d="m61 30c-0.8 0-1.5 0.7-1.5 1.5v37c0 0.8 0.7 1.5 1.5 1.5s1.5-0.7 1.5-1.5v-37c0-0.8-0.7-1.5-1.5-1.5z"/><path d="m54.1 45.3c-0.4-0.7-1.4-0.9-2.1-0.5l-4.1 2.5v-4.8c0-0.8-0.7-1.5-1.5-1.5s-1.5 0.7-1.5 1.5v4.8l-4.1-2.5c-0.7-0.4-1.6-0.2-2.1 0.5-0.4 0.7-0.2 1.6 0.5 2.1l4.3 2.6-4.3 2.6c-0.7 0.4-0.9 1.4-0.5 2.1s1.4 0.9 2.1 0.5l4.1-2.5v4.8c0 0.8 0.7 1.5 1.5 1.5s1.5-0.7 1.5-1.5v-4.8l4.1 2.5c0.7 0.4 1.6 0.2 2.1-0.5 0.4-0.7 0.2-1.6-0.5-2.1l-4.3-2.6 4.3-2.6c0.7-0.4 0.9-1.4 0.5-2.1z"/><path d="m33.1 45.3c-0.4-0.7-1.4-0.9-2.1-0.5l-4.1 2.5v-4.8c0-0.8-0.7-1.5-1.5-1.5s-1.5 0.7-1.5 1.5v4.8l-4.1-2.5c-0.7-0.4-1.6-0.2-2.1 0.5-0.4 0.7-0.2 1.6 0.5 2.1l4.3 2.6-4.3 2.6c-0.7 0.4-0.9 1.4-0.5 2.1s1.4 0.9 2.1 0.5l4.1-2.5v4.8c0 0.8 0.7 1.5 1.5 1.5s1.5-0.7 1.5-1.5v-4.8l4.1 2.5c0.7 0.4 1.6 0.2 2.1-0.5 0.4-0.7 0.2-1.6-0.5-2.1l-4.3-2.6 4.3-2.6c0.7-0.4 0.9-1.4 0.5-2.1z"/></svg>