<?xml version="1.0" encoding="UTF-8"?><svg enable-background="new 0 0 90 90" version="1.1" viewBox="0 0 90 90" xml:space="preserve" xmlns="http://www.w3.org/2000/svg"><path class="st0" d="m68.8 72.4c-1.4 1.4-3.3 2.3-5.5 2.3-2.1 0-4.1-0.9-5.5-2.3s-2.3-3.3-2.3-5.5c0-1.8 0.6-3.5 1.7-4.9 1-1.2 2.2-2.1 3.7-2.5v3.1c-0.4 0.2-0.8 0.5-1.1 0.8-0.9 0.9-1.4 2.1-1.4 3.4s0.5 2.6 1.4 3.4c0.9 0.9 2.1 1.4 3.4 1.4s2.6-0.5 3.4-1.4c0.9-0.9 1.4-2.1 1.4-3.4s-0.5-2.6-1.4-3.4c-0.3-0.3-0.7-0.6-1.1-0.8v-3.1c1.5 0.5 2.8 1.4 3.7 2.5 1.1 1.3 1.7 3 1.7 4.9 0.2 2.2-0.6 4.1-2.1 5.5m-7-8.9c0.4-0.2 0.8-0.3 1.2-0.3s0.8 0.1 1.1 0.3c0.4 0.2 0.8 0.5 1.1 0.8 0.7 0.7 1.1 1.6 1.1 2.6s-0.4 2-1.1 2.6c-0.7 0.7-1.6 1.1-2.6 1.1s-2-0.4-2.6-1.1c-0.7-0.7-1.1-1.6-1.1-2.6s0.4-2 1.1-2.6c1-0.3 1.4-0.6 1.8-0.8m-3.2-42.3c-2.2-2.2-5.2-3.6-8.6-3.6-3.3 0-6.4 1.4-8.6 3.6s-3.6 5.2-3.6 8.6h-0.9-0.2-0.9c0-4 1.6-7.6 4.2-10.2s6.2-4.2 10.2-4.2 7.6 1.6 10.2 4.2 4.2 6.2 4.2 10.2v0.2 32.3c-0.2-0.1-0.5-0.1-0.7-0.1h-0.1-0.1c-0.3 0-0.5 0.1-0.7 0.1v-32.4c-0.8-3.5-2.2-6.5-4.4-8.7m-9.2 14.9c3.1 3.1 5.1 7.4 5.2 12.1h-4.6c-0.1-3.4-1.6-6.5-3.9-8.8-2.4-2.4-5.7-3.9-9.4-3.9s-7 1.5-9.4 3.9c-2.3 2.3-3.7 5.4-3.9 8.8h-4.6c0.1-4.7 2.1-9 5.2-12.1 3.2-3.2 7.6-5.2 12.4-5.2h0.6c4.8 0 9.2 2 12.4 5.2m2.7 25.9c-1 2.6-2.9 4.6-6.1 6.3l-0.9-2.2c2.6-1.6 4.1-3.4 4.9-5.7 0.9-2.4 1.1-5.4 1.1-9.1v-1.4-0.6h2.2v0.5 1.4c0.1 4.6-0.1 8-1.2 10.8m-9.6 9c-0.6 0.2-1.2 0.2-1.7 0s-1-0.6-1.2-1.2v-0.1c-0.2-0.6-0.2-1.2 0-1.7s0.7-1 1.2-1.2l2.9-1.2 0.2 0.5 1.5 3.7-2.9 1.2zm-19-10.6c0.9 2.3 2.4 4.2 4.9 5.7l-0.9 2.2c-3.2-1.7-5-3.7-6.1-6.3-1.1-2.8-1.3-6.2-1.3-10.7v-1.4-0.5h2.2v0.6 1.4c0.1 3.6 0.3 6.6 1.2 9m6.1 5.7l0.2-0.5 2.9 1.2c0.6 0.2 1 0.7 1.2 1.2s0.2 1.2 0 1.7c-0.2 0.6-0.7 1-1.2 1.2s-1.2 0.2-1.7 0l-2.9-1.2 1.5-3.6zm40.7-4.7c-1.2-1.4-2.8-2.5-4.6-3v-28.6-0.2c0-4.2-1.8-8.1-4.6-10.9s-6.7-4.6-11-4.6-8.2 1.7-11 4.6c-2.8 2.8-4.6 6.7-4.6 11v0.1c-4.3 0.5-8.2 2.5-11.2 5.4-3.4 3.4-5.6 8.2-5.6 13.4 0 0.3 0.3 0.6 0.6 0.6h0.7v0.5 1.4c0 4.6 0.2 8.2 1.4 11.1 1.1 2.9 3.2 5 6.7 6.9l-0.2 0.6c-0.1 0.3 0 0.6 0.3 0.7l3.4 1.4c0.9 0.4 1.8 0.3 2.6 0s1.5-1 1.8-1.8v-0.1c0.3-0.8 0.3-1.8 0-2.5-0.3-0.8-1-1.5-1.8-1.8l-3.4-1.4c-0.3-0.1-0.6 0-0.7 0.3l-0.2 0.4c-2.2-1.4-3.6-3-4.3-5.1-0.8-2.3-1-5.1-1.1-8.7v-1.4-0.6h0.6c0.3 0 0.6-0.3 0.6-0.6 0-3.3 1.4-6.4 3.5-8.6 2.2-2.2 5.2-3.5 8.6-3.5 3.3 0 6.4 1.4 8.6 3.5 2.2 2.2 3.5 5.2 3.5 8.6 0 0.3 0.3 0.6 0.6 0.6h0.7v0.6 1.4c0 3.6-0.2 6.5-1.1 8.7-0.8 2.1-2.1 3.7-4.3 5.1l-0.2-0.4c-0.1-0.3-0.4-0.4-0.7-0.3l-3.4 1.4c-0.9 0.4-1.5 1-1.8 1.8s-0.4 1.7 0 2.6 1 1.5 1.8 1.8 1.7 0.4 2.6 0l3.4-1.4c0.3-0.1 0.4-0.4 0.3-0.7l-0.2-0.6c3.5-1.9 5.5-4.1 6.7-6.9 1.2-2.9 1.4-6.5 1.4-11.1v-1.4-0.5h0.7c0.3 0 0.6-0.3 0.6-0.6 0-5.3-2.1-10-5.6-13.4-2.9-2.9-6.8-4.9-11.2-5.4v-0.1c0-3 1.2-5.8 3.2-7.8s4.7-3.2 7.8-3.2c3 0 5.8 1.2 7.8 3.2s3.2 4.7 3.2 7.8v28.6c-1.8 0.5-3.4 1.6-4.6 3-1.2 1.5-2 3.5-2 5.6 0 2.5 1 4.7 2.6 6.3s3.8 2.6 6.3 2.6 4.7-1 6.3-2.6 2.6-3.8 2.6-6.3c-0.2-2.1-0.9-4-2.1-5.5"/></svg>
