<svg enable-background="new 0 0 46 46" version="1.1" viewBox="0 0 46 46" xml:space="preserve" xmlns="http://www.w3.org/2000/svg">
<style type="text/css">.st0{fill:none;}.st1{fill:url(#b);}.st2{fill:#007BC1;}.st3{fill:#4192CF;}.st4{fill:#00A771;}.st5{fill:#52BD98;}.st6{fill:url(#a);}</style>
<path class="st0" d="m9 28.4z"/>
<linearGradient id="b" x1="25.1" x2="17.8" y1="23.59" y2="43.63" gradientTransform="matrix(1 0 0 -1 0 47.39)" gradientUnits="userSpaceOnUse">
<stop stop-color="#1EAECC" offset="0"/>
<stop stop-color="#20ACCB" offset=".39"/>
<stop stop-color="#25A4C6" offset=".59"/>
<stop stop-color="#2F97BD" offset=".74"/>
<stop stop-color="#3D84B1" offset=".88"/>
<stop stop-color="#4578AA" offset=".94"/>
</linearGradient>
<path class="st1" d="m32.8 6.8c-0.4-3.9-2.5-6.1-5.4-6.1-1.6 0.1-3.1 0.6-4.5 1.4-3.3 2.1-5.9 5-7.6 8.5-0.9 1.7-1.5 2.9-2.4 4.9 0.3 0.4 0.5 0.8 0.7 1 1 1.5 5.3 8.9 5.3 8.9l-6.8 2c4.6-1.3 8.8-2.5 13.5-3.9 0.6-0.1 1.1-0.4 1.6-0.8 3.8-4.6 6.2-9.8 5.6-15.9z"/>
<path class="st2" d="m13.7 16.6c-0.2-0.3-0.4-0.6-0.7-1l-0.1 0.3c-0.4 0.9-4.5 12.6-4.5 12.6h0.6l3.1-0.9 6.8-2c0.1 0-4.2-7.5-5.2-9z"/>
<path class="st2" d="m9.4 28.3l2.7-0.8-3.1 0.9c0.2 0 0.3 0 0.4-0.1z"/>
<path class="st3" d="m12.8 15.9l0.1-0.3c-1.2-2-2.7-3.9-4.2-5.6-1.7-1.6-4-1.5-4.6 2-0.1 0.2-0.1 0.5-0.1 0.9-0.1 5.2 0.9 9.4 2.9 14.6 0.4 0.8 1.3 1.2 2.1 0.9h-0.7s4.1-11.6 4.5-12.5z"/>
<path class="st4" d="m19.5 35.4c0-1.2-0.3-8.7-0.3-8.7l-3.5 1-5.7 1.6-1.2 0.6s7.8 5 10.3 6.7l0.3 0.2c0.1-0.6 0.1-1.1 0.1-1.4z"/>
<path class="st5" d="m8.9 29.9l1.2-0.6c1.9-0.5-0.4 0.1-0.4 0.1-1 0.4-1.5 0.9-1.3 2 1.4 4.2 2.7 8.3 5.7 11.9l0.6 0.6c2.4 2.1 4 2.1 4.6-1.1 0.2-2 0.3-4 0.2-6l-0.3-0.2c-2.5-1.7-10.3-6.7-10.3-6.7z"/>
<linearGradient id="a" x1="26.145" x2="33.516" y1="23.304" y2="3.0499" gradientTransform="matrix(1 0 0 -1 0 47.39)" gradientUnits="userSpaceOnUse">
<stop stop-color="#8BC53F" offset="0"/>
<stop stop-color="#93C83F" offset=".38"/>
<stop stop-color="#80BB41" offset=".63"/>
<stop stop-color="#5EA444" offset="1"/>
</linearGradient>
<path class="st6" d="m41.1 34.2c-2.7-5.2-7.3-8.1-12.7-10-0.2 0-0.3-0.1-0.5-0.1-0.4 0-0.8 0.1-1.2 0.2-3.7 1-7.5 2.2-7.5 2.2s0.3 7.5 0.3 8.7v1.4c1.9 1.2 4 2.5 5.6 3.4 3.2 1.9 6.8 2.9 10.5 2.9 5.5 0 8-3.7 5.5-8.7z"/>
</svg>