<svg xmlns="http://www.w3.org/2000/svg" viewBox="0 0 206.8 69.23"><title>Mesa de trabajo 1</title><path d="M111.21,32.93l5.32-.06v6.4h6v4.16h-6V57.68a3,3,0,0,0,.87,2.44,3.76,3.76,0,0,0,2.49.74,9.51,9.51,0,0,0,1.13-.08,5,5,0,0,0,.94-.21l.35,4a7.26,7.26,0,0,1-1.73.47,12.8,12.8,0,0,1-2.27.19,6.93,6.93,0,0,1-5.38-2,7.85,7.85,0,0,1-1.78-5.51Z" style="fill:#fff"/><path d="M144.75,44.28a6.75,6.75,0,0,0-4.7-4.88,15.25,15.25,0,0,0-4.54-.59,21.06,21.06,0,0,0-8.57,1.63l.48,4.43a19.46,19.46,0,0,1,3.42-1.09,17.92,17.92,0,0,1,3.71-.35,6.4,6.4,0,0,1,4.1,1,4.27,4.27,0,0,1,1.23,3.46V57.3a2.47,2.47,0,0,1-.42,1.33,4,4,0,0,1-1.13,1.14,6,6,0,0,1-1.61.79,6.12,6.12,0,0,1-1.92.3,5,5,0,0,1-3.09-.89,3.66,3.66,0,0,1-1.19-3.14,3.66,3.66,0,0,1,1.21-3,5.87,5.87,0,0,1,3.83-1,8.5,8.5,0,0,1,2.33.24c.11,0,.21.05.23,0V49.43c-.29,0-.29-.09-.7-.16a16,16,0,0,0-2.83-.24c-3,0-5.34.71-6.9,2.14a7.38,7.38,0,0,0-2.35,5.74c0,2.84.73,4.93,2.18,6.29a8.19,8.19,0,0,0,5.79,2,10.09,10.09,0,0,0,4.17-.84A8.14,8.14,0,0,0,140.53,62l.12.05.5,2.72h4.12V48.74A16.65,16.65,0,0,0,144.75,44.28Z" style="fill:#fff"/><path d="M65.26,32.87h6.5L78.88,56l.94,3.31h.12L80.88,56l7.2-23.14h6.21L83.08,65H76.39Z" style="fill:#fff"/><path d="M98.18,33.22c0-1.77,1.09-2.64,3.27-2.63s3.25.88,3.24,2.63-1.1,2.56-3.3,2.56a4.13,4.13,0,0,1-2.4-.56A2.26,2.26,0,0,1,98.18,33.22ZM98.64,65V39.38l5.44-.29V65Z" style="fill:#fff"/><path d="M151.72,65V32.91l5.44-.29V65Z" style="fill:#fff"/><path d="M164.61,65V32.91l5.44-.29V65Z" style="fill:#fff"/><path d="M177.28,33.22c0-1.77,1.09-2.64,3.27-2.63s3.26.88,3.24,2.63-1.1,2.56-3.29,2.56a4.17,4.17,0,0,1-2.41-.56A2.26,2.26,0,0,1,177.28,33.22ZM177.74,65V39.38l5.44-.29V65Z" style="fill:#fff"/><path d="M189.23,46.42a7.07,7.07,0,0,1,2.36-5.51q2.37-2.11,7.07-2.12a17.61,17.61,0,0,1,7.13,1.45l-.48,4.54a15.53,15.53,0,0,0-3.44-1,19.38,19.38,0,0,0-3.29-.32,5.38,5.38,0,0,0-3,.73,2.29,2.29,0,0,0-1.1,2,2,2,0,0,0,.92,1.76,9.05,9.05,0,0,0,2.29,1.13c.91.31,1.91.63,3,1a12.9,12.9,0,0,1,3,1.34,7.47,7.47,0,0,1,2.27,2.21,6.41,6.41,0,0,1,.91,3.6,10.21,10.21,0,0,1-.53,3.41,6.39,6.39,0,0,1-1.68,2.63,8.06,8.06,0,0,1-3,1.68,13.67,13.67,0,0,1-4.31.6,19.57,19.57,0,0,1-4.36-.46,12.36,12.36,0,0,1-3.66-1.46L190,59a11.51,11.51,0,0,0,3.56,1.5,15.76,15.76,0,0,0,3.81.51,5,5,0,0,0,3.41-.94,3.05,3.05,0,0,0,1-2.35,2.25,2.25,0,0,0-.92-1.93,8.6,8.6,0,0,0-2.33-1.21c-.94-.34-1.95-.68-3-1a13.73,13.73,0,0,1-3-1.33A7.09,7.09,0,0,1,190.15,50,6.44,6.44,0,0,1,189.23,46.42Z" style="fill:#fff"/><path d="M7.05,46.4a2.54,2.54,0,0,0-.11,1.48C9,54.25,11.12,60.51,15.65,66a8.7,8.7,0,0,0,1,1c3.68,3.24,6.11,3.17,7-1.63A52.64,52.64,0,0,0,24,57.48c-.83-.52-1.64-1-2.42-1.57C18.54,53.86,10.11,48.39,7.05,46.4Z" style="fill:#fff"/><path d="M10.66,44.23c8.49-2.43,17-4.94,25.42-7.39a4.71,4.71,0,0,1,2.58-.2c8.22,2.79,15.35,7.21,19.4,15.18,3.81,7.51,0,13.18-8.48,13.42a30.28,30.28,0,0,1-15.94-4.39c-2.62-1.49-6.1-3.48-9-5.47C20.84,52.85,8.91,45.14,8.91,45.14l1.75-.91" style="fill:#fff"/><path d="M12.78,21.73a51.15,51.15,0,0,0-5.49-7.2c-2.62-2.47-6-2.34-7.08,3A8.43,8.43,0,0,0,0,19.08c-.22,8,1.35,14.31,4.47,22.35a3.29,3.29,0,0,0,.6.84C6.62,38,11,25.73,11.49,24.58S12.39,22.58,12.78,21.73Z" style="fill:#fff"/><path d="M8.53,42.33C17.4,39.68,25,37.56,33.88,34.92a5,5,0,0,0,2.39-1.28C42,26.52,45.76,18.58,44.84,9.25,44,.44,37.41-2.43,29.75,2.17c-5.2,3.13-8.83,7.65-11.62,12.91-1.47,2.79-2.33,4.65-3.84,8-.63,1.4-6.94,19.18-6.94,19.18Z" style="fill:#fff"/></svg>