<svg enable-background="new 0 0 512 512" version="1.1" viewBox="0 0 512 512" xml:space="preserve" xmlns="http://www.w3.org/2000/svg"><path d="M446,0H66C29.6,0,0,29.6,0,66v380c0,36.4,29.6,66,66,66h380c36.4,0,66-29.6,66-66V66C512,29.6,482.4,0,446,0z M492,446    c0,25.4-20.6,46-46,46H66c-25.4,0-46-20.6-46-46V66c0-25.4,20.6-46,46-46h380c25.4,0,46,20.6,46,46V446z"/><path d="m412.4 210.2c-14.2-16.3-33.8-24.5-58.4-24.5-17.7 0-33.1 3.6-45.7 10.8-6.1 3.5-12.1 8.1-18.1 13.7v-9.5c0-5.5-4.5-10-10-10h-72.8c-5.5 0-10 4.5-10 10v222.5c0 5.5 4.5 10 10 10h72.3c5.5 0 10-4.5 10-10v-126.1c0-16.8 12.3-30.6 28.1-31.5l2.5-0.1c6.2-0.3 12.1 1.9 16.8 6.3 5 4.8 7.9 11.6 7.9 18.8v132.7c0 5.5 4.5 10 10 10h68.1c5.5 0 10-4.5 10-10v-141.5c0.2-31.7-6.8-55.8-20.7-71.6zm0.9 203h-48.1v-122.7c0-12.7-5.2-24.8-14.2-33.3-8.7-8.2-19.9-12.4-31.6-11.7l-2.5 0.1c-26.4 1.4-47 24.1-47 51.5v116.2h-52.3v-202.6h52.8v26.3c0 4.3 2.8 8.2 6.9 9.5s8.6-0.1 11.2-3.6c10-13.6 20.1-23.3 29.9-29 9.6-5.5 21.6-8.2 35.8-8.2 18.8 0 32.9 5.8 43.3 17.6 10.5 12.1 15.9 31.8 15.9 58.5l-0.1 131.4z"/><path d="m165.9 190.7h-72.8c-5.5 0-10 4.5-10 10v83.3c0 5.5 4.5 10 10 10s10-4.5 10-10v-73.3h52.8v202.5h-52.8v-44.2c0-5.5-4.5-10-10-10s-10 4.5-10 10v54.2c0 5.5 4.5 10 10 10h72.8c5.5 0 10-4.5 10-10v-222.5c0-5.5-4.5-10-10-10z"/><path d="m129.5 78.8c-28 0-50.7 22.8-50.7 50.7s22.8 50.7 50.7 50.7 50.7-22.8 50.7-50.7-22.8-50.7-50.7-50.7zm0 81.4c-16.9 0-30.7-13.8-30.7-30.7s13.8-30.7 30.7-30.7 30.7 13.8 30.7 30.7-13.8 30.7-30.7 30.7z"/></svg>