<svg enable-background="new 0 0 102 102" version="1.1" viewBox="0 0 102 102" xml:space="preserve" xmlns="http://www.w3.org/2000/svg"><path d="m93.1 92.8h-2.6v9.8h-3.5v-9.8h-3.2v9.8h-3.5v-9.8h-59.2v9.8h-3.5v-9.8h-3.2v9.8h-3.4v-9.8h-3c-3.4 0-6.3-2.5-6.3-5.5s2.8-5.5 6.3-5.5h85.1c3.4 0 6.3 2.5 6.3 5.5s-2.8 5.5-6.3 5.5zm0-7.6h-85.1c-1.5 0-2.8 0.9-2.8 2s1.2 2 2.8 2h85.1c1.5 0 2.8-0.9 2.8-2 0-1-1.2-2-2.8-2zm-4.6-7.9c-3.7 0-6.8-2.2-7.8-5.2v1.5c0 0.1 0.1 2.5-1.7 4.4-1 1-2.3 1.6-3.9 1.8h-0.3-39.4c-4-0.3-5.8-2.4-5.8-4.3 0-0.5 0.1-1 0.4-1.4 0.7-1.3 2.8-2.9 6.4-2.9h12.7v-5.8l-12.7 1-16.8 3.4v3.8h9.3v3.4h-12.8v-10.3l20-3.9 14.5-1.1h19.3c3.3 0 6.3 1.1 8.3 3.1 1.2 1.2 2.1 2.7 2.4 4.4 0.5-3.5 3.9-6.2 8-6.2 4.5 0 8.1 3.2 8.1 7.1s-3.7 7.2-8.2 7.2zm-11.2-5.7c0-1.7-0.6-3.2-1.7-4.2-1.4-1.4-3.4-2.1-5.8-2.1h-17.2v5.9h19.4v3.5h-35.6c-1.7 0-2.8 0.5-3.2 0.9 0.3 0.3 1.1 0.7 2.5 0.8h0.8 37.6c1.1 0 1.9-0.3 2.4-0.8 0.7-0.8 0.8-1.9 0.8-2v-2zm11.2-5c-2.6 0-4.6 1.6-4.6 3.6s2.1 3.6 4.6 3.6c2.6 0 4.6-1.6 4.6-3.6 0.1-2-2-3.6-4.6-3.6zm-35.5-29.3h9.4v-1.5h3.5v2.6c0 1.3-1 2.3-2.3 2.3h-10.6v-3.4zm14 14l0.9 8.1-3.4 0.4-0.8-6.9-0.2-2.9v-3h3.5v4.3zm-14-9.3h13.5c0.3 0 0.6-0.3 0.6-0.6v-5.6h3.5v5.6c0 2.2-1.8 4-4 4h-13.6v-3.4zm8.8-16.1h3.5v3.8h2.3v-3.5c0-3.4-2.7-6.1-6.1-6.1h-9c-1.4 0-3.7 0.3-6.5 3.4l-8.9 9.5-2.5-2.4 8.9-9.5c2.8-3 5.7-4.5 9-4.5h1.3c-2.8-1.2-4.7-4.2-4.7-7.8 0-4.6 3.3-8.3 7.3-8.3s7.3 3.7 7.3 8.3c0 3.6-2 6.6-4.7 7.8h2.6c5.3 0 9.5 4.3 9.5 9.6v6.9h-9.2v-7.2zm-1.6-17c0-2.7-1.7-4.9-3.8-4.9s-3.8 2.2-3.8 4.9 1.7 4.9 3.8 4.9 3.8-2.2 3.8-4.9zm-13.5 23.1l-1.3 1.3-2.5-2.3 7.3-7.5v9.6h-3.5v-1.1zm-20.6 3.6h18.5c0.3 0 0.5 0 0.7 0.1 3.2 0.4 5.6 2.9 5.6 5.8v17.2h-3.5v-17.3c0-1.2-1.1-2.2-2.6-2.4h-0.1-0.2-15v3l11.9 2-3.4 15.7-3.4-0.7 2.7-12-11.2-1.9v-9.5zm-7.9 1.6l1 2.8c0.2 0.6 0.6 1 1.1 1.3 0.4 0.2 0.9 0.2 1.3 0.1l0.3-0.1h1.4v1.5l0.7 1.6-1.2 0.3c-0.6 0.2-1.2 0.3-1.8 0.3-0.8 0-1.6-0.2-2.3-0.5-1.4-0.6-2.4-1.8-2.9-3.3l-1.8-5.6c-0.6-1.9-0.4-3.2 0.6-3.9 1.1-0.7 2.3-0.4 3.8 0.9l5.8 5.3-2.3 2.6-3.7-3.3zm-6.3 35.4l1-0.2 0.7 3.4-1 0.2c-0.4 0.1-0.7 0.1-1.1 0.1-1.1 0-2.1-0.3-3.1-0.9l-4.9-3.2c-1.7-1.1-2.3-2.2-1.9-3.4s1.6-1.7 3.6-1.6l8.3 0.5-0.3 3.5-5.4-0.4 2.5 1.6c0.5 0.4 1.1 0.5 1.6 0.4z"/></svg>