<svg enable-background="new 0 0 102 102" version="1.1" viewBox="0 0 102 102" xml:space="preserve" xmlns="http://www.w3.org/2000/svg"><path d="m43.8 90.4c1.4 0 2.5-1.1 2.5-2.5v-8.4h5.8c1.4 0 2.5-1.1 2.5-2.5v-8.3c0-1.4-1.1-2.5-2.5-2.5h-16.6c-1.4 0-2.5 1.1-2.5 2.5v8.3c0 1.4 1.1 2.5 2.5 2.5h5.8v5.8c-19.7-1.2-35.4-17.8-35.4-37.9s15.7-36.6 35.4-37.8v6.6h-5.8c-1 0-1.9 0.6-2.3 1.5l-3.4 8.3c-0.3 0.8-0.2 1.7 0.2 2.3 0.5 0.7 1.2 1.1 2.1 1.1h23.5c0.8 0 1.6-0.4 2.1-1.1s0.5-1.6 0.2-2.3l-3.5-8.3c-0.4-0.9-1.3-1.5-2.3-1.5h-5.8v-9.2c0-1.4-1.1-2.5-2.5-2.5-23.7 0-43 19.3-43 43 0.1 23.6 19.3 42.9 43 42.9zm-5.8-19.1h11.6v3.3h-11.6v-3.3zm13.9-46.8h-16l1.4-3.3h13.3l1.3 3.3z"/><path d="m99.1 51.3h-75.7c-1.4 0-2.5 1.1-2.5 2.5v7.6c0 1.4 1.1 2.5 2.5 2.5h75.7c1.4 0 2.5-1.1 2.5-2.5v-7.6c0-1.4-1.1-2.5-2.5-2.5zm-2.5 7.6h-70.7v-2.6h70.7v2.6z"/><path d="m99.1 92.5h-5.9v-5.3c0-1.4-1.1-2.5-2.5-2.5h-34.4c-1.4 0-2.5 1.1-2.5 2.5v5.3h-50.9c-1.4 0-2.5 1.1-2.5 2.5s1.1 2.5 2.5 2.5h96.2c1.4 0 2.5-1.1 2.5-2.5s-1.1-2.5-2.5-2.5zm-40.3-2.8h29.4v2.8h-29.4v-2.8z"/><path d="m87.7 81v-13c0-1.4-1.1-2.5-2.5-2.5s-2.5 1.1-2.5 2.5v13c0 1.4 1.1 2.5 2.5 2.5s2.5-1.1 2.5-2.5z"/><path d="m79.9 81v-13c0-1.4-1.1-2.5-2.5-2.5s-2.5 1.1-2.5 2.5v13c0 1.4 1.1 2.5 2.5 2.5s2.5-1.1 2.5-2.5z"/><path d="m40.4 36.5c-1.4 0.3-2.2 1.6-2 2.9 0.3 1.4 1.6 2.2 2.9 2 7.7-1.5 12.3-2.3 19.2-1.3l31.9 3.9c0.8 0.1 1.5-0.2 2-0.7v1.6h-53.5c-1.4 0-2.5 1.1-2.5 2.5s1.1 2.5 2.5 2.5h56c1.4 0 2.5-1.1 2.5-2.5v-8.8c0-1.5-0.9-2.8-2.2-3.4s-2.9-0.4-4 0.6c-0.2 0.2-0.4 0.4-0.5 0.6l-1.3 2.4-30.1-3.7c-8-1.1-13.7 0-20.9 1.4z"/><path d="m30.5 34.4c-4.5 0-8.3 3.7-8.3 8.3 0 4.5 3.7 8.3 8.3 8.3 4.5 0 8.3-3.7 8.3-8.3s-3.7-8.3-8.3-8.3zm0 11.5c-1.8 0-3.3-1.5-3.3-3.3s1.5-3.3 3.3-3.3 3.3 1.5 3.3 3.3-1.5 3.3-3.3 3.3z"/></svg>