<svg enable-background="new 0 0 90 90" version="1.1" viewBox="0 0 90 90" xml:space="preserve" xmlns="http://www.w3.org/2000/svg"><path d="m29.1 20.5h-5.1c-0.8 0-1.5 0.7-1.5 1.5v8.1c0 0.8 0.7 1.5 1.5 1.5h5.1c0.8 0 1.5-0.7 1.5-1.5v-8.1c-0.1-0.8-0.7-1.5-1.5-1.5zm-1.5 8.1h-2.2v-5.1h2.2v5.1z"/><path d="m39.4 20.5h-5.1c-0.8 0-1.5 0.7-1.5 1.5v8.1c0 0.8 0.7 1.5 1.5 1.5h5.1c0.8 0 1.5-0.7 1.5-1.5v-8.1c-0.1-0.8-0.7-1.5-1.5-1.5zm-1.5 8.1h-2.2v-5.1h2.2v5.1z"/><path d="m29.1 34.9h-5.1c-0.8 0-1.5 0.7-1.5 1.5v8.1c0 0.8 0.7 1.5 1.5 1.5h5.1c0.8 0 1.5-0.7 1.5-1.5v-8.1c-0.1-0.8-0.7-1.5-1.5-1.5zm-1.5 8.1h-2.2v-5.1h2.2v5.1z"/><path d="m39.4 34.9h-5.1c-0.8 0-1.5 0.7-1.5 1.5v8.1c0 0.8 0.7 1.5 1.5 1.5h5.1c0.8 0 1.5-0.7 1.5-1.5v-8.1c-0.1-0.8-0.7-1.5-1.5-1.5zm-1.5 8.1h-2.2v-5.1h2.2v5.1z"/><path d="m29.1 49.3h-5.1c-0.8 0-1.5 0.7-1.5 1.5v8.1c0 0.8 0.7 1.5 1.5 1.5h5.1c0.8 0 1.5-0.7 1.5-1.5v-8.1c-0.1-0.8-0.7-1.5-1.5-1.5zm-1.5 8.1h-2.2v-5.1h2.2v5.1z"/><path d="m39.4 49.3h-5.1c-0.8 0-1.5 0.7-1.5 1.5v8.1c0 0.8 0.7 1.5 1.5 1.5h5.1c0.8 0 1.5-0.7 1.5-1.5v-8.1c-0.1-0.8-0.7-1.5-1.5-1.5zm-1.5 8.1h-2.2v-5.1h2.2v5.1z"/><path d="m29.1 63.7h-5.1c-0.8 0-1.5 0.7-1.5 1.5v8.1c0 0.8 0.7 1.5 1.5 1.5h5.1c0.8 0 1.5-0.7 1.5-1.5v-8.1c-0.1-0.8-0.7-1.5-1.5-1.5zm-1.5 8.1h-2.2v-5.1h2.2v5.1z"/><path d="m39.4 63.7h-5.1c-0.8 0-1.5 0.7-1.5 1.5v8.1c0 0.8 0.7 1.5 1.5 1.5h5.1c0.8 0 1.5-0.7 1.5-1.5v-8.1c-0.1-0.8-0.7-1.5-1.5-1.5zm-1.5 8.1h-2.2v-5.1h2.2v5.1z"/><path d="m76.4 78.1h-4v-49.8c0-0.8-0.7-1.5-1.5-1.5h-24.4v-10c0-0.7-0.5-1.3-1.1-1.4l-26.8-6.4c-0.4-0.1-0.9 0-1.2 0.3-0.4 0.3-0.6 0.7-0.6 1.2v67.6h-3.2c-0.8 0-1.5 0.7-1.5 1.5s0.7 1.5 1.5 1.5h62.7c0.8 0 1.5-0.7 1.5-1.5s-0.6-1.5-1.4-1.5zm-32.9-49.8v49.8h-23.8v-65.8l23.8 5.7v10.3zm25.9 49.8h-22.9v-6.7h13.8c0.8 0 1.5-0.7 1.5-1.5s-0.7-1.5-1.5-1.5h-13.8v-4h13.8c0.8 0 1.5-0.7 1.5-1.5s-0.7-1.5-1.5-1.5h-13.8v-4h13.8c0.8 0 1.5-0.7 1.5-1.5s-0.7-1.5-1.5-1.5h-13.8v-4h13.8c0.8 0 1.5-0.7 1.5-1.5s-0.7-1.5-1.5-1.5h-13.8v-4h13.8c0.8 0 1.5-0.7 1.5-1.5s-0.7-1.5-1.5-1.5h-13.8v-4h13.8c0.8 0 1.5-0.7 1.5-1.5s-0.7-1.5-1.5-1.5h-13.8v-4h22.9v48.7z"/></svg>