<svg enable-background="new 0 0 90 90" version="1.1" viewBox="0 0 90 90" xml:space="preserve" xmlns="http://www.w3.org/2000/svg"><style type="text/css">.icon-grupo-redecredenciada{stroke-width:2;stroke-miterlimit:10;}</style><polygon class="icon-grupo-redecredenciada" style="" points="54.7 16.5 48.8 16.5 48.8 10.6 41.8 10.6 41.8 16.5 35.9 16.5 35.9 23.5 41.8 23.5 41.8 29.4 48.8 29.4 48.8 23.5 54.7 23.5"/><circle class="icon-grupo-redecredenciada" cx="45.3" cy="31.7" r="2.3"/><rect class="icon-grupo-redecredenciada" x="30.1" y="34.1" width="30.5" height="45.7"/><rect class="icon-grupo-redecredenciada" x="11.3" y="47" width="18.8" height="32.8"/><rect class="icon-grupo-redecredenciada" x="60.5" y="47" width="18.8" height="32.8"/><rect class="icon-grupo-redecredenciada" x="35.9" y="63.4" width="18.8" height="16.4"/><path class="icon-grupo-redecredenciada" d="m45.3 79.8"/><path class="icon-grupo-redecredenciada" d="m45.3 63.4"/><line class="icon-grupo-redecredenciada" x1="64.1" x2="68.8" y1="51.7" y2="51.7"/><line class="icon-grupo-redecredenciada" x1="75.8" x2="71.1" y1="51.7" y2="51.7"/><path class="icon-grupo-redecredenciada" d="m68.8 56.4"/><path class="icon-grupo-redecredenciada" d="m64.1 56.4"/><path class="icon-grupo-redecredenciada" d="m71.1 56.4"/><path class="icon-grupo-redecredenciada" d="m75.8 56.4"/><line class="icon-grupo-redecredenciada" x1="64.1" x2="68.8" y1="61.1" y2="61.1"/><line class="icon-grupo-redecredenciada" x1="75.8" x2="71.1" y1="61.1" y2="61.1"/><path class="icon-grupo-redecredenciada" d="m68.8 65.7"/><path class="icon-grupo-redecredenciada" d="m64.1 65.7"/><path class="icon-grupo-redecredenciada" d="m71.1 65.7"/><path class="icon-grupo-redecredenciada" d="m75.8 65.7"/><line class="icon-grupo-redecredenciada" x1="64.1" x2="68.8" y1="70.4" y2="70.4"/><line class="icon-grupo-redecredenciada" x1="75.8" x2="71.1" y1="70.4" y2="70.4"/><path class="icon-grupo-redecredenciada" d="m68.8 75.1"/><path class="icon-grupo-redecredenciada" d="m64.1 75.1"/><path class="icon-grupo-redecredenciada" d="m71.1 75.1"/><path class="icon-grupo-redecredenciada" d="m75.8 75.1"/><line class="icon-grupo-redecredenciada" x1="14.8" x2="19.5" y1="51.7" y2="51.7"/><line class="icon-grupo-redecredenciada" x1="26.5" x2="21.9" y1="51.7" y2="51.7"/><path class="icon-grupo-redecredenciada" d="m19.5 56.4"/><path class="icon-grupo-redecredenciada" d="m21.9 56.4"/><path class="icon-grupo-redecredenciada" d="m26.5 56.4"/><line class="icon-grupo-redecredenciada" x1="14.8" x2="19.5" y1="61.1" y2="61.1"/><line class="icon-grupo-redecredenciada" x1="26.5" x2="21.9" y1="61.1" y2="61.1"/><path class="icon-grupo-redecredenciada" d="m19.5 65.7"/><path class="icon-grupo-redecredenciada" d="m14.8 65.7"/><path class="icon-grupo-redecredenciada" d="m21.9 65.7"/><path class="icon-grupo-redecredenciada" d="m26.5 65.7"/><line class="icon-grupo-redecredenciada" x1="14.8" x2="19.5" y1="70.4" y2="70.4"/><line class="icon-grupo-redecredenciada" x1="26.5" x2="21.9" y1="70.4" y2="70.4"/><path class="icon-grupo-redecredenciada" d="m19.5 75.1"/><path class="icon-grupo-redecredenciada" d="m14.8 75.1"/><path class="icon-grupo-redecredenciada" d="m21.9 75.1"/><path class="icon-grupo-redecredenciada" d="m26.5 75.1"/><line class="icon-grupo-redecredenciada" x1="33.6" x2="57" y1="38.8" y2="38.8"/><path class="icon-grupo-redecredenciada" d="m57 43.5"/><path class="icon-grupo-redecredenciada" d="m33.6 43.5"/><line class="icon-grupo-redecredenciada" x1="33.6" x2="57" y1="48.2" y2="48.2"/><path class="icon-grupo-redecredenciada" d="m57 52.9"/><path class="icon-grupo-redecredenciada" d="m33.6 52.9"/><line class="icon-grupo-redecredenciada" x1="33.6" x2="57" y1="57.5" y2="57.5"/></svg>