<svg enable-background="new 0 0 90 90" version="1.1" viewBox="0 0 90 90" xml:space="preserve" xmlns="http://www.w3.org/2000/svg"><path d="m39 56.7l-4.7-2.1v-9.6c0-2.2-1.8-3.9-3.9-3.9h-0.1c-0.4 0-0.8 0.1-1.1 0.2v-4.1c0-2.2-1.8-3.9-3.9-3.9h-0.1c-0.4 0-0.8 0.1-1.1 0.2v-0.1c0-2.2-1.8-3.9-3.9-3.9h-0.1c-1.5 0.1-2.8 0.9-3.4 2.2-0.4-0.2-0.9-0.3-1.4-0.4-1.1-0.1-2.2 0.4-3 1.1-0.7 0.6-1 1.5-1 2.3v14.5c0 2.5 0.6 4.9 1.8 7.1l4 7.1c1 1.7 2.4 3.1 4.2 3.9l5 2.9v7.4c0 0.7 0.6 1.3 1.3 1.3h14.2c0.7 0 1.3-0.6 1.3-1.3v-15c-0.1-2.6-1.7-4.9-4.1-5.9zm-9.9-11.7c0-0.7 0.5-1.2 1.2-1.2h0.1c0.7 0 1.2 0.6 1.2 1.2v8.3l-2.5-1.1v-7.2zm-5.1-7.7c0-0.7 0.5-1.2 1.2-1.2h0.1c0.7 0 1.2 0.6 1.2 1.2v12.6l-2.5-2.6v-10zm-5.2-3.9c0-0.7 0.5-1.2 1.2-1.2s1.2 0.6 1.2 1.2v12c-0.8-0.2-1.7-0.2-2.5 0.1l0.1-12.1zm10 42.9v-6.8c0-0.5-0.3-0.9-0.7-1.2l-5.8-3.3s-0.1 0-0.1-0.1c-1.3-0.6-2.4-1.5-3-2.8l-4-7.1c-1-1.8-1.5-3.8-1.5-5.8v-14.5c0-0.1 0.1-0.3 0.2-0.4 0.3-0.3 0.7-0.4 1.1-0.4 0.7 0 1.2 0.6 1.2 1.3v13c0 0.2-0.1 0.3-0.1 0.5-0.2 1.3 0.2 2.6 1.1 3.6l5.4 5.8c0.5 0.5 1.3 0.6 1.9 0.1 0.5-0.5 0.6-1.3 0.1-1.9l-5.4-5.8c-0.3-0.3-0.5-0.8-0.4-1.3 0.1-0.3 0.2-0.6 0.4-0.8 0 0 0.1-0.1 0.2-0.1 0.6-0.5 1.5-0.4 2 0.1l12.1 12.3c0.3 0.3 0.6 0.4 0.9 0.4s0.7-0.1 0.9-0.4c0.5-0.5 0.5-1.4 0-1.9l-1.5-1.5 4.1 1.9c1.4 0.6 2.4 2 2.4 3.5v13.7l-11.5-0.1z"/><path d="m79 34.8c0-0.9-0.4-1.7-1-2.3-0.8-0.7-1.9-1.2-3-1.1-0.5 0-1 0.1-1.4 0.4-0.6-1.3-1.9-2.2-3.4-2.2h-0.1c-2.2 0-3.9 1.8-3.9 3.9v0.1c-0.3-0.1-0.7-0.2-1.1-0.2h-0.1c-2.2 0-3.9 1.8-3.9 3.9v4.1c-0.3-0.1-0.7-0.2-1.1-0.2h-0.1c-2.2 0-3.9 1.8-3.9 3.9v9.5l-5 2.1c-2.4 1-4 3.4-4 6v15c0 0.7 0.6 1.3 1.3 1.3h14.2c0.7 0 1.3-0.6 1.3-1.3v-7.4l5-2.9c1.8-0.8 3.3-2.2 4.2-3.9l4-7.1c1.2-2.2 1.9-4.6 1.9-7.1 0.1-4.1 0.1-11.4 0.1-14.5zm-10.3-1.4c0-0.7 0.6-1.2 1.2-1.2h0.1c0.7 0 1.2 0.6 1.2 1.2v12c-0.8-0.3-1.7-0.3-2.5-0.1v-11.9zm-3.9 2.6c0.7 0 1.2 0.6 1.2 1.2v10.1l-2.5 2.5v-12.5c0-0.7 0.6-1.3 1.3-1.3zm-5.2 7.8c0.7 0 1.2 0.6 1.2 1.2v7.2l-2.5 1.1v-8.3c0.1-0.7 0.6-1.2 1.3-1.2zm15.2 11.3l-4 7.1c-0.7 1.2-1.8 2.2-3 2.8 0 0-0.1 0-0.1 0.1l-5.8 3.3c-0.4 0.2-0.7 0.7-0.7 1.2v6.8h-11.5v-13.7c0-1.6 0.9-2.9 2.4-3.5l4.1-1.9-1.5 1.5c-0.5 0.5-0.5 1.4 0 1.9 0.3 0.3 0.6 0.4 0.9 0.4s0.7-0.1 0.9-0.4l12.1-12.3c0.5-0.6 1.4-0.6 2-0.1 0 0 0.1 0.1 0.2 0.1 0.2 0.2 0.4 0.5 0.4 0.8 0.1 0.5-0.1 1-0.4 1.3l-5.4 5.8c-0.5 0.5-0.5 1.4 0.1 1.9 0.5 0.5 1.4 0.5 1.9-0.1l5.4-5.8c0.9-0.9 1.3-2.3 1.1-3.6 0-0.2-0.1-0.3-0.1-0.5v-13c0-0.7 0.5-1.3 1.2-1.3 0.4 0 0.8 0.1 1.1 0.4 0.1 0.1 0.2 0.3 0.2 0.4v14.5c0 2.1-0.5 4.2-1.5 5.9z"/><path d="m65.1 20.9c-0.7-3.4-2.6-6.3-5.2-8.1-2.5-1.7-5.5-2.2-8.6-1.5-2.7 0.6-4.1 2.1-6.1 4.2-0.1 0.1-0.2 0.2-0.2 0.3-0.1-0.1-0.2-0.2-0.2-0.3-2-2.1-3.4-3.6-6.1-4.2-3.1-0.7-6.1-0.2-8.6 1.5-2.6 1.8-4.5 4.7-5.2 8.1-0.8 3.5-0.3 7.2 1.4 10.5 1.3 2.7 4.8 6 10.3 9.9 2.1 1.5 4.1 2.8 5.4 3.6 2.6 1.6 2.7 1.6 3.1 1.6s0.5 0 3.1-1.6c1.3-0.8 3.3-2.1 5.4-3.6 5.5-3.9 8.9-7.2 10.3-9.9 1.5-3.2 2-7 1.2-10.5zm-3.7 9.4c-2.5 4.8-13.5 11.8-16.4 13.4-2.9-1.7-13.9-8.6-16.4-13.5-1.4-2.7-1.8-5.9-1.2-8.8 0.6-2.8 2.1-5.1 4.1-6.5 1.3-0.9 2.9-1.4 4.5-1.4 0.7 0 1.4 0.1 2.1 0.3 1.9 0.5 2.9 1.5 4.7 3.5 0.4 0.4 0.8 0.8 1.2 1.3 0.3 0.3 0.6 0.4 1 0.4s0.7-0.1 1-0.4c0.4-0.5 0.8-0.9 1.2-1.3 1.8-1.9 2.8-3 4.7-3.5 2.4-0.6 4.6-0.2 6.5 1.1 2 1.4 3.5 3.7 4.1 6.5 0.6 3 0.2 6.1-1.1 8.9z"/></svg>