<svg enable-background="new 0 0 90 90" version="1.1" viewBox="0 0 90 90" xml:space="preserve" xmlns="http://www.w3.org/2000/svg"><path class="fill-none" d="M0,0h90v90H0V0z"/><path d="m51.8 11.2c-0.8 0-1.5 0.2-2.2 0.6l-19.5 11.3-0.1 0.1c-0.7 0.5-1.4 1.2-1.7 2.2v0.1l-10.2 37.8c-1 3.6 1.2 7.4 4.8 8.4 0.5 0.1 1 0 1.4-0.3 0.4-0.4 0.5-0.9 0.4-1.4s-0.5-0.9-1-1c-2.2-0.6-3.4-2.7-2.8-4.9l10.1-37.8c0.1-0.3 0.2-0.4 0.6-0.7l19.4-11.3c0.3-0.2 0.6-0.2 0.9-0.2 0.1 0 0.3 0.1 0.5 0.2l0.1 0.1 0.1 0.1c0.1 0.1 0.2 0.2 0.2 0.3l11.3 19.5c0.2 0.3 0.2 0.5 0.1 0.9l-10.1 37.8c-0.6 2.1-2.7 3.3-5 2.8l-18.7-5c-0.5-0.1-1 0-1.4 0.4s-0.5 0.9-0.4 1.4 0.5 0.9 1 1l18.8 5h0.1c3.6 0.8 7.3-1.2 8.3-4.8l10.1-37.9v-0.1c0.2-0.9 0-1.9-0.5-2.8l-6.1-10.5 8.5 8.6c0.2 0.2 0.3 0.5 0.4 0.8v36.2c0 2.3-1.8 4-4 4h-3.7c-0.5 0-1 0.3-1.2 0.7-0.3 0.4-0.3 1 0 1.4s0.7 0.7 1.2 0.7h3.7c3.8 0 6.8-3.1 6.8-6.8v-36.3-0.1c-0.1-0.9-0.5-1.9-1.2-2.6l-16.3-16.7-0.2-0.2c-0.5-0.5-1.1-0.8-1.7-0.9-0.3 0-0.6 0-0.8-0.1zm-2.6 8.5c-2.7 0-4.8 2.2-4.8 4.8 0 2.7 2.2 4.8 4.8 4.8 2.7 0 4.8-2.2 4.9-4.8-0.1-2.7-2.2-4.8-4.9-4.8zm0 2.8c1.1 0 2 0.9 2 2s-0.9 2-2 2-2-0.9-2-2 0.9-2 2-2z"/></svg>