<?xml version="1.0" encoding="UTF-8"?><svg enable-background="new 0 0 90 90" version="1.1" viewBox="0 0 90 90" xml:space="preserve" xmlns="http://www.w3.org/2000/svg"><style type="text/css">.icon-universidade{fill:none;stroke:#000000;stroke-width:1.8;stroke-linecap:round;stroke-linejoin:round;stroke-miterlimit:10;}</style><path class="icon-universidade" d="m82.7 73.6l-10.4 5.2 2.6-15.6h5.2l2.6 10.4zm-2.6-10.4h-5.2v-2.6c0-1.4 1.2-2.6 2.6-2.6s2.6 1.2 2.6 2.6v2.6zm-2.6-5.2v-25l-32.5-6.2m22.1 18.2c0 7.2-9.9 13-22.1 13s-22.1-5.8-22.1-13m44.2-7.9v13.1c0 7.2-9.9 13-22.1 13s-22.1-5.8-22.1-13v-13.1m24.8-25.3c-1.8-0.8-3.8-0.8-5.6 0l-36.4 15.8c-1.3 0.5-1.3 2.4 0.1 2.9l35.7 13.9c2.2 0.9 4.7 0.9 6.9 0l35.9-14c1.3-0.5 1.3-2.2 0.1-2.8l-36.7-15.8z"/></svg>
