<svg enable-background="new 0 0 90 90" version="1.1" viewBox="0 0 90 90" xml:space="preserve" xmlns="http://www.w3.org/2000/svg"><path d="m73.5 77.4l-6-24.1c-1.2-4.7-4.6-7.2-9.6-7.2h-5.2l-1.4-3.6c0.3-0.4 0.7-0.7 1-1.2 1.7-2.1 3.1-4.9 3.8-7.6 0.1-0.4 0.3-0.9 0.3-1.4 5.2-2.7 6.2-7 5.5-10.2-1-4.4-5.3-7.4-10.4-7.5-4-4.2-8.2-3-11.5-2.1-3.4 1-5.5 1.4-7.6-1.3-0.2-0.3-0.5-0.5-0.9-0.5s-0.7 0.1-1 0.3c-3.1 2.4-4.6 5.9-4.4 9.8 0.3 4.3 2.7 8.4 6.5 10.9 0.2 2.6 1.5 5.7 3.5 8.4 0.7 0.9 1.4 1.7 2.1 2.3l-1.2 3.8h-5.2c-1.2 0-3.3 0.5-5.2 1.5-2.5 1.4-4.1 3.5-4.7 6.1l-5.3 23.7c-0.1 0.4 0 0.8 0.3 1.1s0.6 0.5 1 0.5h54.3c0.4 0 0.8-0.2 1-0.5 0.3-0.3 0.4-0.8 0.3-1.2zm-41-52.4v3.5c-2.2-2-3.6-4.8-3.8-7.6-0.2-2.6 0.7-4.9 2.5-6.7 1.3 1.2 2.7 1.9 4.4 2s3.5-0.4 5.1-0.9c3.3-1 6.1-1.8 9.2 1.7 0.3 0.3 0.6 0.5 1 0.5 4.8-0.1 7.7 2.7 8.3 5.4 0.6 2.4-0.4 4.6-2.7 6.3v-2.4-1.7c0-0.6-0.5-1.2-1.1-1.3-3.1-0.6-4.6-1.2-6.8-3.5-0.4-0.4-1.1-0.5-1.6-0.3-4.9 2.6-8.4 3.5-13.3 3.7-0.6 0-1.2 0.6-1.2 1.3zm2.7 6.1v-4.9c4.4-0.2 7.8-1.2 12.2-3.4 2.1 2 3.9 2.8 6.4 3.3v0.7c0.1 2.1 0.1 4.7-0.4 6.2v0.1c-0.7 2.5-2.3 6-4.6 8.1-0.1 0-0.1 0.1-0.2 0.2-1.2 1.1-2.6 1.8-4.1 1.8-1.3-0.1-2.6-0.8-4-1.9l-0.1-0.1c-0.8-0.7-1.6-1.5-2.3-2.5-1.8-2.5-2.9-5.4-2.9-7.6zm14.9 15.8l-5.1 2.8-5.4-2.8 0.9-2.5c1.3 0.8 2.7 1.3 4 1.4h0.1c1.6 0 3.1-0.5 4.6-1.4l0.9 2.5zm-16.9 9c0.9 0 1.7 0.7 1.7 1.7 0 0.9-0.7 1.7-1.7 1.7s-1.7-0.7-1.7-1.7 0.8-1.7 1.7-1.7zm1.3 20.5v-5.8c0-0.7-0.6-1.3-1.3-1.3s-1.3 0.6-1.3 1.3v5.8h-12.4l5-22.1c0.9-4.2 5.7-5.5 7.3-5.5h0.1v4.6c-1.7 0.6-3 2.2-3 4.1 0 2.4 1.9 4.3 4.3 4.3s4.3-1.9 4.3-4.3c0-1.9-1.3-3.6-3-4.1v-4.6h3l6.8 3.5c0.2 0.1 0.4 0.2 0.6 0.2s0.4-0.1 0.6-0.2l6.4-3.5h5.7c3.8 0 6.2 1.7 7.1 5.2l5.6 22.4h-35.8z"/><path d="m60.2 56.3h-2.2v-2.2c0-0.7-0.6-1.3-1.3-1.3h-4.3c-0.7 0-1.3 0.6-1.3 1.3v2.2h-2.2c-0.7 0-1.3 0.6-1.3 1.3v4.3c0 0.7 0.6 1.3 1.3 1.3h2.2v2.2c0 0.7 0.6 1.3 1.3 1.3h4.3c0.7 0 1.3-0.6 1.3-1.3v-2.2h2.2c0.7 0 1.3-0.6 1.3-1.3v-4.3c0.1-0.7-0.5-1.3-1.3-1.3zm-1.3 4.3h-2.2c-0.7 0-1.3 0.6-1.3 1.3v2.2h-1.6v-2.2c0-0.7-0.6-1.3-1.3-1.3h-2.2v-1.6h2.2c0.7 0 1.3-0.6 1.3-1.3v-2.2h1.6v2.2c0 0.7 0.6 1.3 1.3 1.3h2.2v1.6z"/><path d="m33.2 65.3c-0.7 0-1.3 0.6-1.3 1.3s0.6 1.3 1.3 1.3 1.3-0.6 1.3-1.3-0.6-1.3-1.3-1.3z"/><path d="m48.8 29.1c-0.7 0-1.3 0.6-1.3 1.3s0.6 1.3 1.3 1.3 1.3-0.6 1.3-1.3-0.6-1.3-1.3-1.3z"/><path d="m40.9 29.1c-0.7 0-1.3 0.6-1.3 1.3s0.6 1.3 1.3 1.3 1.3-0.6 1.3-1.3-0.6-1.3-1.3-1.3z"/></svg>