<svg enable-background="new 0 0 90 90" version="1.1" viewBox="0 0 90 90" xml:space="preserve" xmlns="http://www.w3.org/2000/svg"><path d="m75.5 22c-11.1-11.1-28.6-12.7-41.5-3.7-0.7 0.5-0.9 1.5-0.4 2.2s1.5 0.9 2.2 0.4c3-2.1 6.3-3.5 9.6-4.4-0.6 0.8-1.2 1.6-1.8 2.6-2.2 3.9-3.9 9.2-4.8 15.3-0.1 0.9 0.5 1.6 1.3 1.8 0.9 0.1 1.6-0.5 1.8-1.3 0.2-1.3 0.4-2.5 0.7-3.8h19.7c0.8 3.8 1.3 8 1.4 12.3h-4.4c-0.9 0-1.6 0.7-1.6 1.6s0.7 1.6 1.6 1.6h4.4c-0.1 4.4-0.6 8.6-1.4 12.3h-7.7c-0.9 0-1.6 0.7-1.6 1.6s0.7 1.6 1.6 1.6h7c-0.4 1.5-0.9 2.9-1.5 4.2-2 4.8-4.5 7.7-7 8h-1.2c-4.4-0.7-8.6-8.9-10.1-20-0.1-0.9-0.9-1.5-1.8-1.3-0.9 0.1-1.5 0.9-1.3 1.8 0.9 6.4 2.5 11.9 4.8 15.9 0.6 1.1 1.2 2 1.9 2.8-3.7-0.9-7.2-2.5-10.4-4.9-0.7-0.5-1.7-0.4-2.2 0.3s-0.4 1.7 0.3 2.2c5.6 4.2 12.4 6.4 19.4 6.4 0.7 0 1.5 0 2.2-0.1 7.8-0.5 15.2-3.9 20.7-9.4 6.1-6.1 9.5-14.3 9.5-23s-3.3-16.8-9.4-23zm6.3 21.4h-15c-0.1-4.3-0.5-8.5-1.3-12.3h12.8c2.1 3.8 3.3 8 3.5 12.3zm-38.4-15.4c0.8-2.8 1.8-5.3 3-7.3 1.9-3.2 4-5 6.1-5 2.7 0 5.5 3 7.6 8.1 0.5 1.3 1 2.7 1.5 4.2h-18.2zm19.6-5.5c-1-2.4-2.2-4.5-3.5-6 5 1.3 9.8 3.9 13.7 7.8 1.2 1.2 2.2 2.4 3.2 3.7h-11.6c-0.5-2-1.1-3.8-1.8-5.5zm10.3 43.3c-3.9 3.9-8.6 6.4-13.7 7.7 1.3-1.6 2.4-3.6 3.4-6 0.7-1.7 1.3-3.5 1.8-5.4h11.6c-0.9 1.3-2 2.5-3.1 3.7zm-7.7-6.9c0.8-3.8 1.2-8 1.3-12.3h15c-0.2 4.4-1.4 8.6-3.4 12.3h-12.9z"/><path d="m53.7 44c-2.5-3.2-6.3-5.1-10.4-5.1h-5.7l-5.6-13.7c-0.2-0.6-0.8-1-1.4-1h-5.9c-0.9 0-1.6 0.7-1.6 1.6v13.2h-5.7l-4-4.8c-0.3-0.4-0.7-0.6-1.2-0.6h-5.6c-0.6 0-1.1 0.3-1.4 0.8s-0.3 1.1 0 1.6l5.2 9.1-5.2 9.1c-0.3 0.5-0.3 1.1 0 1.6s0.8 0.8 1.4 0.8h5.6c0.5 0 0.9-0.2 1.2-0.6l4-4.8h5.7v13.2c0 0.9 0.7 1.6 1.6 1.6h5.9c0.6 0 1.2-0.4 1.4-1l5.7-13.8h5.7c4 0 7.9-1.9 10.4-5.1 0.4-0.7 0.4-1.5-0.1-2.1zm-27.5-16.7h3.3l4.8 11.6h-8.1v-11.6zm3.3 35.4h-3.3v-11.6h8.1l-4.8 11.6zm13.9-14.8h-26.5-0.3c-0.4 0-0.8 0.2-1.1 0.6l-4 4.8h-2.2l4.3-7.5c0.3-0.5 0.3-1.1 0-1.5l-4.3-7.5h2.2l4 4.8c0.3 0.3 0.7 0.5 1.1 0.6h0.3 26.5c2.6 0 5.2 1.1 7 2.9-1.8 1.8-4.4 2.8-7 2.8z"/></svg>