<svg enable-background="new 0 0 90 90" version="1.1" viewBox="0 0 90 90" xml:space="preserve" xmlns="http://www.w3.org/2000/svg"><path d="m76.9 51.1s-8.8-4.8-10.5-5.7c-1.6-2.6-6.4-10.6-6.4-10.6-0.9-1.4-2.4-2.4-4.1-2.5h-0.3-21.1-0.1c-1.7 0.1-3.3 1.1-4.2 2.6 0 0-4.9 8.1-6.4 10.6-2.5 1.3-9.5 5.1-10.3 5.5-0.1 0-0.2 0.1-0.2 0.1-2.6 2-2.8 5.7-0.5 8 1.7 1.7 4.4 2.1 6.4 0.8 0.2-0.1 4.6-2.9 7.3-4.4 2-1.1 3.9-2.6 5.5-4.3 0.7-0.7 0.9-1 1.3-1.4v11.1l-11.6 5.7c-1.6 0.8-2.8 2.2-3.3 3.9s-0.3 3.5 0.5 5.1c1.2 2.1 3.3 3.4 5.8 3.4h41.1c2.4 0 4.5-1.2 5.7-3.3 0.9-1.5 1.1-3.4 0.6-5.1s-1.7-3.2-3.3-3.9l-11.8-5.8v-11.1c0.4 0.5 0.9 1 1.3 1.4 1.6 1.7 3.4 3.2 5.4 4.3 2.7 1.5 7.1 4.3 7.3 4.4 2.1 1.2 4.7 0.9 6.4-0.8 2.3-2.2 2.1-6-0.5-8zm-35.9-16.2h8v4c0 2.2-1.8 4-4 4s-4-1.8-4-4v-4zm-5.3 0h2.7v4c0 3.7 3 6.6 6.6 6.6 3.7 0 6.6-3 6.6-6.6v-4h2.7v25.5h-18.6v-25.5zm-5.9 14.5c-1.4 1.5-3 2.8-4.8 3.8-2.7 1.5-7.1 4.3-7.4 4.5-1 0.6-2.4 0.4-3.2-0.4-1.1-1.1-1.1-2.9 0.2-3.9 1.4-0.7 8.5-4.6 10.5-5.6 0.2-0.1 0.4-0.3 0.5-0.5 1.3-2.1 6.6-11 6.6-11 0.2-0.3 0.4-0.6 0.7-0.8v10.5c0.1-0.1-3.1 3.4-3.1 3.4zm11.2 26.9h-5.3c-1.5 0-2.7-1.2-2.7-2.7s1.2-2.7 2.7-2.7h5.3v5.4zm26.4-7.3c0.9 0.5 1.7 1.3 2 2.3s0.2 2.1-0.4 3c-0.7 1.2-2 2-3.4 2h-21.9v-5.3h6.6c0.7 0 1.3-0.6 1.3-1.3s-0.6-1.3-1.3-1.3h-14.6c-2.9 0-5.3 2.4-5.3 5.3 0 1 0.3 1.9 0.7 2.7h-6.7c-1.5 0-2.8-0.7-3.5-2-0.5-0.9-0.6-2-0.3-3s1-1.8 2-2.3l12.1-6h20.6l12.1 5.9zm8.2-11.8c-0.9 0.9-2.2 1-3.2 0.4-0.3-0.2-4.6-2.9-7.4-4.5-1.8-1-3.4-2.3-4.8-3.8-1-1.1-2.3-2.5-3.3-3.5v-10.4c0.3 0.2 0.5 0.5 0.7 0.8 0 0 5.4 8.9 6.6 11 0.1 0.2 0.3 0.4 0.5 0.5 2.1 1 9.2 5 10.5 5.6 1.4 1.1 1.4 2.9 0.4 3.9z"/><path d="m45 11c-5.1 0-9.3 4.2-9.3 9.3s4.2 9.3 9.3 9.3 9.3-4.2 9.3-9.3-4.2-9.3-9.3-9.3zm0 15.9c-3.7 0-6.6-3-6.6-6.6s3-6.6 6.6-6.6c3.7 0 6.6 3 6.6 6.6s-2.9 6.6-6.6 6.6z"/></svg>