<?xml version="1.0" encoding="UTF-8"?><svg viewBox="0 0 90 90" xmlns="http://www.w3.org/2000/svg"><path d="m64.32 64.92c-0.52 0.53-1.07 1-1.64 1.5h-0.05-0.05-0.05v0.05h-0.05-0.06l-0.11 0.08h-0.05-0.05-0.05-0.05-0.06-0.05l-0.1 0.06h-0.05l-0.09 0.07h-0.05-0.06-0.06-0.05l-0.11 0.08h-0.05-0.06-0.05l-0.11 0.07h-0.06-0.05-0.06-0.06-0.05l-0.1 0.06h-0.06-0.06-0.05-0.06-0.06l-1.49 2.11h-0.06l-0.11 0.06h-0.06-0.05-0.06-0.06-0.05-0.06-0.05-0.06l-0.17 0.09-0.26 0.14c-0.66 0.33-1.34 0.63-2 0.9h-0.06a25.16 25.16 0 0 1 -19.4 -0.53l-0.49 0.34-0.17-0.08h-0.06-0.05-0.06-0.05-0.07-0.06-0.06-0.05-0.06-0.05-0.05c-0.36-0.19-0.72-0.39-1.06-0.59s-0.8-0.49-1.19-0.75h-0.05c-0.22-0.14-0.42-0.29-0.63-0.44h-0.05l-0.15-0.11-0.31-0.22h-0.05-0.05-0.05-0.05-0.05-0.05-0.05l-0.15-0.12h-0.05-0.05l-0.16-0.14a25.36 25.36 0 0 1 -4.68 -5.18h5.74a20.62 20.62 0 0 0 32.72 -24.86h0.85 0.06 0.12 0.06 0.1 0.05l0.16-0.07 0.25-0.15h0.07l0.13-0.09 0.34-0.28 0.18-0.18 0.54-0.74a4.18 4.18 0 0 0 0.4 -0.68 25.12 25.12 0 0 1 -4.14 30.07m-1.89 8.73h-5.51v-2a26.14 26.14 0 0 0 5.87 -3.34zm-25.86 0h-5.52v-5.81a25.09 25.09 0 0 0 2.94 1.91 23.48 23.48 0 0 0 2.94 1.43zm-17.89-14.23v-3.64h29.29v3.64h-29.29zm46.39-23.71h-0.61a3.44 3.44 0 0 1 -2.35 -1 3.51 3.51 0 0 1 -1 -2.11v-0.09a3.41 3.41 0 0 1 3.43 -3.43h0.3a3.39 3.39 0 0 1 2.12 1 4.12 4.12 0 0 1 0.28 0.31 3.44 3.44 0 0 1 0.71 2.09 3.3 3.3 0 0 1 -0.29 1.37v0.05 0.06a3.49 3.49 0 0 1 -1.59 1.4h-0.11-0.1-0.05-0.53zm-16.71 12.58l-2.84-2.84-6.56-6.56-2.84-2.84 19.83-19.81 2.83 2.83 6.58 6.57 2.83 2.83-0.39 0.39a4.81 4.81 0 0 0 -2.73 -1.26h-0.52a4.66 4.66 0 0 0 -3.35 1.39 4.74 4.74 0 0 0 -1.39 3.36v0.49a4.68 4.68 0 0 0 1.26 2.74zm-6.69 0.08l-5.61-5.63 2.44-2.44 5.63 5.62zm21-32.21 5.62 5.62l-2.48 2.45-5.62-5.62zm9.62 23.07a26 26 0 0 0 -3 -6.65 2.09 2.09 0 0 0 0 -0.25 4.75 4.75 0 0 0 -0.66 -2.43l1-1a0.67 0.67 0 0 0 0 -0.93l-2.84-2.84 2.92-2.92a0.67 0.67 0 0 0 0 -0.93l-6.56-6.57a0.68 0.68 0 0 0 -0.94 0l-2.92 2.92-2.84-2.83a0.64 0.64 0 0 0 -0.93 0l-20.79 20.79a0.65 0.65 0 0 0 0 0.93l2.84 2.84-2.92 2.92a0.65 0.65 0 0 0 0 0.93l6.56 6.56a0.66 0.66 0 0 0 0.94 0l2.92-2.92 2.83 2.84a0.66 0.66 0 0 0 0.94 0l13.27-13.28a4.65 4.65 0 0 0 1.49 0.57 19.11 19.11 0 0 1 1.92 4.55 19.57 19.57 0 0 1 0.7 5.18 19.29 19.29 0 0 1 -32.52 14.04h14.93a0.67 0.67 0 0 0 0.66 -0.66v-5a0.67 0.67 0 0 0 -0.66 -0.67h-30.61a0.67 0.67 0 0 0 -0.66 0.67v5a0.67 0.67 0 0 0 0.66 0.66h6.51a26.71 26.71 0 0 0 5.19 6v7.07a0.67 0.67 0 0 0 0.64 0.71h7.2a0.66 0.66 0 0 0 0.66 -0.66v-2.19a26.47 26.47 0 0 0 17.34 0v2.16a0.67 0.67 0 0 0 0.66 0.66h7.2a0.67 0.67 0 0 0 0.67 -0.66v-7.06c0.51-0.45 1-0.91 1.49-1.39a26.46 26.46 0 0 0 6.71 -26.16" /></svg>
