<svg enable-background="new 0 0 90 90" version="1.1" viewBox="0 0 90 90" xml:space="preserve" xmlns="http://www.w3.org/2000/svg"><path d="m69.1 81.9h-48.2c-3.3 0-5.9-2.6-5.9-5.8v-47.4c0-2 0.8-4 2.2-5.4l13-13c1.4-1.4 3.4-2.2 5.4-2.2h33.4c3.3 0 5.9 2.6 5.9 5.8v62.3c0.1 3.1-2.6 5.7-5.8 5.7zm1.3-68.1c0-0.6-0.6-1.2-1.3-1.2h-33.4c-0.8 0-1.6 0.3-2.1 0.9l-13 13c-0.6 0.6-0.9 1.3-0.9 2.1v47.4c0 0.6 0.6 1.2 1.3 1.2h48.2c0.7 0 1.3-0.5 1.3-1.2v-62.2zm-11.6 56.6h-27.6c-1.3 0-2.3-1-2.3-2.3s1-2.3 2.3-2.3h27.7c1.3 0 2.3 1 2.3 2.3s-1.1 2.3-2.4 2.3zm-12.2-9.9c-0.2 0.2-0.5 0.4-0.8 0.5s-0.6 0.2-0.9 0.2-0.6-0.1-0.9-0.2-0.5-0.3-0.8-0.5l-9.2-9.2c-0.9-0.9-0.9-2.4 0-3.3s2.4-0.9 3.3 0l5.3 5.3v-17.5c0-1.3 1-2.3 2.3-2.3s2.3 1 2.3 2.3v17.5l5.3-5.3c0.9-0.9 2.4-0.9 3.3 0s0.9 2.4 0 3.3l-9.2 9.2zm-14.3-29.3h-8.1c-1.3 0-2.3-1-2.3-2.3s1-2.3 2.3-2.3h8.1c0.6 0 1.2-0.5 1.2-1.2v-8.1c0-1.3 1-2.3 2.3-2.3s2.3 1 2.3 2.3v8.1c0 3.2-2.6 5.8-5.8 5.8z"/></svg>