<?xml version="1.0" encoding="UTF-8"?><svg enable-background="new 0 0 90 90" version="1.1" viewBox="0 0 90 90" xml:space="preserve" xmlns="http://www.w3.org/2000/svg"><path class="st0" d="m83.6 44.5c-4.2 6.4-10 11.7-16.7 15.3-6.5 3.5-14 5.5-21.9 5.5s-15.4-2-21.9-5.5c-6.8-3.6-12.5-8.9-16.7-15.3-0.1-0.2-0.3-0.3-0.5-0.4 4.2-5.4 9.5-10 15.5-13.3 4-2.2 8.2-3.9 12.8-4.9-1.3 0.8-2.5 1.8-3.6 2.9-3.7 3.7-5.9 8.7-5.9 14.3s2.3 10.6 5.9 14.3c3.7 3.7 8.7 5.9 14.3 5.9s10.6-2.3 14.3-5.9c3.7-3.7 5.9-8.7 5.9-14.3s-2.3-10.6-5.9-14.3c-1.1-1.1-2.4-2.1-3.8-3 4.7 1 9.2 2.7 13.4 5 6 3.3 11.2 7.9 15.5 13.3-0.4 0.1-0.6 0.2-0.7 0.4m-39.1-19.8h0.4c5 0 9.6 2.1 12.9 5.4s5.4 7.9 5.4 13-2.1 9.7-5.4 13-7.9 5.4-13 5.4-9.7-2.1-13-5.4-5.4-7.9-5.4-13 2.1-9.7 5.4-13 7.7-5.3 12.7-5.4m43.8 22.2c-4.7-7.4-11.2-13.4-18.7-17.6-7.3-4.1-15.7-6.4-24.5-6.4h-0.2-0.3c-8.7 0.1-16.8 2.4-24 6.3-7.6 4.2-14 10.3-18.7 17.6-0.3 0.4-0.1 1 0.3 1.3s1 0.1 1.3-0.3c0.5-0.8 1-1.6 1.6-2.3 4.4 6.6 10.4 12.1 17.4 15.9 6.8 3.7 14.5 5.7 22.8 5.7 8.2 0 16-2.1 22.8-5.7 7-3.8 13-9.3 17.4-15.9 0.5 0.8 1.1 1.5 1.6 2.3 0.3 0.4 0.8 0.5 1.3 0.3 0-0.2 0.1-0.8-0.1-1.2"/></svg>
