<svg enable-background="new 0 0 90 90" version="1.1" viewBox="0 0 90 90" xml:space="preserve" xmlns="http://www.w3.org/2000/svg"><style type="text/css">.icon-grupo-equipesuporte{fill:none;stroke:#000000;stroke-width:3;stroke-miterlimit:10;}</style><polyline class="icon-grupo-equipesuporte" points="52.2 46.1 79.2 46.1 79.2 75.4 11.2 75.4 11.2 46.1 38.1 46.1"/><rect class="icon-grupo-equipesuporte" x="53.4" y="20.3" width="25.8" height="16.4"/><line class="icon-grupo-equipesuporte" x1="66.3" x2="66.3" y1="42.6" y2="36.7"/><rect class="icon-grupo-equipesuporte" x="56.9" y="41.4" width="18.8" height="4.7"/><path class="icon-grupo-equipesuporte" d="m14.7 46.1l-1.2-11.6c0-3.3 2.7-6 6-6h9.2c3.3 0 6 2.7 6 6l-1.2 11.6"/><path class="icon-grupo-equipesuporte" d="m28.7 19.2c0 2.6-1.2 5.9-4.7 5.9s-4.7-3.3-4.7-5.9 2.1-4.7 4.7-4.7 4.7 2.1 4.7 4.7z"/><line class="icon-grupo-equipesuporte" x1="19.4" x2="19.4" y1="34.4" y2="44.9"/><line class="icon-grupo-equipesuporte" x1="28.7" x2="28.7" y1="34.4" y2="44.9"/><circle class="icon-grupo-equipesuporte" cx="45.2" cy="46.1" r="7"/><line class="icon-grupo-equipesuporte" x1="45.2" x2="45.2" y1="42.6" y2="49.6"/><line class="icon-grupo-equipesuporte" x1="41.6" x2="48.7" y1="46.1" y2="46.1"/><line class="icon-grupo-equipesuporte" x1="14.7" x2="75.6" y1="68.4" y2="68.4"/></svg>