<svg enable-background="new 0 0 90 90" version="1.1" viewBox="0 0 90 90" xml:space="preserve" xmlns="http://www.w3.org/2000/svg"><style type="text/css">.icon-programas-grupobariatrica{stroke-width:3;stroke-miterlimit:10;}</style><polyline class="icon-programas-grupobariatrica" points="58 49.6 66.8 40.8 66.8 36.4 44.8 36.4 22.8 36.4 22.8 40.8 31.6 49.6"/><line class="icon-programas-grupobariatrica" x1="31.6" x2="31.6" y1="54" y2="42.3"/><line class="icon-programas-grupobariatrica" x1="58" x2="58" y1="54" y2="42.3"/><path class="icon-programas-grupobariatrica" d="M56.5,36.4v-5.9c0-3.6-8.9-5.9-11.7-5.9C42,24.7,33,27,33,30.6v5.9"/><path class="icon-programas-grupobariatrica" d="m44.8 24.7c3.4 0 5.9-2.5 5.9-5.7v-1.9c0-3.1-2.5-5.7-5.9-5.7s-5.9 2.5-5.9 5.7v1.9c0 3.2 2.5 5.7 5.9 5.7z"/><path class="icon-programas-grupobariatrica" d="m74.1 77.5v-2.8c0-4.1-3.2-7.5-7.3-7.5v-1.5c0-4.1-3.2-7.5-7.3-7.5s-7.3 3.4-7.3 7.5c0-4.1-3.2-7.5-7.3-7.5s-7.3 3.4-7.3 7.5c0-4.1-3.2-7.5-7.3-7.5s-7.3 3.4-7.3 7.5v1.5c-4.1 0-7.3 3.4-7.3 7.5v2.8"/><path class="icon-programas-grupobariatrica" d="m30.1 77.5v-2.8c0-4.1-3.2-7.5-7.3-7.5"/><path class="icon-programas-grupobariatrica" d="m44.8 77.5v-2.8c0-4.1-3.2-7.5-7.3-7.5s-7.3 3.4-7.3 7.5v2.8"/><path class="icon-programas-grupobariatrica" d="m59.4 77.5v-2.8c0-4.1-3.2-7.5-7.3-7.5s-7.3 3.4-7.3 7.5v2.8"/><path class="icon-programas-grupobariatrica" d="m66.8 67.2c-4.1 0-7.3 3.4-7.3 7.5v2.8"/><line class="icon-programas-grupobariatrica" x1="11" x2="80" y1="77.5" y2="77.5"/></svg>