<svg enable-background="new 0 0 90 90" version="1.1" viewBox="0 0 90 90" xml:space="preserve" xmlns="http://www.w3.org/2000/svg"><path d="m34.5 54.2c-0.7 0-1.3 0.6-1.3 1.3s0.6 1.3 1.3 1.3 1.3-0.6 1.3-1.3-0.6-1.3-1.3-1.3z"/><path d="m66.1 16.6h-14.6c-0.6-3-3.3-5.3-6.4-5.3s-5.8 2.3-6.4 5.3h-14.6c-2.2 0-3.9 1.8-3.9 3.9v54.2c0 2.2 1.8 3.9 3.9 3.9h42.1c2.2 0 3.9-1.8 3.9-3.9v-54.2c-0.1-2.2-1.9-3.9-4-3.9zm-30.3 2.6h3.9c0.7 0 1.3-0.6 1.3-1.3 0-2.2 1.8-3.9 3.9-3.9s3.9 1.8 3.9 3.9c0 0.7 0.6 1.3 1.3 1.3h3.9v2.6h-18.2v-2.6zm26.3 5.3v46.3h-34.2v-46.3h34.2zm5.3 50.2c0 0.7-0.6 1.3-1.3 1.3h-42.2c-0.7 0-1.3-0.6-1.3-1.3v-54.2c0-0.7 0.6-1.3 1.3-1.3h9.2v2.6h-6.6c-0.7 0-1.3 0.6-1.3 1.3v48.9c0 0.7 0.6 1.3 1.3 1.3h36.8c0.7 0 1.3-0.6 1.3-1.3v-48.8c0-0.7-0.6-1.3-1.3-1.3h-6.6v-2.6h9.2c0.7 0 1.3 0.6 1.3 1.3v54.1z"/><path d="m55.5 62.1h-21c-0.7 0-1.3 0.6-1.3 1.3s0.6 1.3 1.3 1.3h21.1c0.7 0 1.3-0.6 1.3-1.3s-0.6-1.3-1.4-1.3z"/><path d="m55.5 54.2h-15.8c-0.7 0-1.3 0.6-1.3 1.3s0.6 1.3 1.3 1.3h15.8c0.7 0 1.3-0.6 1.3-1.3s-0.5-1.3-1.3-1.3z"/><path d="m45 30.5c-5.1 0-9.2 4.1-9.2 9.2s4.1 9.2 9.2 9.2 9.2-4.1 9.2-9.2-4.1-9.2-9.2-9.2zm0 15.8c-3.6 0-6.6-3-6.6-6.6s3-6.6 6.6-6.6 6.6 3 6.6 6.6-3 6.6-6.6 6.6z"/><path d="m47.6 38.4h-1.3v-1.3c0-0.7-0.6-1.3-1.3-1.3s-1.3 0.6-1.3 1.3v1.3h-1.3c-0.7 0-1.3 0.6-1.3 1.3s0.6 1.3 1.3 1.3h1.3v1.3c0 0.7 0.6 1.3 1.3 1.3s1.3-0.6 1.3-1.3v-1.3h1.3c0.7 0 1.3-0.6 1.3-1.3s-0.5-1.3-1.3-1.3z"/></svg>
