<svg enable-background="new 0 0 64.1 64.1" version="1.1" viewBox="0 0 64.1 64.1" xml:space="preserve" xmlns="http://www.w3.org/2000/svg"><polygon class="icon-servico-relatorio" points="29.2 17.9 46.6 17.9 46.6 50.8 23.4 50.8 23.4 23.7"/><line class="icon-servico-relatorio" x1="23.4" x2="29.2" y1="23.7" y2="17.9"/><polyline class="icon-servico-relatorio" points="29.2 17.9 29.2 23.7 23.4 23.7"/><line class="icon-servico-relatorio" x1="33.4" x2="43.1" y1="24.2" y2="24.2"/><line class="icon-servico-relatorio" x1="26.9" x2="43.1" y1="28.2" y2="28.2"/><line class="icon-servico-relatorio" x1="26.9" x2="43.1" y1="32.3" y2="32.3"/><line class="icon-servico-relatorio" x1="26.9" x2="43.1" y1="36.4" y2="36.4"/><line class="icon-servico-relatorio" x1="26.9" x2="43.1" y1="40.5" y2="40.5"/><line class="icon-servico-relatorio" x1="26.9" x2="43.1" y1="44.6" y2="44.6"/><polyline class="icon-servico-relatorio" points="19.8 46.1 17.5 46.1 17.5 13.2 40.8 13.2 40.8 14.9"/><path class="icon-servico-relatorio" d="M3.8,44.3c4.7,10.9,15.6,18.5,28.3,18.5c17,0,30.8-13.8,30.8-30.8S49.1,1.2,32.1,1.2C19.3,1.2,8.4,9,3.7,20    l6.4-2"/><line class="icon-servico-relatorio" x1="3.7" x2="1.3" y1="20" y2="13.9"/></svg>